<svg width="308" height="165" viewBox="0 0 308 165" fill="none" xmlns="http://www.w3.org/2000/svg">
<path d="M0 0H308V165H0V0Z" fill="#1E293B"/>
<g clip-path="url(#clip0_345_303)">
<rect x="80" y="32" width="144" height="153" rx="16.9412" fill="white" fill-opacity="0.1"/>
<rect x="80.5" y="32.5" width="143" height="152" rx="16.4412" stroke="#E4E4E7" stroke-opacity="0.1"/>
<rect x="92.4863" y="44.5479" width="118.904" height="54.0474" rx="5.40474" fill="black" fill-opacity="0.3"/>
<rect x="103.295" y="69.7704" width="97.2853" height="23.4205" rx="5.40474" fill="black"/>
<rect x="104.045" y="70.5204" width="95.7853" height="21.9205" rx="4.65474" stroke="#5DC5EE" stroke-opacity="0.8" stroke-width="1.5"/>
<path d="M114.801 85.7704H113.332L116.632 76.5987H118.231L121.532 85.7704H120.063L117.47 78.2647H117.398L114.801 85.7704ZM115.047 82.1787H119.812V83.3431H115.047V82.1787ZM124.751 85.9226C124.315 85.9226 123.921 85.842 123.568 85.6808C123.216 85.5166 122.937 85.2793 122.731 84.9688C122.528 84.6583 122.426 84.2776 122.426 83.8268C122.426 83.4387 122.501 83.1192 122.65 82.8684C122.8 82.6176 123.001 82.4191 123.255 82.2728C123.509 82.1265 123.792 82.016 124.106 81.9414C124.419 81.8667 124.739 81.81 125.064 81.7712C125.476 81.7234 125.81 81.6846 126.067 81.6548C126.324 81.6219 126.511 81.5697 126.627 81.498C126.743 81.4264 126.802 81.3099 126.802 81.1487V81.1174C126.802 80.7263 126.691 80.4232 126.47 80.2083C126.252 79.9933 125.927 79.8858 125.494 79.8858C125.043 79.8858 124.688 79.9858 124.428 80.1859C124.171 80.3829 123.994 80.6024 123.895 80.8442L122.637 80.5576C122.786 80.1396 123.004 79.8022 123.291 79.5455C123.58 79.2857 123.913 79.0976 124.289 78.9812C124.666 78.8618 125.061 78.8021 125.476 78.8021C125.751 78.8021 126.042 78.8349 126.349 78.9006C126.66 78.9633 126.949 79.0797 127.218 79.2499C127.49 79.4201 127.712 79.6634 127.885 79.9799C128.059 80.2934 128.145 80.7009 128.145 81.2025V85.7704H126.838V84.8299H126.784C126.697 85.0031 126.567 85.1733 126.394 85.3405C126.221 85.5077 125.999 85.6465 125.727 85.757C125.455 85.8674 125.13 85.9226 124.751 85.9226ZM125.042 84.8478C125.412 84.8478 125.728 84.7747 125.991 84.6284C126.257 84.4821 126.458 84.291 126.596 84.0552C126.736 83.8163 126.806 83.5611 126.806 83.2894V82.4027C126.758 82.4504 126.666 82.4952 126.529 82.537C126.394 82.5758 126.24 82.6102 126.067 82.64C125.894 82.6669 125.725 82.6923 125.561 82.7161C125.397 82.737 125.26 82.755 125.149 82.7699C124.889 82.8027 124.652 82.858 124.437 82.9356C124.225 83.0132 124.055 83.1252 123.927 83.2715C123.801 83.4148 123.739 83.6058 123.739 83.8447C123.739 84.1761 123.861 84.4269 124.106 84.5971C124.351 84.7642 124.663 84.8478 125.042 84.8478Z" fill="white" fill-opacity="0.7"/>
<path d="M135.125 73.643V88.7261H133.925V73.643H135.125Z" fill="white"/>
<path d="M127.244 63.3496V54.1779H132.994V55.3692H128.628V58.1637H132.694V59.3504H128.628V62.1584H133.048V63.3496H127.244ZM136.074 59.2653V63.3496H134.735V56.4708H136.02V57.5904H136.105C136.264 57.2262 136.511 56.9336 136.849 56.7127C137.189 56.4917 137.618 56.3813 138.134 56.3813C138.603 56.3813 139.013 56.4798 139.366 56.6769C139.718 56.8709 139.991 57.1605 140.185 57.5457C140.379 57.9308 140.476 58.407 140.476 58.9743V63.3496H139.137V59.1355C139.137 58.6369 139.007 58.2473 138.748 57.9666C138.488 57.683 138.131 57.5412 137.677 57.5412C137.367 57.5412 137.091 57.6084 136.849 57.7427C136.61 57.8771 136.42 58.0741 136.28 58.3338C136.143 58.5906 136.074 58.9011 136.074 59.2653ZM145.483 56.4708V57.5457H141.726V56.4708H145.483ZM142.733 54.8228H144.072V61.3299C144.072 61.5896 144.111 61.7852 144.189 61.9165C144.266 62.0449 144.366 62.133 144.489 62.1808C144.614 62.2255 144.75 62.2479 144.896 62.2479C145.004 62.2479 145.098 62.2405 145.178 62.2255C145.259 62.2106 145.322 62.1987 145.367 62.1897L145.608 63.2959C145.531 63.3257 145.42 63.3556 145.277 63.3854C145.134 63.4183 144.955 63.4362 144.74 63.4392C144.387 63.4451 144.059 63.3825 143.754 63.2511C143.45 63.1197 143.204 62.9167 143.015 62.642C142.827 62.3674 142.733 62.0225 142.733 61.6075V54.8228ZM149.855 63.4884C149.177 63.4884 148.594 63.3436 148.104 63.054C147.617 62.7615 147.241 62.3509 146.975 61.8225C146.713 61.2911 146.581 60.6686 146.581 59.955C146.581 59.2504 146.713 58.6294 146.975 58.092C147.241 57.5546 147.611 57.1351 148.086 56.8336C148.564 56.5321 149.122 56.3813 149.761 56.3813C150.149 56.3813 150.525 56.4455 150.89 56.5739C151.254 56.7022 151.581 56.9038 151.87 57.1784C152.16 57.4531 152.388 57.8099 152.555 58.2488C152.723 58.6847 152.806 59.2146 152.806 59.8386V60.3133H147.338V59.3101H151.494C151.494 58.9578 151.422 58.6458 151.279 58.3742C151.136 58.0995 150.934 57.883 150.675 57.7248C150.418 57.5666 150.116 57.4874 149.77 57.4874C149.394 57.4874 149.065 57.58 148.785 57.7651C148.507 57.9472 148.292 58.1861 148.14 58.4816C147.991 58.7742 147.916 59.0922 147.916 59.4355V60.2192C147.916 60.679 147.996 61.0701 148.158 61.3926C148.322 61.715 148.55 61.9613 148.843 62.1315C149.135 62.2987 149.477 62.3823 149.868 62.3823C150.122 62.3823 150.354 62.3465 150.563 62.2748C150.772 62.2002 150.952 62.0897 151.104 61.9434C151.257 61.7971 151.373 61.6165 151.454 61.4015L152.721 61.6299C152.62 62.0031 152.438 62.33 152.175 62.6107C151.915 62.8883 151.588 63.1048 151.194 63.26C150.803 63.4123 150.357 63.4884 149.855 63.4884ZM154.292 63.3496V56.4708H155.586V57.5636H155.658C155.783 57.1934 156.004 56.9023 156.321 56.6903C156.64 56.4753 157.001 56.3678 157.404 56.3678C157.488 56.3678 157.587 56.3708 157.7 56.3768C157.816 56.3828 157.907 56.3902 157.973 56.3992V57.68C157.919 57.6651 157.824 57.6487 157.687 57.6307C157.549 57.6098 157.412 57.5994 157.275 57.5994C156.958 57.5994 156.676 57.6666 156.428 57.8009C156.183 57.9323 155.989 58.1159 155.846 58.3518C155.703 58.5846 155.631 58.8504 155.631 59.1489V63.3496H154.292ZM163.961 54.1779V63.3496H162.577V54.1779H163.961ZM168.945 63.3496H165.976V54.1779H169.039C169.938 54.1779 170.71 54.3615 171.354 54.7288C171.999 55.093 172.493 55.617 172.837 56.3007C173.183 56.9814 173.356 57.7979 173.356 58.7503C173.356 59.7057 173.182 60.5267 172.832 61.2134C172.486 61.9001 171.984 62.4286 171.328 62.7988C170.671 63.166 169.877 63.3496 168.945 63.3496ZM167.36 62.1405H168.869C169.568 62.1405 170.148 62.0091 170.611 61.7464C171.074 61.4806 171.42 61.097 171.65 60.5954C171.88 60.0909 171.995 59.4758 171.995 58.7503C171.995 58.0308 171.88 57.4203 171.65 56.9187C171.423 56.4171 171.084 56.0364 170.633 55.7767C170.183 55.517 169.623 55.3871 168.954 55.3871H167.36V62.1405ZM175.852 62.2121C175.607 62.2121 175.397 62.1255 175.22 61.9524C175.044 61.7762 174.956 61.5642 174.956 61.3164C174.956 61.0716 175.044 60.8626 175.22 60.6895C175.397 60.5133 175.607 60.4252 175.852 60.4252C176.097 60.4252 176.307 60.5133 176.483 60.6895C176.659 60.8626 176.748 61.0716 176.748 61.3164C176.748 61.4806 176.706 61.6314 176.622 61.7687C176.542 61.9031 176.434 62.0106 176.3 62.0912C176.165 62.1718 176.016 62.2121 175.852 62.2121ZM175.852 57.6173C175.607 57.6173 175.397 57.5307 175.22 57.3576C175.044 57.1814 174.956 56.9694 174.956 56.7216C174.956 56.4768 175.044 56.2678 175.22 56.0947C175.397 55.9185 175.607 55.8304 175.852 55.8304C176.097 55.8304 176.307 55.9185 176.483 56.0947C176.659 56.2678 176.748 56.4768 176.748 56.7216C176.748 56.8858 176.706 57.0366 176.622 57.174C176.542 57.3083 176.434 57.4158 176.3 57.4964C176.165 57.577 176.016 57.6173 175.852 57.6173Z" fill="white" fill-opacity="0.7"/>
<g clip-path="url(#clip1_345_303)">
<path d="M134.952 125.688C134.952 125.688 134.1 125.071 135.123 124.248L137.507 122.111C137.507 122.111 138.19 121.39 138.911 122.018L160.918 138.719V146.728C160.918 146.728 160.907 147.985 159.297 147.847L134.952 125.688Z" fill="#2489CA"/>
<path d="M140.625 130.849L134.952 136.018C134.952 136.018 134.37 136.452 134.952 137.23L137.586 139.63C137.586 139.63 138.212 140.304 139.137 139.538L145.149 134.967L140.625 130.849Z" fill="#1070B3"/>
<path d="M150.583 130.892L160.985 122.93L160.918 114.965C160.918 114.965 160.473 113.226 158.991 114.132L145.148 126.76L150.583 130.892Z" fill="#0877B9"/>
<path d="M159.298 147.857C159.901 148.477 160.634 148.273 160.634 148.273L168.74 144.27C169.778 143.561 169.633 142.681 169.633 142.681V118.769C169.633 117.718 168.56 117.355 168.56 117.355L161.533 113.96C159.998 113.009 158.992 114.132 158.992 114.132C158.992 114.132 160.285 113.198 160.918 114.965V146.582C160.918 146.799 160.872 147.012 160.78 147.205C160.595 147.58 160.193 147.928 159.231 147.782L159.298 147.857Z" fill="#3C99D4"/>
</g>
</g>
<defs>
<clipPath id="clip0_345_303">
<rect width="144" height="133" fill="white" transform="translate(80 32)"/>
</clipPath>
<clipPath id="clip1_345_303">
<rect width="36.0316" height="36.0316" fill="white" transform="translate(133.924 113.008)"/>
</clipPath>
</defs>
</svg>
