<svg width="268" height="123" viewBox="0 0 268 123" fill="none" xmlns="http://www.w3.org/2000/svg">
<g clip-path="url(#clip0_565_10706)">
<rect width="268" height="123" fill="#CEE9F0"/>
<rect x="21" y="22" width="36" height="36" rx="9" fill="#E7F4F8"/>
<path d="M37 46C37 46.5304 37.2107 47.0391 37.5858 47.4142C37.9609 47.7893 38.4696 48 39 48C39.5304 48 40.0391 47.7893 40.4142 47.4142C40.7893 47.0391 41 46.5304 41 46C41 45.4696 40.7893 44.9609 40.4142 44.5858C40.0391 44.2107 39.5304 44 39 44C38.4696 44 37.9609 44.2107 37.5858 44.5858C37.2107 44.9609 37 45.4696 37 46ZM32 34C32 34.5304 32.2107 35.0391 32.5858 35.4142C32.9609 35.7893 33.4696 36 34 36C34.5304 36 35.0391 35.7893 35.4142 35.4142C35.7893 35.0391 36 34.5304 36 34C36 33.4696 35.7893 32.9609 35.4142 32.5858C35.0391 32.2107 34.5304 32 34 32C33.4696 32 32.9609 32.2107 32.5858 32.5858C32.2107 32.9609 32 33.4696 32 34ZM42 34C42 34.5304 42.2107 35.0391 42.5858 35.4142C42.9609 35.7893 43.4696 36 44 36C44.5304 36 45.0391 35.7893 45.4142 35.4142C45.7893 35.0391 46 34.5304 46 34C46 33.4696 45.7893 32.9609 45.4142 32.5858C45.0391 32.2107 44.5304 32 44 32C43.4696 32 42.9609 32.2107 42.5858 32.5858C42.2107 32.9609 42 33.4696 42 34Z" stroke="#94A3B8" stroke-width="2" stroke-linecap="round" stroke-linejoin="round"/>
<path d="M34 36V38C34 38.5304 34.2107 39.0391 34.5858 39.4142C34.9609 39.7893 35.4696 40 36 40H42C42.5304 40 43.0391 39.7893 43.4142 39.4142C43.7893 39.0391 44 38.5304 44 38V36M39 40V44" stroke="#94A3B8" stroke-width="2" stroke-linecap="round" stroke-linejoin="round"/>
<rect x="188" y="67" width="36" height="36" rx="9" fill="#E7F4F8"/>
<path d="M206 88C205.204 88 204.441 87.6839 203.879 87.1213C203.316 86.5587 203 85.7956 203 85C203 84.2044 203.316 83.4413 203.879 82.8787C204.441 82.3161 205.204 82 206 82M206 88C206.796 88 207.559 87.6839 208.121 87.1213C208.684 86.5587 209 85.7956 209 85C209 84.2044 208.684 83.4413 208.121 82.8787C207.559 82.3161 206.796 82 206 82M206 88V94M206 82V76" stroke="#94A3B8" stroke-width="2" stroke-linecap="round" stroke-linejoin="round"/>
<rect x="212" y="22" width="36" height="36" rx="9" fill="#E7F4F8"/>
<path d="M230 32V42M230 32L234 36M230 32L226 36M222 48H238" stroke="#94A3B8" stroke-width="2" stroke-linecap="round" stroke-linejoin="round"/>
<rect x="44" y="67" width="36" height="36" rx="9" fill="#E7F4F8"/>
<path d="M56 89.5C56.5304 89.5 57.0391 89.7107 57.4142 90.0858C57.7893 90.4609 58 90.9696 58 91.5C58 92.0304 57.7893 92.5391 57.4142 92.9142C57.0391 93.2893 56.5304 93.5 56 93.5C55.4696 93.5 54.9609 93.2893 54.5858 92.9142C54.2107 92.5391 54 92.0304 54 91.5C54 90.9696 54.2107 90.4609 54.5858 90.0858C54.9609 89.7107 55.4696 89.5 56 89.5ZM56 89.5V81.5M56 81.5C55.4696 81.5 54.9609 81.2893 54.5858 80.9142C54.2107 80.5391 54 80.0304 54 79.5C54 78.9696 54.2107 78.4609 54.5858 78.0858C54.9609 77.7107 55.4696 77.5 56 77.5C56.5304 77.5 57.0391 77.7107 57.4142 78.0858C57.7893 78.4609 58 78.9696 58 79.5C58 80.0304 57.7893 80.5391 57.4142 80.9142C57.0391 81.2893 56.5304 81.5 56 81.5ZM66 91.5C66 92.0304 66.2107 92.5391 66.5858 92.9142C66.9609 93.2893 67.4696 93.5 68 93.5C68.5304 93.5 69.0391 93.2893 69.4142 92.9142C69.7893 92.5391 70 92.0304 70 91.5C70 90.9696 69.7893 90.4609 69.4142 90.0858C69.0391 89.7107 68.5304 89.5 68 89.5C67.4696 89.5 66.9609 89.7107 66.5858 90.0858C66.2107 90.4609 66 90.9696 66 91.5Z" stroke="#94A3B8" stroke-width="2" stroke-linecap="round" stroke-linejoin="round"/>
<path d="M61 79.5H66C66.5304 79.5 67.0391 79.7107 67.4142 80.0858C67.7893 80.4609 68 80.9696 68 81.5V89.5" stroke="#94A3B8" stroke-width="2" stroke-linecap="round" stroke-linejoin="round"/>
<path d="M64 82.5L61 79.5L64 76.5" stroke="#94A3B8" stroke-width="2" stroke-linecap="round" stroke-linejoin="round"/>
<g filter="url(#filter0_d_565_10706)">
<rect x="100" y="24" width="67.4381" height="67.4381" rx="8" fill="white" shape-rendering="crispEdges"/>
<g clip-path="url(#clip1_565_10706)">
<path fill-rule="evenodd" clip-rule="evenodd" d="M133.717 36.5352C121.725 36.5352 112 46.2592 112 58.2552C112 67.8499 118.223 75.9912 126.853 78.8645C127.94 79.0633 128.336 78.3925 128.336 77.8165C128.336 77.3005 128.317 75.9352 128.306 74.1232C122.264 75.4352 120.99 71.2112 120.99 71.2112C120.002 68.7019 118.578 68.0339 118.578 68.0339C116.606 66.6872 118.727 66.7138 118.727 66.7138C120.907 66.8673 122.054 68.9525 122.054 68.9525C123.991 72.2711 127.138 71.3126 128.375 70.7566C128.572 69.3539 129.134 68.3965 129.754 67.8539C124.931 67.3045 119.86 65.4419 119.86 57.1192C119.86 54.7472 120.707 52.8099 122.096 51.2912C121.872 50.7419 121.127 48.5338 122.31 45.5431C122.31 45.5431 124.133 44.9592 128.282 47.7685C130.014 47.2872 131.873 47.0472 133.719 47.0379C135.565 47.0454 137.422 47.2873 139.157 47.7685C143.303 44.9592 145.123 45.5431 145.123 45.5431C146.309 48.5338 145.563 50.7419 145.341 51.2912C146.733 52.8099 147.573 54.7472 147.573 57.1192C147.573 65.4632 142.494 67.2991 137.657 67.8364C138.435 68.5071 139.13 69.8325 139.13 71.8592C139.13 74.7619 139.103 77.1045 139.103 77.8165C139.103 78.3979 139.495 79.0739 140.597 78.8619C149.221 75.9832 155.438 67.8486 155.438 58.2552C155.438 46.2592 145.713 36.5352 133.717 36.5352Z" fill="#1E293B"/>
</g>
</g>
</g>
<defs>
<filter id="filter0_d_565_10706" x="83.3333" y="14" width="100.771" height="100.771" filterUnits="userSpaceOnUse" color-interpolation-filters="sRGB">
<feFlood flood-opacity="0" result="BackgroundImageFix"/>
<feColorMatrix in="SourceAlpha" type="matrix" values="0 0 0 0 0 0 0 0 0 0 0 0 0 0 0 0 0 0 127 0" result="hardAlpha"/>
<feOffset dy="6.66667"/>
<feGaussianBlur stdDeviation="8.33333"/>
<feComposite in2="hardAlpha" operator="out"/>
<feColorMatrix type="matrix" values="0 0 0 0 0 0 0 0 0 0 0 0 0 0 0 0 0 0 0.05 0"/>
<feBlend mode="normal" in2="BackgroundImageFix" result="effect1_dropShadow_565_10706"/>
<feBlend mode="normal" in="SourceGraphic" in2="effect1_dropShadow_565_10706" result="shape"/>
</filter>
<clipPath id="clip0_565_10706">
<rect width="268" height="123" fill="white"/>
</clipPath>
<clipPath id="clip1_565_10706">
<rect width="43.4381" height="43.4381" fill="white" transform="translate(112 36)"/>
</clipPath>
</defs>
</svg>
