<svg width="80" height="80" viewBox="0 0 80 80" fill="none" xmlns="http://www.w3.org/2000/svg">
<rect x="3" y="3" width="74" height="74" fill="white" stroke="black" stroke-width="6"/>
<path d="M15.9362 57V31.9091H22.895V57H15.9362ZM19.4319 28.6747C18.3973 28.6747 17.5098 28.3317 16.7693 27.6456C16.0396 26.9486 15.6748 26.1155 15.6748 25.1463C15.6748 24.188 16.0396 23.3658 16.7693 22.6797C17.5098 21.9827 18.3973 21.6342 19.4319 21.6342C20.4665 21.6342 21.3486 21.9827 22.0782 22.6797C22.8187 23.3658 23.189 24.188 23.189 25.1463C23.189 26.1155 22.8187 26.9486 22.0782 27.6456C21.3486 28.3317 20.4665 28.6747 19.4319 28.6747ZM35.4282 42.4943V57H28.4694V31.9091H35.1015V36.3359H35.3955C35.9509 34.8767 36.882 33.7223 38.1888 32.8729C39.4956 32.0125 41.0802 31.5824 42.9424 31.5824C44.6848 31.5824 46.204 31.9635 47.4999 32.7259C48.7958 33.4882 49.8032 34.5772 50.5219 35.9929C51.2407 37.3977 51.6001 39.0748 51.6001 41.0241V57H44.6412V42.2656C44.6521 40.7301 44.2601 39.5322 43.4651 38.6719C42.6701 37.8007 41.5757 37.3651 40.1817 37.3651C39.2452 37.3651 38.4175 37.5665 37.6988 37.9695C36.9909 38.3724 36.4355 38.9605 36.0326 39.7337C35.6405 40.496 35.4391 41.4162 35.4282 42.4943ZM64.0434 23.5455V57H57.0846V23.5455H64.0434Z" fill="black"/>
</svg>
