<svg width="308" height="165" viewBox="0 0 308 165" fill="none" xmlns="http://www.w3.org/2000/svg">
<path d="M0 0H308V165H0V0Z" fill="#E4E7EA"/>
<g clip-path="url(#clip0_345_302)">
<rect x="81.5605" y="32.5634" width="143.738" height="143.738" rx="16.5281" fill="white" fill-opacity="0.9" stroke="#E2E8F0"/>
<rect x="99.1055" y="48.2971" width="14.4866" height="14.4866" rx="7.24328" fill="#E07272"/>
<rect x="117.215" y="48.2971" width="14.4866" height="14.4866" rx="7.24328" fill="#E8CC86"/>
<rect x="135.322" y="48.2971" width="14.4866" height="14.4866" rx="7.24328" fill="#9BCD9D"/>
<g clip-path="url(#clip1_345_302)">
<rect x="99.1055" y="75.4594" width="108.649" height="103.217" rx="5.43246" fill="#F1F5F9"/>
<path d="M99.1055 75.4594H207.755V95.3784H99.1055V75.4594Z" fill="#C5CAD1"/>
<path d="M99.1055 95.3784H204.133V115.297H99.1055V95.3784Z" fill="#F1F5F9"/>
<rect x="105.287" y="116.047" width="96.2842" height="22.0406" rx="4.68246" fill="white" stroke="#5DC5EE" stroke-width="1.5"/>
<path d="M114.291 131.297H112.815L116.132 122.079H117.739L121.057 131.297H119.58L116.974 123.753H116.902L114.291 131.297ZM114.539 127.687H119.328V128.858H114.539V127.687ZM124.292 131.45C123.854 131.45 123.458 131.369 123.104 131.207C122.75 131.042 122.469 130.804 122.262 130.492C122.058 130.18 121.956 129.797 121.956 129.344C121.956 128.954 122.031 128.633 122.181 128.381C122.331 128.128 122.534 127.929 122.789 127.782C123.044 127.635 123.329 127.524 123.644 127.449C123.959 127.374 124.28 127.317 124.607 127.278C125.021 127.23 125.357 127.191 125.615 127.161C125.874 127.128 126.061 127.075 126.178 127.003C126.295 126.931 126.354 126.814 126.354 126.652V126.62C126.354 126.227 126.243 125.923 126.021 125.707C125.802 125.491 125.474 125.383 125.039 125.383C124.586 125.383 124.229 125.483 123.968 125.684C123.71 125.882 123.531 126.103 123.432 126.346L122.167 126.058C122.317 125.638 122.537 125.299 122.825 125.041C123.116 124.779 123.45 124.59 123.828 124.473C124.207 124.353 124.604 124.293 125.021 124.293C125.297 124.293 125.59 124.326 125.899 124.392C126.211 124.455 126.502 124.572 126.772 124.743C127.045 124.914 127.269 125.159 127.443 125.477C127.617 125.792 127.704 126.202 127.704 126.706V131.297H126.39V130.352H126.336C126.249 130.526 126.118 130.697 125.944 130.865C125.77 131.033 125.546 131.173 125.273 131.284C125 131.395 124.673 131.45 124.292 131.45ZM124.585 130.37C124.957 130.37 125.275 130.297 125.539 130.15C125.806 130.002 126.009 129.81 126.147 129.573C126.288 129.333 126.358 129.077 126.358 128.804V127.912C126.31 127.96 126.217 128.005 126.079 128.047C125.944 128.086 125.79 128.121 125.615 128.151C125.441 128.178 125.272 128.203 125.107 128.227C124.942 128.248 124.804 128.266 124.693 128.281C124.432 128.314 124.193 128.37 123.977 128.448C123.764 128.526 123.593 128.639 123.464 128.786C123.338 128.93 123.275 129.122 123.275 129.362C123.275 129.695 123.398 129.947 123.644 130.118C123.89 130.286 124.204 130.37 124.585 130.37Z" fill="black" fill-opacity="0.5"/>
<path d="M134.719 119.108V134.268H133.513V119.108H134.719Z" fill="black"/>
<rect x="99.1055" y="138.838" width="105.028" height="19.919" fill="#F1F5F9"/>
<rect x="99.1055" y="158.757" width="105.028" height="19.919" fill="#F1F5F9"/>
</g>
</g>
<defs>
<clipPath id="clip0_345_302">
<rect width="145" height="133" fill="white" transform="translate(81 32)"/>
</clipPath>
<clipPath id="clip1_345_302">
<rect x="99.1055" y="75.4594" width="108.649" height="103.217" rx="5.43246" fill="white"/>
</clipPath>
</defs>
</svg>
