<svg width="50" height="50" viewBox="0 0 50 50" fill="none" xmlns="http://www.w3.org/2000/svg">
<path fill-rule="evenodd" clip-rule="evenodd" d="M9.13035 3.28044H41.7299C44.965 3.28044 47.5876 5.90303 47.5876 9.13817V41.7377C47.5876 44.9728 44.965 47.5954 41.7299 47.5954H9.13035C5.89522 47.5954 3.27262 44.9728 3.27262 41.7377V9.13816C3.27262 5.90303 5.89522 3.28044 9.13035 3.28044ZM0.980469 9.13816C0.980469 4.63711 4.6293 0.988281 9.13035 0.988281H41.7299C46.2309 0.988281 49.8798 4.63711 49.8798 9.13817V41.7377C49.8798 46.2388 46.2309 49.8876 41.7299 49.8876H9.13035C4.6293 49.8876 0.980469 46.2388 0.980469 41.7377V9.13816ZM39.1511 36.0508V16.0465H35.6152V36.0508H39.1511ZM22.3897 27.2598V36.0507H18.8538V21.0475H22.2334V23.5969H22.4092C22.7543 22.7569 23.3046 22.0894 24.0599 21.5945C24.8218 21.0996 25.7628 20.8522 26.8828 20.8522C27.9182 20.8522 28.8201 21.0736 29.5885 21.5164C30.3634 21.9592 30.9625 22.6006 31.3857 23.4406C31.8155 24.2806 32.0271 25.2997 32.0206 26.4979V36.0507H28.4847V27.0449C28.4847 26.0421 28.2242 25.2574 27.7033 24.6909C27.1889 24.1244 26.4758 23.8411 25.5642 23.8411C24.9456 23.8411 24.3953 23.9778 23.9134 24.2513C23.4381 24.5183 23.0636 24.9058 22.7901 25.4137C22.5232 25.9216 22.3897 26.537 22.3897 27.2598ZM11.6819 21.0475V36.0507H15.2179V21.0475H11.6819ZM12.014 18.3614C12.4178 18.7326 12.8997 18.9182 13.4597 18.9182C14.0262 18.9182 14.5081 18.7326 14.9053 18.3614C15.309 17.9837 15.5109 17.5312 15.5109 17.0037C15.5109 16.4697 15.309 16.0172 14.9053 15.646C14.5081 15.2683 14.0262 15.0795 13.4597 15.0795C12.8997 15.0795 12.4178 15.2683 12.014 15.646C11.6103 16.0172 11.4084 16.4697 11.4084 17.0037C11.4084 17.5312 11.6103 17.9837 12.014 18.3614Z" fill="black"/>
</svg>
