<svg width="268" height="123" viewBox="0 0 268 123" fill="none" xmlns="http://www.w3.org/2000/svg">
<g clip-path="url(#clip0_565_10686)">
<rect width="268" height="123" fill="white"/>
<rect width="268" height="123" fill="#0991B2" fill-opacity="0.2"/>
<g filter="url(#filter0_d_565_10686)">
<rect x="28" y="35" width="80" height="53.3333" rx="8" fill="white"/>
</g>
<rect opacity="0.5" x="33.8242" y="39.668" width="6" height="6" rx="3" fill="#DC2625"/>
<rect opacity="0.5" x="44.4121" y="39.668" width="6" height="6" rx="3" fill="#D97705"/>
<rect opacity="0.5" x="55" y="39.668" width="6" height="6" rx="3" fill="#16A34A"/>
<g clip-path="url(#clip1_565_10686)">
<path d="M68 74.8398C73.3438 74.8398 77.6875 70.2789 77.6875 64.668C77.6875 59.057 73.3438 54.4961 68 54.4961C62.6562 54.4961 58.3125 59.057 58.3125 64.668C58.3125 70.2789 62.6562 74.8398 68 74.8398ZM60.5 68.7203L64.4375 68.6875C64.875 70.3445 65.6094 71.9523 66.6094 73.3961C63.9375 72.9367 61.7031 71.1484 60.5 68.7203ZM65.4375 61.8789H70.3438C70.7031 63.6836 70.7031 65.5375 70.375 67.3422L65.4375 67.375C65.0781 65.5539 65.0781 63.6836 65.4375 61.8789ZM67.8906 73.0188C66.9062 71.6898 66.1875 70.2297 65.75 68.6875L70.0469 68.6547C69.5937 70.1969 68.875 71.6734 67.8906 73.0188ZM69.1406 73.4453C70.1719 71.9688 70.9063 70.3445 71.3438 68.6383L75.5469 68.6055C74.3281 71.1812 71.9531 73.0352 69.1406 73.4453ZM76.4375 64.668C76.4375 65.5867 76.2969 66.4727 76.0625 67.293L71.6406 67.3258C71.9531 65.5211 71.9375 63.6836 71.6094 61.8789H76C76.2812 62.7484 76.4375 63.7 76.4375 64.668ZM75.4688 60.5664H71.3125C70.8594 58.9258 70.1406 57.3344 69.1406 55.8906C71.9063 56.2844 74.2344 58.0727 75.4688 60.5664ZM70.0156 60.5664H65.7656C66.2188 59.057 66.9219 57.6297 67.8906 56.3172C68.8594 57.6297 69.5625 59.057 70.0156 60.5664ZM66.6094 55.9398C65.625 57.3672 64.9063 58.9258 64.4688 60.5664H60.5313C61.7344 58.1547 63.9531 56.3992 66.6094 55.9398ZM64.1719 61.8789C63.8438 63.7 63.8438 65.5539 64.1563 67.375L59.9844 67.4078C59.7031 66.5383 59.5625 65.6195 59.5625 64.668C59.5625 63.7 59.7188 62.7484 60 61.8789H64.1719Z" fill="#52525B"/>
</g>
<path d="M129.333 55L136 61.6667M136 61.6667L129.333 68.3333M136 61.6667H120" stroke="black" stroke-width="1.77778" stroke-linecap="round" stroke-linejoin="round"/>
<g opacity="0.8">
<rect x="148" y="45.668" width="48" height="32" rx="8" fill="white"/>
<path d="M167.805 66.8171C167.04 66.8171 166.379 66.658 165.822 66.3398C165.268 66.0183 164.842 65.5643 164.544 64.9776C164.246 64.3877 164.097 63.6933 164.097 62.8945C164.097 62.109 164.246 61.4196 164.544 60.8263C164.846 60.2298 165.267 59.7657 165.807 59.4343C166.347 59.0996 166.982 58.9322 167.711 58.9322C168.182 58.9322 168.626 59.0084 169.043 59.1609C169.464 59.31 169.835 59.542 170.157 59.8569C170.482 60.1718 170.737 60.5728 170.923 61.06C171.108 61.5439 171.201 62.1206 171.201 62.7901V63.342H164.942V62.1289H169.476C169.473 61.7842 169.398 61.4776 169.252 61.2092C169.106 60.9374 168.902 60.7236 168.641 60.5678C168.382 60.4121 168.08 60.3342 167.736 60.3342C167.368 60.3342 167.045 60.4237 166.766 60.6026C166.488 60.7783 166.271 61.0103 166.115 61.2987C165.963 61.5837 165.885 61.8969 165.881 62.2383V63.2972C165.881 63.7414 165.963 64.1225 166.125 64.4407C166.287 64.7556 166.514 64.9975 166.806 65.1665C167.098 65.3323 167.439 65.4151 167.83 65.4151C168.092 65.4151 168.329 65.3787 168.541 65.3058C168.753 65.2295 168.937 65.1185 169.093 64.9727C169.249 64.8268 169.366 64.6462 169.446 64.4308L171.126 64.6197C171.02 65.0638 170.818 65.4516 170.52 65.783C170.225 66.1112 169.847 66.3664 169.386 66.5487C168.926 66.7276 168.399 66.8171 167.805 66.8171ZM174.523 62.1935V66.668H172.724V59.0316H174.444V60.3292H174.533C174.709 59.9016 174.989 59.5619 175.373 59.31C175.761 59.0581 176.24 58.9322 176.81 58.9322C177.337 58.9322 177.796 59.0449 178.187 59.2702C178.582 59.4956 178.887 59.8221 179.102 60.2496C179.321 60.6772 179.429 61.1959 179.425 61.8058V66.668H177.626V62.0842C177.626 61.5737 177.493 61.1744 177.228 60.886C176.966 60.5977 176.603 60.4535 176.139 60.4535C175.824 60.4535 175.544 60.5231 175.299 60.6623C175.057 60.7982 174.866 60.9954 174.727 61.2539C174.591 61.5124 174.523 61.8256 174.523 62.1935Z" fill="black"/>
</g>
<g opacity="0.5">
<rect x="196" y="45.668" width="48" height="32" rx="8" fill="white"/>
<path d="M212.325 66.668V65.5245L216.263 60.5877V60.5231H212.455V59.0316H218.465V60.2596L214.717 65.1119V65.1765H218.594V66.668H212.325ZM222.086 62.1935V66.668H220.286V56.4862H222.046V60.3292H222.135C222.314 59.8983 222.591 59.5586 222.966 59.31C223.344 59.0581 223.824 58.9322 224.407 58.9322C224.938 58.9322 225.4 59.0432 225.795 59.2653C226.189 59.4873 226.494 59.8121 226.709 60.2397C226.928 60.6673 227.037 61.1893 227.037 61.8058V66.668H225.238V62.0842C225.238 61.5704 225.105 61.171 224.84 60.886C224.578 60.5977 224.21 60.4535 223.736 60.4535C223.418 60.4535 223.133 60.5231 222.881 60.6623C222.633 60.7982 222.437 60.9954 222.295 61.2539C222.155 61.5124 222.086 61.8256 222.086 62.1935Z" fill="black"/>
</g>
</g>
<defs>
<filter id="filter0_d_565_10686" x="11.3333" y="25" width="113.333" height="86.6654" filterUnits="userSpaceOnUse" color-interpolation-filters="sRGB">
<feFlood flood-opacity="0" result="BackgroundImageFix"/>
<feColorMatrix in="SourceAlpha" type="matrix" values="0 0 0 0 0 0 0 0 0 0 0 0 0 0 0 0 0 0 127 0" result="hardAlpha"/>
<feOffset dy="6.66667"/>
<feGaussianBlur stdDeviation="8.33333"/>
<feComposite in2="hardAlpha" operator="out"/>
<feColorMatrix type="matrix" values="0 0 0 0 0 0 0 0 0 0 0 0 0 0 0 0 0 0 0.05 0"/>
<feBlend mode="normal" in2="BackgroundImageFix" result="effect1_dropShadow_565_10686"/>
<feBlend mode="normal" in="SourceGraphic" in2="effect1_dropShadow_565_10686" result="shape"/>
</filter>
<clipPath id="clip0_565_10686">
<rect width="268" height="123" fill="white"/>
</clipPath>
<clipPath id="clip1_565_10686">
<rect width="20" height="21" fill="white" transform="translate(58 54.168)"/>
</clipPath>
</defs>
</svg>
