<svg width="128" height="128" viewBox="0 0 128 128" fill="none" xmlns="http://www.w3.org/2000/svg">
<path fill-rule="evenodd" clip-rule="evenodd" d="M6 0C2.68652 0 0 2.68555 0 6V122C0 125.314 2.68652 128 6 128H122C125.313 128 128 125.314 128 122V6C128 2.68555 125.313 0 122 0H6ZM104.972 94.3516V37.2617H93.0967V94.3516H104.972ZM56.9248 69.5977V94.3516H45.0488V51.5352H56.3672V59.0879H56.8691C57.4023 57.6855 58.1387 56.4492 59.0791 55.377C59.8086 54.5449 60.6611 53.8125 61.6357 53.1797C63.8662 51.7109 66.5693 50.9766 69.748 50.9766C72.7217 50.9766 75.3135 51.627 77.5254 52.9277C79.7363 54.2285 81.4561 56.0879 82.6826 58.5039C83.4102 59.9258 83.9219 61.5117 84.2178 63.2617C84.4209 64.4609 84.5225 65.7363 84.5225 67.0898V94.3516H72.6465V69.207C72.665 66.5879 71.9961 64.543 70.6396 63.0742C69.2832 61.5879 67.415 60.8457 65.0361 60.8457C63.4385 60.8457 62.0264 61.1895 60.7998 61.877C59.5918 62.5645 58.6436 63.5684 57.9561 64.8867C57.2871 66.1875 56.9434 67.7578 56.9248 69.5977ZM24.4463 51.5352V94.3516H36.3213V51.5352H24.4463ZM25.8682 44.2578C27.1318 45.4297 28.6465 46.0156 30.4111 46.0156C32.1768 46.0156 33.6826 45.4297 34.9277 44.2578C36.1914 43.0684 36.8232 41.6465 36.8232 39.9941C36.8232 38.3574 36.1914 36.9551 34.9277 35.7832C33.6826 34.5938 32.1768 34 30.4111 34C28.6465 34 27.1318 34.5938 25.8682 35.7832C24.9385 36.6582 24.3564 37.6621 24.1201 38.7949C24.04 39.1797 24 39.5801 24 39.9941C24 41.6465 24.623 43.0684 25.8682 44.2578Z" fill="black"/>
</svg>
