<svg width="128" height="128" viewBox="0 0 128 128" fill="none" xmlns="http://www.w3.org/2000/svg">
<path d="M64.8425 103.637C64.8425 105.846 66.6333 107.637 68.8425 107.637C71.0516 107.637 72.8425 105.846 72.8425 103.637H64.8425ZM9 103.716V99.7163H5V103.716H9ZM114.466 60.7037L112.236 64.0243L112.236 64.0243L114.466 60.7037ZM80.1059 45.2993L81.5854 41.5829L81.5854 41.5829L80.1059 45.2993ZM28.6157 36.3744V40.3744H28.7672L28.9181 40.363L28.6157 36.3744ZM92.9785 6.35224L91.4621 10.0537L92.9785 6.35224ZM46.3155 36.5988L46.7728 32.625L46.3155 36.5988ZM44.7064 68.8283H48.7064V64.8283H44.7064V68.8283ZM9 103.715V99.7147H5V103.715H9ZM31.5057 65.7075L35.0708 67.5213L31.5057 65.7075ZM107.635 35.9769L103.67 35.4481L107.635 35.9769ZM109.517 42.4651L106.293 44.8324L106.293 44.8324L109.517 42.4651ZM42.4382 24.2473L43.9341 27.957L43.9341 27.957L42.4382 24.2473ZM46.2906 21.5572L49.2492 24.2492L46.2906 21.5572ZM76.6714 80.2841L76.3079 76.3007L76.3079 76.3007L76.6714 80.2841ZM94.5164 74.6391L76.3079 76.3007L77.0349 84.2676L95.2434 82.606L94.5164 74.6391ZM44.7064 76.9986H38.5314V84.9986H44.7064V76.9986ZM25.9179 115.075C25.9179 116.252 25.5178 117.435 24.6946 118.295C23.9327 119.091 22.4375 120 19.4589 120V128C24.2039 128 27.9382 126.477 30.4748 123.826C32.9503 121.238 33.9179 117.958 33.9179 115.075H25.9179ZM19.4589 120C16.2686 120 14.8072 119.171 14.1381 118.513C13.4705 117.856 13 116.787 13 115.075H5C5 118.235 5.89724 121.628 8.52819 124.216C11.1577 126.803 14.9257 128 19.4589 128V120ZM13 115.075V103.716H5V115.075H13ZM25.9179 89.5923V103.716H33.9179V89.5923H25.9179ZM25.9179 103.716V115.075H33.9179V103.716H25.9179ZM9 107.716H29.9179V99.7163H9V107.716ZM116.696 57.3831C111.441 53.8535 105.92 51.2701 81.5854 41.5829L78.6265 49.0156C103.207 58.8008 107.837 61.07 112.236 64.0243L116.696 57.3831ZM28.6157 32.3744C27.7562 32.3744 27.839 32.2429 28.2749 32.4687C28.5635 32.6183 29.09 32.9736 29.4754 33.6724C29.8778 34.402 29.9191 35.1297 29.8433 35.6398C29.7285 36.4132 29.3665 36.6529 29.7227 36.2463C29.9727 35.9608 30.4242 35.5345 31.1236 34.9868C33.9686 32.7587 39.124 29.8967 43.9341 27.957L40.9422 20.5376C35.656 22.6692 29.7887 25.8708 26.191 28.6884C25.2797 29.4021 24.4067 30.1737 23.7046 30.9754C23.1085 31.6559 22.1667 32.8721 21.9302 34.4644C21.7936 35.3839 21.8887 36.4816 22.4702 37.536C23.0346 38.5594 23.8655 39.1942 24.5946 39.5719C25.9115 40.2542 27.4196 40.3744 28.6157 40.3744V32.3744ZM49.2492 24.2492C53.2174 19.8882 59.6309 14.4957 67.2038 11.1505C74.7301 7.82583 83.1105 6.63212 91.4621 10.0537L94.4949 2.65084C83.561 -1.82867 72.8442 -0.0869046 63.9712 3.83267C55.1449 7.73163 47.8572 13.8921 43.3321 18.8651L49.2492 24.2492ZM91.4621 10.0537C99.7341 13.4426 102.684 17.5792 103.813 21.4071C105.067 25.6577 104.364 30.2452 103.67 35.4481L111.6 36.5056C112.22 31.8542 113.323 25.3713 111.487 19.1442C109.525 12.4944 104.49 6.74581 94.4949 2.65084L91.4621 10.0537ZM106.293 44.8324C109.37 49.023 112.279 54.4882 113.488 58.0981C113.785 58.9854 113.932 59.6234 113.982 60.0192C114.054 60.5843 113.872 60.1499 114.253 59.4135C114.505 58.9248 114.979 58.3724 115.713 58.0358C116.398 57.7213 116.98 57.7468 117.236 57.7818C117.615 57.8335 117.502 57.9243 116.696 57.3831L112.236 64.0243C113.323 64.7544 114.679 65.5068 116.154 65.7082C116.958 65.818 117.995 65.7904 119.049 65.307C120.15 64.8015 120.906 63.9645 121.359 63.0876C122.141 61.5749 122.038 59.9501 121.918 59.0084C121.777 57.8975 121.46 56.7125 121.074 55.5582C119.548 51.0021 116.198 44.8053 112.741 40.0977L106.293 44.8324ZM81.5854 41.5829C68.3151 36.3003 56.2785 33.7189 46.7728 32.625L45.8582 40.5726C54.7195 41.5923 66.0631 44.0144 78.6265 49.0156L81.5854 41.5829ZM46.7728 32.625C42.4184 32.124 37.7947 32.0698 34.3158 32.1332C32.5637 32.1651 31.0751 32.2275 30.0206 32.2821C29.4929 32.3094 29.0728 32.3348 28.7814 32.3537C28.6357 32.3631 28.522 32.3709 28.4432 32.3765C28.4037 32.3793 28.373 32.3815 28.3512 32.3831C28.3404 32.3839 28.3317 32.3845 28.3254 32.385C28.3222 32.3852 28.3197 32.3854 28.3176 32.3856C28.3166 32.3856 28.3158 32.3857 28.3151 32.3857C28.3147 32.3858 28.3143 32.3858 28.3141 32.3858C28.3137 32.3859 28.3133 32.3859 28.6157 36.3744C28.9181 40.363 28.9179 40.363 28.9176 40.363C28.9176 40.363 28.9174 40.363 28.9173 40.363C28.9172 40.3631 28.9172 40.3631 28.9173 40.363C28.9176 40.363 28.9185 40.363 28.9199 40.3629C28.9228 40.3626 28.9279 40.3623 28.9352 40.3617C28.9499 40.3606 28.9735 40.3589 29.0056 40.3567C29.0698 40.3522 29.1682 40.3454 29.2981 40.337C29.558 40.3202 29.9437 40.2968 30.4343 40.2714C31.4165 40.2205 32.8143 40.1619 34.4615 40.1319C37.7811 40.0714 42.0072 40.1294 45.8582 40.5726L46.7728 32.625ZM42.7504 34.785L27.9406 63.8936L35.0708 67.5213L49.8806 38.4126L42.7504 34.785ZM33.4259 72.8283H44.7064V64.8283H33.4259V72.8283ZM40.7064 68.8283V90.7354H48.7064V68.8283H40.7064ZM64.8425 88.8422V92.3609H72.8425V88.8422H64.8425ZM64.8425 92.3609V103.637H72.8425V92.3609H64.8425ZM40.7064 90.7354C40.7064 95.8446 44.75 100.146 50.2983 101.465C55.953 102.809 63.1525 101.239 71.1397 95.6354L66.5452 89.0863C59.729 93.8682 54.8605 94.3265 52.148 93.6818C49.3291 93.0119 48.7064 91.3084 48.7064 90.7354H40.7064ZM44.7064 76.9969H39.7583V84.9969H44.7064V76.9969ZM25.9179 115.074C25.9179 116.251 25.5178 117.433 24.6946 118.293C23.9327 119.089 22.4375 119.998 19.4589 119.998V127.998C24.2039 127.998 27.9382 126.475 30.4748 123.824C32.9503 121.237 33.9179 117.957 33.9179 115.074H25.9179ZM19.4589 119.998C16.2686 119.998 14.8072 119.169 14.1381 118.511C13.4705 117.854 13 116.786 13 115.074H5C5 118.233 5.89724 121.627 8.52819 124.214C11.1577 126.801 14.9257 127.998 19.4589 127.998V119.998ZM13 115.074V103.715H5V115.074H13ZM25.9179 90.7941V103.715H33.9179V90.7941H25.9179ZM25.9179 103.715V115.074H33.9179V103.715H25.9179ZM9 107.715H29.9179V99.7147H9V107.715ZM39.7583 76.9969C32.1311 76.9969 25.9179 83.1575 25.9179 90.7941H33.9179C33.9179 87.609 36.5161 84.9969 39.7583 84.9969V76.9969ZM27.9406 63.8936C25.8527 67.9975 28.8488 72.8283 33.4259 72.8283V64.8283C34.79 64.8283 35.7045 66.2758 35.0708 67.5213L27.9406 63.8936ZM103.67 35.4481C103.191 39.0432 104.465 42.3424 106.293 44.8324L112.741 40.0977C111.799 38.8141 111.461 37.5474 111.6 36.5056L103.67 35.4481ZM43.9341 27.957C45.9766 27.1334 47.7867 25.8564 49.2492 24.2492L43.3321 18.8651C42.6605 19.6032 41.8434 20.1742 40.9422 20.5376L43.9341 27.957ZM38.5314 76.9986C31.5738 76.9986 25.9179 82.6283 25.9179 89.5923H33.9179C33.9179 87.0639 35.9748 84.9986 38.5314 84.9986V76.9986ZM76.3079 76.3007C69.8211 76.8926 64.8425 82.3235 64.8425 88.8422H72.8425C72.8425 86.4751 74.6526 84.485 77.0349 84.2676L76.3079 76.3007Z" fill="white"/>
</svg>
