<svg width="128" height="132" viewBox="0 0 128 132" fill="none" xmlns="http://www.w3.org/2000/svg">
<path fill-rule="evenodd" clip-rule="evenodd" d="M85.7577 5.92575C85.1641 4.67916 83.6723 4.14982 82.4258 4.74343C81.1792 5.33705 80.6498 6.82883 81.2434 8.07542L83.4396 12.6875C82.4851 12.4233 81.5052 12.1921 80.5 11.9958V11.9979C73.2469 10.8388 66.7224 12.395 60.6542 15.0511C52.6611 18.5498 46.0214 24.1193 41.8446 28.6692C40.9836 29.607 39.9418 30.3393 38.7829 30.8165C34.174 32.7144 27.9554 35.447 24.3052 37.8571C23.3854 38.4644 22.4909 39.139 21.8079 39.8637C21.2587 40.4465 20.198 41.7283 20.3904 43.4578C20.6176 45.4987 22.2956 46.4141 23.2694 46.7758C24.3455 47.1754 25.7017 47.3653 27.2174 47.4458L27.4011 47.4555L27.584 47.4416L27.6025 47.4402L27.6699 47.4354C27.7309 47.4311 27.8236 47.4247 27.9455 47.4167C28.1894 47.4009 28.5501 47.3789 29.0082 47.3551C29.925 47.3074 31.2286 47.2525 32.7645 47.2244C34.8573 47.1861 37.3466 47.1983 39.8594 47.3401L31.6907 70.8174C30.5321 74.1473 33.0044 77.6253 36.5301 77.6253H39.417V83.2477H37.6831C31.08 83.2477 25.7271 88.6006 25.7271 95.2037V104.371H6.36328V117.779C6.36328 120.555 7.14618 123.455 9.3691 125.651C11.593 127.848 14.8359 128.924 18.8919 128.924C23.0991 128.924 26.3177 127.572 28.4751 125.307C30.5877 123.089 31.4205 120.27 31.4205 117.779V95.2037C31.4205 91.7449 34.2244 88.9411 37.6831 88.9411H39.417V95.1476C39.417 99.3947 42.7839 103.116 47.6353 104.274C51.5195 105.202 56.333 104.562 61.7599 101.738V107.144C61.7599 108.716 63.0344 109.99 64.6065 109.99C66.1787 109.99 67.4532 108.716 67.4532 107.144V94.3964C67.4532 91.1621 69.916 88.4599 73.1363 88.1606L101.232 85.5494V94.5287C98.8771 94.563 95.9429 94.9478 92.832 96.2247C88.0303 98.1957 83.0685 102.186 79.2054 109.686C72.809 122.104 60.5888 123.392 55.3985 122.516C53.8483 122.254 52.3794 123.299 52.1177 124.849C51.856 126.399 52.9005 127.868 54.4508 128.13C61.1766 129.266 76.3637 127.637 84.2668 112.293C87.5534 105.912 91.5288 102.914 94.9939 101.492C98.5214 100.044 101.788 100.121 103.761 100.343L106.926 100.699V79.3024L72.6095 82.4917C66.4615 83.0631 61.7599 88.2219 61.7599 94.3964V95.1492C55.9348 98.9309 51.5988 99.3673 48.9572 98.7367C46.063 98.0459 45.1103 96.1838 45.1103 95.1476V71.9319H37.331L45.6836 47.9261C53.5843 49.0176 63.3109 51.2801 73.9764 55.5446C94.0624 63.5757 106.497 72.1867 112.058 76.038L112.058 76.0381C112.676 76.4662 113.209 76.8354 113.659 77.1385C114.656 77.8116 115.764 78.3797 116.921 78.5537C118.216 78.7483 119.686 78.4382 120.739 77.2247C121.634 76.1932 121.85 74.9214 121.886 73.9967C121.925 73.0065 121.775 71.9464 121.529 70.9077C120.56 66.8175 117.645 61.2273 113.503 56.7629C113.224 56.4624 113.069 56.2716 112.969 56.1137C112.044 54.6567 111.523 52.9536 111.468 51.2094C111.068 38.6819 105.384 25.148 93.9248 17.4709L99.1649 14.7129C100.387 14.0698 100.856 12.558 100.213 11.3362C99.5698 10.1144 98.058 9.64523 96.8362 10.2883L89.639 14.0763L85.7577 5.92575ZM12.0566 110.064H25.7271V117.779C25.7271 119.063 25.2937 120.392 24.3529 121.38C23.4567 122.321 21.8343 123.23 18.8919 123.23C15.7981 123.23 14.2001 122.421 13.3704 121.601C12.5398 120.781 12.0566 119.532 12.0566 117.779V110.064ZM32.6603 41.532C31.2055 41.5586 29.9484 41.6082 29.005 41.6546C32.25 39.8005 36.9775 37.717 40.9507 36.081C42.8986 35.2788 44.6273 34.0567 46.0386 32.5194C49.8231 28.3969 55.8403 23.373 62.9371 20.2667C69.9999 17.1753 77.9325 16.0565 85.8662 19.3212C101.111 25.5942 105.455 41.2987 105.777 51.391C105.865 54.14 106.684 56.8361 108.162 59.1646C108.548 59.7731 108.991 60.2702 109.329 60.6352C112.711 64.2799 115.032 68.7307 115.869 71.7518C115.686 71.6254 115.493 71.492 115.291 71.352L115.265 71.334C109.669 67.4575 96.7861 58.5332 76.0901 50.2582C63.8807 45.3764 52.8115 42.9931 44.08 41.9839C40.1023 41.5241 35.864 41.4734 32.6603 41.532Z" fill="white"/>
</svg>
