<svg width="20" height="20" viewBox="0 0 20 20" fill="none" xmlns="http://www.w3.org/2000/svg">
<mask id="mask0_1_287" style="mask-type:alpha" maskUnits="userSpaceOnUse" x="0" y="0" width="20" height="20">
<rect width="20" height="20" fill="currentColor"/>
</mask>
<g mask="url(#mask0_1_287)">
<path d="M17.208 8.646L16.958 8.042L16.375 7.792C16.2503 7.736 16.1843 7.642 16.177 7.51C16.1703 7.378 16.2293 7.27733 16.354 7.208L16.958 6.938L17.208 6.354C17.264 6.22933 17.3613 6.167 17.5 6.167C17.6387 6.167 17.7427 6.22933 17.812 6.354L18.083 6.938L18.667 7.208C18.7917 7.27733 18.8507 7.378 18.844 7.51C18.8367 7.642 18.7707 7.736 18.646 7.792L18.083 8.042L17.812 8.646C17.7427 8.77067 17.6387 8.833 17.5 8.833C17.3613 8.833 17.264 8.77067 17.208 8.646ZM12.917 12.458L12.271 11.062L10.875 10.417C10.6943 10.3337 10.604 10.1947 10.604 10C10.604 9.80533 10.6943 9.66633 10.875 9.583L12.271 8.938L12.917 7.542C13.0003 7.36133 13.139 7.271 13.333 7.271C13.5277 7.271 13.6667 7.36133 13.75 7.542L14.396 8.938L15.792 9.583C15.972 9.66633 16.062 9.80533 16.062 10C16.062 10.1947 15.972 10.3337 15.792 10.417L14.396 11.062L13.75 12.458C13.6667 12.6387 13.5277 12.729 13.333 12.729C13.139 12.729 13.0003 12.6387 12.917 12.458ZM17.229 13.646L16.958 13.042L16.375 12.792C16.2503 12.736 16.1843 12.642 16.177 12.51C16.1703 12.378 16.2293 12.2773 16.354 12.208L16.958 11.938L17.208 11.354C17.264 11.2293 17.3613 11.167 17.5 11.167C17.6387 11.167 17.7427 11.2293 17.812 11.354L18.083 11.938L18.667 12.208C18.7917 12.2773 18.854 12.3747 18.854 12.5C18.854 12.6253 18.7917 12.7227 18.667 12.792L18.083 13.062L17.812 13.646C17.7427 13.7707 17.642 13.833 17.51 13.833C17.378 13.833 17.2843 13.7707 17.229 13.646ZM14.083 16.542H5.91699V17.417H14.083V16.542ZM14.083 3.458V2.583H5.91699V3.458H14.083ZM5.91699 19.167C5.43099 19.167 5.01766 18.9967 4.67699 18.656C4.33699 18.316 4.16699 17.903 4.16699 17.417V2.583C4.16699 2.097 4.33699 1.684 4.67699 1.344C5.01766 1.00333 5.43099 0.833 5.91699 0.833H14.083C14.569 0.833 14.9823 1.00333 15.323 1.344C15.663 1.684 15.833 2.097 15.833 2.583V5.875H14.083V5.208H5.91699V14.792H14.083V14.125H15.833V17.417C15.833 17.903 15.663 18.316 15.323 18.656C14.9823 18.9967 14.569 19.167 14.083 19.167H5.91699Z" fill="currentColor"/>
</g>
</svg>
