<svg width="20" height="20" viewBox="0 0 20 20" fill="none" xmlns="http://www.w3.org/2000/svg">
<mask id="mask0_1_136" style="mask-type:alpha" maskUnits="userSpaceOnUse" x="0" y="0" width="20" height="20">
<rect width="20" height="20" fill="#D9D9D9"/>
</mask>
<g mask="url(#mask0_1_136)">
<path d="M9.95799 15.021C10.264 15.021 10.521 14.9167 10.729 14.708C10.9377 14.5 11.042 14.2433 11.042 13.938C11.042 13.632 10.9377 13.375 10.729 13.167C10.521 12.9583 10.264 12.854 9.95799 12.854C9.65266 12.854 9.39599 12.9583 9.18799 13.167C8.97933 13.375 8.87499 13.632 8.87499 13.938C8.87499 14.2433 8.97933 14.5 9.18799 14.708C9.39599 14.9167 9.65266 15.021 9.95799 15.021ZM10.062 6.458C10.4513 6.458 10.7673 6.56233 11.01 6.771C11.2533 6.979 11.375 7.24267 11.375 7.562C11.375 7.78467 11.2987 8.021 11.146 8.271C10.9933 8.521 10.778 8.764 10.5 9C10.0553 9.38867 9.73233 9.74633 9.53099 10.073C9.32966 10.399 9.22899 10.722 9.22899 11.042C9.22899 11.25 9.29866 11.4233 9.43799 11.562C9.57666 11.7013 9.75699 11.771 9.97899 11.771C10.1877 11.771 10.3717 11.7013 10.531 11.562C10.691 11.4233 10.7917 11.236 10.833 11C10.875 10.778 10.969 10.5663 11.115 10.365C11.2603 10.163 11.4997 9.90233 11.833 9.583C12.2777 9.16633 12.58 8.795 12.74 8.469C12.8993 8.14233 12.979 7.78467 12.979 7.396C12.979 6.67333 12.7153 6.09 12.188 5.646C11.66 5.20133 10.9653 4.979 10.104 4.979C9.52066 4.979 9.01033 5.09367 8.57299 5.323C8.13566 5.55233 7.75733 5.896 7.43799 6.354C7.32666 6.50667 7.29533 6.67333 7.34399 6.854C7.39266 7.03467 7.49333 7.18733 7.64599 7.312C7.82666 7.45133 8.03133 7.49667 8.25999 7.448C8.48933 7.39933 8.68033 7.27067 8.83299 7.062C8.98566 6.868 9.16299 6.719 9.36499 6.615C9.56633 6.51033 9.79866 6.458 10.062 6.458ZM9.99999 18.333C8.86133 18.333 7.78499 18.1143 6.77099 17.677C5.75699 17.2397 4.87166 16.646 4.11499 15.896C3.35766 15.146 2.76033 14.264 2.32299 13.25C1.88566 12.236 1.66699 11.1527 1.66699 10C1.66699 8.84733 1.88566 7.764 2.32299 6.75C2.76033 5.736 3.35766 4.854 4.11499 4.104C4.87166 3.354 5.75699 2.76033 6.77099 2.323C7.78499 1.88567 8.86133 1.667 9.99999 1.667C11.1667 1.667 12.257 1.88567 13.271 2.323C14.285 2.76033 15.167 3.354 15.917 4.104C16.667 4.854 17.2573 5.736 17.688 6.75C18.118 7.764 18.333 8.84733 18.333 10C18.333 11.1527 18.118 12.236 17.688 13.25C17.2573 14.264 16.667 15.146 15.917 15.896C15.167 16.646 14.285 17.2397 13.271 17.677C12.257 18.1143 11.1667 18.333 9.99999 18.333ZM9.99999 16.583C11.8473 16.583 13.4063 15.9407 14.677 14.656C15.9477 13.3713 16.583 11.8193 16.583 10C16.583 8.18067 15.9477 6.62867 14.677 5.344C13.4063 4.05933 11.8473 3.417 9.99999 3.417C8.19466 3.417 6.64599 4.05933 5.35399 5.344C4.06266 6.62867 3.41699 8.18067 3.41699 10C3.41699 11.8193 4.06266 13.3713 5.35399 14.656C6.64599 15.9407 8.19466 16.583 9.99999 16.583Z" fill="#161616"/>
</g>
</svg>
