<svg width="20" height="20" viewBox="0 0 20 20" fill="none" xmlns="http://www.w3.org/2000/svg">
<mask id="mask0_1_140" style="mask-type:alpha" maskUnits="userSpaceOnUse" x="0" y="0" width="20" height="20">
<rect width="20" height="20" fill="#D9D9D9"/>
</mask>
<g mask="url(#mask0_1_140)">
<path d="M10 18C8.90267 18 7.868 17.7917 6.896 17.375C5.924 16.9583 5.07333 16.3853 4.344 15.656C3.61467 14.9267 3.04167 14.076 2.625 13.104C2.20833 12.132 2 11.0973 2 10C2 8.88867 2.20833 7.85033 2.625 6.885C3.04167 5.92033 3.61467 5.07333 4.344 4.344C5.07333 3.61467 5.924 3.04167 6.896 2.625C7.868 2.20833 8.90267 2 10 2C11.1113 2 12.1497 2.20833 13.115 2.625C14.0797 3.04167 14.9267 3.61467 15.656 4.344C16.3853 5.07333 16.9583 5.92033 17.375 6.885C17.7917 7.85033 18 8.88867 18 10C18 11.0973 17.7917 12.132 17.375 13.104C16.9583 14.076 16.3853 14.9267 15.656 15.656C14.9267 16.3853 14.0797 16.9583 13.115 17.375C12.1497 17.7917 11.1113 18 10 18ZM10 16.438C10.236 16.2013 10.472 15.7603 10.708 15.115C10.944 14.469 11.1247 13.764 11.25 13H8.75C8.87533 13.764 9.056 14.469 9.292 15.115C9.528 15.7603 9.764 16.2013 10 16.438ZM8.104 16.229C7.90933 15.8123 7.73933 15.3333 7.594 14.792C7.448 14.25 7.32633 13.6527 7.229 13H4.25C4.65267 13.792 5.18733 14.469 5.854 15.031C6.52067 15.5937 7.27067 15.993 8.104 16.229ZM11.896 16.229C12.7293 15.993 13.4793 15.5937 14.146 15.031C14.8127 14.469 15.3473 13.792 15.75 13H12.771C12.6737 13.6527 12.552 14.25 12.406 14.792C12.2607 15.3333 12.0907 15.8123 11.896 16.229ZM12.958 11.5H16.312C16.382 11.236 16.4307 10.9827 16.458 10.74C16.486 10.4967 16.5 10.25 16.5 10C16.5 9.75 16.486 9.5 16.458 9.25C16.4307 9 16.382 8.75 16.312 8.5H12.958C12.986 8.764 13.0033 9.02433 13.01 9.281C13.0173 9.53833 13.021 9.792 13.021 10.042C13.021 10.292 13.0173 10.5383 13.01 10.781C13.0033 11.0243 12.986 11.264 12.958 11.5ZM8.562 11.5H11.438C11.4653 11.222 11.4827 10.9617 11.49 10.719C11.4967 10.4757 11.5 10.236 11.5 10C11.5 9.764 11.4967 9.521 11.49 9.271C11.4827 9.021 11.4653 8.764 11.438 8.5H8.562C8.53467 8.764 8.51733 9.021 8.51 9.271C8.50333 9.521 8.5 9.764 8.5 10C8.5 10.236 8.50333 10.479 8.51 10.729C8.51733 10.979 8.53467 11.236 8.562 11.5ZM3.688 11.5H7.042C7.014 11.236 6.99667 10.9757 6.99 10.719C6.98267 10.4617 6.979 10.208 6.979 9.958C6.979 9.708 6.98267 9.46167 6.99 9.219C6.99667 8.97567 7.014 8.736 7.042 8.5H3.688C3.618 8.764 3.56933 9.01733 3.542 9.26C3.514 9.50333 3.5 9.75 3.5 10C3.5 10.25 3.514 10.4967 3.542 10.74C3.56933 10.9827 3.618 11.236 3.688 11.5ZM12.771 7H15.75C15.3473 6.208 14.8127 5.531 14.146 4.969C13.4793 4.40633 12.7293 4.007 11.896 3.771C12.0907 4.18767 12.2607 4.66667 12.406 5.208C12.552 5.75 12.6737 6.34733 12.771 7ZM8.75 7H11.25C11.1247 6.236 10.944 5.531 10.708 4.885C10.472 4.23967 10.236 3.79867 10 3.562C9.764 3.79867 9.528 4.23967 9.292 4.885C9.056 5.531 8.87533 6.236 8.75 7ZM4.25 7H7.229C7.32633 6.34733 7.448 5.75 7.594 5.208C7.73933 4.66667 7.90933 4.18767 8.104 3.771C7.27067 4.007 6.52067 4.40633 5.854 4.969C5.18733 5.531 4.65267 6.208 4.25 7Z" fill="#161616"/>
</g>
</svg>
