<svg width="32" height="32" viewBox="0 0 32 32" fill="none" xmlns="http://www.w3.org/2000/svg">
<path fill-rule="evenodd" clip-rule="evenodd" d="M13.5 13C13.5 11.6193 14.6193 10.5 16 10.5C17.3808 10.5 18.5 11.6193 18.5 13C18.5 14.3807 17.3808 15.5 16 15.5C14.6193 15.5 13.5 14.3807 13.5 13ZM16 9.5C14.067 9.5 12.5 11.067 12.5 13C12.5 14.442 13.372 15.6803 14.6175 16.2164C12.8086 16.7997 11.5 18.497 11.5 20.5V21.5V22H12H20H20.5V21.5V20.5C20.5 18.497 19.1914 16.7997 17.3825 16.2164C18.628 15.6803 19.5 14.442 19.5 13C19.5 11.067 17.933 9.5 16 9.5ZM12.5 20.5C12.5 18.567 14.067 17 16 17C17.933 17 19.5 18.567 19.5 20.5V21H12.5V20.5Z" fill="black" fill-opacity="0.8"/>
</svg>
