<svg viewBox="0 0 56 51" xmlns="http://www.w3.org/2000/svg">
<path d="M15.096 13.44C14.584 14.256 14.136 15.04 13.752 15.792C13.368 16.544 13.048 17.312 12.792 18.096C12.536 18.864 12.344 19.664 12.216 20.496C12.088 21.328 12.024 22.224 12.024 23.184C12.024 24.944 12.28 26.648 12.792 28.296C13.304 29.944 14.072 31.472 15.096 32.88L13.656 33.84C12.552 32.336 11.688 30.68 11.064 28.872C10.456 27.064 10.152 25.168 10.152 23.184C10.152 21.344 10.448 19.504 11.04 17.664C11.632 15.824 12.504 14.112 13.656 12.528L15.096 13.44ZM20.4317 23.928L16.3997 18.624H19.1837L21.9437 22.656L24.6557 18.624H27.2717L23.3837 23.928L27.9917 30H25.2077L21.8477 25.224L18.4877 30H15.8237L20.4317 23.928ZM28.389 18.624H30.885L34.269 27.504H34.317L37.533 18.624H39.861L34.461 32.448C34.269 32.944 34.069 33.392 33.861 33.792C33.653 34.208 33.405 34.56 33.117 34.848C32.829 35.136 32.477 35.36 32.061 35.52C31.661 35.68 31.165 35.76 30.573 35.76C30.253 35.76 29.925 35.736 29.589 35.688C29.269 35.656 28.957 35.576 28.653 35.448L28.917 33.48C29.349 33.656 29.781 33.744 30.213 33.744C30.549 33.744 30.829 33.696 31.053 33.6C31.293 33.52 31.493 33.392 31.653 33.216C31.829 33.056 31.973 32.864 32.085 32.64C32.197 32.416 32.309 32.16 32.421 31.872L33.117 30.072L28.389 18.624ZM40.701 32.928C41.213 32.112 41.661 31.328 42.045 30.576C42.429 29.824 42.749 29.064 43.005 28.296C43.261 27.512 43.453 26.704 43.581 25.872C43.709 25.04 43.773 24.144 43.773 23.184C43.773 21.424 43.517 19.72 43.005 18.072C42.493 16.424 41.725 14.896 40.701 13.488L42.141 12.528C43.245 14.032 44.101 15.688 44.709 17.496C45.333 19.304 45.645 21.2 45.645 23.184C45.645 25.024 45.349 26.864 44.757 28.704C44.165 30.544 43.293 32.256 42.141 33.84L40.701 32.928Z" />
</svg>
