<svg width="20" height="20" viewBox="0 0 20 20" fill="none" xmlns="http://www.w3.org/2000/svg">
<mask id="mask0_1_57" style="mask-type:alpha" maskUnits="userSpaceOnUse" x="0" y="0" width="20" height="20">
<rect width="20" height="20" fill="#D9D9D9"/>
</mask>
<g mask="url(#mask0_1_57)">
<path d="M9.99999 17.582C8.15266 17.582 6.57966 16.9032 5.28099 15.5458C3.98232 14.1883 3.33299 12.5441 3.33299 10.6132V10.4386L2.66699 11.1358C2.50032 11.31 2.29866 11.3971 2.06199 11.3971C1.82599 11.3971 1.62465 11.3027 1.45799 11.1138C1.27799 10.9396 1.18799 10.7292 1.18799 10.4825C1.18799 10.2358 1.27799 10.0181 1.45799 9.82921L3.58299 7.60802C3.68032 7.50628 3.78099 7.43381 3.88499 7.3906C3.98965 7.3467 4.09732 7.32475 4.20799 7.32475C4.31932 7.32475 4.42699 7.3467 4.53099 7.3906C4.63566 7.43381 4.73632 7.50628 4.83299 7.60802L6.97899 9.85116C7.14566 10.0254 7.22899 10.2358 7.22899 10.4825C7.22899 10.7292 7.14566 10.9396 6.97899 11.1138C6.79832 11.3027 6.58999 11.3971 6.35399 11.3971C6.11799 11.3971 5.91666 11.3027 5.74999 11.1138L5.08299 10.4386V10.6132C5.08299 12.0215 5.56566 13.2302 6.53099 14.2392C7.49632 15.2482 8.65266 15.7527 9.99999 15.7527C10.278 15.7527 10.5523 15.7273 10.823 15.6764C11.0937 15.6256 11.361 15.5493 11.625 15.4475C11.7777 15.3897 11.9373 15.3789 12.104 15.4151C12.2707 15.4514 12.4097 15.5273 12.521 15.643C12.785 15.9189 12.889 16.213 12.833 16.5252C12.7777 16.8374 12.5903 17.0517 12.271 17.168C11.9097 17.313 11.5347 17.4182 11.146 17.4837C10.7567 17.5492 10.3747 17.582 9.99999 17.582ZM15.792 13.8796C15.6807 13.8796 15.573 13.8577 15.469 13.8138C15.3643 13.7706 15.2637 13.6981 15.167 13.5964L13.021 11.3532C12.8543 11.179 12.771 10.9686 12.771 10.7219C12.771 10.4752 12.8613 10.2574 13.042 10.0686C13.2087 9.89437 13.41 9.80726 13.646 9.80726C13.882 9.80726 14.0903 9.89437 14.271 10.0686L14.917 10.7658V10.6132C14.917 9.20484 14.4343 7.99616 13.469 6.98713C12.5037 5.9781 11.3473 5.47358 9.99999 5.47358C9.73599 5.47358 9.46866 5.49902 9.19799 5.54989C8.92732 5.60076 8.65999 5.66974 8.39599 5.75685C8.24332 5.81538 8.08366 5.82619 7.91699 5.78925C7.75032 5.75302 7.61132 5.67706 7.49999 5.56138C7.23599 5.28543 7.13532 4.99136 7.19799 4.67918C7.26066 4.36699 7.45166 4.15271 7.77099 4.03634C8.13166 3.90603 8.50299 3.80812 8.88499 3.74262C9.26699 3.67712 9.63866 3.64436 9.99999 3.64436C11.8473 3.64436 13.4203 4.32309 14.719 5.68054C16.0177 7.038 16.667 8.6822 16.667 10.6132V10.7658L17.333 10.0686C17.4997 9.89437 17.7013 9.80726 17.938 9.80726C18.174 9.80726 18.382 9.89437 18.562 10.0686C18.7287 10.2574 18.812 10.4752 18.812 10.7219C18.812 10.9686 18.7287 11.179 18.562 11.3532L16.417 13.5964C16.3197 13.6981 16.219 13.7706 16.115 13.8138C16.0103 13.8577 15.9027 13.8796 15.792 13.8796Z" fill="#303030"/>
</g>
</svg>
