<svg width="32" height="32" viewBox="0 0 32 32" fill="none" xmlns="http://www.w3.org/2000/svg">
<path fill-rule="evenodd" clip-rule="evenodd" d="M6.79297 15.5001L7.14652 15.1465L15.1465 7.14652L15.5001 6.79297L15.8536 7.14652L23.8536 15.1465L24.2072 15.5001L23.5001 16.2072L23.1465 15.8536L15.5001 8.20718L8.20718 15.5001L15.5001 22.793L19.1465 19.1465L19.5001 18.793L20.2072 19.5001L19.8536 19.8536L15.8536 23.8536L15.5001 24.2072L15.1465 23.8536L7.14652 15.8536L6.79297 15.5001ZM14.7072 15.0001H17.0001C20.3138 15.0001 23.0001 17.6864 23.0001 21.0001C23.0001 22.6569 22.3285 24.1569 21.2427 25.2427L20.5356 24.5356C21.4404 23.6308 22.0001 22.3808 22.0001 21.0001C22.0001 18.2387 19.7615 16.0001 17.0001 16.0001H14.7072L16.3536 17.6465L15.6465 18.3536L13.1465 15.8536L12.793 15.5001L13.1465 15.1465L15.6465 12.6465L16.3536 13.3536L14.7072 15.0001Z" fill="black" fill-opacity="0.8"/>
</svg>
