<svg width="20" height="20" viewBox="0 0 20 20" fill="none" xmlns="http://www.w3.org/2000/svg">
<mask id="mask0_1_135" style="mask-type:alpha" maskUnits="userSpaceOnUse" x="0" y="0" width="20" height="20">
<rect width="20" height="20" fill="#D9D9D9"/>
</mask>
<g mask="url(#mask0_1_135)">
<path d="M11.583 18.333H8.41699C8.19432 18.333 8.00332 18.2603 7.84399 18.115C7.68399 17.969 7.58999 17.7847 7.56199 17.562L7.33299 15.708C7.19432 15.6247 7.04166 15.5347 6.87499 15.438C6.70832 15.3407 6.55566 15.2503 6.41699 15.167L4.68799 15.896C4.47932 15.9793 4.27066 15.9863 4.06199 15.917C3.85399 15.847 3.69432 15.715 3.58299 15.521L2.02099 12.792C1.90966 12.5973 1.87832 12.396 1.92699 12.188C1.97566 11.9793 2.08332 11.8057 2.24999 11.667L3.70799 10.542V9.458L2.24999 8.333C2.08332 8.19433 1.97566 8.02067 1.92699 7.812C1.87832 7.604 1.90966 7.40267 2.02099 7.208L3.58299 4.479C3.69432 4.285 3.85399 4.153 4.06199 4.083C4.27066 4.01367 4.47932 4.02067 4.68799 4.104L6.41699 4.833C6.55566 4.74967 6.70832 4.65967 6.87499 4.563C7.04166 4.46567 7.19432 4.37533 7.33299 4.292L7.56199 2.438C7.58999 2.21533 7.68399 2.031 7.84399 1.885C8.00332 1.73967 8.19432 1.667 8.41699 1.667H11.583C11.8057 1.667 11.9967 1.73967 12.156 1.885C12.316 2.031 12.41 2.21533 12.438 2.438L12.667 4.292C12.8057 4.37533 12.9583 4.46567 13.125 4.563C13.2917 4.65967 13.4443 4.74967 13.583 4.833L15.312 4.104C15.5207 4.02067 15.7293 4.01367 15.938 4.083C16.146 4.153 16.3057 4.285 16.417 4.479L18 7.208C18.1113 7.40267 18.146 7.604 18.104 7.812C18.0627 8.02067 17.9517 8.19433 17.771 8.333L16.312 9.458V10.542L17.771 11.667C17.9517 11.8057 18.0627 11.9793 18.104 12.188C18.146 12.396 18.1113 12.5973 18 12.792L16.417 15.521C16.3057 15.715 16.146 15.847 15.938 15.917C15.7293 15.9863 15.5207 15.9793 15.312 15.896L13.583 15.167C13.4443 15.2503 13.2917 15.3407 13.125 15.438C12.9583 15.5347 12.8057 15.6247 12.667 15.708L12.438 17.562C12.41 17.7847 12.316 17.969 12.156 18.115C11.9967 18.2603 11.8057 18.333 11.583 18.333ZM9.99999 12.979C10.8193 12.979 11.5207 12.6873 12.104 12.104C12.6873 11.5207 12.979 10.8193 12.979 10C12.979 9.18067 12.6873 8.47933 12.104 7.896C11.5207 7.31267 10.8193 7.021 9.99999 7.021C9.18066 7.021 8.47932 7.31267 7.89599 7.896C7.31266 8.47933 7.02099 9.18067 7.02099 10C7.02099 10.8193 7.31266 11.5207 7.89599 12.104C8.47932 12.6873 9.18066 12.979 9.99999 12.979ZM9.99999 11.229C9.66666 11.229 9.37832 11.1077 9.13499 10.865C8.89232 10.6217 8.77099 10.3333 8.77099 10C8.77099 9.66667 8.89232 9.37833 9.13499 9.135C9.37832 8.89233 9.66666 8.771 9.99999 8.771C10.3333 8.771 10.6217 8.89233 10.865 9.135C11.1077 9.37833 11.229 9.66667 11.229 10C11.229 10.3333 11.1077 10.6217 10.865 10.865C10.6217 11.1077 10.3333 11.229 9.99999 11.229ZM9.16699 16.583H10.833L11.083 14.417C11.4863 14.3057 11.8753 14.139 12.25 13.917C12.6247 13.6943 12.965 13.4303 13.271 13.125L15.292 13.979L16.125 12.604L14.354 11.25C14.4233 11.0553 14.472 10.854 14.5 10.646C14.528 10.4373 14.542 10.222 14.542 10C14.542 9.80533 14.528 9.60733 14.5 9.406C14.472 9.20467 14.4303 8.993 14.375 8.771L16.146 7.396L15.312 6.021L13.292 6.896C12.972 6.57667 12.628 6.30933 12.26 6.094C11.892 5.87867 11.5067 5.71533 11.104 5.604L10.833 3.417H9.16699L8.89599 5.604C8.49332 5.71533 8.10799 5.87867 7.73999 6.094C7.37199 6.30933 7.03499 6.56967 6.72899 6.875L4.70799 6.021L3.87499 7.396L5.62499 8.75C5.56966 8.972 5.52799 9.18733 5.49999 9.396C5.47199 9.604 5.45799 9.80533 5.45799 10C5.45799 10.1947 5.47199 10.3927 5.49999 10.594C5.52799 10.7953 5.56966 11.007 5.62499 11.229L3.87499 12.604L4.70799 13.979L6.72899 13.125C7.03499 13.4303 7.37199 13.6907 7.73999 13.906C8.10799 14.1213 8.49332 14.2847 8.89599 14.396L9.16699 16.583Z" fill="#161616"/>
</g>
</svg>
