<svg width="16" height="16" viewBox="0 0 16 16" fill="none" xmlns="http://www.w3.org/2000/svg">
<path fill-rule="evenodd" clip-rule="evenodd" d="M5.52469 13.6568L8.17634 11.0052L8.88345 11.7123L6.2318 14.3639C4.96259 15.6331 2.90481 15.6331 1.6356 14.3639C0.366401 13.0947 0.366401 11.0369 1.6356 9.76772L4.28726 7.11607L4.99436 7.82317L2.34271 10.4748C1.46403 11.3535 1.46403 12.7781 2.34271 13.6568C3.22139 14.5355 4.64601 14.5355 5.52469 13.6568ZM11.7119 8.88383L11.0048 8.17673L13.6564 5.52507C14.5351 4.6464 14.5351 3.22177 13.6564 2.34309C12.7777 1.46441 11.3531 1.46442 10.4744 2.34309L7.82279 4.99475L7.11568 4.28764L9.76733 1.63599C11.0365 0.366784 13.0943 0.366784 14.3635 1.63599C15.6327 2.90519 15.6327 4.96298 14.3635 6.23218L11.7119 8.88383ZM6.26126 10.5043L10.5039 6.26164L9.73787 5.49561L5.49523 9.73825L6.26126 10.5043Z" fill="black" fill-opacity="0.8"/>
</svg>
