<svg width="16" height="16" viewBox="0 0 16 16" fill="none" xmlns="http://www.w3.org/2000/svg">
<path d="M12.9492 3.05029L3.04972 12.9498" stroke="black"/>
<path fill-rule="evenodd" clip-rule="evenodd" d="M4.95174 13.1691C5.84508 13.697 6.88716 14 8 14C11.3137 14 14 11.3137 14 8C14 6.88716 13.697 5.84508 13.1691 4.95174L10.1208 8H11.2171C11.3846 8 11.5317 8.11099 11.5777 8.27198L12.252 10.632C11.3703 12.0534 9.79568 13 8 13C7.16542 13 6.3786 12.7955 5.6869 12.4339L4.95174 13.1691ZM4.57371 9.30448L4.41462 9.24085C4.24678 9.17371 4.15072 8.99639 4.18617 8.81913L4.43746 7.5627C4.47352 7.38242 4.37356 7.20258 4.20141 7.13803L3.15833 6.74687C3.05498 7.14734 3 7.56725 3 8C3 8.83432 3.20435 9.62092 3.56573 10.3125L2.83055 11.0476C2.30282 10.1544 2 9.11259 2 8C2 4.68629 4.68629 2 8 2C9.11259 2 10.1544 2.30282 11.0476 2.83055L10.3125 3.56573C10.2241 3.51956 10.1342 3.47596 10.0429 3.43502C10.0197 3.45341 9.99349 3.46971 9.96421 3.48337L9.28921 3.79837C9.18547 3.84678 9.06531 3.84516 8.96292 3.79396L8.61231 3.61865C8.4701 3.54755 8.38819 3.3945 8.40791 3.23673L8.43517 3.01867C8.29176 3.00631 8.14661 3 8 3C7.71472 3 7.43502 3.02389 7.1628 3.06978L7.40495 3.91734C7.45864 4.10524 7.35903 4.30286 7.17605 4.37148L4.89002 5.22874C4.68156 5.30691 4.58672 5.54844 4.68628 5.74757L5.14635 6.66771C5.20987 6.79475 5.33972 6.875 5.48176 6.875H6.21967C6.31913 6.875 6.41451 6.91451 6.48483 6.98483L6.6891 7.1891L4.57371 9.30448ZM6.38603 11.7348C6.40384 11.7699 6.42716 11.8022 6.45529 11.8303L6.74237 12.1174C6.92751 12.3025 7.24057 12.2457 7.34892 12.0074L8.37847 9.74236L6.38603 11.7348Z" fill="black"/>
</svg>
