<svg width="16" height="16" viewBox="0 0 16 16" fill="none" xmlns="http://www.w3.org/2000/svg">
<path fill-rule="evenodd" clip-rule="evenodd" d="M10.5 5.25C10.5 6.49264 9.49264 7.5 8.25 7.5H5V3H8.25C9.49264 3 10.5 4.00736 10.5 5.25ZM4 7.5V3V2H5H8.25C10.0449 2 11.5 3.45507 11.5 5.25C11.5 6.30983 10.9927 7.25117 10.2077 7.84445C11.2706 8.37876 12 9.47921 12 10.75C12 12.5449 10.5449 14 8.75 14H5H4V13V8.5V7.5ZM5 8.5V13H8.75C9.99264 13 11 11.9926 11 10.75C11 9.50736 9.99264 8.5 8.75 8.5H8.25H5Z" fill="black"/>
</svg>
