<svg width="16" height="16" viewBox="0 0 16 16" fill="none" xmlns="http://www.w3.org/2000/svg">
<path fill-rule="evenodd" clip-rule="evenodd" d="M12.252 10.632C11.3703 12.0534 9.79568 13 8 13C5.23858 13 3 10.7614 3 8C3 7.56725 3.05498 7.14734 3.15833 6.74687L4.20141 7.13803C4.37356 7.20258 4.47352 7.38242 4.43746 7.5627L4.18617 8.81913C4.15072 8.99639 4.24678 9.17371 4.41462 9.24085L5.81139 9.79956C5.92905 9.84662 6.01499 9.94993 6.03984 10.0742L6.35273 11.6387C6.36725 11.7113 6.40294 11.7779 6.45529 11.8303L6.74237 12.1174C6.92751 12.3025 7.24057 12.2457 7.34892 12.0074L8.81373 8.7848C8.91065 8.57156 8.79053 8.32263 8.56329 8.26582L7.60077 8.02519C7.53483 8.00871 7.47461 7.97461 7.42655 7.92655L6.48483 6.98483C6.41451 6.91451 6.31913 6.875 6.21967 6.875H5.48176C5.33972 6.875 5.20987 6.79475 5.14635 6.66771L4.68628 5.74757C4.58672 5.54844 4.68156 5.30691 4.89002 5.22874L7.17605 4.37148C7.35903 4.30286 7.45864 4.10524 7.40495 3.91734L7.1628 3.06978C7.43502 3.02389 7.71472 3 8 3C8.14661 3 8.29176 3.00631 8.43517 3.01867L8.40791 3.23673C8.38819 3.3945 8.4701 3.54755 8.61231 3.61865L8.96292 3.79396C9.06531 3.84516 9.18547 3.84678 9.28921 3.79837L9.96421 3.48337C9.99349 3.46971 10.0197 3.45341 10.0429 3.43502C10.7751 3.7632 11.414 4.26238 11.9088 4.88175L10.7672 4.65343C10.6757 4.63514 10.5807 4.65159 10.5007 4.69959L9.04777 5.57134C8.87975 5.67215 8.81767 5.88534 8.9053 6.0606L9.77135 7.79271C9.83487 7.91975 9.96472 8 10.1068 8H11.2171C11.3846 8 11.5317 8.11099 11.5777 8.27198L12.252 10.632ZM14 8C14 11.3137 11.3137 14 8 14C4.68629 14 2 11.3137 2 8C2 4.68629 4.68629 2 8 2C11.3137 2 14 4.68629 14 8Z" fill="black" fill-opacity="0.8"/>
</svg>
