<svg width="243" height="32" viewBox="0 0 243 32" fill="none" xmlns="http://www.w3.org/2000/svg">
<rect x="0.5" y="0.5" width="242" height="31" rx="3.5" fill="#F2F4F4"/>
<rect x="0.5" y="0.5" width="242" height="31" rx="3.5" stroke="#E2E8F0"/>
<rect x="8.3125" y="6.3125" width="19.375" height="19.375" rx="2.6875" fill="black"/>
<rect x="8.3125" y="6.3125" width="19.375" height="19.375" rx="2.6875" stroke="#3F3F3F" stroke-width="0.625"/>
<path d="M11.7062 20.5703V13.88H13.5617V20.5703H11.7062ZM12.6383 13.0175C12.3625 13.0175 12.1258 12.9261 11.9284 12.7431C11.7338 12.5573 11.6365 12.3352 11.6365 12.0767C11.6365 11.8212 11.7338 11.6019 11.9284 11.419C12.1258 11.2332 12.3625 11.1402 12.6383 11.1402C12.9142 11.1402 13.1494 11.2332 13.344 11.419C13.5414 11.6019 13.6401 11.8212 13.6401 12.0767C13.6401 12.3352 13.5414 12.5573 13.344 12.7431C13.1494 12.9261 12.9142 13.0175 12.6383 13.0175ZM16.781 16.7025V20.5703H14.9255V13.88H16.6939V15.0604H16.7723C16.9204 14.6713 17.1686 14.3635 17.5171 14.137C17.8656 13.9076 18.2881 13.7929 18.7846 13.7929C19.2492 13.7929 19.6543 13.8945 19.9998 14.0978C20.3454 14.301 20.614 14.5914 20.8056 14.9689C20.9973 15.3435 21.0931 15.7907 21.0931 16.3104V20.5703H19.2376V16.6415C19.2405 16.232 19.136 15.9126 18.924 15.6832C18.712 15.4509 18.4202 15.3348 18.0485 15.3348C17.7988 15.3348 17.5781 15.3885 17.3864 15.4959C17.1977 15.6034 17.0496 15.7602 16.9422 15.9663C16.8376 16.1696 16.7839 16.415 16.781 16.7025ZM24.2884 11.6499V20.5703H22.4329V11.6499H24.2884Z" fill="white"/>
<path d="M34.9247 21V13.3636H36.7244V21H34.9247ZM35.8295 12.2798C35.5445 12.2798 35.2992 12.1854 35.0938 11.9964C34.8883 11.8042 34.7855 11.5739 34.7855 11.3054C34.7855 11.0336 34.8883 10.8033 35.0938 10.6143C35.2992 10.4221 35.5445 10.326 35.8295 10.326C36.1179 10.326 36.3632 10.4221 36.5653 10.6143C36.7708 10.8033 36.8736 11.0336 36.8736 11.3054C36.8736 11.5739 36.7708 11.8042 36.5653 11.9964C36.3632 12.1854 36.1179 12.2798 35.8295 12.2798ZM40.3748 16.5256V21H38.5751V13.3636H40.2953V14.6612H40.3848C40.5604 14.2337 40.8405 13.8939 41.225 13.642C41.6127 13.3902 42.0917 13.2642 42.6618 13.2642C43.1887 13.2642 43.6478 13.3769 44.0389 13.6023C44.4333 13.8277 44.7382 14.1541 44.9537 14.5817C45.1724 15.0092 45.2801 15.5279 45.2768 16.1378V21H43.4771V16.4162C43.4771 15.9058 43.3445 15.5064 43.0794 15.218C42.8175 14.9297 42.4546 14.7855 41.9906 14.7855C41.6757 14.7855 41.3957 14.8551 41.1504 14.9943C40.9084 15.1302 40.7179 15.3274 40.5787 15.5859C40.4428 15.8445 40.3748 16.1577 40.3748 16.5256ZM48.9061 10.8182V21H47.1064V10.8182H48.9061ZM52.9542 21.1541C52.4703 21.1541 52.0344 21.0679 51.6467 20.8956C51.2622 20.7199 50.9573 20.4614 50.7319 20.12C50.5098 19.7786 50.3988 19.3577 50.3988 18.8572C50.3988 18.4264 50.4783 18.0701 50.6374 17.7884C50.7965 17.5066 51.0136 17.2812 51.2887 17.1122C51.5638 16.9432 51.8737 16.8156 52.2184 16.7294C52.5664 16.6399 52.926 16.5753 53.2972 16.5355C53.7447 16.4891 54.1076 16.4477 54.386 16.4112C54.6644 16.3714 54.8666 16.3118 54.9925 16.2322C55.1218 16.1494 55.1864 16.0218 55.1864 15.8494V15.8196C55.1864 15.4451 55.0754 15.1551 54.8533 14.9496C54.6313 14.7441 54.3114 14.6413 53.8938 14.6413C53.453 14.6413 53.1033 14.7375 52.8448 14.9297C52.5896 15.1219 52.4173 15.349 52.3278 15.6108L50.6474 15.3722C50.7799 14.9081 50.9987 14.5204 51.3036 14.2088C51.6085 13.8939 51.9814 13.6586 52.4222 13.5028C52.863 13.3438 53.3503 13.2642 53.8839 13.2642C54.2518 13.2642 54.618 13.3073 54.9826 13.3935C55.3472 13.4796 55.6803 13.6222 55.9819 13.821C56.2835 14.0166 56.5255 14.2834 56.7077 14.6214C56.8933 14.9595 56.9862 15.3821 56.9862 15.8892V21H55.256V19.951H55.1964C55.087 20.1631 54.9329 20.362 54.734 20.5476C54.5385 20.7299 54.2915 20.8774 53.9933 20.9901C53.6983 21.0994 53.3519 21.1541 52.9542 21.1541ZM53.4215 19.8317C53.7828 19.8317 54.096 19.7604 54.3612 19.6179C54.6263 19.4721 54.8301 19.2798 54.9727 19.0412C55.1185 18.8026 55.1914 18.5424 55.1914 18.2607V17.3608C55.1351 17.4072 55.0389 17.4503 54.9031 17.4901C54.7705 17.5298 54.6213 17.5646 54.4556 17.5945C54.2899 17.6243 54.1258 17.6508 53.9634 17.674C53.801 17.6972 53.6602 17.7171 53.5408 17.7337C53.2724 17.7701 53.0321 17.8298 52.82 17.9126C52.6078 17.9955 52.4405 18.1115 52.3178 18.2607C52.1952 18.4065 52.1339 18.5954 52.1339 18.8274C52.1339 19.1589 52.2549 19.4091 52.4968 19.5781C52.7388 19.7472 53.047 19.8317 53.4215 19.8317ZM60.5955 16.5256V21H58.7958V13.3636H60.516V14.6612H60.6055C60.7811 14.2337 61.0612 13.8939 61.4457 13.642C61.8335 13.3902 62.3124 13.2642 62.8825 13.2642C63.4094 13.2642 63.8685 13.3769 64.2596 13.6023C64.654 13.8277 64.9589 14.1541 65.1744 14.5817C65.3931 15.0092 65.5008 15.5279 65.4975 16.1378V21H63.6978V16.4162C63.6978 15.9058 63.5652 15.5064 63.3001 15.218C63.0382 14.9297 62.6753 14.7855 62.2113 14.7855C61.8964 14.7855 61.6164 14.8551 61.3711 14.9943C61.1291 15.1302 60.9386 15.3274 60.7994 15.5859C60.6635 15.8445 60.5955 16.1577 60.5955 16.5256ZM70.6481 24.0227C70.0018 24.0227 69.4466 23.9349 68.9826 23.7592C68.5186 23.5869 68.1457 23.3549 67.864 23.0632C67.5823 22.7715 67.3867 22.4484 67.2773 22.0938L68.8981 21.701C68.971 21.8501 69.0771 21.9976 69.2163 22.1435C69.3555 22.2926 69.5427 22.4152 69.7781 22.5114C70.0167 22.6108 70.3166 22.6605 70.6779 22.6605C71.1883 22.6605 71.6109 22.5362 71.9457 22.2876C72.2804 22.0424 72.4478 21.638 72.4478 21.0746V19.6278H72.3583C72.2655 19.8134 72.1296 20.004 71.9506 20.1996C71.775 20.3951 71.5413 20.5592 71.2496 20.6918C70.9613 20.8243 70.5984 20.8906 70.1609 20.8906C69.5742 20.8906 69.0423 20.7531 68.565 20.478C68.091 20.1996 67.7132 19.7853 67.4315 19.2351C67.1531 18.6816 67.0138 17.9889 67.0138 17.157C67.0138 16.3184 67.1531 15.6108 67.4315 15.0341C67.7132 14.4541 68.0927 14.0149 68.57 13.7166C69.0472 13.415 69.5792 13.2642 70.1658 13.2642C70.6133 13.2642 70.9812 13.3404 71.2695 13.4929C71.5612 13.642 71.7932 13.8227 71.9656 14.0348C72.1379 14.2436 72.2688 14.4408 72.3583 14.6264H72.4577V13.3636H74.2326V21.1243C74.2326 21.7772 74.0768 22.3175 73.7653 22.745C73.4537 23.1726 73.0278 23.4924 72.4876 23.7045C71.9473 23.9167 71.3342 24.0227 70.6481 24.0227ZM70.663 19.4787C71.0442 19.4787 71.369 19.3859 71.6374 19.2003C71.9059 19.0147 72.1097 18.7479 72.2489 18.3999C72.3881 18.0518 72.4577 17.6342 72.4577 17.147C72.4577 16.6664 72.3881 16.2455 72.2489 15.8842C72.113 15.523 71.9109 15.2429 71.6424 15.044C71.3772 14.8419 71.0508 14.7408 70.663 14.7408C70.262 14.7408 69.9272 14.8452 69.6587 15.054C69.3903 15.2628 69.1881 15.5495 69.0522 15.9141C68.9163 16.2753 68.8484 16.6863 68.8484 17.147C68.8484 17.6143 68.9163 18.0237 69.0522 18.375C69.1914 18.723 69.3952 18.9948 69.6637 19.1903C69.9355 19.3826 70.2686 19.4787 70.663 19.4787ZM82.9304 21.1491C82.1648 21.1491 81.5036 20.9901 80.9467 20.6719C80.3932 20.3504 79.9673 19.8963 79.669 19.3097C79.3707 18.7197 79.2216 18.0253 79.2216 17.2266C79.2216 16.4411 79.3707 15.7517 79.669 15.1584C79.9706 14.5618 80.3916 14.0978 80.9318 13.7663C81.4721 13.4316 82.1068 13.2642 82.8359 13.2642C83.3066 13.2642 83.7507 13.3404 84.1683 13.4929C84.5893 13.642 84.9605 13.8741 85.282 14.1889C85.6068 14.5038 85.862 14.9048 86.0476 15.392C86.2332 15.8759 86.326 16.4527 86.326 17.1222V17.674H80.0668V16.4609H84.6009C84.5975 16.1162 84.523 15.8097 84.3771 15.5412C84.2313 15.2694 84.0275 15.0556 83.7656 14.8999C83.5071 14.7441 83.2055 14.6662 82.8608 14.6662C82.4929 14.6662 82.1697 14.7557 81.8913 14.9347C81.6129 15.1103 81.3958 15.3423 81.2401 15.6307C81.0876 15.9157 81.0097 16.2289 81.0064 16.5703V17.6293C81.0064 18.0734 81.0876 18.4545 81.25 18.7727C81.4124 19.0876 81.6394 19.3295 81.9311 19.4986C82.2228 19.6643 82.5642 19.7472 82.9553 19.7472C83.2171 19.7472 83.4541 19.7107 83.6662 19.6378C83.8783 19.5616 84.0623 19.4505 84.218 19.3047C84.3738 19.1589 84.4915 18.9782 84.571 18.7628L86.2514 18.9517C86.1454 19.3958 85.9432 19.7836 85.6449 20.1151C85.3499 20.4432 84.9721 20.6984 84.5114 20.8807C84.0507 21.0597 83.5237 21.1491 82.9304 21.1491ZM91.1795 21.1491C90.4172 21.1491 89.7626 20.9818 89.2157 20.647C88.6722 20.3123 88.2529 19.8499 87.9579 19.2599C87.6663 18.6667 87.5204 17.9839 87.5204 17.2116C87.5204 16.4361 87.6696 15.7517 87.9679 15.1584C88.2662 14.5618 88.6871 14.0978 89.2306 13.7663C89.7775 13.4316 90.4238 13.2642 91.1696 13.2642C91.7894 13.2642 92.3379 13.3786 92.8152 13.6072C93.2958 13.8326 93.6786 14.1525 93.9636 14.5668C94.2486 14.9777 94.411 15.4583 94.4508 16.0085H92.7306C92.661 15.6406 92.4953 15.334 92.2335 15.0888C91.975 14.8402 91.6286 14.7159 91.1944 14.7159C90.8265 14.7159 90.5034 14.8153 90.225 15.0142C89.9466 15.2098 89.7295 15.4915 89.5737 15.8594C89.4212 16.2273 89.345 16.6681 89.345 17.1818C89.345 17.7022 89.4212 18.1496 89.5737 18.5241C89.7261 18.8954 89.9399 19.1821 90.215 19.3842C90.4934 19.5831 90.8199 19.6825 91.1944 19.6825C91.4596 19.6825 91.6966 19.6328 91.9054 19.5334C92.1175 19.4306 92.2948 19.2831 92.4373 19.0909C92.5798 18.8987 92.6776 18.665 92.7306 18.3899H94.4508C94.4077 18.9302 94.2486 19.4091 93.9735 19.8267C93.6984 20.241 93.3239 20.5658 92.85 20.8011C92.376 21.0331 91.8192 21.1491 91.1795 21.1491ZM99.2596 21.1491C98.5138 21.1491 97.8675 20.9851 97.3207 20.657C96.7738 20.3288 96.3496 19.8698 96.0479 19.2798C95.7496 18.6899 95.6005 18.0005 95.6005 17.2116C95.6005 16.4228 95.7496 15.7318 96.0479 15.1385C96.3496 14.5452 96.7738 14.0845 97.3207 13.7564C97.8675 13.4283 98.5138 13.2642 99.2596 13.2642C100.005 13.2642 100.652 13.4283 101.199 13.7564C101.745 14.0845 102.168 14.5452 102.466 15.1385C102.768 15.7318 102.919 16.4228 102.919 17.2116C102.919 18.0005 102.768 18.6899 102.466 19.2798C102.168 19.8698 101.745 20.3288 101.199 20.657C100.652 20.9851 100.005 21.1491 99.2596 21.1491ZM99.2695 19.7074C99.6739 19.7074 100.012 19.5964 100.284 19.3743C100.556 19.1489 100.758 18.8473 100.89 18.4695C101.026 18.0916 101.094 17.6707 101.094 17.2067C101.094 16.7393 101.026 16.3168 100.89 15.9389C100.758 15.5578 100.556 15.2545 100.284 15.0291C100.012 14.8037 99.6739 14.6911 99.2695 14.6911C98.8552 14.6911 98.5105 14.8037 98.2354 15.0291C97.9637 15.2545 97.7598 15.5578 97.6239 15.9389C97.4914 16.3168 97.4251 16.7393 97.4251 17.2067C97.4251 17.6707 97.4914 18.0916 97.6239 18.4695C97.7598 18.8473 97.9637 19.1489 98.2354 19.3743C98.5105 19.5964 98.8552 19.7074 99.2695 19.7074ZM110.482 15.3821L108.841 15.5611C108.795 15.3954 108.713 15.2396 108.597 15.0938C108.485 14.9479 108.332 14.8303 108.14 14.7408C107.948 14.6513 107.713 14.6065 107.434 14.6065C107.06 14.6065 106.745 14.6877 106.49 14.8501C106.238 15.0125 106.113 15.223 106.117 15.4815C106.113 15.7036 106.195 15.8842 106.36 16.0234C106.529 16.1626 106.808 16.277 107.195 16.3665L108.498 16.6449C109.221 16.8007 109.758 17.0476 110.109 17.3857C110.463 17.7237 110.642 18.1662 110.646 18.7131C110.642 19.1937 110.502 19.6179 110.223 19.9858C109.948 20.3504 109.565 20.6354 109.075 20.8409C108.584 21.0464 108.021 21.1491 107.384 21.1491C106.45 21.1491 105.697 20.9536 105.127 20.5625C104.557 20.1681 104.218 19.6196 104.108 18.9169L105.863 18.7479C105.943 19.0926 106.112 19.3527 106.37 19.5284C106.629 19.7041 106.965 19.7919 107.379 19.7919C107.807 19.7919 108.15 19.7041 108.409 19.5284C108.67 19.3527 108.801 19.1357 108.801 18.8771C108.801 18.6584 108.717 18.4777 108.548 18.3352C108.382 18.1927 108.124 18.0833 107.772 18.0071L106.47 17.7337C105.737 17.5812 105.195 17.3243 104.844 16.9631C104.493 16.5985 104.319 16.1378 104.322 15.581C104.319 15.1103 104.446 14.7027 104.705 14.358C104.967 14.0099 105.329 13.7415 105.794 13.5526C106.261 13.3603 106.799 13.2642 107.409 13.2642C108.304 13.2642 109.008 13.4548 109.522 13.8359C110.039 14.2171 110.359 14.7325 110.482 15.3821ZM113.248 23.8636C113.003 23.8636 112.776 23.8438 112.567 23.804C112.362 23.7675 112.198 23.7244 112.075 23.6747L112.493 22.2727C112.755 22.349 112.988 22.3854 113.194 22.3821C113.399 22.3788 113.58 22.3142 113.736 22.1882C113.895 22.0656 114.029 21.8601 114.138 21.5717L114.292 21.1591L111.523 13.3636H113.432L115.192 19.1307H115.272L117.037 13.3636H118.951L115.893 21.9247C115.751 22.3291 115.562 22.6754 115.327 22.9638C115.091 23.2554 114.803 23.4775 114.461 23.63C114.123 23.7857 113.719 23.8636 113.248 23.8636ZM126.232 15.3821L124.591 15.5611C124.545 15.3954 124.463 15.2396 124.347 15.0938C124.235 14.9479 124.082 14.8303 123.89 14.7408C123.698 14.6513 123.463 14.6065 123.184 14.6065C122.81 14.6065 122.495 14.6877 122.24 14.8501C121.988 15.0125 121.863 15.223 121.867 15.4815C121.863 15.7036 121.945 15.8842 122.11 16.0234C122.279 16.1626 122.558 16.277 122.945 16.3665L124.248 16.6449C124.971 16.8007 125.508 17.0476 125.859 17.3857C126.213 17.7237 126.392 18.1662 126.396 18.7131C126.392 19.1937 126.252 19.6179 125.973 19.9858C125.698 20.3504 125.315 20.6354 124.825 20.8409C124.334 21.0464 123.771 21.1491 123.134 21.1491C122.2 21.1491 121.447 20.9536 120.877 20.5625C120.307 20.1681 119.968 19.6196 119.858 18.9169L121.613 18.7479C121.693 19.0926 121.862 19.3527 122.12 19.5284C122.379 19.7041 122.715 19.7919 123.129 19.7919C123.557 19.7919 123.9 19.7041 124.159 19.5284C124.42 19.3527 124.551 19.1357 124.551 18.8771C124.551 18.6584 124.467 18.4777 124.298 18.3352C124.132 18.1927 123.874 18.0833 123.522 18.0071L122.22 17.7337C121.487 17.5812 120.945 17.3243 120.594 16.9631C120.243 16.5985 120.069 16.1378 120.072 15.581C120.069 15.1103 120.196 14.7027 120.455 14.358C120.717 14.0099 121.079 13.7415 121.544 13.5526C122.011 13.3603 122.549 13.2642 123.159 13.2642C124.054 13.2642 124.758 13.4548 125.272 13.8359C125.789 14.2171 126.109 14.7325 126.232 15.3821ZM131.693 13.3636V14.7557H127.303V13.3636H131.693ZM128.387 11.5341H130.187V18.7031C130.187 18.9451 130.223 19.1307 130.296 19.2599C130.372 19.3859 130.472 19.4721 130.594 19.5185C130.717 19.5649 130.853 19.5881 131.002 19.5881C131.115 19.5881 131.217 19.5798 131.31 19.5632C131.406 19.5466 131.479 19.5317 131.529 19.5185L131.832 20.9254C131.736 20.9586 131.599 20.995 131.42 21.0348C131.244 21.0746 131.028 21.0978 130.773 21.1044C130.323 21.1177 129.916 21.0497 129.555 20.9006C129.194 20.7481 128.907 20.5128 128.695 20.1946C128.486 19.8764 128.384 19.4787 128.387 19.0014V11.5341ZM136.497 21.1491C135.731 21.1491 135.07 20.9901 134.513 20.6719C133.96 20.3504 133.534 19.8963 133.235 19.3097C132.937 18.7197 132.788 18.0253 132.788 17.2266C132.788 16.4411 132.937 15.7517 133.235 15.1584C133.537 14.5618 133.958 14.0978 134.498 13.7663C135.038 13.4316 135.673 13.2642 136.402 13.2642C136.873 13.2642 137.317 13.3404 137.735 13.4929C138.156 13.642 138.527 13.8741 138.848 14.1889C139.173 14.5038 139.428 14.9048 139.614 15.392C139.8 15.8759 139.892 16.4527 139.892 17.1222V17.674H133.633V16.4609H138.167C138.164 16.1162 138.089 15.8097 137.944 15.5412C137.798 15.2694 137.594 15.0556 137.332 14.8999C137.074 14.7441 136.772 14.6662 136.427 14.6662C136.059 14.6662 135.736 14.7557 135.458 14.9347C135.179 15.1103 134.962 15.3423 134.806 15.6307C134.654 15.9157 134.576 16.2289 134.573 16.5703V17.6293C134.573 18.0734 134.654 18.4545 134.816 18.7727C134.979 19.0876 135.206 19.3295 135.498 19.4986C135.789 19.6643 136.131 19.7472 136.522 19.7472C136.783 19.7472 137.02 19.7107 137.233 19.6378C137.445 19.5616 137.629 19.4505 137.784 19.3047C137.94 19.1589 138.058 18.9782 138.137 18.7628L139.818 18.9517C139.712 19.3958 139.51 19.7836 139.211 20.1151C138.916 20.4432 138.538 20.6984 138.078 20.8807C137.617 21.0597 137.09 21.1491 136.497 21.1491ZM141.415 21V13.3636H143.135V14.6612H143.225C143.384 14.2237 143.647 13.8823 144.015 13.6371C144.383 13.3885 144.822 13.2642 145.333 13.2642C145.85 13.2642 146.285 13.3902 146.64 13.642C146.998 13.8906 147.25 14.2304 147.396 14.6612H147.475C147.644 14.237 147.929 13.8989 148.33 13.647C148.735 13.3918 149.214 13.2642 149.767 13.2642C150.47 13.2642 151.043 13.4863 151.487 13.9304C151.932 14.3745 152.154 15.0225 152.154 15.8743V21H150.349V16.1527C150.349 15.6787 150.223 15.3324 149.971 15.1136C149.719 14.8916 149.411 14.7805 149.046 14.7805C148.612 14.7805 148.272 14.9164 148.027 15.1882C147.785 15.4567 147.664 15.8063 147.664 16.2372V21H145.899V16.0781C145.899 15.6837 145.78 15.3688 145.541 15.1335C145.306 14.8982 144.998 14.7805 144.617 14.7805C144.358 14.7805 144.123 14.8468 143.911 14.9794C143.699 15.1087 143.53 15.2926 143.404 15.5312C143.278 15.7666 143.215 16.0417 143.215 16.3565V21H141.415ZM160.783 21.1491C160.021 21.1491 159.366 20.9818 158.819 20.647C158.276 20.3123 157.856 19.8499 157.561 19.2599C157.27 18.6667 157.124 17.9839 157.124 17.2116C157.124 16.4361 157.273 15.7517 157.571 15.1584C157.87 14.5618 158.291 14.0978 158.834 13.7663C159.381 13.4316 160.027 13.2642 160.773 13.2642C161.393 13.2642 161.941 13.3786 162.419 13.6072C162.899 13.8326 163.282 14.1525 163.567 14.5668C163.852 14.9777 164.015 15.4583 164.054 16.0085H162.334C162.265 15.6406 162.099 15.334 161.837 15.0888C161.578 14.8402 161.232 14.7159 160.798 14.7159C160.43 14.7159 160.107 14.8153 159.828 15.0142C159.55 15.2098 159.333 15.4915 159.177 15.8594C159.025 16.2273 158.949 16.6681 158.949 17.1818C158.949 17.7022 159.025 18.1496 159.177 18.5241C159.33 18.8954 159.543 19.1821 159.819 19.3842C160.097 19.5831 160.423 19.6825 160.798 19.6825C161.063 19.6825 161.3 19.6328 161.509 19.5334C161.721 19.4306 161.898 19.2831 162.041 19.0909C162.183 18.8987 162.281 18.665 162.334 18.3899H164.054C164.011 18.9302 163.852 19.4091 163.577 19.8267C163.302 20.241 162.927 20.5658 162.453 20.8011C161.98 21.0331 161.423 21.1491 160.783 21.1491ZM168.863 21.1491C168.117 21.1491 167.471 20.9851 166.924 20.657C166.377 20.3288 165.953 19.8698 165.651 19.2798C165.353 18.6899 165.204 18.0005 165.204 17.2116C165.204 16.4228 165.353 15.7318 165.651 15.1385C165.953 14.5452 166.377 14.0845 166.924 13.7564C167.471 13.4283 168.117 13.2642 168.863 13.2642C169.609 13.2642 170.255 13.4283 170.802 13.7564C171.349 14.0845 171.771 14.5452 172.07 15.1385C172.371 15.7318 172.522 16.4228 172.522 17.2116C172.522 18.0005 172.371 18.6899 172.07 19.2798C171.771 19.8698 171.349 20.3288 170.802 20.657C170.255 20.9851 169.609 21.1491 168.863 21.1491ZM168.873 19.7074C169.277 19.7074 169.615 19.5964 169.887 19.3743C170.159 19.1489 170.361 18.8473 170.494 18.4695C170.63 18.0916 170.698 17.6707 170.698 17.2067C170.698 16.7393 170.63 16.3168 170.494 15.9389C170.361 15.5578 170.159 15.2545 169.887 15.0291C169.615 14.8037 169.277 14.6911 168.873 14.6911C168.459 14.6911 168.114 14.8037 167.839 15.0291C167.567 15.2545 167.363 15.5578 167.227 15.9389C167.095 16.3168 167.029 16.7393 167.029 17.2067C167.029 17.6707 167.095 18.0916 167.227 18.4695C167.363 18.8473 167.567 19.1489 167.839 19.3743C168.114 19.5964 168.459 19.7074 168.873 19.7074ZM174.05 21V13.3636H175.77V14.6612H175.859C176.018 14.2237 176.282 13.8823 176.65 13.6371C177.018 13.3885 177.457 13.2642 177.967 13.2642C178.484 13.2642 178.92 13.3902 179.275 13.642C179.633 13.8906 179.885 14.2304 180.031 14.6612H180.11C180.279 14.237 180.564 13.8989 180.965 13.647C181.37 13.3918 181.848 13.2642 182.402 13.2642C183.105 13.2642 183.678 13.4863 184.122 13.9304C184.566 14.3745 184.788 15.0225 184.788 15.8743V21H182.984V16.1527C182.984 15.6787 182.858 15.3324 182.606 15.1136C182.354 14.8916 182.046 14.7805 181.681 14.7805C181.247 14.7805 180.907 14.9164 180.662 15.1882C180.42 15.4567 180.299 15.8063 180.299 16.2372V21H178.534V16.0781C178.534 15.6837 178.415 15.3688 178.176 15.1335C177.941 14.8982 177.633 14.7805 177.251 14.7805C176.993 14.7805 176.758 14.8468 176.545 14.9794C176.333 15.1087 176.164 15.2926 176.038 15.5312C175.912 15.7666 175.849 16.0417 175.849 16.3565V21H174.05ZM186.614 23.8636V13.3636H188.384V14.6264H188.488C188.581 14.4408 188.712 14.2436 188.881 14.0348C189.05 13.8227 189.279 13.642 189.567 13.4929C189.856 13.3404 190.224 13.2642 190.671 13.2642C191.261 13.2642 191.793 13.415 192.267 13.7166C192.744 14.0149 193.122 14.4574 193.4 15.044C193.682 15.6274 193.823 16.3433 193.823 17.1918C193.823 18.0303 193.685 18.7429 193.41 19.3295C193.135 19.9162 192.761 20.3636 192.287 20.6719C191.813 20.9801 191.276 21.1342 190.676 21.1342C190.238 21.1342 189.876 21.0613 189.587 20.9155C189.299 20.7696 189.067 20.594 188.891 20.3885C188.719 20.1797 188.585 19.9825 188.488 19.7969H188.414V23.8636H186.614ZM188.379 17.1818C188.379 17.6757 188.449 18.1082 188.588 18.4794C188.73 18.8506 188.934 19.1406 189.199 19.3494C189.468 19.5549 189.793 19.6577 190.174 19.6577C190.572 19.6577 190.905 19.5516 191.173 19.3395C191.442 19.1241 191.644 18.8307 191.78 18.4595C191.919 18.085 191.988 17.6591 191.988 17.1818C191.988 16.7079 191.921 16.2869 191.785 15.919C191.649 15.5511 191.447 15.2628 191.178 15.054C190.91 14.8452 190.575 14.7408 190.174 14.7408C189.789 14.7408 189.463 14.8419 189.194 15.044C188.926 15.2462 188.722 15.5296 188.583 15.8942C188.447 16.2588 188.379 16.688 188.379 17.1818ZM197.562 21.1541C197.078 21.1541 196.642 21.0679 196.254 20.8956C195.87 20.7199 195.565 20.4614 195.339 20.12C195.117 19.7786 195.006 19.3577 195.006 18.8572C195.006 18.4264 195.086 18.0701 195.245 17.7884C195.404 17.5066 195.621 17.2812 195.896 17.1122C196.171 16.9432 196.481 16.8156 196.826 16.7294C197.174 16.6399 197.533 16.5753 197.905 16.5355C198.352 16.4891 198.715 16.4477 198.993 16.4112C199.272 16.3714 199.474 16.3118 199.6 16.2322C199.729 16.1494 199.794 16.0218 199.794 15.8494V15.8196C199.794 15.4451 199.683 15.1551 199.461 14.9496C199.239 14.7441 198.919 14.6413 198.501 14.6413C198.06 14.6413 197.711 14.7375 197.452 14.9297C197.197 15.1219 197.025 15.349 196.935 15.6108L195.255 15.3722C195.387 14.9081 195.606 14.5204 195.911 14.2088C196.216 13.8939 196.589 13.6586 197.03 13.5028C197.47 13.3438 197.958 13.2642 198.491 13.2642C198.859 13.2642 199.225 13.3073 199.59 13.3935C199.955 13.4796 200.288 13.6222 200.589 13.821C200.891 14.0166 201.133 14.2834 201.315 14.6214C201.501 14.9595 201.594 15.3821 201.594 15.8892V21H199.863V19.951H199.804C199.694 20.1631 199.54 20.362 199.341 20.5476C199.146 20.7299 198.899 20.8774 198.601 20.9901C198.306 21.0994 197.959 21.1541 197.562 21.1541ZM198.029 19.8317C198.39 19.8317 198.703 19.7604 198.969 19.6179C199.234 19.4721 199.438 19.2798 199.58 19.0412C199.726 18.8026 199.799 18.5424 199.799 18.2607V17.3608C199.742 17.4072 199.646 17.4503 199.51 17.4901C199.378 17.5298 199.229 17.5646 199.063 17.5945C198.897 17.6243 198.733 17.6508 198.571 17.674C198.408 17.6972 198.268 17.7171 198.148 17.7337C197.88 17.7701 197.64 17.8298 197.427 17.9126C197.215 17.9955 197.048 18.1115 196.925 18.2607C196.803 18.4065 196.741 18.5954 196.741 18.8274C196.741 19.1589 196.862 19.4091 197.104 19.5781C197.346 19.7472 197.654 19.8317 198.029 19.8317ZM207.216 13.3636V14.7557H202.827V13.3636H207.216ZM203.91 11.5341H205.71V18.7031C205.71 18.9451 205.747 19.1307 205.819 19.2599C205.896 19.3859 205.995 19.4721 206.118 19.5185C206.24 19.5649 206.376 19.5881 206.525 19.5881C206.638 19.5881 206.741 19.5798 206.834 19.5632C206.93 19.5466 207.003 19.5317 207.052 19.5185L207.356 20.9254C207.26 20.9586 207.122 20.995 206.943 21.0348C206.767 21.0746 206.552 21.0978 206.297 21.1044C205.846 21.1177 205.44 21.0497 205.079 20.9006C204.717 20.7481 204.431 20.5128 204.219 20.1946C204.01 19.8764 203.907 19.4787 203.91 19.0014V11.5341ZM208.722 21V13.3636H210.521V21H208.722ZM209.626 12.2798C209.341 12.2798 209.096 12.1854 208.891 11.9964C208.685 11.8042 208.582 11.5739 208.582 11.3054C208.582 11.0336 208.685 10.8033 208.891 10.6143C209.096 10.4221 209.341 10.326 209.626 10.326C209.915 10.326 210.16 10.4221 210.362 10.6143C210.568 10.8033 210.67 11.0336 210.67 11.3054C210.67 11.5739 210.568 11.8042 210.362 11.9964C210.16 12.1854 209.915 12.2798 209.626 12.2798ZM212.452 21V10.8182H214.251V14.6264H214.326C214.419 14.4408 214.55 14.2436 214.719 14.0348C214.888 13.8227 215.116 13.642 215.405 13.4929C215.693 13.3404 216.061 13.2642 216.508 13.2642C217.098 13.2642 217.63 13.415 218.104 13.7166C218.581 14.0149 218.959 14.4574 219.238 15.044C219.519 15.6274 219.66 16.3433 219.66 17.1918C219.66 18.0303 219.523 18.7429 219.248 19.3295C218.973 19.9162 218.598 20.3636 218.124 20.6719C217.65 20.9801 217.113 21.1342 216.513 21.1342C216.076 21.1342 215.713 21.0613 215.425 20.9155C215.136 20.7696 214.904 20.594 214.729 20.3885C214.556 20.1797 214.422 19.9825 214.326 19.7969H214.221V21H212.452ZM214.216 17.1818C214.216 17.6757 214.286 18.1082 214.425 18.4794C214.568 18.8506 214.772 19.1406 215.037 19.3494C215.305 19.5549 215.63 19.6577 216.011 19.6577C216.409 19.6577 216.742 19.5516 217.01 19.3395C217.279 19.1241 217.481 18.8307 217.617 18.4595C217.756 18.085 217.826 17.6591 217.826 17.1818C217.826 16.7079 217.758 16.2869 217.622 15.919C217.486 15.5511 217.284 15.2628 217.015 15.054C216.747 14.8452 216.412 14.7408 216.011 14.7408C215.627 14.7408 215.3 14.8419 215.032 15.044C214.763 15.2462 214.559 15.5296 214.42 15.8942C214.284 16.2588 214.216 16.688 214.216 17.1818ZM222.99 10.8182V21H221.19V10.8182H222.99ZM228.221 21.1491C227.456 21.1491 226.795 20.9901 226.238 20.6719C225.684 20.3504 225.258 19.8963 224.96 19.3097C224.662 18.7197 224.513 18.0253 224.513 17.2266C224.513 16.4411 224.662 15.7517 224.96 15.1584C225.262 14.5618 225.683 14.0978 226.223 13.7663C226.763 13.4316 227.398 13.2642 228.127 13.2642C228.598 13.2642 229.042 13.3404 229.459 13.4929C229.88 13.642 230.251 13.8741 230.573 14.1889C230.898 14.5038 231.153 14.9048 231.339 15.392C231.524 15.8759 231.617 16.4527 231.617 17.1222V17.674H225.358V16.4609H229.892C229.889 16.1162 229.814 15.8097 229.668 15.5412C229.522 15.2694 229.318 15.0556 229.057 14.8999C228.798 14.7441 228.497 14.6662 228.152 14.6662C227.784 14.6662 227.461 14.7557 227.182 14.9347C226.904 15.1103 226.687 15.3423 226.531 15.6307C226.379 15.9157 226.301 16.2289 226.297 16.5703V17.6293C226.297 18.0734 226.379 18.4545 226.541 18.7727C226.703 19.0876 226.93 19.3295 227.222 19.4986C227.514 19.6643 227.855 19.7472 228.246 19.7472C228.508 19.7472 228.745 19.7107 228.957 19.6378C229.169 19.5616 229.353 19.4505 229.509 19.3047C229.665 19.1589 229.782 18.9782 229.862 18.7628L231.542 18.9517C231.436 19.3958 231.234 19.7836 230.936 20.1151C230.641 20.4432 230.263 20.6984 229.802 20.8807C229.342 21.0597 228.815 21.1491 228.221 21.1491Z" fill="#121516"/>
</svg>
