<svg width="32" height="32" viewBox="0 0 32 32" fill="none" xmlns="http://www.w3.org/2000/svg">
<path d="M14.3998 19.8C14.0698 19.8 13.7872 19.6824 13.552 19.4472C13.3168 19.212 13.1994 18.9296 13.1998 18.6V11.4C13.1998 11.07 13.3174 10.7874 13.5526 10.5522C13.7878 10.317 14.0702 10.1996 14.3998 10.2H19.7998C20.1298 10.2 20.4124 10.3176 20.6476 10.5528C20.8828 10.788 21.0002 11.0704 20.9998 11.4V18.6C20.9998 18.93 20.8822 19.2126 20.647 19.4478C20.4118 19.683 20.1294 19.8004 19.7998 19.8H14.3998ZM14.3998 18.6H19.7998V11.4H14.3998V18.6ZM11.9998 22.2C11.6698 22.2 11.3872 22.0824 11.152 21.8472C10.9168 21.612 10.7994 21.3296 10.7998 21V12.6H11.9998V21H18.5998V22.2H11.9998Z" fill="black"/>
</svg>
