<svg width="32" height="32" viewBox="0 0 32 32" fill="none" xmlns="http://www.w3.org/2000/svg">
<path d="M20.9492 11.0503L11.0497 20.9498" stroke="black"/>
<path fill-rule="evenodd" clip-rule="evenodd" d="M12.9517 21.1691C13.8451 21.697 14.8872 22 16 22C19.3137 22 22 19.3137 22 16C22 14.8872 21.697 13.8451 21.1691 12.9517L18.1208 16H19.2171C19.3846 16 19.5317 16.111 19.5777 16.272L20.252 18.632C19.3703 20.0534 17.7957 21 16 21C15.1654 21 14.3786 20.7955 13.6869 20.4339L12.9517 21.1691ZM12.5737 17.3045L12.4146 17.2408C12.2468 17.1737 12.1507 16.9964 12.1862 16.8191L12.4375 15.5627C12.4735 15.3824 12.3736 15.2026 12.2014 15.138L11.1583 14.7469C11.055 15.1473 11 15.5672 11 16C11 16.8343 11.2043 17.6209 11.5657 18.3125L10.8305 19.0476C10.3028 18.1544 10 17.1126 10 16C10 12.6863 12.6863 10 16 10C17.1126 10 18.1544 10.3028 19.0476 10.8305L18.3125 11.5657C18.2241 11.5196 18.1342 11.476 18.0429 11.435C18.0197 11.4534 17.9935 11.4697 17.9642 11.4834L17.2892 11.7984C17.1855 11.8468 17.0653 11.8452 16.9629 11.794L16.6123 11.6187C16.4701 11.5475 16.3882 11.3945 16.4079 11.2367L16.4352 11.0187C16.2918 11.0063 16.1466 11 16 11C15.7147 11 15.435 11.0239 15.1628 11.0698L15.405 11.9173C15.4586 12.1052 15.359 12.3029 15.1761 12.3715L12.89 13.2287C12.6816 13.3069 12.5867 13.5484 12.6863 13.7476L13.1464 14.6677C13.2099 14.7947 13.3397 14.875 13.4818 14.875H14.2197C14.3191 14.875 14.4145 14.9145 14.4848 14.9848L14.6891 15.1891L12.5737 17.3045ZM14.386 19.7348C14.4038 19.7699 14.4272 19.8022 14.4553 19.8303L14.7424 20.1174C14.9275 20.3025 15.2406 20.2457 15.3489 20.0074L16.3785 17.7424L14.386 19.7348Z" fill="black"/>
</svg>
