<svg width="32" height="32" viewBox="0 0 32 32" fill="none" xmlns="http://www.w3.org/2000/svg">
<path d="M8.00781 22.1653L23.333 8.39335L24.0014 9.13715L8.67622 22.9091L8.00781 22.1653Z" fill="black" fill-opacity="0.8"/>
<path fill-rule="evenodd" clip-rule="evenodd" d="M20.6797 9.43661C19.3639 8.48599 17.7474 7.92578 16 7.92578C11.5817 7.92578 8 11.5075 8 15.9258C8 17.3676 8.38143 18.7204 9.04889 19.8886L9.8126 19.2023C9.29386 18.2247 9 17.1096 9 15.9258C9 15.3076 9.08013 14.7082 9.23057 14.1372L11.0347 14.8138C11.2069 14.8784 11.3068 15.0582 11.2708 15.2385L10.8945 17.1199C10.8591 17.2972 10.9551 17.4745 11.123 17.5416L11.495 17.6904L14.446 15.0385L13.9432 14.5356C13.8728 14.4653 13.7775 14.4258 13.678 14.4258H12.5651C12.4231 14.4258 12.2932 14.3455 12.2297 14.2185L11.5196 12.7984C11.4201 12.5992 11.5149 12.3577 11.7234 12.2795L15.0094 11.0473C15.1924 10.9786 15.292 10.781 15.2383 10.5931L14.7947 9.04055L14.7914 9.02973C15.184 8.9614 15.5879 8.92578 16 8.92578C16.2102 8.92578 16.4182 8.93505 16.6237 8.95319C16.6207 8.9661 16.6183 8.9793 16.6166 8.99277L16.5329 9.66251C16.5132 9.82028 16.5951 9.97333 16.7373 10.0444L17.3379 10.3447C17.4403 10.3959 17.5605 10.3976 17.6642 10.3492L18.9642 9.74248C19.0175 9.71761 19.0606 9.68402 19.0939 9.6449C19.3795 9.78586 19.6541 9.94572 19.9161 10.1229L20.6797 9.43661ZM17.4009 13.7276L19.8782 11.5014L21.1019 11.7462L17.8647 14.6552L17.4009 13.7276ZM15.1542 15.7466L12.5303 18.1046L13.1447 18.3503C13.2624 18.3974 13.3483 18.5007 13.3732 18.625L13.3845 18.6814L16.2076 16.1444L15.4341 15.951C15.3682 15.9345 15.3079 15.9004 15.2599 15.8523L15.1542 15.7466ZM17.1757 16.6189L13.6124 19.821L13.8111 20.8144C13.8256 20.887 13.8613 20.9537 13.9136 21.0061L14.4507 21.5431C14.6358 21.7283 14.9489 21.6715 15.0573 21.4332L17.1471 16.8356C17.1794 16.7645 17.1876 16.6894 17.1757 16.6189ZM10.9997 20.8245C10.7663 20.5862 10.5498 20.3314 10.3521 20.062L9.60506 20.7333C9.80598 21.0001 10.0232 21.254 10.2553 21.4934L10.9997 20.8245ZM10.9985 22.17L11.7538 21.4913C12.9315 22.3912 14.4033 22.9258 16 22.9258C18.4074 22.9258 20.531 21.7105 21.7907 19.8599L20.7444 16.1978C20.6984 16.0368 20.5512 15.9258 20.3838 15.9258H18.7318C18.5897 15.9258 18.4599 15.8455 18.3964 15.7185L18.3285 15.5829L22.7417 11.617C23.5382 12.8607 24 14.3393 24 15.9258C24 20.3441 20.4183 23.9258 16 23.9258C14.1074 23.9258 12.3683 23.2686 10.9985 22.17ZM22.1477 10.8063C21.934 10.5499 21.7044 10.3071 21.4607 10.0793L20.7136 10.7506C20.9603 10.9754 21.1908 11.2176 21.4033 11.4753L22.1477 10.8063Z" fill="black" fill-opacity="0.8"/>
</svg>
