<svg width="32" height="32" viewBox="0 0 32 32" fill="none" xmlns="http://www.w3.org/2000/svg">
<path fill-rule="evenodd" clip-rule="evenodd" d="M9 16C9 19.866 12.134 23 16 23C19.866 23 23 19.866 23 16C23 12.134 19.866 9 16 9C12.134 9 9 12.134 9 16ZM16 8C11.5817 8 8 11.5817 8 16C8 20.4183 11.5817 24 16 24C20.4183 24 24 20.4183 24 16C24 11.5817 20.4183 8 16 8ZM16 11.7499C16.4142 11.7499 16.75 12.0857 16.75 12.4999V15.6259C16.75 16.0401 16.4142 16.3759 16 16.3759C15.5858 16.3759 15.25 16.0401 15.25 15.6259V12.4999C15.25 12.0857 15.5858 11.7499 16 11.7499ZM17 18.9999C17 18.4476 16.5523 17.9999 16 17.9999C15.4477 17.9999 15 18.4476 15 18.9999V19.0685C15 19.6208 15.4477 20.0685 16 20.0685C16.5523 20.0685 17 19.6208 17 19.0685V18.9999Z" fill="black" fill-opacity="0.8"/>
</svg>
