<svg width="32" height="32" viewBox="0 0 32 32" fill="none" xmlns="http://www.w3.org/2000/svg">
<path d="M18.0596 19.37L17.5346 20.825C17.4946 20.935 17.4246 21.025 17.3246 21.095C17.2246 21.165 17.1146 21.2 16.9946 21.2C16.7946 21.2 16.6322 21.1174 16.5074 20.9522C16.3826 20.787 16.36 20.6046 16.4396 20.405L18.7196 14.375C18.7696 14.265 18.8446 14.175 18.9446 14.105C19.0446 14.035 19.1546 14 19.2746 14H19.7246C19.8446 14 19.9546 14.035 20.0546 14.105C20.1546 14.175 20.2296 14.265 20.2796 14.375L22.5596 20.42C22.6396 20.61 22.6196 20.7876 22.4996 20.9528C22.3796 21.118 22.2196 21.2004 22.0196 21.2C21.8896 21.2 21.7772 21.1624 21.6824 21.0872C21.5876 21.012 21.515 20.9146 21.4646 20.795L20.9696 19.37H18.0596ZM18.4196 18.32H20.5796L19.5296 15.35H19.4696L18.4196 18.32ZM14.3996 16.4L11.8196 18.98C11.7096 19.09 11.5696 19.145 11.3996 19.145C11.2296 19.145 11.0896 19.09 10.9796 18.98C10.8696 18.87 10.8146 18.73 10.8146 18.56C10.8146 18.39 10.8696 18.25 10.9796 18.14L13.5896 15.53C13.2096 15.11 12.877 14.675 12.5918 14.225C12.3066 13.775 12.0592 13.3 11.8496 12.8H13.1096C13.2896 13.16 13.4822 13.485 13.6874 13.775C13.8926 14.065 14.14 14.37 14.4296 14.69C14.8696 14.21 15.2346 13.7174 15.5246 13.2122C15.8146 12.707 16.0596 12.1696 16.2596 11.6H10.1996C10.0296 11.6 9.88701 11.5424 9.77181 11.4272C9.65661 11.312 9.59921 11.1696 9.59961 11C9.59961 10.83 9.65721 10.6874 9.77241 10.5722C9.88761 10.457 10.03 10.3996 10.1996 10.4H13.7996V9.79995C13.7996 9.62995 13.8572 9.48735 13.9724 9.37215C14.0876 9.25695 14.23 9.19955 14.3996 9.19995C14.5696 9.19995 14.7122 9.25755 14.8274 9.37275C14.9426 9.48795 15 9.63035 14.9996 9.79995V10.4H18.5996C18.7696 10.4 18.9122 10.4576 19.0274 10.5728C19.1426 10.688 19.2 10.8304 19.1996 11C19.1996 11.17 19.142 11.3126 19.0268 11.4278C18.9116 11.543 18.7692 11.6004 18.5996 11.6H17.4596C17.2496 12.31 16.9646 13 16.6046 13.67C16.2446 14.34 15.7996 14.97 15.2696 15.56L16.7096 17.03L16.2596 18.26L14.3996 16.4Z" fill="black"/>
</svg>
