<svg width="32" height="32" viewBox="0 0 32 32" fill="none" xmlns="http://www.w3.org/2000/svg">
<path fill-rule="evenodd" clip-rule="evenodd" d="M24.0005 16C24.0005 20.4183 20.4187 24 16.0005 24C12.8052 24 10.0474 22.1267 8.76555 19.4185C8.93956 19.0632 9.17036 18.7409 9.44613 18.4632C10.4428 21.1139 13.0014 23 16.0005 23C18.4079 23 20.5315 21.7847 21.7912 19.9341L20.7448 16.272C20.6988 16.111 20.5517 16 20.3843 16H18.7322C18.5902 16 18.4603 15.9197 18.3968 15.7927L17.1558 13.3106C17.0681 13.1353 17.1302 12.9222 17.2982 12.8213L19.3761 11.5746C19.4561 11.5266 19.5512 11.5101 19.6426 11.5284L21.704 11.9407C21.034 11.001 20.1376 10.234 19.0944 9.71912C19.0611 9.75824 19.018 9.79183 18.9647 9.8167L17.6647 10.4234C17.5609 10.4718 17.4408 10.4702 17.3384 10.419L16.7378 10.1187C16.5956 10.0475 16.5137 9.8945 16.5334 9.73673L16.6171 9.06699C16.6188 9.05352 16.6212 9.04032 16.6242 9.02741C16.4187 9.00926 16.2107 9 16.0005 9C15.5883 9 15.1845 9.03562 14.7919 9.10395L14.7952 9.11477L15.2388 10.6673C15.2924 10.8552 15.1928 11.0529 15.0099 11.1215L11.7238 12.3537C11.5154 12.4319 11.4205 12.6734 11.5201 12.8726L12.0324 13.8971L11.9172 14.0005C11.141 14.0095 10.3951 14.1449 9.69926 14.387L9.23103 14.2115C9.19642 14.3428 9.16553 14.4757 9.13849 14.6099C8.75145 14.7835 8.38304 14.9913 8.03711 15.2293C8.42488 11.1726 11.8422 8 16.0005 8C20.4187 8 24.0005 11.5817 24.0005 16ZM11.4401 17.4433C11.2917 17.4665 11.1462 17.4988 11.0044 17.5396C11.038 17.5716 11.0781 17.5977 11.1234 17.6158L11.859 17.9101L11.4401 17.4433ZM13.5337 19.4995L13.8115 20.8887C13.826 20.9613 13.8617 21.0279 13.9141 21.0803L14.4512 21.6174C14.6363 21.8025 14.9494 21.7457 15.0577 21.5074L17.1475 16.9098C17.2337 16.7203 17.1484 16.5026 16.9688 16.4166L13.5337 19.4995Z" fill="black" fill-opacity="0.8"/>
<path d="M11.8994 15.5H15.8994M15.8994 15.5L13.0423 18M15.8994 15.5L13.0423 13" stroke="black"/>
<path fill-rule="evenodd" clip-rule="evenodd" d="M8.15677 25.2426C7.07099 24.1569 6.39941 22.6569 6.39941 21C6.39941 17.6863 9.08571 15 12.3994 15V16C9.63799 16 7.39941 18.2386 7.39941 21C7.39941 22.3807 7.95906 23.6307 8.86388 24.5355L8.15677 25.2426Z" fill="black"/>
</svg>
