<svg width="32" height="32" viewBox="0 0 32 32" fill="none" xmlns="http://www.w3.org/2000/svg">
<path fill-rule="evenodd" clip-rule="evenodd" d="M6.09961 6.1001H6.59961H11.9996H17.3996H17.8996V6.6001V9.6001H16.8996V7.1001H12.4996V16.9001H14.3996V17.9001H11.9996H9.59961V16.9001H11.4996V7.1001H7.09961V9.6001H6.09961V6.6001V6.1001Z" fill="black" fill-opacity="0.8"/>
<path fill-rule="evenodd" clip-rule="evenodd" d="M27 16.1877L25.8253 17.656C25.8172 17.6039 25.8084 17.5519 25.7988 17.5C25.6473 16.6806 25.3107 15.9019 24.8094 15.2254C24.1073 14.278 23.1193 13.5813 21.9911 13.2381C20.863 12.8949 19.6544 12.9234 18.5436 13.3193C17.7505 13.6021 17.0373 14.0614 16.4552 14.6576C16.222 14.8964 16.0099 15.1571 15.8222 15.4372L15.8223 15.4373L16.6528 15.9941L16.6529 15.9942C17.1902 15.1928 17.9707 14.5854 18.8795 14.2614C19.7882 13.9375 20.777 13.9142 21.7 14.195C22.6231 14.4757 23.4314 15.0457 24.0058 15.8209C24.4905 16.475 24.787 17.246 24.8678 18.0506L22.6678 16.584L22.1131 17.416L25.1131 19.416L25.4945 19.6703L25.7809 19.3123L27.7809 16.8123L27 16.1877ZM15 17.6877L13 20.1877L13.7809 20.8123L14.9556 19.344C14.9637 19.3961 14.9725 19.4481 14.9821 19.5C15.1336 20.3194 15.4702 21.0981 15.9715 21.7746C16.6736 22.722 17.6616 23.4187 18.7897 23.7619C19.9179 24.1051 21.1265 24.0766 22.2372 23.6807C23.0303 23.3979 23.7436 22.9386 24.3257 22.3424C24.5583 22.1041 24.7701 21.844 24.9575 21.5646L24.9587 21.5628L24.9586 21.5627L24.1281 21.0059L24.128 21.0058L24.1269 21.0074C23.5897 21.808 22.8095 22.4148 21.9014 22.7386C20.9926 23.0625 20.0038 23.0858 19.0808 22.805C18.1578 22.5243 17.3495 21.9543 16.7751 21.1791C16.2903 20.525 15.9938 19.754 15.9131 18.9494L18.1131 20.416L18.6678 19.584L15.6678 17.584L15.2864 17.3297L15 17.6877Z" fill="black" fill-opacity="0.8"/>
</svg>
