<svg width="32" height="32" viewBox="0 0 32 32" fill="none" xmlns="http://www.w3.org/2000/svg">
<path fill-rule="evenodd" clip-rule="evenodd" d="M20.252 18.632C19.3703 20.0534 17.7957 21 16 21C13.2386 21 11 18.7614 11 16C11 15.5672 11.055 15.1473 11.1583 14.7469L12.2014 15.138C12.3736 15.2026 12.4735 15.3824 12.4375 15.5627L12.1862 16.8191C12.1507 16.9964 12.2468 17.1737 12.4146 17.2408L13.8114 17.7996C13.9291 17.8466 14.015 17.9499 14.0398 18.0742L14.3527 19.6387C14.3673 19.7113 14.4029 19.7779 14.4553 19.8303L14.7424 20.1174C14.9275 20.3025 15.2406 20.2457 15.3489 20.0074L16.8137 16.7848C16.9107 16.5716 16.7905 16.3226 16.5633 16.2658L15.6008 16.0252C15.5348 16.0087 15.4746 15.9746 15.4266 15.9266L14.4848 14.9848C14.4145 14.9145 14.3191 14.875 14.2197 14.875H13.4818C13.3397 14.875 13.2099 14.7947 13.1464 14.6677L12.6863 13.7476C12.5867 13.5484 12.6816 13.3069 12.89 13.2287L15.1761 12.3715C15.359 12.3029 15.4586 12.1052 15.405 11.9173L15.1628 11.0698C15.435 11.0239 15.7147 11 16 11C16.1466 11 16.2918 11.0063 16.4352 11.0187L16.4079 11.2367C16.3882 11.3945 16.4701 11.5475 16.6123 11.6187L16.9629 11.794C17.0653 11.8452 17.1855 11.8468 17.2892 11.7984L17.9642 11.4834C17.9935 11.4697 18.0197 11.4534 18.0429 11.435C18.7751 11.7632 19.414 12.2624 19.9088 12.8818L18.7672 12.6534C18.6757 12.6351 18.5807 12.6516 18.5007 12.6996L17.0478 13.5713C16.8797 13.6722 16.8177 13.8853 16.9053 14.0606L17.7714 15.7927C17.8349 15.9197 17.9647 16 18.1068 16H19.2171C19.3846 16 19.5317 16.111 19.5777 16.272L20.252 18.632ZM22 16C22 19.3137 19.3137 22 16 22C12.6863 22 10 19.3137 10 16C10 12.6863 12.6863 10 16 10C19.3137 10 22 12.6863 22 16Z" fill="black" fill-opacity="0.8"/>
</svg>
