<svg width="268" height="123" viewBox="0 0 268 123" fill="none" xmlns="http://www.w3.org/2000/svg">
<g clip-path="url(#clip0_817_10065)">
<rect width="268" height="123" fill="white"/>
<rect width="268" height="123" fill="#0991B2" fill-opacity="0.2"/>
<g filter="url(#filter0_d_817_10065)">
<rect width="235" height="32" transform="translate(16 26)" fill="white" fill-opacity="0.9"/>
<path d="M28.3054 47.1491C27.5398 47.1491 26.8786 46.9901 26.3217 46.6719C25.7682 46.3504 25.3423 45.8963 25.044 45.3097C24.7457 44.7197 24.5966 44.0253 24.5966 43.2266C24.5966 42.4411 24.7457 41.7517 25.044 41.1584C25.3456 40.5618 25.7666 40.0978 26.3068 39.7663C26.8471 39.4316 27.4818 39.2642 28.2109 39.2642C28.6816 39.2642 29.1257 39.3404 29.5433 39.4929C29.9643 39.642 30.3355 39.8741 30.657 40.1889C30.9818 40.5038 31.237 40.9048 31.4226 41.392C31.6082 41.8759 31.701 42.4527 31.701 43.1222V43.674H25.4418V42.4609H29.9759C29.9725 42.1162 29.898 41.8097 29.7521 41.5412C29.6063 41.2694 29.4025 41.0556 29.1406 40.8999C28.8821 40.7441 28.5805 40.6662 28.2358 40.6662C27.8679 40.6662 27.5447 40.7557 27.2663 40.9347C26.9879 41.1103 26.7708 41.3423 26.6151 41.6307C26.4626 41.9157 26.3847 42.2289 26.3814 42.5703V43.6293C26.3814 44.0734 26.4626 44.4545 26.625 44.7727C26.7874 45.0876 27.0144 45.3295 27.3061 45.4986C27.5978 45.6643 27.9392 45.7472 28.3303 45.7472C28.5921 45.7472 28.8291 45.7107 29.0412 45.6378C29.2533 45.5616 29.4373 45.4505 29.593 45.3047C29.7488 45.1589 29.8665 44.9782 29.946 44.7628L31.6264 44.9517C31.5204 45.3958 31.3182 45.7836 31.0199 46.1151C30.7249 46.4432 30.3471 46.6984 29.8864 46.8807C29.4257 47.0597 28.8987 47.1491 28.3054 47.1491ZM35.0233 42.5256V47H33.2235V39.3636H34.9437V40.6612H35.0332C35.2089 40.2337 35.4889 39.8939 35.8734 39.642C36.2612 39.3902 36.7401 39.2642 37.3102 39.2642C37.8372 39.2642 38.2962 39.3769 38.6873 39.6023C39.0817 39.8277 39.3867 40.1541 39.6021 40.5817C39.8208 41.0092 39.9286 41.5279 39.9252 42.1378V47H38.1255V42.4162C38.1255 41.9058 37.993 41.5064 37.7278 41.218C37.466 40.9297 37.103 40.7855 36.639 40.7855C36.3242 40.7855 36.0441 40.8551 35.7988 40.9943C35.5569 41.1302 35.3663 41.3274 35.2271 41.5859C35.0912 41.8445 35.0233 42.1577 35.0233 42.5256Z" fill="black"/>
<rect x="49" y="31.5" width="23" height="21" rx="3" fill="#0F172A"/>
<path d="M52.7926 46.5V39.9545H54.2884V41.0455H54.3565C54.4759 40.6676 54.6804 40.3764 54.9702 40.1719C55.2628 39.9645 55.5966 39.8608 55.9716 39.8608C56.0568 39.8608 56.152 39.8651 56.2571 39.8736C56.3651 39.8793 56.4545 39.8892 56.5256 39.9034V41.3224C56.4602 41.2997 56.3565 41.2798 56.2145 41.2628C56.0753 41.2429 55.9403 41.233 55.8097 41.233C55.5284 41.233 55.2756 41.294 55.0511 41.4162C54.8295 41.5355 54.6548 41.7017 54.527 41.9148C54.3991 42.1278 54.3352 42.3736 54.3352 42.652V46.5H52.7926ZM60.1786 46.6278C59.5224 46.6278 58.9556 46.4915 58.4783 46.2188C58.0039 45.9432 57.6388 45.554 57.3832 45.0511C57.1275 44.5455 56.9996 43.9503 56.9996 43.2656C56.9996 42.5923 57.1275 42.0014 57.3832 41.4929C57.6417 40.9815 58.0025 40.5838 58.4656 40.2997C58.9286 40.0128 59.4727 39.8693 60.0977 39.8693C60.5011 39.8693 60.8817 39.9347 61.2397 40.0653C61.6005 40.1932 61.9187 40.392 62.1942 40.6619C62.4727 40.9318 62.6914 41.2756 62.8505 41.6932C63.0096 42.108 63.0891 42.6023 63.0891 43.1761V43.6491H57.7241V42.6094H61.6104C61.6076 42.3139 61.5437 42.0511 61.4187 41.821C61.2937 41.5881 61.119 41.4048 60.8945 41.2713C60.6729 41.1378 60.4144 41.071 60.119 41.071C59.8036 41.071 59.5266 41.1477 59.288 41.3011C59.0494 41.4517 58.8633 41.6506 58.7298 41.8977C58.5991 42.142 58.5323 42.4105 58.5295 42.7031V43.6108C58.5295 43.9915 58.5991 44.3182 58.7383 44.5909C58.8775 44.8608 59.0721 45.0682 59.3221 45.2131C59.5721 45.3551 59.8647 45.4261 60.1999 45.4261C60.4244 45.4261 60.6275 45.3949 60.8093 45.3324C60.9911 45.267 61.1488 45.1719 61.2823 45.0469C61.4158 44.9219 61.5167 44.767 61.5849 44.5824L63.0252 44.7443C62.9343 45.125 62.761 45.4574 62.5053 45.7415C62.2525 46.0227 61.9286 46.2415 61.5337 46.3977C61.1388 46.5511 60.6871 46.6278 60.1786 46.6278ZM67.7095 39.9545V41.1477H63.8402V39.9545H67.7095ZM64.8075 46.5V39.3366C64.8075 38.8963 64.8984 38.5298 65.0803 38.2372C65.2649 37.9446 65.5121 37.7259 65.8217 37.581C66.1314 37.4361 66.4751 37.3636 66.853 37.3636C67.12 37.3636 67.3572 37.3849 67.5646 37.4276C67.772 37.4702 67.9254 37.5085 68.0249 37.5426L67.718 38.7358C67.6527 38.7159 67.5703 38.696 67.4709 38.6761C67.3714 38.6534 67.2607 38.642 67.1385 38.642C66.8516 38.642 66.6484 38.7116 66.5291 38.8509C66.4126 38.9872 66.3544 39.1832 66.3544 39.4389V46.5H64.8075Z" fill="white"/>
<rect x="88" y="37" width="111" height="10" rx="4" fill="#E2E8F0"/>
<g filter="url(#filter1_d_817_10065)">
<rect x="16" y="57" width="235" height="32" fill="white" shape-rendering="crispEdges"/>
<path d="M27.7585 78.1342C27.1586 78.1342 26.6217 77.9801 26.1477 77.6719C25.6738 77.3636 25.2992 76.9162 25.0241 76.3295C24.7491 75.7429 24.6115 75.0303 24.6115 74.1918C24.6115 73.3433 24.7507 72.6274 25.0291 72.044C25.3108 71.4574 25.6903 71.0149 26.1676 70.7166C26.6449 70.415 27.1768 70.2642 27.7635 70.2642C28.2109 70.2642 28.5788 70.3404 28.8672 70.4929C29.1555 70.642 29.3842 70.8227 29.5533 71.0348C29.7223 71.2436 29.8532 71.4408 29.946 71.6264H30.0206V67.8182H31.8253V78H30.0554V76.7969H29.946C29.8532 76.9825 29.719 77.1797 29.5433 77.3885C29.3677 77.594 29.1357 77.7696 28.8473 77.9155C28.5589 78.0613 28.196 78.1342 27.7585 78.1342ZM28.2607 76.6577C28.6418 76.6577 28.9666 76.5549 29.2351 76.3494C29.5036 76.1406 29.7074 75.8506 29.8466 75.4794C29.9858 75.1082 30.0554 74.6757 30.0554 74.1818C30.0554 73.688 29.9858 73.2588 29.8466 72.8942C29.7107 72.5296 29.5085 72.2462 29.2401 72.044C28.9749 71.8419 28.6484 71.7408 28.2607 71.7408C27.8596 71.7408 27.5249 71.8452 27.2564 72.054C26.9879 72.2628 26.7857 72.5511 26.6499 72.919C26.514 73.2869 26.446 73.7079 26.446 74.1818C26.446 74.6591 26.514 75.085 26.6499 75.4595C26.7891 75.8307 26.9929 76.1241 27.2614 76.3395C27.5331 76.5516 27.8662 76.6577 28.2607 76.6577ZM37.1238 78.1491C36.3581 78.1491 35.6969 77.9901 35.1401 77.6719C34.5866 77.3504 34.1607 76.8963 33.8624 76.3097C33.5641 75.7197 33.415 75.0253 33.415 74.2266C33.415 73.4411 33.5641 72.7517 33.8624 72.1584C34.164 71.5618 34.5849 71.0978 35.1252 70.7663C35.6654 70.4316 36.3001 70.2642 37.0293 70.2642C37.4999 70.2642 37.9441 70.3404 38.3617 70.4929C38.7826 70.642 39.1538 70.8741 39.4753 71.1889C39.8001 71.5038 40.0553 71.9048 40.2409 72.392C40.4266 72.8759 40.5194 73.4527 40.5194 74.1222V74.674H34.2601V73.4609H38.7942C38.7909 73.1162 38.7163 72.8097 38.5705 72.5412C38.4247 72.2694 38.2208 72.0556 37.959 71.8999C37.7005 71.7441 37.3989 71.6662 37.0542 71.6662C36.6863 71.6662 36.3631 71.7557 36.0847 71.9347C35.8063 72.1103 35.5892 72.3423 35.4334 72.6307C35.281 72.9157 35.2031 73.2289 35.1998 73.5703V74.6293C35.1998 75.0734 35.281 75.4545 35.4434 75.7727C35.6058 76.0876 35.8328 76.3295 36.1245 76.4986C36.4161 76.6643 36.7575 76.7472 37.1486 76.7472C37.4105 76.7472 37.6474 76.7107 37.8596 76.6378C38.0717 76.5616 38.2556 76.4505 38.4114 76.3047C38.5672 76.1589 38.6848 75.9782 38.7644 75.7628L40.4448 75.9517C40.3387 76.3958 40.1365 76.7836 39.8382 77.1151C39.5433 77.4432 39.1654 77.6984 38.7047 77.8807C38.244 78.0597 37.717 78.1491 37.1238 78.1491Z" fill="black"/>
<path d="M89.8565 77.5V70.9545H91.0795V72.0199H91.1605C91.2969 71.6591 91.5199 71.3778 91.8295 71.1761C92.1392 70.9716 92.5099 70.8693 92.9418 70.8693C93.3793 70.8693 93.7457 70.9716 94.0412 71.1761C94.3395 71.3807 94.5597 71.6619 94.7017 72.0199H94.7699C94.9261 71.6705 95.1747 71.392 95.5156 71.1847C95.8565 70.9744 96.2628 70.8693 96.7344 70.8693C97.3281 70.8693 97.8125 71.0554 98.1875 71.4276C98.5653 71.7997 98.7543 72.3608 98.7543 73.1108V77.5H97.4801V73.2301C97.4801 72.7869 97.3594 72.4659 97.1179 72.267C96.8764 72.0682 96.5881 71.9688 96.2528 71.9688C95.8381 71.9688 95.5156 72.0966 95.2855 72.3523C95.0554 72.6051 94.9403 72.9304 94.9403 73.3281V77.5H93.6705V73.1491C93.6705 72.794 93.5597 72.5085 93.3381 72.2926C93.1165 72.0767 92.8281 71.9688 92.473 71.9688C92.2315 71.9688 92.0085 72.0327 91.804 72.1605C91.6023 72.2855 91.4389 72.4602 91.3139 72.6847C91.1918 72.9091 91.1307 73.169 91.1307 73.4645V77.5H89.8565ZM100.462 77.5V70.9545H101.736V77.5H100.462ZM101.105 69.9446C100.884 69.9446 100.694 69.8707 100.534 69.723C100.378 69.5724 100.3 69.3935 100.3 69.1861C100.3 68.9759 100.378 68.7969 100.534 68.6491C100.694 68.4986 100.884 68.4233 101.105 68.4233C101.327 68.4233 101.516 68.4986 101.672 68.6491C101.831 68.7969 101.911 68.9759 101.911 69.1861C101.911 69.3935 101.831 69.5724 101.672 69.723C101.516 69.8707 101.327 69.9446 101.105 69.9446ZM108.355 72.5526L107.2 72.7571C107.152 72.6094 107.075 72.4687 106.97 72.3352C106.868 72.2017 106.729 72.0923 106.553 72.0071C106.376 71.9219 106.156 71.8793 105.892 71.8793C105.531 71.8793 105.23 71.9602 104.989 72.1222C104.747 72.2812 104.626 72.4872 104.626 72.7401C104.626 72.9588 104.707 73.1349 104.869 73.2685C105.031 73.402 105.293 73.5114 105.653 73.5966L106.693 73.8352C107.295 73.9744 107.744 74.1889 108.04 74.4787C108.335 74.7685 108.483 75.1449 108.483 75.608C108.483 76 108.369 76.3494 108.142 76.6562C107.918 76.9602 107.604 77.1989 107.2 77.3722C106.8 77.5455 106.335 77.6321 105.807 77.6321C105.074 77.6321 104.476 77.4759 104.013 77.1634C103.55 76.848 103.266 76.4006 103.161 75.821L104.392 75.6335C104.469 75.9545 104.626 76.1974 104.865 76.3622C105.104 76.5241 105.415 76.6051 105.798 76.6051C106.216 76.6051 106.55 76.5185 106.8 76.3452C107.05 76.169 107.175 75.9545 107.175 75.7017C107.175 75.4972 107.098 75.3253 106.945 75.1861C106.794 75.0469 106.562 74.9418 106.25 74.8707L105.142 74.6278C104.531 74.4886 104.08 74.267 103.787 73.9631C103.497 73.6591 103.352 73.2741 103.352 72.8082C103.352 72.4219 103.46 72.0838 103.676 71.794C103.892 71.5043 104.19 71.2784 104.571 71.1165C104.952 70.9517 105.388 70.8693 105.879 70.8693C106.587 70.8693 107.143 71.0227 107.55 71.3295C107.956 71.6335 108.224 72.0412 108.355 72.5526ZM114.789 72.5526L113.634 72.7571C113.586 72.6094 113.509 72.4687 113.404 72.3352C113.301 72.2017 113.162 72.0923 112.986 72.0071C112.81 71.9219 112.59 71.8793 112.326 71.8793C111.965 71.8793 111.664 71.9602 111.422 72.1222C111.181 72.2812 111.06 72.4872 111.06 72.7401C111.06 72.9588 111.141 73.1349 111.303 73.2685C111.465 73.402 111.726 73.5114 112.087 73.5966L113.127 73.8352C113.729 73.9744 114.178 74.1889 114.473 74.4787C114.769 74.7685 114.917 75.1449 114.917 75.608C114.917 76 114.803 76.3494 114.576 76.6562C114.351 76.9602 114.037 77.1989 113.634 77.3722C113.233 77.5455 112.769 77.6321 112.24 77.6321C111.507 77.6321 110.909 77.4759 110.446 77.1634C109.983 76.848 109.699 76.4006 109.594 75.821L110.826 75.6335C110.902 75.9545 111.06 76.1974 111.299 76.3622C111.537 76.5241 111.848 76.6051 112.232 76.6051C112.65 76.6051 112.983 76.5185 113.233 76.3452C113.483 76.169 113.608 75.9545 113.608 75.7017C113.608 75.4972 113.532 75.3253 113.378 75.1861C113.228 75.0469 112.996 74.9418 112.684 74.8707L111.576 74.6278C110.965 74.4886 110.513 74.267 110.221 73.9631C109.931 73.6591 109.786 73.2741 109.786 72.8082C109.786 72.4219 109.894 72.0838 110.11 71.794C110.326 71.5043 110.624 71.2784 111.005 71.1165C111.385 70.9517 111.821 70.8693 112.313 70.8693C113.02 70.8693 113.577 71.0227 113.983 71.3295C114.39 71.6335 114.658 72.0412 114.789 72.5526ZM116.317 77.5V70.9545H117.592V77.5H116.317ZM116.961 69.9446C116.739 69.9446 116.549 69.8707 116.39 69.723C116.234 69.5724 116.156 69.3935 116.156 69.1861C116.156 68.9759 116.234 68.7969 116.39 68.6491C116.549 68.4986 116.739 68.4233 116.961 68.4233C117.183 68.4233 117.371 68.4986 117.528 68.6491C117.687 68.7969 117.766 68.9759 117.766 69.1861C117.766 69.3935 117.687 69.5724 117.528 69.723C117.371 69.8707 117.183 69.9446 116.961 69.9446ZM120.58 73.6136V77.5H119.306V70.9545H120.529V72.0199H120.61C120.76 71.6733 120.996 71.3949 121.317 71.1847C121.641 70.9744 122.049 70.8693 122.54 70.8693C122.986 70.8693 123.377 70.9631 123.712 71.1506C124.047 71.3352 124.307 71.6108 124.492 71.9773C124.676 72.3437 124.769 72.7969 124.769 73.3366V77.5H123.495V73.4901C123.495 73.0156 123.371 72.6449 123.124 72.3778C122.877 72.108 122.537 71.973 122.105 71.973C121.81 71.973 121.547 72.0369 121.317 72.1648C121.09 72.2926 120.909 72.4801 120.776 72.7273C120.645 72.9716 120.58 73.267 120.58 73.6136ZM129.222 80.0909C128.702 80.0909 128.255 80.0227 127.88 79.8864C127.507 79.75 127.203 79.5696 126.968 79.3452C126.732 79.1207 126.556 78.875 126.439 78.608L127.534 78.1562C127.611 78.2812 127.713 78.4134 127.841 78.5526C127.972 78.6946 128.148 78.8153 128.37 78.9148C128.594 79.0142 128.882 79.0639 129.235 79.0639C129.718 79.0639 130.117 78.946 130.432 78.7102C130.748 78.4773 130.905 78.1051 130.905 77.5938V76.3068H130.824C130.748 76.446 130.637 76.6009 130.492 76.7713C130.35 76.9418 130.154 77.0895 129.904 77.2145C129.654 77.3395 129.328 77.402 128.928 77.402C128.411 77.402 127.945 77.2812 127.53 77.0398C127.118 76.7955 126.792 76.4361 126.55 75.9616C126.311 75.4844 126.192 74.8977 126.192 74.2017C126.192 73.5057 126.31 72.9091 126.546 72.4119C126.784 71.9148 127.111 71.5341 127.526 71.2699C127.941 71.0028 128.411 70.8693 128.936 70.8693C129.343 70.8693 129.671 70.9375 129.921 71.0739C130.171 71.2074 130.365 71.3636 130.505 71.5426C130.647 71.7216 130.756 71.8793 130.833 72.0156H130.926V70.9545H132.175V77.6449C132.175 78.2074 132.044 78.669 131.783 79.0298C131.522 79.3906 131.168 79.6577 130.722 79.831C130.279 80.0043 129.779 80.0909 129.222 80.0909ZM129.209 76.3452C129.576 76.3452 129.885 76.2599 130.138 76.0895C130.394 75.9162 130.587 75.669 130.718 75.348C130.851 75.0241 130.918 74.6364 130.918 74.1847C130.918 73.7443 130.853 73.3565 130.722 73.0213C130.591 72.6861 130.4 72.4247 130.147 72.2372C129.894 72.0469 129.581 71.9517 129.209 71.9517C128.826 71.9517 128.506 72.0511 128.25 72.25C127.995 72.446 127.801 72.7131 127.671 73.0511C127.543 73.3892 127.479 73.767 127.479 74.1847C127.479 74.6136 127.544 74.9901 127.675 75.3139C127.806 75.6378 127.999 75.8906 128.255 76.0724C128.513 76.2543 128.831 76.3452 129.209 76.3452ZM140.115 70.9545V71.9773H136.54V70.9545H140.115ZM137.499 69.3864H138.773V75.5781C138.773 75.8253 138.81 76.0114 138.884 76.1364C138.957 76.2585 139.053 76.3423 139.169 76.3878C139.288 76.4304 139.418 76.4517 139.557 76.4517C139.659 76.4517 139.749 76.4446 139.825 76.4304C139.902 76.4162 139.962 76.4048 140.004 76.3963L140.234 77.4489C140.161 77.4773 140.055 77.5057 139.919 77.5341C139.783 77.5653 139.612 77.5824 139.408 77.5852C139.072 77.5909 138.76 77.5312 138.47 77.4062C138.18 77.2812 137.946 77.0881 137.767 76.8267C137.588 76.5653 137.499 76.2372 137.499 75.8423V69.3864ZM141.525 77.5V70.9545H142.756V71.9943H142.824C142.944 71.642 143.154 71.3651 143.455 71.1634C143.759 70.9588 144.103 70.8565 144.486 70.8565C144.566 70.8565 144.659 70.8594 144.767 70.8651C144.878 70.8707 144.965 70.8778 145.027 70.8864V72.1051C144.976 72.0909 144.885 72.0753 144.755 72.0582C144.624 72.0384 144.493 72.0284 144.363 72.0284C144.061 72.0284 143.793 72.0923 143.557 72.2202C143.324 72.3452 143.14 72.5199 143.003 72.7443C142.867 72.9659 142.799 73.2187 142.799 73.5028V77.5H141.525ZM147.976 77.6449C147.561 77.6449 147.186 77.5682 146.851 77.4148C146.516 77.2585 146.25 77.0327 146.054 76.7372C145.861 76.4418 145.765 76.0795 145.765 75.6506C145.765 75.2812 145.836 74.9773 145.978 74.7386C146.12 74.5 146.311 74.3111 146.553 74.1719C146.794 74.0327 147.064 73.9276 147.363 73.8565C147.661 73.7855 147.965 73.7315 148.275 73.6946C148.667 73.6491 148.985 73.6122 149.229 73.5838C149.473 73.5526 149.651 73.5028 149.762 73.4347C149.873 73.3665 149.928 73.2557 149.928 73.1023V73.0724C149.928 72.7003 149.823 72.4119 149.613 72.2074C149.405 72.0028 149.096 71.9006 148.684 71.9006C148.255 71.9006 147.917 71.9957 147.669 72.1861C147.425 72.3736 147.256 72.5824 147.162 72.8125L145.965 72.5398C146.107 72.142 146.314 71.821 146.587 71.5767C146.863 71.3295 147.179 71.1506 147.537 71.0398C147.895 70.9261 148.272 70.8693 148.667 70.8693C148.928 70.8693 149.205 70.9006 149.498 70.9631C149.793 71.0227 150.069 71.1335 150.324 71.2955C150.583 71.4574 150.794 71.6889 150.959 71.9901C151.124 72.2884 151.206 72.6761 151.206 73.1534V77.5H149.962V76.6051H149.911C149.828 76.7699 149.705 76.9318 149.54 77.0909C149.375 77.25 149.164 77.3821 148.905 77.4872C148.647 77.5923 148.337 77.6449 147.976 77.6449ZM148.253 76.6222C148.605 76.6222 148.907 76.5526 149.157 76.4134C149.409 76.2741 149.601 76.0923 149.732 75.8679C149.865 75.6406 149.932 75.3977 149.932 75.1392V74.2955C149.887 74.3409 149.799 74.3835 149.668 74.4233C149.54 74.4602 149.394 74.4929 149.229 74.5213C149.064 74.5469 148.904 74.571 148.748 74.5938C148.591 74.6136 148.461 74.6307 148.355 74.6449C148.108 74.6761 147.882 74.7287 147.678 74.8026C147.476 74.8764 147.314 74.983 147.192 75.1222C147.073 75.2585 147.013 75.4403 147.013 75.6676C147.013 75.983 147.13 76.2216 147.363 76.3835C147.596 76.5426 147.892 76.6222 148.253 76.6222ZM154.178 73.6136V77.5H152.903V70.9545H154.126V72.0199H154.207C154.358 71.6733 154.594 71.3949 154.915 71.1847C155.239 70.9744 155.646 70.8693 156.138 70.8693C156.584 70.8693 156.974 70.9631 157.31 71.1506C157.645 71.3352 157.905 71.6108 158.089 71.9773C158.274 72.3437 158.366 72.7969 158.366 73.3366V77.5H157.092V73.4901C157.092 73.0156 156.969 72.6449 156.722 72.3778C156.474 72.108 156.135 71.973 155.703 71.973C155.408 71.973 155.145 72.0369 154.915 72.1648C154.688 72.2926 154.507 72.4801 154.374 72.7273C154.243 72.9716 154.178 73.267 154.178 73.6136ZM164.98 72.5526L163.825 72.7571C163.777 72.6094 163.7 72.4687 163.595 72.3352C163.493 72.2017 163.354 72.0923 163.178 72.0071C163.001 71.9219 162.781 71.8793 162.517 71.8793C162.156 71.8793 161.855 71.9602 161.614 72.1222C161.372 72.2812 161.251 72.4872 161.251 72.7401C161.251 72.9588 161.332 73.1349 161.494 73.2685C161.656 73.402 161.918 73.5114 162.278 73.5966L163.318 73.8352C163.92 73.9744 164.369 74.1889 164.665 74.4787C164.96 74.7685 165.108 75.1449 165.108 75.608C165.108 76 164.994 76.3494 164.767 76.6562C164.543 76.9602 164.229 77.1989 163.825 77.3722C163.425 77.5455 162.96 77.6321 162.432 77.6321C161.699 77.6321 161.101 77.4759 160.638 77.1634C160.175 76.848 159.891 76.4006 159.786 75.821L161.017 75.6335C161.094 75.9545 161.251 76.1974 161.49 76.3622C161.729 76.5241 162.04 76.6051 162.423 76.6051C162.841 76.6051 163.175 76.5185 163.425 76.3452C163.675 76.169 163.8 75.9545 163.8 75.7017C163.8 75.4972 163.723 75.3253 163.57 75.1861C163.419 75.0469 163.188 74.9418 162.875 74.8707L161.767 74.6278C161.156 74.4886 160.705 74.267 160.412 73.9631C160.122 73.6591 159.977 73.2741 159.977 72.8082C159.977 72.4219 160.085 72.0838 160.301 71.794C160.517 71.5043 160.815 71.2784 161.196 71.1165C161.577 70.9517 162.013 70.8693 162.504 70.8693C163.212 70.8693 163.768 71.0227 164.175 71.3295C164.581 71.6335 164.849 72.0412 164.98 72.5526ZM167.783 68.7727V77.5H166.509V68.7727H167.783ZM171.402 77.6449C170.987 77.6449 170.612 77.5682 170.277 77.4148C169.942 77.2585 169.676 77.0327 169.48 76.7372C169.287 76.4418 169.19 76.0795 169.19 75.6506C169.19 75.2812 169.261 74.9773 169.403 74.7386C169.545 74.5 169.737 74.3111 169.979 74.1719C170.22 74.0327 170.49 73.9276 170.788 73.8565C171.087 73.7855 171.391 73.7315 171.7 73.6946C172.092 73.6491 172.411 73.6122 172.655 73.5838C172.899 73.5526 173.077 73.5028 173.188 73.4347C173.298 73.3665 173.354 73.2557 173.354 73.1023V73.0724C173.354 72.7003 173.249 72.4119 173.038 72.2074C172.831 72.0028 172.521 71.9006 172.109 71.9006C171.68 71.9006 171.342 71.9957 171.095 72.1861C170.851 72.3736 170.682 72.5824 170.588 72.8125L169.391 72.5398C169.533 72.142 169.74 71.821 170.013 71.5767C170.288 71.3295 170.605 71.1506 170.963 71.0398C171.321 70.9261 171.697 70.8693 172.092 70.8693C172.354 70.8693 172.631 70.9006 172.923 70.9631C173.219 71.0227 173.494 71.1335 173.75 71.2955C174.009 71.4574 174.22 71.6889 174.385 71.9901C174.55 72.2884 174.632 72.6761 174.632 73.1534V77.5H173.388V76.6051H173.337C173.254 76.7699 173.131 76.9318 172.966 77.0909C172.801 77.25 172.589 77.3821 172.331 77.4872C172.072 77.5923 171.763 77.6449 171.402 77.6449ZM171.679 76.6222C172.031 76.6222 172.332 76.5526 172.582 76.4134C172.835 76.2741 173.027 76.0923 173.158 75.8679C173.291 75.6406 173.358 75.3977 173.358 75.1392V74.2955C173.313 74.3409 173.224 74.3835 173.094 74.4233C172.966 74.4602 172.82 74.4929 172.655 74.5213C172.49 74.5469 172.33 74.571 172.173 74.5938C172.017 74.6136 171.886 74.6307 171.781 74.6449C171.534 74.6761 171.308 74.7287 171.104 74.8026C170.902 74.8764 170.74 74.983 170.618 75.1222C170.499 75.2585 170.439 75.4403 170.439 75.6676C170.439 75.983 170.555 76.2216 170.788 76.3835C171.021 76.5426 171.318 76.6222 171.679 76.6222ZM179.385 70.9545V71.9773H175.809V70.9545H179.385ZM176.768 69.3864H178.042V75.5781C178.042 75.8253 178.079 76.0114 178.153 76.1364C178.227 76.2585 178.322 76.3423 178.439 76.3878C178.558 76.4304 178.687 76.4517 178.826 76.4517C178.929 76.4517 179.018 76.4446 179.095 76.4304C179.172 76.4162 179.231 76.4048 179.274 76.3963L179.504 77.4489C179.43 77.4773 179.325 77.5057 179.189 77.5341C179.052 77.5653 178.882 77.5824 178.677 77.5852C178.342 77.5909 178.029 77.5312 177.74 77.4062C177.45 77.2812 177.216 77.0881 177.037 76.8267C176.858 76.5653 176.768 76.2372 176.768 75.8423V69.3864ZM180.794 77.5V70.9545H182.068V77.5H180.794ZM181.438 69.9446C181.216 69.9446 181.026 69.8707 180.866 69.723C180.71 69.5724 180.632 69.3935 180.632 69.1861C180.632 68.9759 180.71 68.7969 180.866 68.6491C181.026 68.4986 181.216 68.4233 181.438 68.4233C181.659 68.4233 181.848 68.4986 182.004 68.6491C182.163 68.7969 182.243 68.9759 182.243 69.1861C182.243 69.3935 182.163 69.5724 182.004 69.723C181.848 69.8707 181.659 69.9446 181.438 69.9446ZM186.539 77.6321C185.926 77.6321 185.39 77.4915 184.933 77.2102C184.475 76.929 184.12 76.5355 183.868 76.0298C183.615 75.5241 183.488 74.9332 183.488 74.2571C183.488 73.5781 183.615 72.9844 183.868 72.4759C184.12 71.9673 184.475 71.5724 184.933 71.2912C185.39 71.0099 185.926 70.8693 186.539 70.8693C187.153 70.8693 187.689 71.0099 188.146 71.2912C188.603 71.5724 188.958 71.9673 189.211 72.4759C189.464 72.9844 189.591 73.5781 189.591 74.2571C189.591 74.9332 189.464 75.5241 189.211 76.0298C188.958 76.5355 188.603 76.929 188.146 77.2102C187.689 77.4915 187.153 77.6321 186.539 77.6321ZM186.544 76.5625C186.941 76.5625 187.271 76.4574 187.532 76.2472C187.794 76.0369 187.987 75.7571 188.112 75.4077C188.24 75.0582 188.304 74.6733 188.304 74.2528C188.304 73.8352 188.24 73.4517 188.112 73.1023C187.987 72.75 187.794 72.4673 187.532 72.2543C187.271 72.0412 186.941 71.9347 186.544 71.9347C186.143 71.9347 185.811 72.0412 185.547 72.2543C185.285 72.4673 185.091 72.75 184.963 73.1023C184.838 73.4517 184.775 73.8352 184.775 74.2528C184.775 74.6733 184.838 75.0582 184.963 75.4077C185.091 75.7571 185.285 76.0369 185.547 76.2472C185.811 76.4574 186.143 76.5625 186.544 76.5625ZM192.287 73.6136V77.5H191.013V70.9545H192.236V72.0199H192.317C192.467 71.6733 192.703 71.3949 193.024 71.1847C193.348 70.9744 193.756 70.8693 194.247 70.8693C194.693 70.8693 195.084 70.9631 195.419 71.1506C195.754 71.3352 196.014 71.6108 196.199 71.9773C196.384 72.3437 196.476 72.7969 196.476 73.3366V77.5H195.202V73.4901C195.202 73.0156 195.078 72.6449 194.831 72.3778C194.584 72.108 194.244 71.973 193.812 71.973C193.517 71.973 193.254 72.0369 193.024 72.1648C192.797 72.2926 192.616 72.4801 192.483 72.7273C192.352 72.9716 192.287 73.267 192.287 73.6136Z" fill="#EF4444"/>
<rect x="15" y="56" width="237" height="34" stroke="#06B6D4" stroke-width="2" shape-rendering="crispEdges"/>
</g>
</g>
</g>
<defs>
<filter id="filter0_d_817_10065" x="-2.66667" y="16" width="272.333" height="98.3333" filterUnits="userSpaceOnUse" color-interpolation-filters="sRGB">
<feFlood flood-opacity="0" result="BackgroundImageFix"/>
<feColorMatrix in="SourceAlpha" type="matrix" values="0 0 0 0 0 0 0 0 0 0 0 0 0 0 0 0 0 0 127 0" result="hardAlpha"/>
<feOffset dy="6.66667"/>
<feGaussianBlur stdDeviation="8.33333"/>
<feComposite in2="hardAlpha" operator="out"/>
<feColorMatrix type="matrix" values="0 0 0 0 0 0 0 0 0 0 0 0 0 0 0 0 0 0 0.05 0"/>
<feBlend mode="normal" in2="BackgroundImageFix" result="effect1_dropShadow_817_10065"/>
<feBlend mode="normal" in="SourceGraphic" in2="effect1_dropShadow_817_10065" result="shape"/>
</filter>
<filter id="filter1_d_817_10065" x="-6" y="39" width="279" height="76" filterUnits="userSpaceOnUse" color-interpolation-filters="sRGB">
<feFlood flood-opacity="0" result="BackgroundImageFix"/>
<feColorMatrix in="SourceAlpha" type="matrix" values="0 0 0 0 0 0 0 0 0 0 0 0 0 0 0 0 0 0 127 0" result="hardAlpha"/>
<feOffset dy="4"/>
<feGaussianBlur stdDeviation="10"/>
<feComposite in2="hardAlpha" operator="out"/>
<feColorMatrix type="matrix" values="0 0 0 0 0.0235294 0 0 0 0 0.713726 0 0 0 0 0.831373 0 0 0 0.2 0"/>
<feBlend mode="normal" in2="BackgroundImageFix" result="effect1_dropShadow_817_10065"/>
<feBlend mode="normal" in="SourceGraphic" in2="effect1_dropShadow_817_10065" result="shape"/>
</filter>
<clipPath id="clip0_817_10065">
<rect width="268" height="123" fill="white"/>
</clipPath>
</defs>
</svg>
