<svg width="400" height="140" viewBox="0 0 400 140" fill="none" xmlns="http://www.w3.org/2000/svg">
<rect width="400" height="140" rx="10" fill="white"/>
<rect x="44" y="33" width="74" height="74" fill="white" stroke="black" stroke-width="6"/>
<path d="M56.9362 87V61.9091H63.895V87H56.9362ZM60.4319 58.6747C59.3973 58.6747 58.5098 58.3317 57.7693 57.6456C57.0396 56.9486 56.6748 56.1155 56.6748 55.1463C56.6748 54.188 57.0396 53.3658 57.7693 52.6797C58.5098 51.9827 59.3973 51.6342 60.4319 51.6342C61.4665 51.6342 62.3486 51.9827 63.0782 52.6797C63.8187 53.3658 64.189 54.188 64.189 55.1463C64.189 56.1155 63.8187 56.9486 63.0782 57.6456C62.3486 58.3317 61.4665 58.6747 60.4319 58.6747ZM76.4282 72.4943V87H69.4694V61.9091H76.1015V66.3359H76.3955C76.9509 64.8767 77.882 63.7223 79.1888 62.8729C80.4956 62.0125 82.0802 61.5824 83.9424 61.5824C85.6848 61.5824 87.204 61.9635 88.4999 62.7259C89.7958 63.4882 90.8032 64.5772 91.5219 65.9929C92.2407 67.3977 92.6001 69.0748 92.6001 71.0241V87H85.6412V72.2656C85.6521 70.7301 85.2601 69.5322 84.4651 68.6719C83.6701 67.8007 82.5757 67.3651 81.1817 67.3651C80.2452 67.3651 79.4175 67.5665 78.6988 67.9695C77.9909 68.3724 77.4355 68.9605 77.0326 69.7337C76.6405 70.496 76.4391 71.4162 76.4282 72.4943ZM105.043 53.5455V87H98.0846V53.5455H105.043Z" fill="black"/>
<path d="M146.435 96V56.7273H155.691V96H146.435ZM151.089 51.1534C149.623 51.1534 148.362 50.6676 147.305 49.696C146.248 48.7074 145.719 47.5227 145.719 46.142C145.719 44.7443 146.248 43.5597 147.305 42.5881C148.362 41.5994 149.623 41.1051 151.089 41.1051C152.572 41.1051 153.833 41.5994 154.873 42.5881C155.93 43.5597 156.458 44.7443 156.458 46.142C156.458 47.5227 155.93 48.7074 154.873 49.696C153.833 50.6676 152.572 51.1534 151.089 51.1534ZM174.464 72.9886V96H165.209V56.7273H174.055V63.4006H174.516C175.419 61.2017 176.859 59.4545 178.837 58.1591C180.831 56.8636 183.294 56.2159 186.226 56.2159C188.936 56.2159 191.297 56.7955 193.308 57.9545C195.337 59.1136 196.905 60.7926 198.013 62.9915C199.138 65.1903 199.692 67.858 199.675 70.9943V96H190.419V72.4261C190.419 69.8011 189.737 67.7472 188.374 66.2642C187.027 64.7812 185.161 64.0398 182.774 64.0398C181.155 64.0398 179.714 64.3977 178.453 65.1136C177.209 65.8125 176.229 66.8267 175.513 68.1562C174.814 69.4858 174.464 71.0966 174.464 72.9886ZM218.339 43.6364V96H209.084V43.6364H218.339ZM239.158 96.7926C236.67 96.7926 234.428 96.3494 232.434 95.4631C230.457 94.5597 228.888 93.2301 227.729 91.4744C226.587 89.7187 226.016 87.554 226.016 84.9801C226.016 82.7642 226.425 80.9318 227.244 79.483C228.062 78.0341 229.178 76.875 230.593 76.0057C232.008 75.1364 233.602 74.4801 235.374 74.0369C237.164 73.5767 239.013 73.2443 240.923 73.0398C243.224 72.8011 245.09 72.5881 246.522 72.4006C247.954 72.196 248.994 71.8892 249.641 71.4801C250.306 71.054 250.638 70.3977 250.638 69.5114V69.358C250.638 67.4318 250.067 65.9403 248.925 64.8835C247.783 63.8267 246.138 63.2983 243.991 63.2983C241.724 63.2983 239.925 63.7926 238.596 64.7812C237.283 65.7699 236.397 66.9375 235.937 68.2841L227.295 67.0568C227.977 64.6705 229.102 62.6761 230.67 61.0739C232.238 59.4545 234.156 58.2443 236.423 57.4432C238.69 56.625 241.195 56.2159 243.94 56.2159C245.832 56.2159 247.715 56.4375 249.59 56.8807C251.465 57.3239 253.178 58.0568 254.729 59.0795C256.281 60.0852 257.525 61.4574 258.462 63.196C259.417 64.9347 259.894 67.108 259.894 69.7159V96H250.996V90.6051H250.69C250.127 91.696 249.335 92.7187 248.312 93.6733C247.306 94.6108 246.036 95.3693 244.502 95.9489C242.985 96.5114 241.204 96.7926 239.158 96.7926ZM241.562 89.9915C243.42 89.9915 245.031 89.625 246.394 88.892C247.758 88.142 248.806 87.1534 249.539 85.9261C250.289 84.6989 250.664 83.3608 250.664 81.9119V77.2841C250.374 77.5227 249.88 77.7443 249.181 77.9489C248.499 78.1534 247.732 78.3324 246.88 78.4858C246.028 78.6392 245.184 78.7756 244.349 78.8949C243.513 79.0142 242.789 79.1165 242.175 79.2017C240.795 79.3892 239.559 79.696 238.468 80.1222C237.377 80.5483 236.516 81.1449 235.886 81.9119C235.255 82.6619 234.94 83.6335 234.94 84.8267C234.94 86.5312 235.562 87.8182 236.806 88.6875C238.05 89.5568 239.636 89.9915 241.562 89.9915ZM278.457 72.9886V96H269.201V56.7273H278.048V63.4006H278.508C279.411 61.2017 280.852 59.4545 282.829 58.1591C284.823 56.8636 287.286 56.2159 290.218 56.2159C292.928 56.2159 295.289 56.7955 297.3 57.9545C299.329 59.1136 300.897 60.7926 302.005 62.9915C303.13 65.1903 303.684 67.858 303.667 70.9943V96H294.411V72.4261C294.411 69.8011 293.729 67.7472 292.366 66.2642C291.019 64.7812 289.153 64.0398 286.766 64.0398C285.147 64.0398 283.707 64.3977 282.445 65.1136C281.201 65.8125 280.221 66.8267 279.505 68.1562C278.806 69.4858 278.457 71.0966 278.457 72.9886ZM330.156 111.545C326.832 111.545 323.977 111.094 321.59 110.19C319.204 109.304 317.286 108.111 315.837 106.611C314.388 105.111 313.383 103.449 312.82 101.625L321.156 99.6051C321.531 100.372 322.076 101.131 322.792 101.881C323.508 102.648 324.471 103.278 325.681 103.773C326.908 104.284 328.451 104.54 330.309 104.54C332.934 104.54 335.107 103.901 336.829 102.622C338.55 101.361 339.411 99.2813 339.411 96.3835V88.9432H338.951C338.474 89.8977 337.775 90.8778 336.854 91.8835C335.951 92.8892 334.749 93.733 333.249 94.4148C331.766 95.0966 329.9 95.4375 327.65 95.4375C324.633 95.4375 321.897 94.7301 319.442 93.3153C317.005 91.8835 315.062 89.7528 313.613 86.9233C312.181 84.0767 311.465 80.5142 311.465 76.2358C311.465 71.9233 312.181 68.2841 313.613 65.3182C315.062 62.3352 317.013 60.0767 319.468 58.5426C321.923 56.9915 324.658 56.2159 327.675 56.2159C329.977 56.2159 331.869 56.608 333.352 57.392C334.852 58.1591 336.045 59.0881 336.931 60.179C337.817 61.2528 338.491 62.267 338.951 63.2216H339.462V56.7273H348.59V96.6392C348.59 99.9972 347.789 102.776 346.187 104.974C344.585 107.173 342.394 108.818 339.616 109.909C336.837 111 333.684 111.545 330.156 111.545ZM330.232 88.1761C332.192 88.1761 333.863 87.6989 335.244 86.7443C336.624 85.7898 337.673 84.4176 338.388 82.6278C339.104 80.8381 339.462 78.6903 339.462 76.1847C339.462 73.7131 339.104 71.5483 338.388 69.6903C337.69 67.8324 336.65 66.392 335.269 65.3693C333.906 64.3295 332.227 63.8097 330.232 63.8097C328.17 63.8097 326.448 64.3466 325.067 65.4205C323.687 66.4943 322.647 67.9688 321.948 69.8438C321.249 71.7017 320.9 73.8153 320.9 76.1847C320.9 78.5881 321.249 80.6932 321.948 82.5C322.664 84.2898 323.712 85.6875 325.093 86.6932C326.491 87.6818 328.204 88.1761 330.232 88.1761Z" fill="black"/>
</svg>
