<svg width="263" height="96" viewBox="0 0 263 96" fill="none" xmlns="http://www.w3.org/2000/svg">
<rect width="263" height="96" rx="16" fill="#CBD5E1"/>
<path d="M33.7216 56.5V39.0455H45.0739V41.696H36.8835V46.4347H44.4858V49.0852H36.8835V53.8494H45.142V56.5H33.7216ZM59.8565 43.4091L55.1946 56.5H51.7855L47.1236 43.4091H50.4134L53.4219 53.1335H53.5582L56.5753 43.4091H59.8565ZM65.3835 56.7642C64.554 56.7642 63.8068 56.6165 63.142 56.321C62.483 56.0199 61.9602 55.5767 61.5739 54.9915C61.1932 54.4062 61.0028 53.6847 61.0028 52.8267C61.0028 52.0881 61.1392 51.4773 61.4119 50.9943C61.6847 50.5114 62.0568 50.125 62.5284 49.8352C63 49.5455 63.5313 49.3267 64.1222 49.179C64.7188 49.0256 65.3352 48.9148 65.9716 48.8466C66.7386 48.767 67.3608 48.696 67.8381 48.6335C68.3153 48.5653 68.6619 48.4631 68.8778 48.3267C69.0994 48.1847 69.2102 47.9659 69.2102 47.6705V47.6193C69.2102 46.9773 69.0199 46.4801 68.6392 46.1278C68.2585 45.7756 67.7102 45.5994 66.9943 45.5994C66.2386 45.5994 65.6392 45.7642 65.196 46.0938C64.7585 46.4233 64.4631 46.8125 64.3097 47.2614L61.429 46.8523C61.6563 46.0568 62.0313 45.392 62.554 44.858C63.0767 44.3182 63.7159 43.9148 64.4716 43.6477C65.2273 43.375 66.0625 43.2386 66.9773 43.2386C67.608 43.2386 68.2358 43.3125 68.8608 43.4602C69.4858 43.608 70.0568 43.8523 70.5739 44.1932C71.0909 44.5284 71.5057 44.9858 71.8182 45.5653C72.1364 46.1449 72.2955 46.8693 72.2955 47.7386V56.5H69.3295V54.7017H69.2273C69.0398 55.0653 68.7756 55.4062 68.4347 55.7244C68.0994 56.0369 67.6761 56.2898 67.1648 56.483C66.6591 56.6705 66.0653 56.7642 65.3835 56.7642ZM66.1847 54.4972C66.804 54.4972 67.3409 54.375 67.7955 54.1307C68.25 53.8807 68.5994 53.5511 68.8438 53.142C69.0938 52.733 69.2188 52.2869 69.2188 51.804V50.2614C69.1222 50.3409 68.9574 50.4148 68.7244 50.483C68.4972 50.5511 68.2415 50.6108 67.9574 50.6619C67.6733 50.7131 67.392 50.7585 67.1136 50.7983C66.8352 50.8381 66.5938 50.8722 66.3892 50.9006C65.929 50.9631 65.517 51.0653 65.1534 51.2074C64.7898 51.3494 64.5028 51.5483 64.2926 51.804C64.0824 52.054 63.9773 52.3778 63.9773 52.7756C63.9773 53.3438 64.1847 53.7727 64.5994 54.0625C65.0142 54.3523 65.5426 54.4972 66.1847 54.4972ZM78.483 39.0455V56.5H75.3977V39.0455H78.483ZM89.9993 50.9943V43.4091H93.0845V56.5H90.093V54.1733H89.9567C89.6612 54.9062 89.1754 55.5057 88.4993 55.9716C87.8288 56.4375 87.0021 56.6705 86.0192 56.6705C85.1612 56.6705 84.4027 56.4801 83.7436 56.0994C83.0902 55.7131 82.5788 55.1534 82.2095 54.4205C81.8402 53.6818 81.6555 52.7898 81.6555 51.7443V43.4091H84.7408V51.267C84.7408 52.0966 84.968 52.7557 85.4226 53.2443C85.8771 53.733 86.4737 53.9773 87.2124 53.9773C87.6669 53.9773 88.1072 53.8665 88.5334 53.6449C88.9595 53.4233 89.3089 53.0938 89.5817 52.6562C89.8601 52.2131 89.9993 51.6591 89.9993 50.9943ZM100.024 56.7642C99.1946 56.7642 98.4474 56.6165 97.7827 56.321C97.1236 56.0199 96.6009 55.5767 96.2145 54.9915C95.8338 54.4062 95.6435 53.6847 95.6435 52.8267C95.6435 52.0881 95.7798 51.4773 96.0526 50.9943C96.3253 50.5114 96.6974 50.125 97.169 49.8352C97.6406 49.5455 98.1719 49.3267 98.7628 49.179C99.3594 49.0256 99.9759 48.9148 100.612 48.8466C101.379 48.767 102.001 48.696 102.479 48.6335C102.956 48.5653 103.303 48.4631 103.518 48.3267C103.74 48.1847 103.851 47.9659 103.851 47.6705V47.6193C103.851 46.9773 103.661 46.4801 103.28 46.1278C102.899 45.7756 102.351 45.5994 101.635 45.5994C100.879 45.5994 100.28 45.7642 99.8366 46.0938C99.3991 46.4233 99.1037 46.8125 98.9503 47.2614L96.0696 46.8523C96.2969 46.0568 96.6719 45.392 97.1946 44.858C97.7173 44.3182 98.3565 43.9148 99.1122 43.6477C99.8679 43.375 100.703 43.2386 101.618 43.2386C102.249 43.2386 102.876 43.3125 103.501 43.4602C104.126 43.608 104.697 43.8523 105.214 44.1932C105.732 44.5284 106.146 44.9858 106.459 45.5653C106.777 46.1449 106.936 46.8693 106.936 47.7386V56.5H103.97V54.7017H103.868C103.68 55.0653 103.416 55.4062 103.075 55.7244C102.74 56.0369 102.317 56.2898 101.805 56.483C101.3 56.6705 100.706 56.7642 100.024 56.7642ZM100.825 54.4972C101.445 54.4972 101.982 54.375 102.436 54.1307C102.891 53.8807 103.24 53.5511 103.484 53.142C103.734 52.733 103.859 52.2869 103.859 51.804V50.2614C103.763 50.3409 103.598 50.4148 103.365 50.483C103.138 50.5511 102.882 50.6108 102.598 50.6619C102.314 50.7131 102.033 50.7585 101.754 50.7983C101.476 50.8381 101.234 50.8722 101.03 50.9006C100.57 50.9631 100.158 51.0653 99.794 51.2074C99.4304 51.3494 99.1435 51.5483 98.9332 51.804C98.723 52.054 98.6179 52.3778 98.6179 52.7756C98.6179 53.3438 98.8253 53.7727 99.2401 54.0625C99.6548 54.3523 100.183 54.4972 100.825 54.4972ZM116.575 43.4091V45.7955H109.05V43.4091H116.575ZM110.908 40.2727H113.993V52.5625C113.993 52.9773 114.055 53.2955 114.18 53.517C114.311 53.733 114.482 53.8807 114.692 53.9602C114.902 54.0398 115.135 54.0795 115.391 54.0795C115.584 54.0795 115.76 54.0653 115.919 54.0369C116.084 54.0085 116.209 53.983 116.294 53.9602L116.814 56.3722C116.649 56.429 116.413 56.4915 116.107 56.5597C115.805 56.6278 115.436 56.6676 114.999 56.679C114.226 56.7017 113.53 56.5852 112.911 56.3295C112.291 56.0682 111.8 55.6648 111.436 55.1193C111.078 54.5739 110.902 53.892 110.908 53.0739V40.2727ZM119.156 56.5V43.4091H122.241V56.5H119.156ZM120.707 41.5511C120.218 41.5511 119.798 41.3892 119.445 41.0653C119.093 40.7358 118.917 40.3409 118.917 39.8807C118.917 39.4148 119.093 39.0199 119.445 38.696C119.798 38.3665 120.218 38.2017 120.707 38.2017C121.201 38.2017 121.621 38.3665 121.968 38.696C122.32 39.0199 122.496 39.4148 122.496 39.8807C122.496 40.3409 122.32 40.7358 121.968 41.0653C121.621 41.3892 121.201 41.5511 120.707 41.5511ZM131.124 56.7557C129.845 56.7557 128.737 56.4744 127.8 55.9119C126.862 55.3494 126.135 54.5625 125.618 53.5511C125.107 52.5398 124.851 51.358 124.851 50.0057C124.851 48.6534 125.107 47.4687 125.618 46.4517C126.135 45.4347 126.862 44.6449 127.8 44.0824C128.737 43.5199 129.845 43.2386 131.124 43.2386C132.402 43.2386 133.51 43.5199 134.447 44.0824C135.385 44.6449 136.109 45.4347 136.621 46.4517C137.138 47.4687 137.396 48.6534 137.396 50.0057C137.396 51.358 137.138 52.5398 136.621 53.5511C136.109 54.5625 135.385 55.3494 134.447 55.9119C133.51 56.4744 132.402 56.7557 131.124 56.7557ZM131.141 54.2841C131.834 54.2841 132.413 54.0937 132.879 53.7131C133.345 53.3267 133.692 52.8097 133.919 52.1619C134.152 51.5142 134.268 50.7926 134.268 49.9972C134.268 49.196 134.152 48.4716 133.919 47.8239C133.692 47.1705 133.345 46.6506 132.879 46.2642C132.413 45.8778 131.834 45.6847 131.141 45.6847C130.43 45.6847 129.839 45.8778 129.368 46.2642C128.902 46.6506 128.553 47.1705 128.32 47.8239C128.092 48.4716 127.979 49.196 127.979 49.9972C127.979 50.7926 128.092 51.5142 128.32 52.1619C128.553 52.8097 128.902 53.3267 129.368 53.7131C129.839 54.0937 130.43 54.2841 131.141 54.2841ZM143.1 48.8295V56.5H140.015V43.4091H142.964V45.6335H143.117C143.418 44.9006 143.898 44.3182 144.558 43.8864C145.222 43.4545 146.043 43.2386 147.021 43.2386C147.924 43.2386 148.711 43.4318 149.381 43.8182C150.058 44.2045 150.58 44.7642 150.95 45.4972C151.325 46.2301 151.509 47.1193 151.504 48.1648V56.5H148.418V48.642C148.418 47.767 148.191 47.0824 147.737 46.5881C147.288 46.0937 146.665 45.8466 145.87 45.8466C145.33 45.8466 144.85 45.9659 144.43 46.2045C144.015 46.4375 143.688 46.7756 143.45 47.2188C143.217 47.6619 143.1 48.1989 143.1 48.8295ZM160.729 56.5V39.0455H167.275C168.616 39.0455 169.741 39.2955 170.65 39.7955C171.565 40.2955 172.255 40.983 172.721 41.858C173.192 42.7273 173.428 43.7159 173.428 44.8239C173.428 45.9432 173.192 46.9375 172.721 47.8068C172.249 48.6761 171.553 49.3608 170.633 49.8608C169.712 50.3551 168.579 50.6023 167.232 50.6023H162.894V48.0028H166.806C167.59 48.0028 168.232 47.8665 168.732 47.5938C169.232 47.321 169.602 46.946 169.84 46.4688C170.085 45.9915 170.207 45.4432 170.207 44.8239C170.207 44.2045 170.085 43.6591 169.84 43.1875C169.602 42.7159 169.229 42.3494 168.724 42.0881C168.224 41.821 167.579 41.6875 166.789 41.6875H163.891V56.5H160.729ZM179.124 48.8295V56.5H176.038V39.0455H179.055V45.6335H179.209C179.516 44.8949 179.99 44.3125 180.632 43.8864C181.28 43.4545 182.104 43.2386 183.104 43.2386C184.013 43.2386 184.805 43.429 185.482 43.8097C186.158 44.1903 186.68 44.7472 187.05 45.4801C187.425 46.2131 187.612 47.108 187.612 48.1648V56.5H184.527V48.642C184.527 47.7614 184.3 47.0767 183.845 46.5881C183.396 46.0937 182.766 45.8466 181.953 45.8466C181.408 45.8466 180.919 45.9659 180.487 46.2045C180.061 46.4375 179.726 46.7756 179.482 47.2188C179.243 47.6619 179.124 48.1989 179.124 48.8295ZM194.524 56.7642C193.695 56.7642 192.947 56.6165 192.283 56.321C191.624 56.0199 191.101 55.5767 190.714 54.9915C190.334 54.4062 190.143 53.6847 190.143 52.8267C190.143 52.0881 190.28 51.4773 190.553 50.9943C190.825 50.5114 191.197 50.125 191.669 49.8352C192.141 49.5455 192.672 49.3267 193.263 49.179C193.859 49.0256 194.476 48.9148 195.112 48.8466C195.879 48.767 196.501 48.696 196.979 48.6335C197.456 48.5653 197.803 48.4631 198.018 48.3267C198.24 48.1847 198.351 47.9659 198.351 47.6705V47.6193C198.351 46.9773 198.161 46.4801 197.78 46.1278C197.399 45.7756 196.851 45.5994 196.135 45.5994C195.379 45.5994 194.78 45.7642 194.337 46.0938C193.899 46.4233 193.604 46.8125 193.45 47.2614L190.57 46.8523C190.797 46.0568 191.172 45.392 191.695 44.858C192.217 44.3182 192.857 43.9148 193.612 43.6477C194.368 43.375 195.203 43.2386 196.118 43.2386C196.749 43.2386 197.376 43.3125 198.001 43.4602C198.626 43.608 199.197 43.8523 199.714 44.1932C200.232 44.5284 200.646 44.9858 200.959 45.5653C201.277 46.1449 201.436 46.8693 201.436 47.7386V56.5H198.47V54.7017H198.368C198.18 55.0653 197.916 55.4062 197.575 55.7244C197.24 56.0369 196.817 56.2898 196.305 56.483C195.8 56.6705 195.206 56.7642 194.524 56.7642ZM195.325 54.4972C195.945 54.4972 196.482 54.375 196.936 54.1307C197.391 53.8807 197.74 53.5511 197.984 53.142C198.234 52.733 198.359 52.2869 198.359 51.804V50.2614C198.263 50.3409 198.098 50.4148 197.865 50.483C197.638 50.5511 197.382 50.6108 197.098 50.6619C196.814 50.7131 196.533 50.7585 196.254 50.7983C195.976 50.8381 195.734 50.8722 195.53 50.9006C195.07 50.9631 194.658 51.0653 194.294 51.2074C193.93 51.3494 193.643 51.5483 193.433 51.804C193.223 52.054 193.118 52.3778 193.118 52.7756C193.118 53.3438 193.325 53.7727 193.74 54.0625C194.155 54.3523 194.683 54.4972 195.325 54.4972ZM214.885 46.8693L212.072 47.1761C211.993 46.892 211.854 46.625 211.655 46.375C211.462 46.125 211.2 45.9233 210.871 45.7699C210.541 45.6165 210.138 45.5398 209.661 45.5398C209.018 45.5398 208.479 45.679 208.041 45.9574C207.609 46.2358 207.396 46.5966 207.402 47.0398C207.396 47.4205 207.536 47.7301 207.82 47.9688C208.109 48.2074 208.587 48.4034 209.251 48.5568L211.484 49.0341C212.723 49.3011 213.643 49.7244 214.246 50.304C214.854 50.8835 215.161 51.642 215.166 52.5795C215.161 53.4034 214.919 54.1307 214.442 54.7614C213.97 55.3864 213.314 55.875 212.473 56.2273C211.632 56.5795 210.666 56.7557 209.575 56.7557C207.973 56.7557 206.683 56.4205 205.706 55.75C204.729 55.0739 204.146 54.1335 203.959 52.929L206.967 52.6392C207.104 53.2301 207.393 53.6761 207.837 53.9773C208.28 54.2784 208.857 54.429 209.567 54.429C210.3 54.429 210.888 54.2784 211.331 53.9773C211.78 53.6761 212.004 53.304 212.004 52.8608C212.004 52.4858 211.859 52.1761 211.57 51.9318C211.286 51.6875 210.842 51.5 210.24 51.3693L208.007 50.9006C206.751 50.6392 205.822 50.1989 205.22 49.5795C204.618 48.9545 204.32 48.1648 204.325 47.2102C204.32 46.4034 204.538 45.7045 204.982 45.1136C205.43 44.517 206.053 44.0568 206.848 43.733C207.649 43.4034 208.572 43.2386 209.618 43.2386C211.152 43.2386 212.359 43.5653 213.24 44.2188C214.126 44.8722 214.675 45.7557 214.885 46.8693ZM223.506 56.7557C222.193 56.7557 221.06 56.483 220.105 55.9375C219.156 55.3864 218.426 54.608 217.915 53.6023C217.403 52.5909 217.148 51.4006 217.148 50.0312C217.148 48.6847 217.403 47.5028 217.915 46.4858C218.432 45.4631 219.153 44.6676 220.08 44.0994C221.006 43.5256 222.094 43.2386 223.344 43.2386C224.151 43.2386 224.912 43.3693 225.628 43.6307C226.349 43.8864 226.986 44.2841 227.537 44.8239C228.094 45.3636 228.531 46.0511 228.849 46.8864C229.168 47.7159 229.327 48.7045 229.327 49.8523V50.7983H218.597V48.7188H226.369C226.364 48.1278 226.236 47.6023 225.986 47.142C225.736 46.6761 225.386 46.3097 224.938 46.0426C224.494 45.7756 223.977 45.642 223.386 45.642C222.756 45.642 222.202 45.7955 221.724 46.1023C221.247 46.4034 220.875 46.8011 220.608 47.2955C220.347 47.7841 220.213 48.321 220.207 48.9062V50.7216C220.207 51.483 220.347 52.1364 220.625 52.6818C220.903 53.2216 221.293 53.6364 221.793 53.9261C222.293 54.2102 222.878 54.3523 223.548 54.3523C223.997 54.3523 224.403 54.2898 224.767 54.1648C225.131 54.0341 225.446 53.8438 225.713 53.5938C225.98 53.3438 226.182 53.0341 226.318 52.6648L229.199 52.9886C229.017 53.75 228.67 54.4148 228.159 54.983C227.653 55.5455 227.006 55.983 226.216 56.2955C225.426 56.6023 224.523 56.7557 223.506 56.7557Z" fill="#0F172A"/>
</svg>
