<svg width="271" height="50" viewBox="0 0 271 50" fill="none" xmlns="http://www.w3.org/2000/svg">
<g clip-path="url(#clip0_4245_10039)">
<path d="M96.2734 14.2394H102.625V16.5764C104.172 14.9459 107.099 13.6416 110.358 13.6416C117.207 13.6416 121.681 18.859 121.681 26.1416C121.681 33.5873 116.489 39.4025 108.48 39.4025C106.271 39.4025 104.117 39.022 102.681 38.2068V49.7286H96.3287V14.2394H96.2734ZM102.681 22.1742V32.1199C104.393 33.2068 105.829 33.5329 107.928 33.5329C112.346 33.5329 114.887 30.3807 114.887 26.3046C114.887 22.3916 112.567 19.5655 108.37 19.5655C106.215 19.5112 104.227 20.4894 102.681 22.1742Z" fill="#1E293B"/>
<path d="M80.5289 13.7495C72.5201 13.7495 67.3281 19.5104 67.3281 27.0104C67.3281 34.293 71.7468 39.5104 78.651 39.5104C81.8545 39.5104 84.7819 38.206 86.3836 36.5756V38.9126H92.7355V18.3147C87.9854 14.7821 82.7382 13.7495 80.5289 13.7495ZM86.3284 30.9778C84.7819 32.6626 82.7935 33.6408 80.6394 33.6408C76.4416 33.6408 74.1218 30.8147 74.1218 26.9017C74.1218 22.8256 76.6626 19.6191 81.0812 19.6191C83.1801 19.6191 84.6162 19.9452 86.3284 21.0321V30.9778V30.9778Z" fill="#1E293B"/>
<path d="M124.379 14.2394H130.731V16.5764C132.277 14.9459 135.205 13.6416 138.463 13.6416C145.312 13.6416 149.786 18.859 149.786 26.1416C149.786 33.5873 144.594 39.4025 136.585 39.4025C134.376 39.4025 132.222 39.022 130.786 38.2068V49.7286H124.434V14.2394H124.379ZM130.786 22.1742V32.1199C132.498 33.2068 133.934 33.5329 136.033 33.5329C140.452 33.5329 142.993 30.3807 142.993 26.3046C142.993 22.3916 140.673 19.5655 136.475 19.5655C134.321 19.5112 132.333 20.4894 130.786 22.1742Z" fill="#1E293B"/>
<path d="M168.243 7.17391C167.304 6.52174 165.813 5.86957 164.321 5.86957C161.449 5.86957 159.958 7.33696 159.958 10.7065V14.1848H164.432V20.1087H159.958V38.75H153.551V10.2717C153.551 3.47826 156.865 0 162.443 0C164.984 0 167.304 0.597826 168.961 1.63043H174.595V29.4565C174.595 32.2283 175.313 33.4239 176.749 33.4239C177.798 33.4239 178.627 32.9891 179.4 32.4457L180.726 37.2283C179.29 38.3696 177.135 39.2935 174.153 39.2935C170.342 39.2935 168.243 37.0109 168.243 32.0109V7.17391Z" fill="#1E293B"/>
<path d="M194.365 13.6416C202.65 13.6416 207.952 19.1307 207.952 26.522C207.952 33.859 202.65 39.4025 194.365 39.4025C186.08 39.4025 180.777 33.9133 180.777 26.522C180.777 19.1307 186.135 13.6416 194.365 13.6416ZM194.365 33.5329C198.286 33.5329 201.158 30.7612 201.158 26.522C201.158 22.3916 198.231 19.5655 194.365 19.5655C190.609 19.5655 187.626 22.2829 187.626 26.522C187.626 30.5981 190.498 33.5329 194.365 33.5329Z" fill="#1E293B"/>
<path d="M239.491 38.9142H233.802L228.5 25.2728C228.113 24.3489 227.948 23.3163 227.671 22.3924C227.451 23.4794 227.174 24.4033 226.788 25.3815L221.485 38.9142H216.072L207.953 14.2402H214.747L218.724 27.6098C219.11 28.8055 219.221 29.7294 219.442 30.8707C219.718 29.8381 219.884 28.9685 220.381 27.6098L225.02 14.2402H230.654L235.459 27.5555C235.846 28.6424 236.122 29.7837 236.398 30.925C236.619 29.7837 236.895 28.5881 237.172 27.3924L240.817 14.2402H247.224L239.491 38.9142Z" fill="#1E293B"/>
<path d="M260.752 38.8038C257.106 47.6082 254.787 49.7277 251.086 49.7277C248.821 49.7277 247.164 48.8582 245.728 47.8256L247.772 43.0973C248.435 43.4778 249.374 43.9669 250.368 43.9669C251.97 43.9669 253.13 42.7169 254.179 40.1625L254.731 38.8582L243.188 14.293H250.865L256.664 27.7169C257.162 28.9125 257.493 30.0538 257.88 31.2495C258.101 30.1082 258.321 28.9125 258.763 27.6625L263.237 14.293H270.473L260.752 38.8038Z" fill="#1E293B"/>
<path d="M50.048 30.5981C48.6119 38.2612 42.3153 44.946 35.0797 48.696C34.196 49.1851 33.1465 49.4568 32.1523 49.5112H47.5072C48.9985 49.5112 50.048 48.4242 50.048 47.0655V30.5981Z" fill="#1E293B"/>
<path d="M19.3251 15.8152C19.1042 15.9782 18.8833 16.1413 18.6623 16.3043C14.9065 18.913 3.5284 27.2826 0.932434 23.6413C-1.6083 20.1087 1.09813 10.1087 7.61567 5.27171C7.72614 5.16301 7.89184 5.10866 8.0023 4.99997C15.1274 0.0543165 20.4298 0.760839 23.0258 4.34779C25.456 7.71736 22.7496 13.0434 19.3251 15.8152Z" fill="#1E293B"/>
<path d="M47.1706 23.5897C43.6356 26.0353 38.1123 23.2092 35.3506 19.6766C35.2401 19.5136 35.1297 19.4049 35.0192 19.2418C32.368 15.5462 23.8621 4.35054 27.5075 1.85054C31.1529 -0.703804 41.7025 2.06794 46.5078 8.80707C46.6182 8.97011 46.7287 9.0788 46.8392 9.24185C51.4788 16.0353 50.7607 21.0897 47.1706 23.5897Z" fill="#1E293B"/>
<path d="M42.4087 45.6528C42.2982 45.7614 42.1878 45.8158 42.0221 45.9245C34.897 50.8701 29.5946 50.1636 26.9986 46.5767C24.5683 43.2071 27.2748 37.881 30.6992 35.1093C30.9202 34.9462 31.1411 34.7832 31.362 34.6201C35.1179 32.0658 46.496 23.6419 49.0367 27.2832C51.6327 30.8158 48.9815 40.8158 42.4087 45.6528Z" fill="#1E293B"/>
<path d="M22.5311 49.0762C18.8857 51.6306 8.3914 48.8588 3.5861 42.1197C3.47564 42.011 3.36517 41.848 3.30994 41.7393C-1.3849 34.9458 -0.611633 29.8371 2.97854 27.3914C6.51347 24.9458 12.0368 27.7719 14.7985 31.3045C14.9089 31.4675 15.0194 31.5762 15.1299 31.7393C17.7258 35.3806 26.2318 46.5762 22.5311 49.0762Z" fill="#1E293B"/>
<path d="M19.3335 15.8152C14.252 18.0434 3.42626 22.6087 1.82449 18.913C0.443654 15.8152 2.98439 9.51084 7.62399 5.27171C7.73446 5.16301 7.90016 5.10866 8.01062 4.99997C15.1357 0.0543165 20.4381 0.760839 23.0341 4.34779C25.4644 7.71736 22.7579 13.0434 19.3335 15.8152Z" fill="#1E293B"/>
<path d="M47.1641 23.5867C43.6292 26.0324 38.1059 23.2063 35.3442 19.6737C33.0796 14.5106 28.7162 4.3476 32.3616 2.82586C35.6756 1.41282 42.5245 4.2389 46.888 9.2389C51.4723 16.0324 50.7543 21.0867 47.1641 23.5867Z" fill="#1E293B"/>
<path d="M42.4087 45.6515C42.2982 45.7602 42.1878 45.8145 42.0221 45.9232C34.897 50.8689 29.5946 50.1624 26.9986 46.5754C24.5683 43.2058 27.2748 37.8797 30.6992 35.108C35.7807 32.8797 46.6064 28.3145 48.2082 32.0102C49.6443 35.108 47.1035 41.4124 42.4087 45.6515Z" fill="#1E293B"/>
<path d="M17.7811 48.098C14.4671 49.511 7.61814 46.7393 3.30994 41.7393C-1.3849 34.9458 -0.611633 29.8371 2.97854 27.3914C6.51347 24.9458 12.0368 27.7719 14.7985 31.3045C17.063 36.4132 21.4265 46.5762 17.7811 48.098Z" fill="#1E293B"/>
</g>
<defs>
<clipPath id="clip0_4245_10039">
<rect width="270.588" height="50" fill="white"/>
</clipPath>
</defs>
</svg>
