<svg width="231" height="50" viewBox="0 0 231 50" fill="none" xmlns="http://www.w3.org/2000/svg">
<g clip-path="url(#clip0_2340_12664)">
<path d="M55.5234 26.7814C55.5234 18.7993 61.3703 13.0542 69.4033 13.0542C77.4363 13.0542 83.2831 18.7993 83.2831 26.7814C83.2831 34.7633 77.4363 40.5084 69.4033 40.5084C61.4211 40.5084 55.5234 34.7633 55.5234 26.7814ZM77.4871 26.7814C77.4871 21.799 74.2841 18.0367 69.4033 18.0367C64.5224 18.0367 61.3703 21.799 61.3703 26.7814C61.3703 31.713 64.5224 35.526 69.4033 35.526C74.2841 35.4751 77.4871 31.713 77.4871 26.7814Z" fill="#1E293B"/>
<path d="M85.4688 36.2852L88.5192 31.9637C90.4003 33.8957 93.2984 35.5226 96.959 35.5226C100.06 35.5226 101.586 34.0991 101.586 32.5738C101.586 27.8964 86.2821 31.0994 86.2821 21.0837C86.2821 16.6606 90.0953 13 96.3489 13C100.569 13 104.077 14.2711 106.721 16.7113L103.568 20.8295C101.433 18.8468 98.535 17.9316 95.8404 17.9316C93.4001 17.9316 92.0782 18.9993 92.0782 20.5753C92.0782 24.7951 107.331 21.948 107.331 31.8621C107.331 36.7427 103.874 40.4033 96.7048 40.4033C91.6206 40.505 87.96 38.7764 85.4688 36.2852Z" fill="#1E293B"/>
<path d="M134.277 40.0469V21.4391L126.804 40.0469H124.313L116.839 21.4391V40.0469H111.195V13.457H119.127L125.584 29.5228L132.041 13.457H140.023V39.9961H134.277V40.0469Z" fill="#1E293B"/>
<path d="M143.93 26.7788C143.93 18.7968 149.777 13.0518 157.809 13.0518C165.843 13.0518 171.69 18.7968 171.69 26.7788C171.69 34.7609 165.843 40.506 157.809 40.506C149.777 40.506 143.93 34.7609 143.93 26.7788ZM165.893 26.7788C165.893 21.7964 162.691 18.0342 157.809 18.0342C152.929 18.0342 149.777 21.7964 149.777 26.7788C149.777 31.7104 152.929 35.5235 157.809 35.5235C162.691 35.4727 165.893 31.7104 165.893 26.7788Z" fill="#1E293B"/>
<path d="M173.879 36.2852L176.93 31.9637C178.81 33.8957 181.708 35.5226 185.369 35.5226C188.471 35.5226 189.996 34.0991 189.996 32.5738C189.996 27.8964 174.692 31.0994 174.692 21.0837C174.692 16.6606 178.505 13 184.759 13C188.979 13 192.487 14.2711 195.131 16.7113L191.978 20.8295C189.843 18.8468 186.945 17.9316 184.251 17.9316C181.81 17.9316 180.489 18.9993 180.489 20.5753C180.489 24.7951 195.74 21.948 195.74 31.8621C195.74 36.7427 192.284 40.4033 185.115 40.4033C180.03 40.505 176.37 38.7764 173.879 36.2852Z" fill="#1E293B"/>
<path d="M199.555 40.0469V13.457H205.249V39.9961H199.555V40.0469Z" fill="#1E293B"/>
<path d="M208.703 36.2852L211.753 31.9637C213.634 33.8957 216.532 35.5226 220.192 35.5226C223.294 35.5226 224.82 34.0991 224.82 32.5738C224.82 27.8964 209.515 31.0994 209.515 21.0837C209.515 16.6606 213.33 13 219.583 13C223.803 13 227.31 14.2711 229.954 16.7113L226.802 20.8295C224.667 18.8468 221.769 17.9316 219.074 17.9316C216.633 17.9316 215.312 18.9993 215.312 20.5753C215.312 24.7951 230.564 21.948 230.564 31.8621C230.564 36.7427 227.108 40.4033 219.938 40.4033C214.804 40.505 211.143 38.7764 208.703 36.2852Z" fill="#1E293B"/>
<path d="M46.1364 8.68529C45.6226 6.70663 43.9711 4.72798 40.9982 2.52534C38.6127 0.770686 36.0804 -0.237305 34.0618 -0.237305C33.658 -0.237305 33.291 -0.199973 32.9241 -0.125308C32.0065 0.0613576 31.1991 0.733351 30.6853 1.74135C30.0613 2.936 29.9145 4.54132 30.3183 5.51198C30.4651 5.81064 30.6486 6.18397 30.8688 6.51996C28.9237 7.71463 27.8226 8.05063 27.6758 8.08796C32.7406 9.80527 36.9611 13.3893 39.6037 18.0558L39.6404 17.6079C39.7505 16.3759 40.1175 14.9572 40.6313 13.5013C41.145 13.6506 41.6589 13.7252 42.1727 13.7252C43.5307 13.7252 44.705 13.1653 45.4391 12.1573C46.1731 11.1493 46.4667 9.80528 46.1364 8.68529Z" fill="#5E12A0"/>
<path d="M40.8482 12.4189C44.188 13.3522 45.5459 10.7388 45.1055 8.98422C44.6284 7.22956 43.0869 5.43758 40.3711 3.4216C37.6552 1.40562 34.9026 0.584289 33.141 0.957615C31.3793 1.33095 30.8654 4.05626 31.3059 5.10158C31.4894 5.51224 31.8931 6.10957 32.4436 6.78156C31.7463 7.26689 31.0856 7.64022 30.5352 7.97622C33.9117 9.50688 36.8478 11.8962 39.0498 14.8828C39.3067 13.8749 39.6737 12.9789 40.004 12.1948C40.2609 12.2321 40.5546 12.3068 40.8482 12.4189Z" fill="url(#paint0_radial_2340_12664)"/>
<path d="M21.7308 49.0049C33.0614 49.0049 42.2467 39.6614 42.2467 28.1358C42.2467 16.6101 33.0614 7.2666 21.7308 7.2666C10.4001 7.2666 1.21484 16.6101 1.21484 28.1358C1.21484 39.6614 10.4001 49.0049 21.7308 49.0049Z" fill="url(#paint1_radial_2340_12664)"/>
<path opacity="0.6" d="M43.42 7.26677C40.6308 4.28012 38.282 3.49613 35.4559 2.86147C33.2539 2.33881 33.8411 1.06949 36.5203 1.33082C35.2357 0.882817 34.0246 0.77082 33.1438 0.957488C31.3821 1.33082 30.8682 4.05612 31.3087 5.10145C31.4922 5.51211 31.8959 6.10945 32.4464 6.78144C31.4555 7.45343 30.6113 7.93876 29.9141 8.31209C30.2444 8.46142 30.648 8.64809 31.1252 8.90942C32.373 9.58141 33.731 10.7014 33.731 10.7014C31.6757 8.90942 32.1161 8.08809 34.9421 6.0721C35.8229 5.43744 37.4378 5.51211 38.9425 6.29611C40.4473 7.0801 42.209 9.05875 42.209 9.05875L40.5207 12.3441C40.6308 12.3814 40.7409 12.4187 40.851 12.4561C41.9154 12.7547 42.7594 12.6801 43.42 12.4187C44.1908 11.9334 46.2094 10.2907 43.42 7.26677Z" fill="#A98698"/>
<path d="M35.4205 4.65321C36.1546 4.95188 37.1087 5.47454 38.2832 6.25853C39.6779 7.19186 40.8889 8.23719 41.6597 9.05851C40.3751 10.7758 39.531 13.1278 39.0172 14.7705C39.2741 15.1438 39.5677 15.5171 39.8247 15.8904C40.0816 14.9572 40.5219 13.5758 41.1091 12.1944C41.2559 12.2319 41.4394 12.2319 41.623 12.2319C42.0634 12.2319 42.5772 12.1571 42.9809 11.8211C43.2745 11.5971 43.6049 11.1865 43.5682 10.4398C43.5682 9.73051 43.0176 8.83452 41.8799 7.75185C41.0724 6.96786 39.9715 6.1092 38.8704 5.32521C35.7141 3.19723 33.512 2.5999 32.5211 3.60789C31.8605 4.27988 31.9339 5.10121 32.154 5.69854C30.9797 6.48253 29.9887 7.04252 29.3281 7.41585C29.7685 7.56518 30.1722 7.75185 30.6127 7.93852C31.7871 7.30386 33.4753 6.2212 35.4205 4.65321ZM42.357 9.99184C42.4671 10.1785 42.5038 10.3652 42.5038 10.4771C42.5038 10.8131 42.3937 10.9252 42.3203 10.9999C42.1735 11.1119 41.8799 11.1865 41.623 11.1865C41.8432 10.7385 42.1001 10.3652 42.357 9.99184ZM33.2918 4.42922C33.4019 4.31722 33.6955 4.24255 34.1727 4.31722C33.8056 4.61588 33.4386 4.87721 33.0716 5.13854C33.0349 4.87721 33.0716 4.61588 33.2918 4.42922Z" fill="#5E12A0"/>
<path d="M21.7271 6.03467C9.72579 6.03467 0 15.9279 0 28.1358C0 40.3437 9.72579 50.237 21.7271 50.237C33.7284 50.237 43.4541 40.3437 43.4541 28.1358C43.4541 15.9279 33.6917 6.03467 21.7271 6.03467ZM21.7271 49.005C10.3864 49.005 1.21114 39.6717 1.21114 28.1358C1.21114 16.5999 10.3864 7.26665 21.7271 7.26665C33.0677 7.26665 42.2429 16.5999 42.2429 28.1358C42.2429 39.6717 33.031 49.005 21.7271 49.005Z" fill="#5E12A0"/>
<path opacity="0.6" d="M21.7308 49.0054C33.0614 49.0054 42.2467 39.6619 42.2467 28.1363C42.2467 16.6106 33.0614 7.26709 21.7308 7.26709C10.4001 7.26709 1.21484 16.6106 1.21484 28.1363C1.21484 39.6619 10.4001 49.0054 21.7308 49.0054Z" fill="url(#paint2_linear_2340_12664)"/>
<path opacity="0.6" d="M21.5828 46.4663C10.3889 44.637 2.79179 33.9225 4.62684 22.5359C5.43427 17.496 7.92994 13.2026 11.4532 10.104C6.31509 13.128 2.49819 18.3919 1.47055 24.8132C-0.327803 36.1997 7.26933 46.9144 18.4265 48.7436C24.6656 49.789 30.6847 47.8104 35.1255 43.9277C31.1985 46.2423 26.4273 47.2503 21.5828 46.4663Z" fill="#A98698"/>
<path opacity="0.6" d="M24.995 7.56556C19.8202 6.7069 14.7922 7.90156 10.6816 10.5522C10.6082 10.6269 10.5348 10.7015 10.5348 10.7015C12.113 9.73087 14.4251 8.87222 14.4251 8.87222C8.47959 12.3815 6.64453 16.3761 6.64453 16.3761C8.9567 11.8215 15.7464 8.61088 21.068 8.38689C26.3897 8.16289 29.8763 9.76821 34.1336 13.2402C38.391 16.7495 40.96 23.9174 40.7032 29.5921C40.483 35.2666 37.5468 39.8586 37.5468 39.8586C39.5654 37.208 40.7765 35.2666 41.5472 33.288C41.694 32.6906 41.8409 32.0934 41.9143 31.4587C43.7494 20.1094 36.1889 9.39488 24.995 7.56556Z" fill="url(#paint3_linear_2340_12664)"/>
<path d="M41.2164 27.9492C41.2164 38.8878 32.4815 47.7731 21.7281 47.7731C10.9747 47.7731 2.20312 38.8878 2.20312 27.9492H41.2164Z" fill="url(#paint4_linear_2340_12664)"/>
<g opacity="0.6">
<path opacity="0.6" d="M39.6785 27.9497C39.6785 38.6269 31.3841 47.3628 20.9609 47.7736C21.2178 47.7736 21.4747 47.7736 21.7316 47.7736C32.485 47.7736 41.2199 38.8883 41.2199 27.9497H39.6785Z" fill="url(#paint5_linear_2340_12664)"/>
</g>
<g opacity="0.7">
<path opacity="0.7" d="M4.95571 27.9497H2.20312C2.20312 38.8883 10.938 47.7736 21.6914 47.7736C22.1685 47.7736 22.6089 47.7736 23.0494 47.7362C12.9565 46.9895 4.95571 38.4029 4.95571 27.9497Z" fill="url(#paint6_linear_2340_12664)"/>
</g>
<path d="M41.1797 28.1358C41.1797 25.8585 37.2893 24.5519 32.1146 24.1038C28.371 23.8052 24.5907 24.1785 20.26 25.5225C16.5165 26.6425 13.14 26.4558 10.6811 26.1572C5.21261 25.5225 2.20312 25.4478 2.20312 28.1358C2.20312 32.0184 9.98375 36.8717 21.6547 35.1917C27.5636 34.333 30.6098 32.5784 34.0964 31.3838C37.8766 30.1145 41.1797 30.1518 41.1797 28.1358Z" fill="url(#paint7_linear_2340_12664)"/>
<path d="M28.1156 18.7283C29.9398 18.7283 31.4187 17.224 31.4187 15.3683C31.4187 13.5126 29.9398 12.0083 28.1156 12.0083C26.2914 12.0083 24.8125 13.5126 24.8125 15.3683C24.8125 17.224 26.2914 18.7283 28.1156 18.7283Z" fill="white"/>
<path d="M33.5079 21.2294C34.2782 21.2294 34.9026 20.5942 34.9026 19.8107C34.9026 19.0272 34.2782 18.3921 33.5079 18.3921C32.7377 18.3921 32.1133 19.0272 32.1133 19.8107C32.1133 20.5942 32.7377 21.2294 33.5079 21.2294Z" fill="white"/>
<g opacity="0.6">
<path opacity="0.6" d="M38.4993 12.6805C38.4626 12.6805 38.4259 12.6805 38.4259 12.6805C38.2056 12.6432 38.0588 12.4192 38.0955 12.1578C38.4259 10.4405 39.8204 8.79784 39.8938 8.72318C40.0407 8.53651 40.3343 8.53651 40.4811 8.68585C40.6646 8.83518 40.6646 9.13384 40.5178 9.28317C40.4811 9.3205 39.1965 10.8511 38.9029 12.3444C38.8662 12.5685 38.6828 12.6805 38.4993 12.6805Z" fill="url(#paint8_linear_2340_12664)"/>
</g>
<path opacity="0.2" d="M20.3753 43.704C20.9429 43.704 21.4029 43.2359 21.4029 42.6586C21.4029 42.0813 20.9429 41.6133 20.3753 41.6133C19.8078 41.6133 19.3477 42.0813 19.3477 42.6586C19.3477 43.2359 19.8078 43.704 20.3753 43.704Z" fill="white"/>
<g opacity="0.4">
<path opacity="0.6" d="M19.7816 43.3324C19.3779 42.9217 19.3779 42.2497 19.7816 41.8391C19.855 41.7644 19.9284 41.7271 20.0018 41.6523C19.855 41.6898 19.7449 41.7644 19.6348 41.8764C19.2311 42.2871 19.2311 42.959 19.6348 43.3697C19.9651 43.7057 20.4789 43.7804 20.8827 43.5564C20.5156 43.7057 20.0752 43.631 19.7816 43.3324Z" fill="url(#paint9_linear_2340_12664)"/>
</g>
<path opacity="0.3" d="M20.7358 42.3596C20.8574 42.3596 20.956 42.2594 20.956 42.1356C20.956 42.0119 20.8574 41.9116 20.7358 41.9116C20.6142 41.9116 20.5156 42.0119 20.5156 42.1356C20.5156 42.2594 20.6142 42.3596 20.7358 42.3596Z" fill="white"/>
<path opacity="0.2" d="M25.7308 43.1814C26.2983 43.1814 26.7584 42.7135 26.7584 42.1361C26.7584 41.5588 26.2983 41.0908 25.7308 41.0908C25.1633 41.0908 24.7031 41.5588 24.7031 42.1361C24.7031 42.7135 25.1633 43.1814 25.7308 43.1814Z" fill="white"/>
<g opacity="0.4">
<path opacity="0.6" d="M25.1449 42.8089C24.7412 42.3982 24.7412 41.7262 25.1449 41.3156C25.2183 41.2409 25.2917 41.2036 25.3651 41.1289C25.2183 41.1662 25.1082 41.2409 24.9981 41.3529C24.5944 41.7635 24.5944 42.4356 24.9981 42.8462C25.3284 43.1823 25.8422 43.2569 26.246 43.0328C25.8789 43.1823 25.4385 43.1075 25.1449 42.8089Z" fill="url(#paint10_linear_2340_12664)"/>
</g>
<path opacity="0.3" d="M26.0952 41.8372C26.2168 41.8372 26.3154 41.7369 26.3154 41.6132C26.3154 41.4895 26.2168 41.3892 26.0952 41.3892C25.9735 41.3892 25.875 41.4895 25.875 41.6132C25.875 41.7369 25.9735 41.8372 26.0952 41.8372Z" fill="white"/>
<path opacity="0.2" d="M23.0871 45.6076C23.5127 45.6076 23.8578 45.2566 23.8578 44.8236C23.8578 44.3906 23.5127 44.0396 23.0871 44.0396C22.6614 44.0396 22.3164 44.3906 22.3164 44.8236C22.3164 45.2566 22.6614 45.6076 23.0871 45.6076Z" fill="white"/>
<g opacity="0.4">
<path opacity="0.6" d="M22.6389 45.3101C22.3453 45.0114 22.3453 44.4888 22.6389 44.1901C22.6756 44.1528 22.749 44.1155 22.7857 44.0781C22.6756 44.1155 22.6022 44.1901 22.5288 44.2648C22.2352 44.5634 22.2352 45.086 22.5288 45.3848C22.7857 45.6461 23.1527 45.6834 23.483 45.4968C23.1894 45.6088 22.8591 45.5341 22.6389 45.3101Z" fill="url(#paint11_linear_2340_12664)"/>
</g>
<path opacity="0.3" d="M23.346 44.5624C23.4271 44.5624 23.4928 44.4955 23.4928 44.413C23.4928 44.3305 23.4271 44.2637 23.346 44.2637C23.2649 44.2637 23.1992 44.3305 23.1992 44.413C23.1992 44.4955 23.2649 44.5624 23.346 44.5624Z" fill="white"/>
<path opacity="0.2" d="M27.8215 45.048C28.2471 45.048 28.5922 44.697 28.5922 44.264C28.5922 43.831 28.2471 43.48 27.8215 43.48C27.3958 43.48 27.0508 43.831 27.0508 44.264C27.0508 44.697 27.3958 45.048 27.8215 45.048Z" fill="white"/>
<g opacity="0.4">
<path opacity="0.6" d="M27.3772 44.75C27.0836 44.4513 27.0836 43.9287 27.3772 43.6301C27.4139 43.5927 27.4873 43.5554 27.524 43.5181C27.4139 43.5554 27.3405 43.6301 27.2671 43.7047C26.9735 44.0034 26.9735 44.526 27.2671 44.8247C27.524 45.086 27.891 45.1234 28.2212 44.9367C27.9277 45.0487 27.5974 44.974 27.3772 44.75Z" fill="url(#paint12_linear_2340_12664)"/>
</g>
<path opacity="0.3" d="M28.0765 44.0023C28.1576 44.0023 28.2233 43.9355 28.2233 43.8529C28.2233 43.7705 28.1576 43.7036 28.0765 43.7036C27.9954 43.7036 27.9297 43.7705 27.9297 43.8529C27.9297 43.9355 27.9954 44.0023 28.0765 44.0023Z" fill="white"/>
<path opacity="0.2" d="M16.0047 43.3307C16.937 43.3307 17.6928 42.5618 17.6928 41.6134C17.6928 40.6649 16.937 39.896 16.0047 39.896C15.0723 39.896 14.3164 40.6649 14.3164 41.6134C14.3164 42.5618 15.0723 43.3307 16.0047 43.3307Z" fill="white"/>
<g opacity="0.4">
<path opacity="0.6" d="M15.0477 42.6958C14.3871 42.0237 14.3871 40.9411 15.0477 40.2691C15.1578 40.1571 15.2679 40.0825 15.4147 40.0078C15.1945 40.0825 15.011 40.2318 14.8275 40.3811C14.1669 41.0532 14.1669 42.1357 14.8275 42.8078C15.378 43.3677 16.2221 43.4797 16.8827 43.0691C16.2588 43.3304 15.5247 43.2184 15.0477 42.6958Z" fill="url(#paint13_linear_2340_12664)"/>
</g>
<path opacity="0.3" d="M16.5896 41.0905C16.7923 41.0905 16.9566 40.9233 16.9566 40.717C16.9566 40.5108 16.7923 40.3438 16.5896 40.3438C16.3869 40.3438 16.2227 40.5108 16.2227 40.717C16.2227 40.9233 16.3869 41.0905 16.5896 41.0905Z" fill="white"/>
<path opacity="0.2" d="M31.0905 39.1114C32.0229 39.1114 32.7788 38.3425 32.7788 37.394C32.7788 36.4456 32.0229 35.6768 31.0905 35.6768C30.1582 35.6768 29.4023 36.4456 29.4023 37.394C29.4023 38.3425 30.1582 39.1114 31.0905 39.1114Z" fill="white"/>
<g opacity="0.4">
<path opacity="0.6" d="M30.0946 38.4765C29.4339 37.8045 29.4339 36.7218 30.0946 36.0499C30.2047 35.9379 30.3148 35.8632 30.4616 35.7886C30.2414 35.8632 30.0579 36.0126 29.8744 36.1619C29.2137 36.8338 29.2137 37.9165 29.8744 38.5885C30.4249 39.1485 31.269 39.2605 31.9297 38.8498C31.3057 39.1111 30.6084 38.9992 30.0946 38.4765Z" fill="url(#paint14_linear_2340_12664)"/>
</g>
<path opacity="0.3" d="M31.6717 36.8721C31.8744 36.8721 32.0388 36.705 32.0388 36.4988C32.0388 36.2926 31.8744 36.1255 31.6717 36.1255C31.469 36.1255 31.3047 36.2926 31.3047 36.4988C31.3047 36.705 31.469 36.8721 31.6717 36.8721Z" fill="white"/>
</g>
<defs>
<radialGradient id="paint0_radial_2340_12664" cx="0" cy="0" r="1" gradientUnits="userSpaceOnUse" gradientTransform="translate(44.4361 6.6322) scale(16.4033 16.6857)">
<stop stop-color="#FFEAFF" stop-opacity="0.6"/>
<stop offset="0.6807" stop-color="#A087C9"/>
<stop offset="1" stop-color="#10002F"/>
</radialGradient>
<radialGradient id="paint1_radial_2340_12664" cx="0" cy="0" r="1" gradientUnits="userSpaceOnUse" gradientTransform="translate(35.314 13.7482) scale(40.133 40.8241)">
<stop stop-color="#FFEAFF" stop-opacity="0.6"/>
<stop offset="0.6807" stop-color="#A087C9"/>
<stop offset="1" stop-color="#10002F"/>
</radialGradient>
<linearGradient id="paint2_linear_2340_12664" x1="18.4399" y1="48.7093" x2="25.2238" y2="7.56512" gradientUnits="userSpaceOnUse">
<stop stop-color="#81FFFF"/>
<stop offset="0.6202" stop-color="white" stop-opacity="0"/>
</linearGradient>
<linearGradient id="paint3_linear_2340_12664" x1="36.1872" y1="13.9631" x2="18.958" y2="29.5037" gradientUnits="userSpaceOnUse">
<stop offset="0.2888" stop-color="white"/>
<stop offset="0.7796" stop-color="white" stop-opacity="0"/>
</linearGradient>
<linearGradient id="paint4_linear_2340_12664" x1="2.21963" y1="37.8495" x2="41.207" y2="37.8495" gradientUnits="userSpaceOnUse">
<stop stop-color="#0002E9"/>
<stop offset="0.9952" stop-color="#FF00C7"/>
</linearGradient>
<linearGradient id="paint5_linear_2340_12664" x1="43.056" y1="29.6892" x2="21.494" y2="49.7217" gradientUnits="userSpaceOnUse">
<stop offset="0.2888" stop-color="white"/>
<stop offset="0.7796" stop-color="white" stop-opacity="0"/>
</linearGradient>
<linearGradient id="paint6_linear_2340_12664" x1="2.21963" y1="37.85" x2="23.0777" y2="37.85" gradientUnits="userSpaceOnUse">
<stop stop-color="#000292"/>
<stop offset="0.9952" stop-color="#7D00C7"/>
</linearGradient>
<linearGradient id="paint7_linear_2340_12664" x1="2.24581" y1="29.7827" x2="41.1808" y2="29.7827" gradientUnits="userSpaceOnUse">
<stop stop-color="#000292"/>
<stop offset="0.9952" stop-color="#BE00C7"/>
</linearGradient>
<linearGradient id="paint8_linear_2340_12664" x1="40.5406" y1="8.54137" x2="37.6725" y2="13.1232" gradientUnits="userSpaceOnUse">
<stop offset="0.2888" stop-color="white"/>
<stop offset="0.7796" stop-color="white" stop-opacity="0"/>
</linearGradient>
<linearGradient id="paint9_linear_2340_12664" x1="19.331" y1="42.6924" x2="20.8837" y2="42.6924" gradientUnits="userSpaceOnUse">
<stop offset="0.2888" stop-color="white"/>
<stop offset="0.7796" stop-color="white" stop-opacity="0"/>
</linearGradient>
<linearGradient id="paint10_linear_2340_12664" x1="24.6905" y1="42.1618" x2="26.2433" y2="42.1618" gradientUnits="userSpaceOnUse">
<stop offset="0.2888" stop-color="white"/>
<stop offset="0.7796" stop-color="white" stop-opacity="0"/>
</linearGradient>
<linearGradient id="paint11_linear_2340_12664" x1="22.3038" y1="44.8337" x2="23.4695" y2="44.8337" gradientUnits="userSpaceOnUse">
<stop offset="0.2888" stop-color="white"/>
<stop offset="0.7796" stop-color="white" stop-opacity="0"/>
</linearGradient>
<linearGradient id="paint12_linear_2340_12664" x1="27.0262" y1="44.2721" x2="28.1919" y2="44.2721" gradientUnits="userSpaceOnUse">
<stop offset="0.2888" stop-color="white"/>
<stop offset="0.7796" stop-color="white" stop-opacity="0"/>
</linearGradient>
<linearGradient id="paint13_linear_2340_12664" x1="14.3152" y1="41.6568" x2="16.851" y2="41.6568" gradientUnits="userSpaceOnUse">
<stop offset="0.2888" stop-color="white"/>
<stop offset="0.7796" stop-color="white" stop-opacity="0"/>
</linearGradient>
<linearGradient id="paint14_linear_2340_12664" x1="29.3761" y1="37.4363" x2="31.912" y2="37.4363" gradientUnits="userSpaceOnUse">
<stop offset="0.2888" stop-color="white"/>
<stop offset="0.7796" stop-color="white" stop-opacity="0"/>
</linearGradient>
<clipPath id="clip0_2340_12664">
<rect width="231" height="50" fill="white"/>
</clipPath>
</defs>
</svg>
