<svg width="20" height="20" viewBox="0 0 20 20" fill="none" xmlns="http://www.w3.org/2000/svg">
<g clip-path="url(#clip0_1_333)">
<path d="M0.621979 13.4782C2.03491 17.2862 5.70034 20 9.99999 20C14.2996 20 17.9651 17.2862 19.378 13.4782L9.99999 12.6087L0.621979 13.4782Z" fill="#FFDA44"/>
<path d="M9.99999 0C5.70034 0 2.03491 2.71375 0.621979 6.52176L9.99999 7.39129L19.378 6.52172C17.9651 2.71375 14.2996 0 9.99999 0Z" fill="black"/>
<path d="M0.621992 6.52176C0.220039 7.60508 0 8.7768 0 10C0 11.2232 0.220039 12.3949 0.621992 13.4782H19.378C19.78 12.3949 20 11.2232 20 10C20 8.7768 19.78 7.60508 19.378 6.52176H0.621992Z" fill="#D80027"/>
</g>
<defs>
<clipPath id="clip0_1_333">
<rect width="20" height="20" fill="white"/>
</clipPath>
</defs>
</svg>
