<svg width="20" height="20" viewBox="0 0 20 20" fill="none" xmlns="http://www.w3.org/2000/svg">
<mask id="mask0_1_56" style="mask-type:alpha" maskUnits="userSpaceOnUse" x="0" y="0" width="20" height="20">
<rect width="20" height="20" fill="#D9D9D9"/>
</mask>
<g mask="url(#mask0_1_56)">
<path d="M5.83301 11.708C5.36101 11.708 4.95834 11.5413 4.62501 11.208C4.29167 10.8747 4.12501 10.472 4.12501 10C4.12501 9.528 4.29167 9.12533 4.62501 8.792C4.95834 8.45867 5.36101 8.292 5.83301 8.292C6.30567 8.292 6.70867 8.45867 7.04201 8.792C7.37534 9.12533 7.54201 9.528 7.54201 10C7.54201 10.472 7.37534 10.8747 7.04201 11.208C6.70867 11.5413 6.30567 11.708 5.83301 11.708ZM5.83301 15C4.44434 15 3.26401 14.514 2.29201 13.542C1.31934 12.5693 0.833008 11.3887 0.833008 10C0.833008 8.61133 1.31934 7.43067 2.29201 6.458C3.26401 5.486 4.44434 5 5.83301 5C6.76367 5 7.61101 5.22233 8.37501 5.667C9.13901 6.111 9.74334 6.70133 10.188 7.438H17.083C17.1943 7.438 17.302 7.45867 17.406 7.5C17.51 7.54133 17.604 7.604 17.688 7.688L19.375 9.375C19.4583 9.45833 19.5243 9.55567 19.573 9.667C19.6217 9.77767 19.646 9.88867 19.646 10C19.646 10.1113 19.6217 10.2223 19.573 10.333C19.5243 10.4443 19.4583 10.5417 19.375 10.625L16.792 13.208C16.7227 13.2773 16.6393 13.333 16.542 13.375C16.4447 13.417 16.3403 13.4447 16.229 13.458C16.1177 13.472 16.0137 13.4653 15.917 13.438C15.8197 13.41 15.7293 13.3613 15.646 13.292L14.583 12.5L13.417 13.375C13.347 13.4303 13.2707 13.472 13.188 13.5C13.104 13.528 13.0137 13.542 12.917 13.542C12.8197 13.542 12.7257 13.528 12.635 13.5C12.545 13.472 12.4653 13.4373 12.396 13.396L11.208 12.562H10.188C9.72934 13.3127 9.12167 13.9067 8.36501 14.344C7.60767 14.7813 6.76367 15 5.83301 15ZM5.83301 13.25C6.61101 13.25 7.28834 13.0243 7.86501 12.573C8.44101 12.1217 8.82634 11.5347 9.02101 10.812H11.812L12.875 11.625L14.604 10.333L16.083 11.458L17.583 9.958L16.812 9.188H9.02101C8.82634 8.46533 8.44101 7.87833 7.86501 7.427C7.28834 6.97567 6.61101 6.75 5.83301 6.75C4.94434 6.75 4.18067 7.06933 3.54201 7.708C2.90267 8.34733 2.58301 9.11133 2.58301 10C2.58301 10.9027 2.89901 11.67 3.53101 12.302C4.16301 12.934 4.93034 13.25 5.83301 13.25Z" fill="#303030"/>
</g>
</svg>
