<svg width="32" height="32" viewBox="0 0 32 32" fill="none" xmlns="http://www.w3.org/2000/svg">
<path d="M17.9 14V14.1H18H19H19.1V14V12C19.1 10.2879 17.7121 8.9 16 8.9C14.2879 8.9 12.9 10.2879 12.9 12V14V14.1H13H14H14.1V14V12C14.1 10.9506 14.9506 10.1 16 10.1C17.0494 10.1 17.9 10.9506 17.9 12V14Z" fill="#303030" stroke="#161616" stroke-width="0.2"/>
<path d="M18 17.9H17.9V18V20C17.9 21.0494 17.0494 21.9 16 21.9C14.9506 21.9 14.1 21.0494 14.1 20V18V17.9H14H13H12.9V18V20C12.9 21.7121 14.2879 23.1 16 23.1C17.7121 23.1 19.1 21.7121 19.1 20V18V17.9H19H18Z" fill="#303030" stroke="#161616" stroke-width="0.2"/>
<path d="M15.5 12.9H15.4V13V19V19.1H15.5H16.5H16.6V19V13V12.9H16.5H15.5Z" fill="#303030" stroke="#161616" stroke-width="0.2"/>
</svg>
