<svg viewBox="0 0 56 51" xmlns="http://www.w3.org/2000/svg">
<path d="M15.096 13.44C14.584 14.256 14.136 15.04 13.752 15.792C13.368 16.544 13.048 17.312 12.792 18.096C12.536 18.864 12.344 19.664 12.216 20.496C12.088 21.328 12.024 22.224 12.024 23.184C12.024 24.944 12.28 26.648 12.792 28.296C13.304 29.944 14.072 31.472 15.096 32.88L13.656 33.84C12.552 32.336 11.688 30.68 11.064 28.872C10.456 27.064 10.152 25.168 10.152 23.184C10.152 21.344 10.448 19.504 11.04 17.664C11.632 15.824 12.504 14.112 13.656 12.528L15.096 13.44ZM23.7437 26.256H16.4957V23.904L23.2637 13.008H26.0477V24.24H28.4477V26.256H26.0477V30H23.7437V26.256ZM23.7437 15.744H23.6957L18.5117 24.24H23.7437V15.744ZM30.1196 27.552L36.9356 20.784C37.1756 20.56 37.4076 20.32 37.6316 20.064C37.8556 19.792 38.0556 19.512 38.2316 19.224C38.4076 18.936 38.5436 18.632 38.6396 18.312C38.7516 17.992 38.8076 17.656 38.8076 17.304C38.8076 16.888 38.7276 16.512 38.5676 16.176C38.4236 15.84 38.2156 15.56 37.9436 15.336C37.6876 15.096 37.3756 14.912 37.0076 14.784C36.6556 14.656 36.2796 14.592 35.8796 14.592C35.0476 14.592 34.3596 14.824 33.8156 15.288C33.2716 15.752 32.9276 16.392 32.7836 17.208L30.2876 16.992C30.3996 16.24 30.6156 15.592 30.9356 15.048C31.2716 14.488 31.6796 14.024 32.1596 13.656C32.6556 13.288 33.2156 13.016 33.8396 12.84C34.4796 12.664 35.1676 12.576 35.9036 12.576C36.6396 12.576 37.3276 12.68 37.9676 12.888C38.6236 13.08 39.1916 13.376 39.6716 13.776C40.1676 14.16 40.5516 14.648 40.8236 15.24C41.1116 15.816 41.2556 16.496 41.2556 17.28C41.2556 17.84 41.1676 18.368 40.9916 18.864C40.8316 19.344 40.6156 19.8 40.3436 20.232C40.0716 20.664 39.7596 21.072 39.4076 21.456C39.0556 21.84 38.6876 22.216 38.3036 22.584L32.7116 27.984H41.2556V30H30.1196V27.552ZM42.9276 32.928C43.4396 32.112 43.8876 31.328 44.2716 30.576C44.6556 29.824 44.9756 29.064 45.2316 28.296C45.4876 27.512 45.6796 26.704 45.8076 25.872C45.9356 25.04 45.9996 24.144 45.9996 23.184C45.9996 21.424 45.7436 19.72 45.2316 18.072C44.7196 16.424 43.9516 14.896 42.9276 13.488L44.3676 12.528C45.4716 14.032 46.3276 15.688 46.9356 17.496C47.5596 19.304 47.8716 21.2 47.8716 23.184C47.8716 25.024 47.5756 26.864 46.9836 28.704C46.3916 30.544 45.5196 32.256 44.3676 33.84L42.9276 32.928Z" />
</svg>
