<svg width="32" height="32" viewBox="0 0 32 32" fill="none" xmlns="http://www.w3.org/2000/svg">
<path fill-rule="evenodd" clip-rule="evenodd" d="M17.5 13C17.5 11.6193 18.6193 10.5 20 10.5C21.3808 10.5 22.5 11.6193 22.5 13C22.5 14.3807 21.3808 15.5 20 15.5C18.6193 15.5 17.5 14.3807 17.5 13ZM20 9.5C18.067 9.5 16.5 11.067 16.5 13C16.5 14.442 17.372 15.6803 18.6175 16.2164C17.4804 16.5831 16.5409 17.39 16 18.4364C15.4591 17.39 14.5197 16.5831 13.3825 16.2164C14.628 15.6803 15.5 14.442 15.5 13C15.5 11.067 13.933 9.5 12 9.5C10.067 9.5 8.5 11.067 8.5 13C8.5 14.442 9.37203 15.6803 10.6175 16.2164C8.80861 16.7997 7.5 18.497 7.5 20.5V21.5V22H8H15.5H16H16.5H24H24.5V21.5V20.5C24.5 18.497 23.1914 16.7997 21.3825 16.2164C22.628 15.6803 23.5 14.442 23.5 13C23.5 11.067 21.933 9.5 20 9.5ZM16.5 21V20.5C16.5 18.567 18.067 17 20 17C21.933 17 23.5 18.567 23.5 20.5V21H16.5ZM15.5 20.5V21H8.5V20.5C8.5 18.567 10.067 17 12 17C13.933 17 15.5 18.567 15.5 20.5ZM9.5 13C9.5 11.6193 10.6193 10.5 12 10.5C13.3808 10.5 14.5 11.6193 14.5 13C14.5 14.3807 13.3808 15.5 12 15.5C10.6193 15.5 9.5 14.3807 9.5 13Z" fill="black" fill-opacity="0.8"/>
</svg>
