<svg width="40" height="40" viewBox="0 0 40 40" fill="none" xmlns="http://www.w3.org/2000/svg">
<path fill-rule="evenodd" clip-rule="evenodd" d="M15.2071 13L17.3536 15.1465L16.6464 15.8536L13.6464 12.8536L13.2929 12.5L13.6464 12.1465L16.6464 9.14648L17.3536 9.85359L15.2071 12H20C24.4183 12 28 15.5818 28 20C28 24.4183 24.4183 28 20 28C15.5817 28 12 24.4183 12 20H13C13 23.866 16.134 27 20 27C23.866 27 27 23.866 27 20C27 16.134 23.866 13 20 13H15.2071ZM19 16V20.5V21H19.5H24V20H20V16H19Z" fill="black" fill-opacity="0.8"/>
</svg>
