<svg width="32" height="32" viewBox="0 0 32 32" fill="none" xmlns="http://www.w3.org/2000/svg">
<path fill-rule="evenodd" clip-rule="evenodd" d="M15 9.5C14.4477 9.5 14 9.94772 14 10.5H18C18 9.94772 17.5523 9.5 17 9.5H15ZM19 10.5C19 9.39543 18.1046 8.5 17 8.5H15C13.8954 8.5 13 9.39543 13 10.5H11.5H10V11.5H11V21.5C11 22.6046 11.8954 23.5 13 23.5H19C20.1046 23.5 21 22.6046 21 21.5V11.5H22V10.5H20.5H19ZM20 11.5H18.5H13.5H12V21.5C12 22.0523 12.4477 22.5 13 22.5H19C19.5523 22.5 20 22.0523 20 21.5V11.5ZM14 18.5V14.5H15V18.5H14ZM17 18.5V14.5H18V18.5H17Z" fill="black" fill-opacity="0.8"/>
</svg>
