<svg width="33" height="33" viewBox="0 0 33 33" fill="none" xmlns="http://www.w3.org/2000/svg">
<path fill-rule="evenodd" clip-rule="evenodd" d="M15.5718 25.3716L15.2221 25.0143L7.30821 16.9291L6.95846 16.5718L7.31578 16.222L15.401 8.30814L15.7663 7.95051L16.1157 8.32376L17.365 9.65832L17.7067 10.0233L16.9766 10.7067L16.6349 10.3417L15.7351 9.38041L8.37259 16.5869L15.587 23.9575L23.3148 16.3934L23.3149 16.3933L24.0144 17.1079L24.0144 17.108L24.0142 17.1081L23.8498 17.2691L23.4926 17.6189L23.4925 17.6188L15.9292 25.0219L15.5718 25.3716ZM22.487 11.4495C21.8671 11.4432 21.2356 11.5337 20.6125 11.7313C17.8324 12.6125 16.1444 15.3304 16.4622 18.1228L17.4376 17.8136C17.2716 15.5569 18.6635 13.3981 20.9146 12.6845C21.4656 12.5099 22.0244 12.4356 22.5712 12.4515L22.6485 12.3025L24.7752 12.3142L23.1198 13.9516L23.823 14.6625L26.3367 12.1762L26.6921 11.8246L26.3405 11.4691L23.8542 8.95553L23.1433 9.65876L24.7807 11.3142L22.4878 11.3017L22.487 11.4495Z" fill="black" fill-opacity="0.8"/>
</svg>
