<svg width="16" height="16" viewBox="0 0 16 16" fill="none" xmlns="http://www.w3.org/2000/svg">
<path fill-rule="evenodd" clip-rule="evenodd" d="M13.7929 1.5L10.1464 5.14645L10.8536 5.85355L14.5 2.20711V4.5H15.5V1V0.5H15H11.5V1.5L13.7929 1.5ZM13.7929 14.5L10.1464 10.8536L10.8536 10.1464L14.5 13.7929V11.5H15.5V15V15.5H15H11.5V14.5H13.7929ZM5.85361 5.14649L2.20716 1.50005L4.50005 1.50005V0.500045L1.00005 0.500045L0.500054 0.500045L0.500054 1.00004L0.500053 4.50004H1.50005L1.50005 2.20715L5.1465 5.8536L5.85361 5.14649ZM2.20711 14.5L5.85355 10.8536L5.14645 10.1465L1.5 13.7929L1.5 11.5H0.5V15V15.5H1L4.5 15.5V14.5L2.20711 14.5Z" fill="black"/>
</svg>
