<svg width="512" height="512" viewBox="0 0 512 512" fill="none" xmlns="http://www.w3.org/2000/svg">
<rect x="4" y="4" width="504" height="504" rx="20" stroke="white" stroke-width="8"/>
<path d="M95.84 376.705V205.432H143.341V376.705H95.84ZM119.702 183.354C112.64 183.354 106.582 181.012 101.527 176.329C96.5462 171.572 94.0559 165.885 94.0559 159.269C94.0559 152.727 96.5462 147.115 101.527 142.432C106.582 137.674 112.64 135.295 119.702 135.295C126.764 135.295 132.786 137.674 137.766 142.432C142.821 147.115 145.349 152.727 145.349 159.269C145.349 165.885 142.821 171.572 137.766 176.329C132.786 181.012 126.764 183.354 119.702 183.354Z" fill="white"/>
<path d="M225.754 277.688V376.705H178.253V205.432H223.524V235.65H225.531C229.322 225.689 235.678 217.809 244.599 212.011C253.519 206.138 264.335 203.202 277.047 203.202C288.941 203.202 299.311 205.804 308.157 211.008C317.003 216.211 323.879 223.645 328.785 233.309C333.692 242.898 336.145 254.346 336.145 267.652V376.705H288.643V276.127C288.718 265.645 286.042 257.468 280.615 251.596C275.188 245.649 267.717 242.675 258.202 242.675C251.809 242.675 246.16 244.05 241.253 246.801C236.422 249.551 232.63 253.566 229.88 258.843C227.204 264.047 225.828 270.329 225.754 277.688Z" fill="white"/>
<path d="M417.944 148.341V376.705H370.443V148.341H417.944Z" fill="white"/>
</svg>
