<svg width="128" height="128" viewBox="0 0 128 128" fill="none" xmlns="http://www.w3.org/2000/svg">
<path d="M65.3425 103.637C65.3425 105.57 66.9095 107.137 68.8425 107.137C70.7755 107.137 72.3425 105.57 72.3425 103.637H65.3425ZM9 103.716V100.216H5.5V103.716H9ZM114.466 60.7037L112.515 63.6092L112.515 63.6092L114.466 60.7037ZM80.1059 45.2993L81.4004 42.0474L81.4004 42.0474L80.1059 45.2993ZM28.6157 36.3744V39.8744H28.7482L28.8803 39.8644L28.6157 36.3744ZM92.9785 6.35224L91.6516 9.59098L92.9785 6.35224ZM46.3155 36.5988L46.7156 33.1217L46.3155 36.5988ZM44.7064 68.8283H48.2064V65.3283H44.7064V68.8283ZM9 103.715V100.215H5.5V103.715H9ZM31.5057 65.7075L34.6252 67.2946L31.5057 65.7075ZM107.635 35.9769L104.166 35.5142L107.635 35.9769ZM109.517 42.4651L106.696 44.5365L106.696 44.5365L109.517 42.4651ZM42.4382 24.2473L43.7471 27.4933L43.7471 27.4933L42.4382 24.2473ZM46.2906 21.5572L48.8793 23.9127L46.2906 21.5572ZM76.6714 80.2841L76.3534 76.7986L76.3534 76.7986L76.6714 80.2841ZM94.5618 75.137L76.3534 76.7986L76.9895 83.7697L95.198 82.1081L94.5618 75.137ZM44.7064 77.4986H38.5314V84.4986H44.7064V77.4986ZM26.4179 115.075C26.4179 116.359 25.9823 117.672 25.0559 118.64C24.1831 119.553 22.5479 120.5 19.4589 120.5V127.5C24.0935 127.5 27.6878 126.015 30.1136 123.48C32.4858 121.001 33.4179 117.852 33.4179 115.075H26.4179ZM19.4589 120.5C16.1847 120.5 14.5791 119.648 13.7875 118.869C12.9971 118.092 12.5 116.878 12.5 115.075H5.5C5.5 118.144 6.37057 121.393 8.87881 123.86C11.3858 126.326 15.0097 127.5 19.4589 127.5V120.5ZM12.5 115.075V103.716H5.5V115.075H12.5ZM26.4179 89.5923V103.716H33.4179V89.5923H26.4179ZM26.4179 103.716V115.075H33.4179V103.716H26.4179ZM9 107.216H29.9179V100.216H9V107.216ZM116.417 57.7982C111.215 54.3045 105.751 51.7407 81.4004 42.0474L78.8115 48.5511C103.377 58.3301 108.062 60.619 112.515 63.6092L116.417 57.7982ZM28.6157 32.8744C27.7352 32.8744 27.7185 32.7436 28.0449 32.9127C28.2699 33.0293 28.7115 33.3227 29.0375 33.9138C29.3785 34.532 29.4113 35.1456 29.3488 35.5663C29.2558 36.1919 28.9754 36.3406 29.3465 35.9169C29.6248 35.5991 30.1027 35.1513 30.8153 34.5931C33.7074 32.3282 38.9072 29.445 43.7471 27.4933L41.1292 21.0013C35.8727 23.1209 30.05 26.3013 26.4993 29.0821C25.6012 29.7854 24.7546 30.5354 24.0807 31.3048C23.4997 31.9682 22.6393 33.0934 22.4247 34.5378C22.3014 35.368 22.388 36.3516 22.908 37.2945C23.4131 38.2103 24.1591 38.7832 24.8246 39.128C26.032 39.7535 27.4406 39.8744 28.6157 39.8744V32.8744ZM48.8793 23.9127C52.8824 19.5135 59.3505 14.073 67.0018 10.6931C74.6122 7.33128 83.1387 6.10332 91.6516 9.59098L94.3054 3.11351C83.5329 -1.29987 72.9621 0.407641 64.1733 4.29003C55.4253 8.15438 48.1922 14.2669 43.7019 19.2016L48.8793 23.9127ZM91.6516 9.59098C100.031 13.0241 103.112 17.2614 104.293 21.2657C105.583 25.6398 104.855 30.3458 104.166 35.5142L111.104 36.4395C111.729 31.7536 112.807 25.3892 111.007 19.2856C109.098 12.8122 104.193 7.16436 94.3054 3.11351L91.6516 9.59098ZM106.696 44.5365C109.796 48.7594 112.734 54.2703 113.962 57.9394C114.265 58.8433 114.422 59.5156 114.478 59.956C114.553 60.5446 114.389 60.2389 114.697 59.6431C114.905 59.2398 115.302 58.7742 115.921 58.4903C116.498 58.2256 116.979 58.2513 117.169 58.2772C117.431 58.313 117.241 58.3511 116.417 57.7982L112.515 63.6092C113.584 64.3276 114.863 65.0273 116.222 65.2128C116.959 65.3135 117.895 65.2861 118.84 64.8525C119.827 64.3997 120.506 63.6495 120.915 62.858C121.624 61.4858 121.539 59.9897 121.422 59.0716C121.286 58.0053 120.981 56.8545 120.6 55.717C119.094 51.2199 115.771 45.0689 112.338 40.3936L106.696 44.5365ZM81.4004 42.0474C68.1744 36.7824 56.181 34.2109 46.7156 33.1217L45.9154 40.0758C54.817 41.1002 66.2038 43.5322 78.8115 48.5511L81.4004 42.0474ZM46.7156 33.1217C42.3927 32.6243 37.7939 32.5699 34.3249 32.6331C32.5793 32.6649 31.0964 32.727 30.0465 32.7814C29.5211 32.8086 29.1031 32.8339 28.8137 32.8527C28.669 32.862 28.5563 32.8697 28.4783 32.8752C28.4394 32.878 28.409 32.8802 28.3877 32.8817C28.3771 32.8825 28.3687 32.8831 28.3626 32.8836C28.3595 32.8838 28.357 32.884 28.3551 32.8841C28.3542 32.8842 28.3534 32.8843 28.3527 32.8843C28.3524 32.8844 28.352 32.8844 28.3518 32.8844C28.3515 32.8844 28.3511 32.8844 28.6157 36.3744C28.8803 39.8644 28.8801 39.8644 28.8799 39.8644C28.8799 39.8645 28.8797 39.8645 28.8797 39.8645C28.8796 39.8645 28.8796 39.8645 28.8798 39.8645C28.8802 39.8644 28.8812 39.8644 28.8827 39.8642C28.8858 39.864 28.8912 39.8636 28.8987 39.8631C28.9138 39.862 28.9379 39.8602 28.9704 39.8579C29.0355 39.8533 29.1349 39.8465 29.2658 39.838C29.5276 39.8211 29.9155 39.7976 30.4085 39.772C31.3951 39.7209 32.7986 39.6621 34.4524 39.632C37.7819 39.5713 42.0329 39.6291 45.9154 40.0758L46.7156 33.1217ZM43.196 35.0117L28.3863 64.1203L34.6252 67.2946L49.435 38.1859L43.196 35.0117ZM33.4259 72.3283H44.7064V65.3283H33.4259V72.3283ZM41.2064 68.8283V90.7354H48.2064V68.8283H41.2064ZM65.3425 88.8422V92.3609H72.3425V88.8422H65.3425ZM65.3425 92.3609V103.637H72.3425V92.3609H65.3425ZM41.2064 90.7354C41.2064 95.5611 45.0362 99.7006 50.4139 100.979C55.8847 102.279 62.9385 100.778 70.8525 95.2261L66.8324 89.4956C59.9429 94.3289 54.9288 94.8566 52.0324 94.1683C49.0429 93.4578 48.2064 91.5919 48.2064 90.7354H41.2064ZM44.7064 77.4969H39.7583V84.4969H44.7064V77.4969ZM26.4179 115.074C26.4179 116.357 25.9823 117.671 25.0559 118.639C24.1831 119.551 22.5479 120.498 19.4589 120.498V127.498C24.0935 127.498 27.6878 126.013 30.1136 123.478C32.4858 120.999 33.4179 117.85 33.4179 115.074H26.4179ZM19.4589 120.498C16.1847 120.498 14.5791 119.646 13.7875 118.868C12.9971 118.09 12.5 116.876 12.5 115.074H5.5C5.5 118.142 6.37057 121.391 8.87881 123.858C11.3858 126.324 15.0097 127.498 19.4589 127.498V120.498ZM12.5 115.074V103.715H5.5V115.074H12.5ZM26.4179 90.7941V103.715H33.4179V90.7941H26.4179ZM26.4179 103.715V115.074H33.4179V103.715H26.4179ZM9 107.215H29.9179V100.215H9V107.215ZM39.7583 77.4969C32.4051 77.4969 26.4179 83.4357 26.4179 90.7941H33.4179C33.4179 87.3308 36.242 84.4969 39.7583 84.4969V77.4969ZM28.3863 64.1203C26.4684 67.8899 29.2201 72.3283 33.4259 72.3283V65.3283C34.4186 65.3283 35.0887 66.3834 34.6252 67.2946L28.3863 64.1203ZM104.166 35.5142C103.708 38.9497 104.923 42.1219 106.696 44.5365L112.338 40.3936C111.34 39.0346 110.944 37.6409 111.104 36.4395L104.166 35.5142ZM43.7471 27.4933C45.7182 26.6985 47.4663 25.4656 48.8793 23.9127L43.7019 19.2016C42.9809 19.9941 42.1017 20.6091 41.1292 21.0013L43.7471 27.4933ZM38.5314 77.4986C31.8489 77.4986 26.4179 82.9055 26.4179 89.5923H33.4179C33.4179 86.7867 35.6997 84.4986 38.5314 84.4986V77.4986ZM76.3534 76.7986C70.123 77.3672 65.3425 82.5829 65.3425 88.8422H72.3425C72.3425 86.2156 74.3506 84.0105 76.9895 83.7697L76.3534 76.7986Z" fill="white"/>
</svg>
