<svg width="128" height="128" viewBox="0 0 128 128" fill="none" xmlns="http://www.w3.org/2000/svg">
<path fill-rule="evenodd" clip-rule="evenodd" d="M93.0101 3.91175C79.0082 -2.01114 67.3698 1.0697 63.3043 2.85205C55.2503 6.38306 48.5916 11.9987 44.3604 16.6179C43.5972 17.451 42.6811 18.1003 41.6701 18.5285C36.933 20.5349 31.7188 23.4628 28.4982 26.0855C27.6784 26.7532 26.8519 27.5096 26.173 28.328C25.6172 28.998 24.5882 30.3713 24.397 32.2303C24.286 33.3096 24.462 34.5612 25.1648 35.7363C25.842 36.8688 26.7857 37.5585 27.5865 37.9631C29.0322 38.6936 30.6085 38.8013 31.7317 38.8013H31.9866L32.238 38.7751L32.2401 38.7749L32.2728 38.7717C32.3071 38.7684 32.3644 38.7631 32.4434 38.7562C32.6014 38.7424 32.8459 38.7225 33.1667 38.7007C33.809 38.6569 34.7534 38.6055 35.9193 38.5791C36.4799 38.5664 37.0883 38.5595 37.7361 38.5619L26.022 62.3127C23.61 67.2031 27.1688 72.9265 32.6218 72.9265H39.057V78.7086H38.2965C30.1683 78.7086 23.5791 85.2978 23.5791 93.426V99.4636H4.80859V114.747C4.80859 117.836 5.67008 121.289 8.33668 123.96C11.0155 126.642 14.7879 127.807 19.0999 127.807C23.6757 127.807 27.4047 126.301 29.9665 123.575C32.4452 120.937 33.3911 117.623 33.3911 114.747V93.426C33.3911 90.7168 35.5873 88.5206 38.2965 88.5206H39.068C39.2586 92.7817 41.9477 98.2541 48.1256 100.338C52.7446 101.897 58.4067 101.249 65.1304 98.043V104.297C65.1304 107.007 67.3269 109.203 70.0364 109.203C72.7459 109.203 74.9424 107.007 74.9424 104.297V85.5199C74.9424 84.968 75.3898 84.5206 75.9417 84.5206H99.1204V74.7086H75.9417C70.9781 74.7086 65.1304 77 65.5258 86.6123C57.3645 91.7678 53.0266 91.6365 51.2623 91.0412C49.5115 90.4505 48.8691 88.9051 48.8691 88.0349V63.1145H36.5671L48.2539 39.419C56.0847 40.5424 66.5363 42.7224 76.0932 46.5958C95.3308 54.3927 107.213 62.7328 112.591 66.5074C113.192 66.9294 113.712 67.2943 114.152 67.595C115.155 68.2809 116.527 69.0802 118.1 69.334C118.957 69.4723 120.11 69.4864 121.322 69.0005C122.602 68.4872 123.536 67.5802 124.123 66.5755C125.129 64.8557 125.037 63.0269 124.947 62.1309C124.837 61.0248 124.553 59.8858 124.223 58.831C122.923 54.6841 120.009 49.1036 116.973 44.7386C116.011 43.355 115.454 41.6821 115.387 39.961C115.065 31.7398 112.397 14.1448 93.0101 3.91175ZM23.5791 109.276H14.6206V114.747C14.6206 116.109 14.9865 116.733 15.2798 117.026C15.561 117.308 16.4812 117.995 19.0999 117.995C21.4547 117.995 22.4183 117.279 22.8165 116.855C23.2977 116.343 23.5791 115.58 23.5791 114.747V109.276ZM42.5513 28.915C43.6541 28.9882 44.8022 29.0898 45.9778 29.2275C54.4502 30.2202 67.6256 32.5766 79.7788 37.5022C93.7575 43.1677 104.114 49.1484 110.982 53.5699C110.329 52.463 109.633 51.3691 108.918 50.3406C106.866 47.3899 105.722 43.8996 105.582 40.3454C105.204 30.6991 101.065 16.6119 87.5984 10.9949C80.6678 8.10398 73.6786 9.01742 67.2441 11.8384C60.7477 14.6865 55.1615 19.3528 51.5957 23.2456C49.9038 25.0926 47.8327 26.5742 45.4969 27.5635C44.5127 27.9804 43.5216 28.4367 42.5513 28.915Z" fill="white"/>
</svg>