<svg width="336" height="96" viewBox="0 0 336 96" fill="none" xmlns="http://www.w3.org/2000/svg">
<rect width="336" height="96" rx="16" fill="black"/>
<g clip-path="url(#clip0_2898_9350)">
<path fill-rule="evenodd" clip-rule="evenodd" d="M48 24.5916C34.7438 24.5916 24 35.3353 24 48.5916C24 59.1909 30.8775 68.1862 40.4119 71.3681C41.6081 71.5912 42.0553 70.8422 42.0553 70.2112C42.0553 69.6328 42.0291 67.7522 42.0291 65.7403C35.3484 67.1869 33.9413 62.9128 33.9413 62.9128C32.85 60.1378 31.2712 59.4019 31.2712 59.4019C29.0878 57.9159 31.4287 57.9422 31.4287 57.9422C33.8353 58.1128 35.1112 60.4144 35.1112 60.4144C37.2544 64.0837 40.7269 63.0178 42.0947 62.4131C42.3047 60.8616 42.9366 59.8097 43.62 59.2041C38.2941 58.5994 32.6784 56.5341 32.6784 47.3419C32.6784 44.7253 33.6122 42.5813 35.1506 40.8984C34.9003 40.2938 34.0856 37.8478 35.3869 34.5469C35.3869 34.5469 37.3988 33.9028 41.9888 37.0059C43.9088 36.48 45.96 36.2034 47.9991 36.2034C50.0372 36.2166 52.0894 36.48 54.0094 37.0059C58.5863 33.9028 60.5981 34.5469 60.5981 34.5469C61.9003 37.8478 61.0847 40.2938 60.8344 40.8984C62.3728 42.5822 63.3066 44.7253 63.3066 47.3419C63.3066 56.5603 57.6909 58.5853 52.3519 59.1778C53.2069 59.9278 53.9822 61.3875 53.9822 63.6225C53.9822 66.8316 53.9559 69.4219 53.9559 70.2112C53.9559 70.8553 54.39 71.5922 55.5994 71.3681C65.1356 68.1862 72 59.2041 72 48.5916C72 35.3353 61.2562 24.5916 48 24.5916Z" fill="white"/>
<path d="M33.0872 59.0466C33.0347 59.1647 32.851 59.2041 32.6794 59.1253C32.5088 59.0466 32.4028 58.8891 32.4694 58.77C32.5219 58.6519 32.7056 58.6125 32.8772 58.6913C33.0478 58.77 33.1528 58.9284 33.0872 59.0466Z" fill="white"/>
<path d="M34.0603 60.1378C33.9422 60.2428 33.7181 60.1903 33.5737 60.0328C33.4162 59.8622 33.39 59.6381 33.5081 59.5331C33.6262 59.4281 33.8372 59.4806 33.9947 59.6381C34.1522 59.8088 34.1784 60.0328 34.0603 60.1378Z" fill="white"/>
<path d="M35.0072 61.5188C34.8628 61.6238 34.6256 61.5319 34.4681 61.3088C34.3238 61.0988 34.3238 60.8353 34.4681 60.7303C34.6125 60.6253 34.8497 60.7172 35.0072 60.9272C35.1647 61.1503 35.1647 61.4138 35.0072 61.5188Z" fill="white"/>
<path d="M36.3094 62.8472C36.1781 62.9916 35.9016 62.9522 35.6916 62.7553C35.4816 62.5584 35.4281 62.2819 35.5603 62.1375C35.6925 61.9931 35.9812 62.0325 36.1781 62.2294C36.3881 62.4394 36.4406 62.715 36.3094 62.8472Z" fill="white"/>
<path d="M38.0972 63.6225C38.0447 63.8063 37.7681 63.8991 37.4925 63.8194C37.2159 63.7406 37.0453 63.5166 37.0978 63.3328C37.1503 63.1491 37.4268 63.0563 37.7025 63.1359C37.9659 63.2147 38.1497 63.4388 38.0972 63.6225Z" fill="white"/>
<path d="M40.0566 63.7678C40.0697 63.9647 39.8334 64.1362 39.5438 64.1362C39.2541 64.1494 39.0309 63.9787 39.0178 63.7809C39.0178 63.5841 39.2409 63.4125 39.5306 63.4125C39.8203 63.4125 40.0566 63.57 40.0566 63.7678Z" fill="white"/>
<path d="M41.8847 63.465C41.9241 63.6619 41.7272 63.8597 41.4375 63.9122C41.1609 63.9647 40.8984 63.8466 40.8722 63.6488C40.8328 63.4519 41.0428 63.2541 41.3194 63.2016C41.5959 63.1491 41.8453 63.2681 41.8847 63.465Z" fill="white"/>
</g>
<path d="M106.604 21.9545H109.239V31.4574C109.239 32.4991 108.992 33.4152 108.5 34.206C108.012 34.9967 107.326 35.6146 106.44 36.0597C105.555 36.5 104.52 36.7202 103.337 36.7202C102.148 36.7202 101.111 36.5 100.226 36.0597C99.3404 35.6146 98.6539 34.9967 98.1662 34.206C97.6785 33.4152 97.4347 32.4991 97.4347 31.4574V21.9545H100.07V31.2372C100.07 31.8433 100.202 32.383 100.467 32.8565C100.737 33.33 101.116 33.7017 101.604 33.9716C102.091 34.2367 102.669 34.3693 103.337 34.3693C104.004 34.3693 104.582 34.2367 105.07 33.9716C105.562 33.7017 105.941 33.33 106.206 32.8565C106.471 32.383 106.604 31.8433 106.604 31.2372V21.9545ZM111.989 40.5909V25.5909H114.517V27.3949H114.667C114.799 27.1297 114.986 26.848 115.228 26.5497C115.469 26.2467 115.796 25.9886 116.208 25.7756C116.62 25.5578 117.145 25.4489 117.784 25.4489C118.627 25.4489 119.387 25.6643 120.064 26.0952C120.746 26.5213 121.286 27.1534 121.684 27.9915C122.086 28.8248 122.287 29.8475 122.287 31.0597C122.287 32.2576 122.091 33.2756 121.698 34.1136C121.305 34.9517 120.77 35.5909 120.093 36.0312C119.416 36.4716 118.649 36.6918 117.792 36.6918C117.167 36.6918 116.648 36.5876 116.236 36.3793C115.824 36.1709 115.493 35.92 115.242 35.6264C114.996 35.3281 114.804 35.0464 114.667 34.7812H114.56V40.5909H111.989ZM114.51 31.0455C114.51 31.7509 114.61 32.3688 114.809 32.8991C115.012 33.4295 115.303 33.8437 115.682 34.142C116.066 34.4356 116.53 34.5824 117.074 34.5824C117.642 34.5824 118.118 34.4309 118.502 34.1278C118.885 33.8201 119.174 33.401 119.368 32.8707C119.567 32.3357 119.667 31.7273 119.667 31.0455C119.667 30.3684 119.569 29.767 119.375 29.2415C119.181 28.7159 118.892 28.304 118.509 28.0057C118.125 27.7074 117.647 27.5582 117.074 27.5582C116.525 27.5582 116.059 27.7027 115.675 27.9915C115.292 28.2803 115 28.6851 114.801 29.206C114.607 29.7268 114.51 30.34 114.51 31.0455ZM133.862 25.5909L129.977 36.5H127.136L123.251 25.5909H125.993L128.5 33.6946H128.614L131.128 25.5909H133.862ZM140.029 36.7131C138.963 36.7131 138.04 36.4787 137.259 36.0099C136.478 35.5412 135.872 34.8854 135.441 34.0426C135.015 33.1998 134.801 32.215 134.801 31.0881C134.801 29.9612 135.015 28.974 135.441 28.1264C135.872 27.2789 136.478 26.6207 137.259 26.152C138.04 25.6832 138.963 25.4489 140.029 25.4489C141.094 25.4489 142.017 25.6832 142.799 26.152C143.58 26.6207 144.184 27.2789 144.61 28.1264C145.041 28.974 145.256 29.9612 145.256 31.0881C145.256 32.215 145.041 33.1998 144.61 34.0426C144.184 34.8854 143.58 35.5412 142.799 36.0099C142.017 36.4787 141.094 36.7131 140.029 36.7131ZM140.043 34.6534C140.621 34.6534 141.104 34.4948 141.492 34.1776C141.88 33.8556 142.169 33.4247 142.358 32.8849C142.552 32.3452 142.65 31.7438 142.65 31.081C142.65 30.4134 142.552 29.8097 142.358 29.2699C142.169 28.7254 141.88 28.2921 141.492 27.9702C141.104 27.6482 140.621 27.4872 140.043 27.4872C139.451 27.4872 138.959 27.6482 138.566 27.9702C138.177 28.2921 137.886 28.7254 137.692 29.2699C137.503 29.8097 137.408 30.4134 137.408 31.081C137.408 31.7438 137.503 32.3452 137.692 32.8849C137.886 33.4247 138.177 33.8556 138.566 34.1776C138.959 34.4948 139.451 34.6534 140.043 34.6534ZM152.886 25.5909V27.5795H146.614V25.5909H152.886ZM148.163 22.9773H150.734V33.2188C150.734 33.5644 150.786 33.8295 150.89 34.0142C150.999 34.1941 151.141 34.3172 151.316 34.3835C151.491 34.4498 151.685 34.483 151.898 34.483C152.059 34.483 152.206 34.4711 152.339 34.4474C152.476 34.4238 152.58 34.4025 152.651 34.3835L153.085 36.3935C152.947 36.4408 152.751 36.4929 152.495 36.5497C152.244 36.6065 151.936 36.6397 151.572 36.6491C150.928 36.6681 150.348 36.571 149.832 36.358C149.316 36.1402 148.906 35.804 148.603 35.3494C148.305 34.8949 148.158 34.3267 148.163 33.6449V22.9773ZM159.748 36.7131C158.654 36.7131 157.71 36.4858 156.914 36.0312C156.124 35.572 155.515 34.9233 155.089 34.0852C154.663 33.2424 154.45 32.2505 154.45 31.1094C154.45 29.9872 154.663 29.0024 155.089 28.1548C155.52 27.3026 156.121 26.6397 156.893 26.1662C157.665 25.688 158.572 25.4489 159.613 25.4489C160.286 25.4489 160.92 25.5578 161.517 25.7756C162.118 25.9886 162.648 26.3201 163.108 26.7699C163.572 27.2197 163.936 27.7926 164.201 28.4886C164.467 29.1799 164.599 30.0038 164.599 30.9602V31.7486H155.657V30.0156H162.135C162.13 29.5232 162.023 29.0852 161.815 28.7017C161.607 28.3134 161.315 28.008 160.941 27.7855C160.572 27.563 160.141 27.4517 159.649 27.4517C159.123 27.4517 158.662 27.5795 158.264 27.8352C157.866 28.0862 157.556 28.4176 157.333 28.8295C157.116 29.2367 157.004 29.6842 157 30.1719V31.6847C157 32.3191 157.116 32.8636 157.348 33.3182C157.58 33.768 157.904 34.1136 158.321 34.3551C158.737 34.5919 159.225 34.7102 159.784 34.7102C160.158 34.7102 160.496 34.6581 160.799 34.554C161.102 34.4451 161.365 34.2865 161.588 34.0781C161.81 33.8698 161.978 33.6117 162.092 33.304L164.493 33.5739C164.341 34.2083 164.052 34.7623 163.626 35.2358C163.205 35.7045 162.665 36.0691 162.007 36.3295C161.349 36.5852 160.596 36.7131 159.748 36.7131ZM176.494 36.7131C175.428 36.7131 174.505 36.4787 173.724 36.0099C172.942 35.5412 172.336 34.8854 171.906 34.0426C171.479 33.1998 171.266 32.215 171.266 31.0881C171.266 29.9612 171.479 28.974 171.906 28.1264C172.336 27.2789 172.942 26.6207 173.724 26.152C174.505 25.6832 175.428 25.4489 176.494 25.4489C177.559 25.4489 178.482 25.6832 179.263 26.152C180.045 26.6207 180.648 27.2789 181.075 28.1264C181.505 28.974 181.721 29.9612 181.721 31.0881C181.721 32.215 181.505 33.1998 181.075 34.0426C180.648 34.8854 180.045 35.5412 179.263 36.0099C178.482 36.4787 177.559 36.7131 176.494 36.7131ZM176.508 34.6534C177.085 34.6534 177.568 34.4948 177.957 34.1776C178.345 33.8556 178.634 33.4247 178.823 32.8849C179.017 32.3452 179.114 31.7438 179.114 31.081C179.114 30.4134 179.017 29.8097 178.823 29.2699C178.634 28.7254 178.345 28.2921 177.957 27.9702C177.568 27.6482 177.085 27.4872 176.508 27.4872C175.916 27.4872 175.424 27.6482 175.031 27.9702C174.642 28.2921 174.351 28.7254 174.157 29.2699C173.968 29.8097 173.873 30.4134 173.873 31.081C173.873 31.7438 173.968 32.3452 174.157 32.8849C174.351 33.4247 174.642 33.8556 175.031 34.1776C175.424 34.4948 175.916 34.6534 176.508 34.6534ZM186.474 30.108V36.5H183.903V25.5909H186.36V27.4446H186.488C186.739 26.8338 187.139 26.3485 187.689 25.9886C188.243 25.6288 188.927 25.4489 189.741 25.4489C190.494 25.4489 191.15 25.6098 191.708 25.9318C192.272 26.2538 192.708 26.7202 193.015 27.331C193.328 27.9418 193.482 28.6828 193.477 29.554V36.5H190.906V29.9517C190.906 29.2225 190.717 28.652 190.338 28.2401C189.964 27.8281 189.445 27.6222 188.782 27.6222C188.333 27.6222 187.932 27.7216 187.582 27.9205C187.236 28.1146 186.964 28.3963 186.765 28.7656C186.571 29.1349 186.474 29.5824 186.474 30.108Z" fill="white"/>
<path d="M109.415 60.6193C109.273 60.1591 109.077 59.7472 108.827 59.3835C108.582 59.0142 108.287 58.6989 107.94 58.4375C107.599 58.1761 107.207 57.9801 106.764 57.8494C106.321 57.7131 105.838 57.6449 105.315 57.6449C104.378 57.6449 103.543 57.8807 102.81 58.3523C102.077 58.8239 101.5 59.517 101.08 60.4318C100.665 61.3409 100.457 62.4489 100.457 63.7557C100.457 65.0739 100.665 66.1903 101.08 67.1051C101.494 68.0199 102.071 68.7159 102.81 69.1932C103.548 69.6648 104.406 69.9006 105.384 69.9006C106.27 69.9006 107.037 69.7301 107.685 69.3892C108.338 69.0483 108.841 68.5653 109.193 67.9403C109.545 67.3097 109.722 66.571 109.722 65.7244L110.438 65.8352H105.699V63.3636H112.781V65.4602C112.781 66.9545 112.463 68.2472 111.827 69.3381C111.19 70.429 110.315 71.2699 109.202 71.8608C108.088 72.446 106.81 72.7386 105.366 72.7386C103.759 72.7386 102.347 72.3778 101.131 71.6562C99.9205 70.929 98.9744 69.8977 98.2926 68.5625C97.6165 67.2216 97.2784 65.6307 97.2784 63.7898C97.2784 62.3807 97.4773 61.1222 97.875 60.0142C98.2784 58.9062 98.8409 57.9659 99.5625 57.1932C100.284 56.4148 101.131 55.8239 102.102 55.4205C103.074 55.0114 104.131 54.8068 105.273 54.8068C106.239 54.8068 107.139 54.9489 107.974 55.233C108.81 55.5114 109.551 55.9091 110.199 56.4261C110.852 56.9432 111.389 57.5568 111.81 58.267C112.23 58.9773 112.506 59.7614 112.636 60.6193H109.415ZM116.523 72.5V59.4091H119.608V72.5H116.523ZM118.074 57.5511C117.585 57.5511 117.165 57.3892 116.812 57.0653C116.46 56.7358 116.284 56.3409 116.284 55.8807C116.284 55.4148 116.46 55.0199 116.812 54.696C117.165 54.3665 117.585 54.2017 118.074 54.2017C118.568 54.2017 118.989 54.3665 119.335 54.696C119.688 55.0199 119.864 55.4148 119.864 55.8807C119.864 56.3409 119.688 56.7358 119.335 57.0653C118.989 57.3892 118.568 57.5511 118.074 57.5511ZM129.317 59.4091V61.7955H121.792V59.4091H129.317ZM123.65 56.2727H126.735V68.5625C126.735 68.9773 126.798 69.2955 126.923 69.517C127.053 69.733 127.224 69.8807 127.434 69.9602C127.644 70.0398 127.877 70.0795 128.133 70.0795C128.326 70.0795 128.502 70.0653 128.661 70.0369C128.826 70.0085 128.951 69.983 129.036 69.9602L129.556 72.3722C129.391 72.429 129.156 72.4915 128.849 72.5597C128.548 72.6278 128.178 72.6676 127.741 72.679C126.968 72.7017 126.272 72.5852 125.653 72.3295C125.033 72.0682 124.542 71.6648 124.178 71.1193C123.82 70.5739 123.644 69.892 123.65 69.0739V56.2727ZM132.315 72.5V55.0455H135.477V62.4347H143.565V55.0455H146.736V72.5H143.565V65.0852H135.477V72.5H132.315ZM158.382 66.9943V59.4091H161.467V72.5H158.476V70.1733H158.339C158.044 70.9062 157.558 71.5057 156.882 71.9716C156.212 72.4375 155.385 72.6705 154.402 72.6705C153.544 72.6705 152.786 72.4801 152.126 72.0994C151.473 71.7131 150.962 71.1534 150.592 70.4205C150.223 69.6818 150.038 68.7898 150.038 67.7443V59.4091H153.124V67.267C153.124 68.0966 153.351 68.7557 153.805 69.2443C154.26 69.733 154.857 69.9773 155.595 69.9773C156.05 69.9773 156.49 69.8665 156.916 69.6449C157.342 69.4233 157.692 69.0938 157.964 68.6562C158.243 68.2131 158.382 67.6591 158.382 66.9943ZM164.776 72.5V55.0455H167.862V61.5739H167.989C168.148 61.2557 168.373 60.9176 168.663 60.5597C168.952 60.196 169.344 59.8864 169.839 59.6307C170.333 59.3693 170.964 59.2386 171.731 59.2386C172.742 59.2386 173.654 59.4972 174.467 60.0142C175.285 60.5256 175.933 61.2841 176.41 62.2898C176.893 63.2898 177.134 64.517 177.134 65.9716C177.134 67.4091 176.898 68.6307 176.427 69.6364C175.955 70.642 175.313 71.4091 174.501 71.9375C173.688 72.4659 172.768 72.7301 171.739 72.7301C170.989 72.7301 170.367 72.6051 169.873 72.3551C169.379 72.1051 168.981 71.804 168.68 71.4517C168.384 71.0937 168.154 70.7557 167.989 70.4375H167.81V72.5H164.776ZM167.802 65.9545C167.802 66.8011 167.921 67.5426 168.16 68.179C168.404 68.8153 168.754 69.3125 169.208 69.6705C169.668 70.0227 170.225 70.1989 170.879 70.1989C171.56 70.1989 172.131 70.017 172.592 69.6534C173.052 69.2841 173.398 68.7812 173.631 68.1449C173.87 67.5028 173.989 66.7727 173.989 65.9545C173.989 65.142 173.873 64.4205 173.64 63.7898C173.407 63.1591 173.06 62.6648 172.6 62.3068C172.14 61.9489 171.566 61.7699 170.879 61.7699C170.219 61.7699 169.66 61.9432 169.2 62.2898C168.739 62.6364 168.39 63.1222 168.151 63.7472C167.918 64.3722 167.802 65.108 167.802 65.9545ZM191.761 72.5H185.847V55.0455H191.881C193.614 55.0455 195.102 55.3949 196.347 56.0938C197.597 56.7869 198.557 57.7841 199.227 59.0852C199.898 60.3864 200.233 61.9432 200.233 63.7557C200.233 65.5739 199.895 67.1364 199.219 68.4432C198.548 69.75 197.58 70.7528 196.312 71.4517C195.051 72.1506 193.534 72.5 191.761 72.5ZM189.009 69.7642H191.608C192.824 69.7642 193.838 69.5426 194.651 69.0994C195.463 68.6506 196.074 67.983 196.483 67.0966C196.892 66.2045 197.097 65.0909 197.097 63.7557C197.097 62.4205 196.892 61.3125 196.483 60.4318C196.074 59.5455 195.469 58.8835 194.668 58.446C193.872 58.0028 192.884 57.7812 191.702 57.7812H189.009V69.7642ZM203.101 72.5V59.4091H206.186V72.5H203.101ZM204.652 57.5511C204.163 57.5511 203.743 57.3892 203.391 57.0653C203.038 56.7358 202.862 56.3409 202.862 55.8807C202.862 55.4148 203.038 55.0199 203.391 54.696C203.743 54.3665 204.163 54.2017 204.652 54.2017C205.146 54.2017 205.567 54.3665 205.913 54.696C206.266 55.0199 206.442 55.4148 206.442 55.8807C206.442 56.3409 206.266 56.7358 205.913 57.0653C205.567 57.3892 205.146 57.5511 204.652 57.5511ZM219.705 62.8693L216.893 63.1761C216.813 62.892 216.674 62.625 216.475 62.375C216.282 62.125 216.021 61.9233 215.691 61.7699C215.362 61.6165 214.958 61.5398 214.481 61.5398C213.839 61.5398 213.299 61.679 212.862 61.9574C212.43 62.2358 212.217 62.5966 212.222 63.0398C212.217 63.4205 212.356 63.7301 212.64 63.9688C212.93 64.2074 213.407 64.4034 214.072 64.5568L216.305 65.0341C217.543 65.3011 218.464 65.7244 219.066 66.304C219.674 66.8835 219.981 67.642 219.987 68.5795C219.981 69.4034 219.739 70.1307 219.262 70.7614C218.79 71.3864 218.134 71.875 217.293 72.2273C216.452 72.5795 215.487 72.7557 214.396 72.7557C212.793 72.7557 211.504 72.4205 210.526 71.75C209.549 71.0739 208.967 70.1335 208.779 68.929L211.788 68.6392C211.924 69.2301 212.214 69.6761 212.657 69.9773C213.1 70.2784 213.677 70.429 214.387 70.429C215.12 70.429 215.708 70.2784 216.151 69.9773C216.6 69.6761 216.825 69.304 216.825 68.8608C216.825 68.4858 216.68 68.1761 216.39 67.9318C216.106 67.6875 215.663 67.5 215.06 67.3693L212.827 66.9006C211.572 66.6392 210.643 66.1989 210.04 65.5795C209.438 64.9545 209.14 64.1648 209.146 63.2102C209.14 62.4034 209.359 61.7045 209.802 61.1136C210.251 60.517 210.873 60.0568 211.668 59.733C212.469 59.4034 213.393 59.2386 214.438 59.2386C215.972 59.2386 217.18 59.5653 218.06 60.2188C218.947 60.8722 219.495 61.7557 219.705 62.8693ZM228.241 72.7557C226.934 72.7557 225.812 72.4688 224.874 71.8949C223.942 71.321 223.224 70.5284 222.718 69.517C222.218 68.5 221.968 67.3295 221.968 66.0057C221.968 64.6761 222.224 63.5028 222.735 62.4858C223.246 61.4631 223.968 60.6676 224.9 60.0994C225.837 59.5256 226.945 59.2386 228.224 59.2386C229.286 59.2386 230.227 59.4347 231.045 59.8267C231.869 60.2131 232.525 60.7614 233.013 61.4716C233.502 62.1761 233.781 63 233.849 63.9432H230.9C230.781 63.3125 230.496 62.7869 230.048 62.3665C229.604 61.9403 229.011 61.7273 228.266 61.7273C227.636 61.7273 227.082 61.8977 226.604 62.2386C226.127 62.5739 225.755 63.0568 225.488 63.6875C225.227 64.3182 225.096 65.0739 225.096 65.9545C225.096 66.8466 225.227 67.6136 225.488 68.2557C225.749 68.892 226.116 69.3835 226.587 69.7301C227.065 70.071 227.624 70.2415 228.266 70.2415C228.721 70.2415 229.127 70.1562 229.485 69.9858C229.849 69.8097 230.153 69.5568 230.397 69.2273C230.641 68.8977 230.809 68.4972 230.9 68.0256H233.849C233.775 68.9517 233.502 69.7727 233.031 70.4886C232.559 71.1989 231.917 71.7557 231.104 72.1591C230.292 72.5568 229.337 72.7557 228.241 72.7557ZM244.726 66.9943V59.4091H247.811V72.5H244.82V70.1733H244.683C244.388 70.9062 243.902 71.5057 243.226 71.9716C242.555 72.4375 241.729 72.6705 240.746 72.6705C239.888 72.6705 239.129 72.4801 238.47 72.0994C237.817 71.7131 237.305 71.1534 236.936 70.4205C236.567 69.6818 236.382 68.7898 236.382 67.7443V59.4091H239.467V67.267C239.467 68.0966 239.695 68.7557 240.149 69.2443C240.604 69.733 241.2 69.9773 241.939 69.9773C242.393 69.9773 242.834 69.8665 243.26 69.6449C243.686 69.4233 244.036 69.0938 244.308 68.6562C244.587 68.2131 244.726 67.6591 244.726 66.9943ZM261.33 62.8693L258.518 63.1761C258.438 62.892 258.299 62.625 258.1 62.375C257.907 62.125 257.646 61.9233 257.316 61.7699C256.987 61.6165 256.583 61.5398 256.106 61.5398C255.464 61.5398 254.924 61.679 254.487 61.9574C254.055 62.2358 253.842 62.5966 253.847 63.0398C253.842 63.4205 253.981 63.7301 254.265 63.9688C254.555 64.2074 255.032 64.4034 255.697 64.5568L257.93 65.0341C259.168 65.3011 260.089 65.7244 260.691 66.304C261.299 66.8835 261.606 67.642 261.612 68.5795C261.606 69.4034 261.364 70.1307 260.887 70.7614C260.415 71.3864 259.759 71.875 258.918 72.2273C258.077 72.5795 257.112 72.7557 256.021 72.7557C254.418 72.7557 253.129 72.4205 252.151 71.75C251.174 71.0739 250.592 70.1335 250.404 68.929L253.413 68.6392C253.549 69.2301 253.839 69.6761 254.282 69.9773C254.725 70.2784 255.302 70.429 256.012 70.429C256.745 70.429 257.333 70.2784 257.776 69.9773C258.225 69.6761 258.45 69.304 258.45 68.8608C258.45 68.4858 258.305 68.1761 258.015 67.9318C257.731 67.6875 257.288 67.5 256.685 67.3693L254.452 66.9006C253.197 66.6392 252.268 66.1989 251.665 65.5795C251.063 64.9545 250.765 64.1648 250.771 63.2102C250.765 62.4034 250.984 61.7045 251.427 61.1136C251.876 60.517 252.498 60.0568 253.293 59.733C254.094 59.4034 255.018 59.2386 256.063 59.2386C257.597 59.2386 258.805 59.5653 259.685 60.2188C260.572 60.8722 261.12 61.7557 261.33 62.8693ZM274.502 62.8693L271.69 63.1761C271.61 62.892 271.471 62.625 271.272 62.375C271.079 62.125 270.817 61.9233 270.488 61.7699C270.158 61.6165 269.755 61.5398 269.278 61.5398C268.636 61.5398 268.096 61.679 267.658 61.9574C267.227 62.2358 267.013 62.5966 267.019 63.0398C267.013 63.4205 267.153 63.7301 267.437 63.9688C267.727 64.2074 268.204 64.4034 268.869 64.5568L271.102 65.0341C272.34 65.3011 273.261 65.7244 273.863 66.304C274.471 66.8835 274.778 67.642 274.783 68.5795C274.778 69.4034 274.536 70.1307 274.059 70.7614C273.587 71.3864 272.931 71.875 272.09 72.2273C271.249 72.5795 270.283 72.7557 269.192 72.7557C267.59 72.7557 266.3 72.4205 265.323 71.75C264.346 71.0739 263.763 70.1335 263.576 68.929L266.585 68.6392C266.721 69.2301 267.011 69.6761 267.454 69.9773C267.897 70.2784 268.474 70.429 269.184 70.429C269.917 70.429 270.505 70.2784 270.948 69.9773C271.397 69.6761 271.621 69.304 271.621 68.8608C271.621 68.4858 271.477 68.1761 271.187 67.9318C270.903 67.6875 270.46 67.5 269.857 67.3693L267.624 66.9006C266.369 66.6392 265.44 66.1989 264.837 65.5795C264.235 64.9545 263.937 64.1648 263.942 63.2102C263.937 62.4034 264.156 61.7045 264.599 61.1136C265.048 60.517 265.67 60.0568 266.465 59.733C267.266 59.4034 268.19 59.2386 269.235 59.2386C270.769 59.2386 271.977 59.5653 272.857 60.2188C273.744 60.8722 274.292 61.7557 274.502 62.8693ZM277.327 72.5V59.4091H280.413V72.5H277.327ZM278.879 57.5511C278.39 57.5511 277.969 57.3892 277.617 57.0653C277.265 56.7358 277.089 56.3409 277.089 55.8807C277.089 55.4148 277.265 55.0199 277.617 54.696C277.969 54.3665 278.39 54.2017 278.879 54.2017C279.373 54.2017 279.793 54.3665 280.14 54.696C280.492 55.0199 280.668 55.4148 280.668 55.8807C280.668 56.3409 280.492 56.7358 280.14 57.0653C279.793 57.3892 279.373 57.5511 278.879 57.5511ZM289.295 72.7557C288.017 72.7557 286.909 72.4744 285.972 71.9119C285.034 71.3494 284.307 70.5625 283.79 69.5511C283.278 68.5398 283.023 67.358 283.023 66.0057C283.023 64.6534 283.278 63.4687 283.79 62.4517C284.307 61.4347 285.034 60.6449 285.972 60.0824C286.909 59.5199 288.017 59.2386 289.295 59.2386C290.574 59.2386 291.682 59.5199 292.619 60.0824C293.557 60.6449 294.281 61.4347 294.793 62.4517C295.31 63.4687 295.568 64.6534 295.568 66.0057C295.568 67.358 295.31 68.5398 294.793 69.5511C294.281 70.5625 293.557 71.3494 292.619 71.9119C291.682 72.4744 290.574 72.7557 289.295 72.7557ZM289.312 70.2841C290.006 70.2841 290.585 70.0937 291.051 69.7131C291.517 69.3267 291.864 68.8097 292.091 68.1619C292.324 67.5142 292.44 66.7926 292.44 65.9972C292.44 65.196 292.324 64.4716 292.091 63.8239C291.864 63.1705 291.517 62.6506 291.051 62.2642C290.585 61.8778 290.006 61.6847 289.312 61.6847C288.602 61.6847 288.011 61.8778 287.54 62.2642C287.074 62.6506 286.724 63.1705 286.491 63.8239C286.264 64.4716 286.151 65.196 286.151 65.9972C286.151 66.7926 286.264 67.5142 286.491 68.1619C286.724 68.8097 287.074 69.3267 287.54 69.7131C288.011 70.0937 288.602 70.2841 289.312 70.2841ZM301.272 64.8295V72.5H298.187V59.4091H301.136V61.6335H301.289C301.59 60.9006 302.07 60.3182 302.729 59.8864C303.394 59.4545 304.215 59.2386 305.192 59.2386C306.096 59.2386 306.883 59.4318 307.553 59.8182C308.229 60.2045 308.752 60.7642 309.121 61.4972C309.496 62.2301 309.681 63.1193 309.675 64.1648V72.5H306.59V64.642C306.59 63.767 306.363 63.0824 305.908 62.5881C305.46 62.0937 304.837 61.8466 304.042 61.8466C303.502 61.8466 303.022 61.9659 302.602 62.2045C302.187 62.4375 301.86 62.7756 301.621 63.2188C301.388 63.6619 301.272 64.1989 301.272 64.8295Z" fill="white"/>
<defs>
<clipPath id="clip0_2898_9350">
<rect width="48" height="48" fill="white" transform="translate(24 24)"/>
</clipPath>
</defs>
</svg>
