<svg width="16" height="16" viewBox="0 0 16 16" fill="none" xmlns="http://www.w3.org/2000/svg">
<path fill-rule="evenodd" clip-rule="evenodd" d="M6.67383 2.36353H14.6738V3.36353H6.67383V2.36353ZM6.67383 12.3635H14.6738V13.3635H6.67383V12.3635ZM14.6738 7.36353H6.67383V8.36353H14.6738V7.36353Z" fill="black"/>
<path d="M2.83665 2H2.08452L1 2.69673V3.42116L2.0206 2.76918H2.04616V6.36364H2.83665V2Z" fill="black"/>
<path d="M1.0617 13.3635H4.05318V12.703H2.15261V12.6731L2.90474 11.9082C3.75275 11.0943 3.98713 10.698 3.98713 10.2058C3.98713 9.47499 3.39267 8.94019 2.51483 8.94019C1.64977 8.94019 1.03613 9.47712 1.03613 10.306H1.78826C1.78826 9.86064 2.06951 9.58152 2.50417 9.58152C2.91966 9.58152 3.2286 9.83507 3.2286 10.2463C3.2286 10.6106 3.00701 10.8706 2.57662 11.3074L1.0617 12.7925V13.3635Z" fill="black"/>
</svg>
