<svg width="16" height="16" viewBox="0 0 16 16" fill="none" xmlns="http://www.w3.org/2000/svg">
<path fill-rule="evenodd" clip-rule="evenodd" d="M5.90385 3.29714C6.55586 2.76942 7.42764 2.5 8.34865 2.5C9.2557 2.5 10.1045 2.72833 10.7557 3.24249C11.4171 3.7647 11.825 4.5433 11.9049 5.53679L10.9081 5.617C10.8478 4.86771 10.5546 4.35785 10.136 4.02732C9.70715 3.68872 9.09715 3.5 8.34865 3.5C7.61409 3.5 6.97647 3.71549 6.53298 4.07444C6.09887 4.4258 5.82985 4.92887 5.82985 5.57689C5.82985 6.19225 6.1148 6.59009 6.46904 6.86928C6.52904 6.91657 6.59059 6.96003 6.65259 7H5.2422C4.99669 6.62665 4.82985 6.15776 4.82985 5.57689C4.82985 4.61783 5.24245 3.83246 5.90385 3.29714ZM10.8235 10H11.893C11.9616 10.2406 12 10.507 12 10.8014C12 11.7725 11.6269 12.5937 10.9353 13.1625C10.2549 13.722 9.31313 14 8.22795 14C7.1275 14 6.24152 13.6893 5.59988 13.1211C4.95968 12.5542 4.6107 11.7735 4.50389 10.9219L5.49611 10.7974C5.57892 11.4577 5.83893 11.9971 6.26281 12.3724C6.68525 12.7465 7.31843 13 8.22795 13C9.15274 13 9.84697 12.7628 10.3001 12.3901C10.7421 12.0266 11 11.4985 11 10.8014C11 10.4771 10.9337 10.2154 10.8235 10ZM2 9H14V8H2V9Z" fill="black" fill-opacity="0.8"/>
</svg>
