<svg width="16" height="16" viewBox="0 0 16 16" fill="none" xmlns="http://www.w3.org/2000/svg">
<g clip-path="url(#clip0_2021_24362)">
<path fill-rule="evenodd" clip-rule="evenodd" d="M1.06637 8.25L4 4.23069L3.46606 3.5L0.266968 7.88517L0 8.25L0.266968 8.61586L3.46606 13L3.99925 12.2693L1.06637 8.25Z" fill="black"/>
<path fill-rule="evenodd" clip-rule="evenodd" d="M14.9336 8.25L12 12.2693L12.5339 13L15.733 8.61483L16 8.25L15.733 7.88414L12.5339 3.5L12.0008 4.23069L14.9336 8.25Z" fill="black"/>
<path d="M11.1553 10.918C11.096 10.9727 11.0117 11 10.9023 11H9.11816C8.99512 11 8.89941 10.9727 8.83105 10.918C8.76725 10.8587 8.73535 10.7904 8.73535 10.7129C8.73535 10.64 8.76497 10.5762 8.82422 10.5215C8.88802 10.4668 8.97461 10.4395 9.08398 10.4395H9.63086L8.09277 8.67578L6.58203 10.4395H6.98535C7.15853 10.4395 7.24512 10.5306 7.24512 10.7129C7.24512 10.9043 7.15397 11 6.97168 11H5.2832C5.07357 11 4.96875 10.9043 4.96875 10.7129C4.96875 10.5306 5.06445 10.4395 5.25586 10.4395H5.83008L7.69629 8.22461L5.9873 6.26953H5.38574C5.17611 6.26953 5.07129 6.17383 5.07129 5.98242C5.07129 5.80013 5.16699 5.70898 5.3584 5.70898H6.97852C7.15169 5.70898 7.23828 5.80013 7.23828 5.98242C7.23828 6.17383 7.14714 6.26953 6.96484 6.26953H6.69141L8.05859 7.79395L9.34375 6.26953H9.03613C8.8265 6.26953 8.72168 6.17383 8.72168 5.98242C8.72168 5.80013 8.81738 5.70898 9.00879 5.70898H10.834C11.0117 5.70898 11.1006 5.80013 11.1006 5.98242C11.1006 6.17383 11.0072 6.26953 10.8203 6.26953H10.1504L8.46191 8.24512L10.4307 10.4395H10.916C11.0208 10.4395 11.1029 10.4668 11.1621 10.5215C11.2214 10.5762 11.251 10.64 11.251 10.7129C11.251 10.7904 11.2191 10.8587 11.1553 10.918Z" fill="black"/>
</g>
<defs>
<clipPath id="clip0_2021_24362">
<rect width="16" height="16" rx="4" fill="white"/>
</clipPath>
</defs>
</svg>
