<svg width="133" height="29" viewBox="0 0 133 29" fill="none" xmlns="http://www.w3.org/2000/svg">
<path d="M4.00391 2V11H2.91406V2H4.00391ZM5.45703 7.90039V7.76562C5.45703 7.30859 5.52344 6.88477 5.65625 6.49414C5.78906 6.09961 5.98047 5.75781 6.23047 5.46875C6.48047 5.17578 6.7832 4.94922 7.13867 4.78906C7.49414 4.625 7.89258 4.54297 8.33398 4.54297C8.7793 4.54297 9.17969 4.625 9.53516 4.78906C9.89453 4.94922 10.1992 5.17578 10.4492 5.46875C10.7031 5.75781 10.8965 6.09961 11.0293 6.49414C11.1621 6.88477 11.2285 7.30859 11.2285 7.76562V7.90039C11.2285 8.35742 11.1621 8.78125 11.0293 9.17188C10.8965 9.5625 10.7031 9.9043 10.4492 10.1973C10.1992 10.4863 9.89648 10.7129 9.54102 10.877C9.18945 11.0371 8.79102 11.1172 8.3457 11.1172C7.90039 11.1172 7.5 11.0371 7.14453 10.877C6.78906 10.7129 6.48438 10.4863 6.23047 10.1973C5.98047 9.9043 5.78906 9.5625 5.65625 9.17188C5.52344 8.78125 5.45703 8.35742 5.45703 7.90039ZM6.54102 7.76562V7.90039C6.54102 8.2168 6.57812 8.51562 6.65234 8.79688C6.72656 9.07422 6.83789 9.32031 6.98633 9.53516C7.13867 9.75 7.32812 9.91992 7.55469 10.0449C7.78125 10.166 8.04492 10.2266 8.3457 10.2266C8.64258 10.2266 8.90234 10.166 9.125 10.0449C9.35156 9.91992 9.53906 9.75 9.6875 9.53516C9.83594 9.32031 9.94727 9.07422 10.0215 8.79688C10.0996 8.51562 10.1387 8.2168 10.1387 7.90039V7.76562C10.1387 7.45312 10.0996 7.1582 10.0215 6.88086C9.94727 6.59961 9.83398 6.35156 9.68164 6.13672C9.5332 5.91797 9.3457 5.74609 9.11914 5.62109C8.89648 5.49609 8.63477 5.43359 8.33398 5.43359C8.03711 5.43359 7.77539 5.49609 7.54883 5.62109C7.32617 5.74609 7.13867 5.91797 6.98633 6.13672C6.83789 6.35156 6.72656 6.59961 6.65234 6.88086C6.57812 7.1582 6.54102 7.45312 6.54102 7.76562ZM16.6953 4.66016H17.6797V10.8652C17.6797 11.4238 17.5664 11.9004 17.3398 12.2949C17.1133 12.6895 16.7969 12.9883 16.3906 13.1914C15.9883 13.3984 15.5234 13.502 14.9961 13.502C14.7773 13.502 14.5195 13.4668 14.2227 13.3965C13.9297 13.3301 13.6406 13.2148 13.3555 13.0508C13.0742 12.8906 12.8379 12.6738 12.6465 12.4004L13.2148 11.7559C13.4805 12.0762 13.7578 12.2988 14.0469 12.4238C14.3398 12.5488 14.6289 12.6113 14.9141 12.6113C15.2578 12.6113 15.5547 12.5469 15.8047 12.418C16.0547 12.2891 16.248 12.0977 16.3848 11.8438C16.5254 11.5938 16.5957 11.2852 16.5957 10.918V6.05469L16.6953 4.66016ZM12.3301 7.90039V7.77734C12.3301 7.29297 12.3867 6.85352 12.5 6.45898C12.6172 6.06055 12.7832 5.71875 12.998 5.43359C13.2168 5.14844 13.4805 4.92969 13.7891 4.77734C14.0977 4.62109 14.4453 4.54297 14.832 4.54297C15.2305 4.54297 15.5781 4.61328 15.875 4.75391C16.1758 4.89062 16.4297 5.0918 16.6367 5.35742C16.8477 5.61914 17.0137 5.93555 17.1348 6.30664C17.2559 6.67773 17.3398 7.09766 17.3867 7.56641V8.10547C17.3438 8.57031 17.2598 8.98828 17.1348 9.35938C17.0137 9.73047 16.8477 10.0469 16.6367 10.3086C16.4297 10.5703 16.1758 10.7715 15.875 10.9121C15.5742 11.0488 15.2227 11.1172 14.8203 11.1172C14.4414 11.1172 14.0977 11.0371 13.7891 10.877C13.4844 10.7168 13.2227 10.4922 13.0039 10.2031C12.7852 9.91406 12.6172 9.57422 12.5 9.18359C12.3867 8.78906 12.3301 8.36133 12.3301 7.90039ZM13.4141 7.77734V7.90039C13.4141 8.2168 13.4453 8.51367 13.5078 8.79102C13.5742 9.06836 13.6738 9.3125 13.8066 9.52344C13.9434 9.73438 14.1172 9.90039 14.3281 10.0215C14.5391 10.1387 14.791 10.1973 15.084 10.1973C15.4434 10.1973 15.7402 10.1211 15.9746 9.96875C16.209 9.81641 16.3945 9.61523 16.5312 9.36523C16.6719 9.11523 16.7812 8.84375 16.8594 8.55078V7.13867C16.8164 6.92383 16.75 6.7168 16.6602 6.51758C16.5742 6.31445 16.4609 6.13477 16.3203 5.97852C16.1836 5.81836 16.0137 5.69141 15.8105 5.59766C15.6074 5.50391 15.3691 5.45703 15.0957 5.45703C14.7988 5.45703 14.543 5.51953 14.3281 5.64453C14.1172 5.76562 13.9434 5.93359 13.8066 6.14844C13.6738 6.35938 13.5742 6.60547 13.5078 6.88672C13.4453 7.16406 13.4141 7.46094 13.4141 7.77734ZM20.5039 4.66016V11H19.4141V4.66016H20.5039ZM19.332 2.97852C19.332 2.80273 19.3848 2.6543 19.4902 2.5332C19.5996 2.41211 19.7598 2.35156 19.9707 2.35156C20.1777 2.35156 20.3359 2.41211 20.4453 2.5332C20.5586 2.6543 20.6152 2.80273 20.6152 2.97852C20.6152 3.14648 20.5586 3.29102 20.4453 3.41211C20.3359 3.5293 20.1777 3.58789 19.9707 3.58789C19.7598 3.58789 19.5996 3.5293 19.4902 3.41211C19.3848 3.29102 19.332 3.14648 19.332 2.97852ZM23.3281 6.01367V11H22.2441V4.66016H23.2695L23.3281 6.01367ZM23.0703 7.58984L22.6191 7.57227C22.623 7.13867 22.6875 6.73828 22.8125 6.37109C22.9375 6 23.1133 5.67773 23.3398 5.4043C23.5664 5.13086 23.8359 4.91992 24.1484 4.77148C24.4648 4.61914 24.8145 4.54297 25.1973 4.54297C25.5098 4.54297 25.791 4.58594 26.041 4.67188C26.291 4.75391 26.5039 4.88672 26.6797 5.07031C26.8594 5.25391 26.9961 5.49219 27.0898 5.78516C27.1836 6.07422 27.2305 6.42773 27.2305 6.8457V11H26.1406V6.83398C26.1406 6.50195 26.0918 6.23633 25.9941 6.03711C25.8965 5.83398 25.7539 5.6875 25.5664 5.59766C25.3789 5.50391 25.1484 5.45703 24.875 5.45703C24.6055 5.45703 24.3594 5.51367 24.1367 5.62695C23.918 5.74023 23.7285 5.89648 23.5684 6.0957C23.4121 6.29492 23.2891 6.52344 23.1992 6.78125C23.1133 7.03516 23.0703 7.30469 23.0703 7.58984ZM31.1328 6.92773V7.81836H28.2734V6.92773H31.1328ZM32.1875 2H33.2773V9.76953L33.1836 11H32.1875V2ZM37.5605 7.77734V7.90039C37.5605 8.36133 37.5059 8.78906 37.3965 9.18359C37.2871 9.57422 37.127 9.91406 36.916 10.2031C36.7051 10.4922 36.4473 10.7168 36.1426 10.877C35.8379 11.0371 35.4883 11.1172 35.0938 11.1172C34.6914 11.1172 34.3379 11.0488 34.0332 10.9121C33.7324 10.7715 33.4785 10.5703 33.2715 10.3086C33.0645 10.0469 32.8984 9.73047 32.7734 9.35938C32.6523 8.98828 32.5684 8.57031 32.5215 8.10547V7.56641C32.5684 7.09766 32.6523 6.67773 32.7734 6.30664C32.8984 5.93555 33.0645 5.61914 33.2715 5.35742C33.4785 5.0918 33.7324 4.89062 34.0332 4.75391C34.334 4.61328 34.6836 4.54297 35.082 4.54297C35.4805 4.54297 35.834 4.62109 36.1426 4.77734C36.4512 4.92969 36.709 5.14844 36.916 5.43359C37.127 5.71875 37.2871 6.06055 37.3965 6.45898C37.5059 6.85352 37.5605 7.29297 37.5605 7.77734ZM36.4707 7.90039V7.77734C36.4707 7.46094 36.4414 7.16406 36.3828 6.88672C36.3242 6.60547 36.2305 6.35938 36.1016 6.14844C35.9727 5.93359 35.8027 5.76562 35.5918 5.64453C35.3809 5.51953 35.1211 5.45703 34.8125 5.45703C34.5391 5.45703 34.3008 5.50391 34.0977 5.59766C33.8984 5.69141 33.7285 5.81836 33.5879 5.97852C33.4473 6.13477 33.332 6.31445 33.2422 6.51758C33.1562 6.7168 33.0918 6.92383 33.0488 7.13867V8.55078C33.1113 8.82422 33.2129 9.08789 33.3535 9.3418C33.498 9.5918 33.6895 9.79688 33.9277 9.95703C34.1699 10.1172 34.4688 10.1973 34.8242 10.1973C35.1172 10.1973 35.3672 10.1387 35.5742 10.0215C35.7852 9.90039 35.9551 9.73438 36.084 9.52344C36.2168 9.3125 36.3145 9.06836 36.377 8.79102C36.4395 8.51367 36.4707 8.2168 36.4707 7.90039ZM42.8105 9.53516V4.66016H43.9004V11H42.8633L42.8105 9.53516ZM43.0156 8.19922L43.4668 8.1875C43.4668 8.60938 43.4219 9 43.332 9.35938C43.2461 9.71484 43.1055 10.0234 42.9102 10.2852C42.7148 10.5469 42.459 10.752 42.1426 10.9004C41.8262 11.0449 41.4414 11.1172 40.9883 11.1172C40.6797 11.1172 40.3965 11.0723 40.1387 10.9824C39.8848 10.8926 39.666 10.7539 39.4824 10.5664C39.2988 10.3789 39.1562 10.1348 39.0547 9.83398C38.957 9.5332 38.9082 9.17188 38.9082 8.75V4.66016H39.9922V8.76172C39.9922 9.04688 40.0234 9.2832 40.0859 9.4707C40.1523 9.6543 40.2402 9.80078 40.3496 9.91016C40.4629 10.0156 40.5879 10.0898 40.7246 10.1328C40.8652 10.1758 41.0098 10.1973 41.1582 10.1973C41.6191 10.1973 41.9844 10.1094 42.2539 9.93359C42.5234 9.75391 42.7168 9.51367 42.834 9.21289C42.9551 8.9082 43.0156 8.57031 43.0156 8.19922ZM48.207 4.66016V5.49219H44.7793V4.66016H48.207ZM45.9395 3.11914H47.0234V9.42969C47.0234 9.64453 47.0566 9.80664 47.123 9.91602C47.1895 10.0254 47.2754 10.0977 47.3809 10.1328C47.4863 10.168 47.5996 10.1855 47.7207 10.1855C47.8105 10.1855 47.9043 10.1777 48.002 10.1621C48.1035 10.1426 48.1797 10.127 48.2305 10.1152L48.2363 11C48.1504 11.0273 48.0371 11.0527 47.8965 11.0762C47.7598 11.1035 47.5938 11.1172 47.3984 11.1172C47.1328 11.1172 46.8887 11.0645 46.666 10.959C46.4434 10.8535 46.2656 10.6777 46.1328 10.4316C46.0039 10.1816 45.9395 9.8457 45.9395 9.42383V3.11914ZM52.1328 4.66016V5.49219H48.7051V4.66016H52.1328ZM49.8652 3.11914H50.9492V9.42969C50.9492 9.64453 50.9824 9.80664 51.0488 9.91602C51.1152 10.0254 51.2012 10.0977 51.3066 10.1328C51.4121 10.168 51.5254 10.1855 51.6465 10.1855C51.7363 10.1855 51.8301 10.1777 51.9277 10.1621C52.0293 10.1426 52.1055 10.127 52.1562 10.1152L52.1621 11C52.0762 11.0273 51.9629 11.0527 51.8223 11.0762C51.6855 11.1035 51.5195 11.1172 51.3242 11.1172C51.0586 11.1172 50.8145 11.0645 50.5918 10.959C50.3691 10.8535 50.1914 10.6777 50.0586 10.4316C49.9297 10.1816 49.8652 9.8457 49.8652 9.42383V3.11914ZM53 7.90039V7.76562C53 7.30859 53.0664 6.88477 53.1992 6.49414C53.332 6.09961 53.5234 5.75781 53.7734 5.46875C54.0234 5.17578 54.3262 4.94922 54.6816 4.78906C55.0371 4.625 55.4355 4.54297 55.877 4.54297C56.3223 4.54297 56.7227 4.625 57.0781 4.78906C57.4375 4.94922 57.7422 5.17578 57.9922 5.46875C58.2461 5.75781 58.4395 6.09961 58.5723 6.49414C58.7051 6.88477 58.7715 7.30859 58.7715 7.76562V7.90039C58.7715 8.35742 58.7051 8.78125 58.5723 9.17188C58.4395 9.5625 58.2461 9.9043 57.9922 10.1973C57.7422 10.4863 57.4395 10.7129 57.084 10.877C56.7324 11.0371 56.334 11.1172 55.8887 11.1172C55.4434 11.1172 55.043 11.0371 54.6875 10.877C54.332 10.7129 54.0273 10.4863 53.7734 10.1973C53.5234 9.9043 53.332 9.5625 53.1992 9.17188C53.0664 8.78125 53 8.35742 53 7.90039ZM54.084 7.76562V7.90039C54.084 8.2168 54.1211 8.51562 54.1953 8.79688C54.2695 9.07422 54.3809 9.32031 54.5293 9.53516C54.6816 9.75 54.8711 9.91992 55.0977 10.0449C55.3242 10.166 55.5879 10.2266 55.8887 10.2266C56.1855 10.2266 56.4453 10.166 56.668 10.0449C56.8945 9.91992 57.082 9.75 57.2305 9.53516C57.3789 9.32031 57.4902 9.07422 57.5645 8.79688C57.6426 8.51562 57.6816 8.2168 57.6816 7.90039V7.76562C57.6816 7.45312 57.6426 7.1582 57.5645 6.88086C57.4902 6.59961 57.377 6.35156 57.2246 6.13672C57.0762 5.91797 56.8887 5.74609 56.6621 5.62109C56.4395 5.49609 56.1777 5.43359 55.877 5.43359C55.5801 5.43359 55.3184 5.49609 55.0918 5.62109C54.8691 5.74609 54.6816 5.91797 54.5293 6.13672C54.3809 6.35156 54.2695 6.59961 54.1953 6.88086C54.1211 7.1582 54.084 7.45312 54.084 7.76562ZM61.2148 6.01367V11H60.1309V4.66016H61.1562L61.2148 6.01367ZM60.957 7.58984L60.5059 7.57227C60.5098 7.13867 60.5742 6.73828 60.6992 6.37109C60.8242 6 61 5.67773 61.2266 5.4043C61.4531 5.13086 61.7227 4.91992 62.0352 4.77148C62.3516 4.61914 62.7012 4.54297 63.084 4.54297C63.3965 4.54297 63.6777 4.58594 63.9277 4.67188C64.1777 4.75391 64.3906 4.88672 64.5664 5.07031C64.7461 5.25391 64.8828 5.49219 64.9766 5.78516C65.0703 6.07422 65.1172 6.42773 65.1172 6.8457V11H64.0273V6.83398C64.0273 6.50195 63.9785 6.23633 63.8809 6.03711C63.7832 5.83398 63.6406 5.6875 63.4531 5.59766C63.2656 5.50391 63.0352 5.45703 62.7617 5.45703C62.4922 5.45703 62.2461 5.51367 62.0234 5.62695C61.8047 5.74023 61.6152 5.89648 61.4551 6.0957C61.2988 6.29492 61.1758 6.52344 61.0859 6.78125C61 7.03516 60.957 7.30469 60.957 7.58984ZM69.5996 10.0742C69.5996 9.79297 69.7012 9.55859 69.9043 9.37109C70.1074 9.17969 70.3691 9.08398 70.6895 9.08398C71.0137 9.08398 71.2754 9.17969 71.4746 9.37109C71.6777 9.55859 71.7793 9.79297 71.7793 10.0742C71.7793 10.3555 71.6777 10.5918 71.4746 10.7832C71.2754 10.9707 71.0137 11.0645 70.6895 11.0645C70.3691 11.0645 70.1074 10.9707 69.9043 10.7832C69.7012 10.5918 69.5996 10.3555 69.5996 10.0742ZM77.9668 9.875L79.5957 4.66016H80.3105L80.1699 5.69727L78.5117 11H77.8145L77.9668 9.875ZM76.8711 4.66016L78.2598 9.93359L78.3594 11H77.627L75.7871 4.66016H76.8711ZM81.8691 9.89258L83.1934 4.66016H84.2715L82.4316 11H81.7051L81.8691 9.89258ZM80.4688 4.66016L82.0625 9.78711L82.2441 11H81.5527L79.8477 5.68555L79.707 4.66016H80.4688ZM88.0156 11.1172C87.5742 11.1172 87.1738 11.043 86.8145 10.8945C86.459 10.7422 86.1523 10.5293 85.8945 10.2559C85.6406 9.98242 85.4453 9.6582 85.3086 9.2832C85.1719 8.9082 85.1035 8.49805 85.1035 8.05273V7.80664C85.1035 7.29102 85.1797 6.83203 85.332 6.42969C85.4844 6.02344 85.6914 5.67969 85.9531 5.39844C86.2148 5.11719 86.5117 4.9043 86.8438 4.75977C87.1758 4.61523 87.5195 4.54297 87.875 4.54297C88.3281 4.54297 88.7188 4.62109 89.0469 4.77734C89.3789 4.93359 89.6504 5.15234 89.8613 5.43359C90.0723 5.71094 90.2285 6.03906 90.3301 6.41797C90.4316 6.79297 90.4824 7.20312 90.4824 7.64844V8.13477H85.748V7.25H89.3984V7.16797C89.3828 6.88672 89.3242 6.61328 89.2227 6.34766C89.125 6.08203 88.9688 5.86328 88.7539 5.69141C88.5391 5.51953 88.2461 5.43359 87.875 5.43359C87.6289 5.43359 87.4023 5.48633 87.1953 5.5918C86.9883 5.69336 86.8105 5.8457 86.6621 6.04883C86.5137 6.25195 86.3984 6.5 86.3164 6.79297C86.2344 7.08594 86.1934 7.42383 86.1934 7.80664V8.05273C86.1934 8.35352 86.2344 8.63672 86.3164 8.90234C86.4023 9.16406 86.5254 9.39453 86.6855 9.59375C86.8496 9.79297 87.0469 9.94922 87.2773 10.0625C87.5117 10.1758 87.7773 10.2324 88.0742 10.2324C88.457 10.2324 88.7812 10.1543 89.0469 9.99805C89.3125 9.8418 89.5449 9.63281 89.7441 9.37109L90.4004 9.89258C90.2637 10.0996 90.0898 10.2969 89.8789 10.4844C89.668 10.6719 89.4082 10.8242 89.0996 10.9414C88.7949 11.0586 88.4336 11.1172 88.0156 11.1172ZM92.9258 2V11H91.8359V2H92.9258ZM97.2031 10.2266C97.4609 10.2266 97.6992 10.1738 97.918 10.0684C98.1367 9.96289 98.3164 9.81836 98.457 9.63477C98.5977 9.44727 98.6777 9.23438 98.6973 8.99609H99.7285C99.709 9.37109 99.582 9.7207 99.3477 10.0449C99.1172 10.3652 98.8145 10.625 98.4395 10.8242C98.0645 11.0195 97.6523 11.1172 97.2031 11.1172C96.7266 11.1172 96.3105 11.0332 95.9551 10.8652C95.6035 10.6973 95.3105 10.4668 95.0762 10.1738C94.8457 9.88086 94.6719 9.54492 94.5547 9.16602C94.4414 8.7832 94.3848 8.37891 94.3848 7.95312V7.70703C94.3848 7.28125 94.4414 6.87891 94.5547 6.5C94.6719 6.11719 94.8457 5.7793 95.0762 5.48633C95.3105 5.19336 95.6035 4.96289 95.9551 4.79492C96.3105 4.62695 96.7266 4.54297 97.2031 4.54297C97.6992 4.54297 98.1328 4.64453 98.5039 4.84766C98.875 5.04688 99.166 5.32031 99.377 5.66797C99.5918 6.01172 99.709 6.40234 99.7285 6.83984H98.6973C98.6777 6.57812 98.6035 6.3418 98.4746 6.13086C98.3496 5.91992 98.1777 5.75195 97.959 5.62695C97.7441 5.49805 97.4922 5.43359 97.2031 5.43359C96.8711 5.43359 96.5918 5.5 96.3652 5.63281C96.1426 5.76172 95.9648 5.9375 95.832 6.16016C95.7031 6.37891 95.6094 6.62305 95.5508 6.89258C95.4961 7.1582 95.4688 7.42969 95.4688 7.70703V7.95312C95.4688 8.23047 95.4961 8.50391 95.5508 8.77344C95.6055 9.04297 95.6973 9.28711 95.8262 9.50586C95.959 9.72461 96.1367 9.90039 96.3594 10.0332C96.5859 10.1621 96.8672 10.2266 97.2031 10.2266ZM100.66 7.90039V7.76562C100.66 7.30859 100.727 6.88477 100.859 6.49414C100.992 6.09961 101.184 5.75781 101.434 5.46875C101.684 5.17578 101.986 4.94922 102.342 4.78906C102.697 4.625 103.096 4.54297 103.537 4.54297C103.982 4.54297 104.383 4.625 104.738 4.78906C105.098 4.94922 105.402 5.17578 105.652 5.46875C105.906 5.75781 106.1 6.09961 106.232 6.49414C106.365 6.88477 106.432 7.30859 106.432 7.76562V7.90039C106.432 8.35742 106.365 8.78125 106.232 9.17188C106.1 9.5625 105.906 9.9043 105.652 10.1973C105.402 10.4863 105.1 10.7129 104.744 10.877C104.393 11.0371 103.994 11.1172 103.549 11.1172C103.104 11.1172 102.703 11.0371 102.348 10.877C101.992 10.7129 101.688 10.4863 101.434 10.1973C101.184 9.9043 100.992 9.5625 100.859 9.17188C100.727 8.78125 100.66 8.35742 100.66 7.90039ZM101.744 7.76562V7.90039C101.744 8.2168 101.781 8.51562 101.855 8.79688C101.93 9.07422 102.041 9.32031 102.189 9.53516C102.342 9.75 102.531 9.91992 102.758 10.0449C102.984 10.166 103.248 10.2266 103.549 10.2266C103.846 10.2266 104.105 10.166 104.328 10.0449C104.555 9.91992 104.742 9.75 104.891 9.53516C105.039 9.32031 105.15 9.07422 105.225 8.79688C105.303 8.51562 105.342 8.2168 105.342 7.90039V7.76562C105.342 7.45312 105.303 7.1582 105.225 6.88086C105.15 6.59961 105.037 6.35156 104.885 6.13672C104.736 5.91797 104.549 5.74609 104.322 5.62109C104.1 5.49609 103.838 5.43359 103.537 5.43359C103.24 5.43359 102.979 5.49609 102.752 5.62109C102.529 5.74609 102.342 5.91797 102.189 6.13672C102.041 6.35156 101.93 6.59961 101.855 6.88086C101.781 7.1582 101.744 7.45312 101.744 7.76562ZM108.869 5.91992V11H107.779V4.66016H108.811L108.869 5.91992ZM108.646 7.58984L108.143 7.57227C108.146 7.13867 108.203 6.73828 108.312 6.37109C108.422 6 108.584 5.67773 108.799 5.4043C109.014 5.13086 109.281 4.91992 109.602 4.77148C109.922 4.61914 110.293 4.54297 110.715 4.54297C111.012 4.54297 111.285 4.58594 111.535 4.67188C111.785 4.75391 112.002 4.88477 112.186 5.06445C112.369 5.24414 112.512 5.47461 112.613 5.75586C112.715 6.03711 112.766 6.37695 112.766 6.77539V11H111.682V6.82812C111.682 6.49609 111.625 6.23047 111.512 6.03125C111.402 5.83203 111.246 5.6875 111.043 5.59766C110.84 5.50391 110.602 5.45703 110.328 5.45703C110.008 5.45703 109.74 5.51367 109.525 5.62695C109.311 5.74023 109.139 5.89648 109.01 6.0957C108.881 6.29492 108.787 6.52344 108.729 6.78125C108.674 7.03516 108.646 7.30469 108.646 7.58984ZM112.754 6.99219L112.027 7.21484C112.031 6.86719 112.088 6.5332 112.197 6.21289C112.311 5.89258 112.473 5.60742 112.684 5.35742C112.898 5.10742 113.162 4.91016 113.475 4.76562C113.787 4.61719 114.145 4.54297 114.547 4.54297C114.887 4.54297 115.188 4.58789 115.449 4.67773C115.715 4.76758 115.938 4.90625 116.117 5.09375C116.301 5.27734 116.439 5.51367 116.533 5.80273C116.627 6.0918 116.674 6.43555 116.674 6.83398V11H115.584V6.82227C115.584 6.4668 115.527 6.19141 115.414 5.99609C115.305 5.79688 115.148 5.6582 114.945 5.58008C114.746 5.49805 114.508 5.45703 114.23 5.45703C113.992 5.45703 113.781 5.49805 113.598 5.58008C113.414 5.66211 113.26 5.77539 113.135 5.91992C113.01 6.06055 112.914 6.22266 112.848 6.40625C112.785 6.58984 112.754 6.78516 112.754 6.99219ZM120.945 11.1172C120.504 11.1172 120.104 11.043 119.744 10.8945C119.389 10.7422 119.082 10.5293 118.824 10.2559C118.57 9.98242 118.375 9.6582 118.238 9.2832C118.102 8.9082 118.033 8.49805 118.033 8.05273V7.80664C118.033 7.29102 118.109 6.83203 118.262 6.42969C118.414 6.02344 118.621 5.67969 118.883 5.39844C119.145 5.11719 119.441 4.9043 119.773 4.75977C120.105 4.61523 120.449 4.54297 120.805 4.54297C121.258 4.54297 121.648 4.62109 121.977 4.77734C122.309 4.93359 122.58 5.15234 122.791 5.43359C123.002 5.71094 123.158 6.03906 123.26 6.41797C123.361 6.79297 123.412 7.20312 123.412 7.64844V8.13477H118.678V7.25H122.328V7.16797C122.312 6.88672 122.254 6.61328 122.152 6.34766C122.055 6.08203 121.898 5.86328 121.684 5.69141C121.469 5.51953 121.176 5.43359 120.805 5.43359C120.559 5.43359 120.332 5.48633 120.125 5.5918C119.918 5.69336 119.74 5.8457 119.592 6.04883C119.443 6.25195 119.328 6.5 119.246 6.79297C119.164 7.08594 119.123 7.42383 119.123 7.80664V8.05273C119.123 8.35352 119.164 8.63672 119.246 8.90234C119.332 9.16406 119.455 9.39453 119.615 9.59375C119.779 9.79297 119.977 9.94922 120.207 10.0625C120.441 10.1758 120.707 10.2324 121.004 10.2324C121.387 10.2324 121.711 10.1543 121.977 9.99805C122.242 9.8418 122.475 9.63281 122.674 9.37109L123.33 9.89258C123.193 10.0996 123.02 10.2969 122.809 10.4844C122.598 10.6719 122.338 10.8242 122.029 10.9414C121.725 11.0586 121.363 11.1172 120.945 11.1172Z" fill="black"/>
<path d="M17.5679 23.2295V27H17.0405V22.2451H17.5459L17.5679 23.2295ZM17.4712 24.3281L17.2163 24.1963C17.2339 23.915 17.2866 23.6514 17.3745 23.4053C17.4653 23.1592 17.5913 22.9424 17.7524 22.7549C17.9136 22.5674 18.1069 22.4209 18.3325 22.3154C18.5581 22.21 18.8145 22.1572 19.1016 22.1572C19.333 22.1572 19.5425 22.1895 19.73 22.2539C19.9204 22.3154 20.0815 22.4136 20.2134 22.5483C20.3481 22.6802 20.4521 22.853 20.5254 23.0669C20.5986 23.2808 20.6353 23.5371 20.6353 23.8359V27H20.1123V23.8535C20.1123 23.5371 20.0625 23.2896 19.9629 23.1108C19.8662 22.9321 19.73 22.8047 19.5542 22.7285C19.3813 22.6523 19.1807 22.6143 18.9521 22.6143C18.6826 22.6143 18.4541 22.6699 18.2666 22.7812C18.082 22.8896 17.9312 23.0317 17.814 23.2075C17.6997 23.3804 17.6147 23.5664 17.5591 23.7656C17.5034 23.9619 17.4741 24.1494 17.4712 24.3281ZM20.6309 23.915L20.2793 23.9238C20.2939 23.6924 20.3467 23.4712 20.4375 23.2603C20.5312 23.0493 20.6587 22.8618 20.8198 22.6978C20.981 22.5308 21.1729 22.3989 21.3955 22.3022C21.6211 22.2056 21.8745 22.1572 22.1558 22.1572C22.4019 22.1572 22.6216 22.1909 22.8149 22.2583C23.0083 22.3228 23.1709 22.4268 23.3027 22.5703C23.4375 22.7109 23.54 22.8911 23.6104 23.1108C23.6807 23.3306 23.7158 23.5942 23.7158 23.9019V27H23.1885V23.8975C23.1885 23.5605 23.1387 23.2998 23.0391 23.1152C22.9424 22.9277 22.8076 22.7974 22.6348 22.7241C22.4619 22.6509 22.2598 22.6143 22.0283 22.6143C21.7998 22.6172 21.5991 22.6597 21.4263 22.7417C21.2534 22.8208 21.1084 22.9263 20.9912 23.0581C20.877 23.187 20.7891 23.3262 20.7275 23.4756C20.6689 23.625 20.6367 23.7715 20.6309 23.915ZM26.8887 27.0879C26.5781 27.0879 26.2925 27.0308 26.0317 26.9165C25.7739 26.8022 25.5483 26.6411 25.355 26.4331C25.1646 26.2251 25.0166 25.979 24.9111 25.6948C24.8086 25.4077 24.7573 25.0942 24.7573 24.7544V24.5654C24.7573 24.1992 24.8115 23.8682 24.9199 23.5723C25.0283 23.2764 25.1777 23.0229 25.3682 22.812C25.5586 22.6011 25.7754 22.4399 26.0186 22.3286C26.2646 22.2144 26.5225 22.1572 26.792 22.1572C27.0938 22.1572 27.3618 22.2114 27.5962 22.3198C27.8306 22.4253 28.0269 22.5762 28.1851 22.7725C28.3462 22.9658 28.4678 23.1958 28.5498 23.4624C28.6318 23.7261 28.6729 24.0176 28.6729 24.3369V24.6577H25.0737V24.2095H28.1499V24.1479C28.144 23.8813 28.0898 23.6323 27.9873 23.4009C27.8877 23.1665 27.7383 22.9761 27.5391 22.8296C27.3398 22.6831 27.0908 22.6099 26.792 22.6099C26.5693 22.6099 26.3643 22.6567 26.1768 22.7505C25.9922 22.8442 25.8325 22.979 25.6978 23.1548C25.5659 23.3276 25.4634 23.5342 25.3901 23.7744C25.3198 24.0117 25.2847 24.2754 25.2847 24.5654V24.7544C25.2847 25.0181 25.3228 25.2642 25.3989 25.4927C25.478 25.7183 25.5894 25.9175 25.7329 26.0903C25.8794 26.2632 26.0522 26.3979 26.2515 26.4946C26.4507 26.5913 26.6704 26.6396 26.9106 26.6396C27.1919 26.6396 27.4409 26.5884 27.6577 26.4858C27.8745 26.3804 28.0693 26.2148 28.2422 25.9893L28.5718 26.2441C28.4692 26.3965 28.3403 26.5371 28.1851 26.666C28.0327 26.7949 27.8496 26.8975 27.6357 26.9736C27.4219 27.0498 27.1729 27.0879 26.8887 27.0879ZM32.5576 25.7871C32.5576 25.6582 32.5254 25.5308 32.4609 25.4048C32.3965 25.2788 32.272 25.1631 32.0874 25.0576C31.9058 24.9521 31.6377 24.8628 31.2832 24.7896C31.0195 24.731 30.7837 24.665 30.5757 24.5918C30.3706 24.5186 30.1978 24.4307 30.0571 24.3281C29.9165 24.2256 29.8096 24.1025 29.7363 23.959C29.6631 23.8154 29.6265 23.6455 29.6265 23.4492C29.6265 23.2734 29.6646 23.1079 29.7407 22.9526C29.8198 22.7944 29.9312 22.6567 30.0747 22.5396C30.2212 22.4194 30.397 22.3257 30.6021 22.2583C30.8101 22.1909 31.043 22.1572 31.3008 22.1572C31.667 22.1572 31.9805 22.2202 32.2412 22.3462C32.5049 22.4692 32.7056 22.6377 32.8433 22.8516C32.9839 23.0654 33.0542 23.3071 33.0542 23.5767H32.5312C32.5312 23.4126 32.4829 23.2573 32.3862 23.1108C32.2925 22.9644 32.1533 22.8442 31.9688 22.7505C31.7871 22.6567 31.5645 22.6099 31.3008 22.6099C31.0283 22.6099 30.8071 22.6509 30.6372 22.7329C30.4673 22.8149 30.3428 22.9189 30.2637 23.0449C30.1875 23.1709 30.1494 23.3013 30.1494 23.436C30.1494 23.5415 30.1655 23.6382 30.1978 23.7261C30.2329 23.811 30.2944 23.8901 30.3823 23.9634C30.4731 24.0366 30.6021 24.1055 30.769 24.1699C30.936 24.2344 31.1528 24.2974 31.4194 24.3589C31.8032 24.4438 32.1167 24.5479 32.3599 24.6709C32.606 24.791 32.7876 24.9404 32.9048 25.1191C33.022 25.2949 33.0806 25.5088 33.0806 25.7607C33.0806 25.957 33.0396 26.1372 32.9575 26.3013C32.8755 26.4624 32.7568 26.6016 32.6016 26.7188C32.4492 26.8359 32.2646 26.9268 32.0479 26.9912C31.834 27.0557 31.5938 27.0879 31.3271 27.0879C30.9258 27.0879 30.5859 27.022 30.3076 26.8901C30.0322 26.7554 29.8228 26.5796 29.6792 26.3628C29.5386 26.1431 29.4683 25.9102 29.4683 25.6641H29.9912C30.0088 25.9102 30.0864 26.105 30.2241 26.2485C30.3618 26.3892 30.5303 26.4888 30.7295 26.5474C30.9316 26.606 31.1309 26.6353 31.3271 26.6353C31.5967 26.6353 31.8223 26.5957 32.0039 26.5166C32.1855 26.4375 32.3232 26.3335 32.417 26.2046C32.5107 26.0757 32.5576 25.9365 32.5576 25.7871ZM37.1191 25.7871C37.1191 25.6582 37.0869 25.5308 37.0225 25.4048C36.958 25.2788 36.8335 25.1631 36.6489 25.0576C36.4673 24.9521 36.1992 24.8628 35.8447 24.7896C35.5811 24.731 35.3452 24.665 35.1372 24.5918C34.9321 24.5186 34.7593 24.4307 34.6187 24.3281C34.478 24.2256 34.3711 24.1025 34.2979 23.959C34.2246 23.8154 34.188 23.6455 34.188 23.4492C34.188 23.2734 34.2261 23.1079 34.3022 22.9526C34.3813 22.7944 34.4927 22.6567 34.6362 22.5396C34.7827 22.4194 34.9585 22.3257 35.1636 22.2583C35.3716 22.1909 35.6045 22.1572 35.8623 22.1572C36.2285 22.1572 36.542 22.2202 36.8027 22.3462C37.0664 22.4692 37.2671 22.6377 37.4048 22.8516C37.5454 23.0654 37.6157 23.3071 37.6157 23.5767H37.0928C37.0928 23.4126 37.0444 23.2573 36.9478 23.1108C36.854 22.9644 36.7148 22.8442 36.5303 22.7505C36.3486 22.6567 36.126 22.6099 35.8623 22.6099C35.5898 22.6099 35.3687 22.6509 35.1987 22.7329C35.0288 22.8149 34.9043 22.9189 34.8252 23.0449C34.749 23.1709 34.7109 23.3013 34.7109 23.436C34.7109 23.5415 34.7271 23.6382 34.7593 23.7261C34.7944 23.811 34.856 23.8901 34.9438 23.9634C35.0347 24.0366 35.1636 24.1055 35.3306 24.1699C35.4976 24.2344 35.7144 24.2974 35.981 24.3589C36.3647 24.4438 36.6782 24.5479 36.9214 24.6709C37.1675 24.791 37.3491 24.9404 37.4663 25.1191C37.5835 25.2949 37.6421 25.5088 37.6421 25.7607C37.6421 25.957 37.6011 26.1372 37.519 26.3013C37.437 26.4624 37.3184 26.6016 37.1631 26.7188C37.0107 26.8359 36.8262 26.9268 36.6094 26.9912C36.3955 27.0557 36.1553 27.0879 35.8887 27.0879C35.4873 27.0879 35.1475 27.022 34.8691 26.8901C34.5938 26.7554 34.3843 26.5796 34.2407 26.3628C34.1001 26.1431 34.0298 25.9102 34.0298 25.6641H34.5527C34.5703 25.9102 34.6479 26.105 34.7856 26.2485C34.9233 26.3892 35.0918 26.4888 35.291 26.5474C35.4932 26.606 35.6924 26.6353 35.8887 26.6353C36.1582 26.6353 36.3838 26.5957 36.5654 26.5166C36.7471 26.4375 36.8848 26.3335 36.9785 26.2046C37.0723 26.0757 37.1191 25.9365 37.1191 25.7871ZM41.7246 26.1475V23.6953C41.7246 23.4697 41.6777 23.2749 41.584 23.1108C41.4902 22.9468 41.3525 22.8208 41.1709 22.7329C40.9893 22.645 40.7651 22.6011 40.4985 22.6011C40.2524 22.6011 40.0327 22.645 39.8394 22.7329C39.6489 22.8179 39.498 22.9336 39.3867 23.0801C39.2783 23.2236 39.2241 23.3833 39.2241 23.5591L38.6968 23.5547C38.6968 23.376 38.7407 23.2031 38.8286 23.0361C38.9165 22.8691 39.041 22.7197 39.2021 22.5879C39.3633 22.4561 39.5552 22.3521 39.7778 22.2759C40.0034 22.1968 40.251 22.1572 40.5205 22.1572C40.8604 22.1572 41.1592 22.2144 41.417 22.3286C41.6777 22.4429 41.8813 22.6143 42.0278 22.8428C42.1743 23.0713 42.2476 23.3584 42.2476 23.7041V26.0024C42.2476 26.1665 42.2593 26.3364 42.2827 26.5122C42.3091 26.688 42.3457 26.833 42.3926 26.9473V27H41.8345C41.7993 26.8945 41.7715 26.7627 41.751 26.6045C41.7334 26.4434 41.7246 26.291 41.7246 26.1475ZM41.8477 24.2314L41.8564 24.6357H40.8237C40.5542 24.6357 40.3125 24.6606 40.0986 24.7104C39.8877 24.7573 39.709 24.8276 39.5625 24.9214C39.416 25.0122 39.3032 25.1221 39.2241 25.251C39.1479 25.3799 39.1099 25.5264 39.1099 25.6904C39.1099 25.8604 39.1523 26.0156 39.2373 26.1562C39.3252 26.2969 39.4482 26.4097 39.6064 26.4946C39.7676 26.5767 39.958 26.6177 40.1777 26.6177C40.4707 26.6177 40.7285 26.5635 40.9512 26.4551C41.1768 26.3467 41.3628 26.2046 41.5093 26.0288C41.6558 25.853 41.7539 25.6611 41.8037 25.4531L42.0322 25.7563C41.9941 25.9028 41.9238 26.0537 41.8213 26.209C41.7217 26.3613 41.5913 26.5049 41.4302 26.6396C41.269 26.7715 41.0786 26.8799 40.8589 26.9648C40.6421 27.0469 40.396 27.0879 40.1206 27.0879C39.8101 27.0879 39.5391 27.0293 39.3076 26.9121C39.0791 26.7949 38.9004 26.6353 38.7715 26.4331C38.6455 26.228 38.5825 25.9966 38.5825 25.7388C38.5825 25.5044 38.6323 25.2949 38.7319 25.1104C38.8315 24.9229 38.9751 24.7646 39.1626 24.6357C39.353 24.5039 39.5815 24.4043 39.8481 24.3369C40.1177 24.2666 40.4194 24.2314 40.7534 24.2314H41.8477ZM46.7871 22.2451H47.2749V26.9165C47.2749 27.3296 47.1958 27.6841 47.0376 27.98C46.8823 28.2759 46.6611 28.5029 46.374 28.6611C46.0898 28.8193 45.7544 28.8984 45.3677 28.8984C45.1714 28.8984 44.9692 28.8677 44.7612 28.8062C44.5562 28.7476 44.3613 28.6567 44.1768 28.5337C43.9951 28.4136 43.8398 28.2642 43.7109 28.0854L44.0054 27.7646C44.1987 27.999 44.4053 28.1704 44.625 28.2788C44.8447 28.3901 45.082 28.4458 45.3369 28.4458C45.6387 28.4458 45.8936 28.3857 46.1016 28.2656C46.3125 28.1455 46.4722 27.9727 46.5806 27.7471C46.6919 27.5215 46.7476 27.2505 46.7476 26.9341V23.291L46.7871 22.2451ZM43.4473 24.6709V24.5786C43.4473 24.2095 43.4883 23.877 43.5703 23.5811C43.6553 23.2822 43.7769 23.0273 43.9351 22.8164C44.0933 22.6025 44.2852 22.4399 44.5107 22.3286C44.7393 22.2144 44.9971 22.1572 45.2842 22.1572C45.5596 22.1572 45.8042 22.2026 46.0181 22.2935C46.2319 22.3843 46.4165 22.5146 46.5718 22.6846C46.7271 22.8545 46.8516 23.0566 46.9453 23.291C47.042 23.5254 47.1123 23.7861 47.1562 24.0732V25.2466C47.1211 25.5161 47.0566 25.7637 46.9629 25.9893C46.8691 26.2119 46.7446 26.4067 46.5894 26.5737C46.4341 26.7378 46.2466 26.8652 46.0269 26.9561C45.8101 27.0439 45.5596 27.0879 45.2754 27.0879C44.9912 27.0879 44.7363 27.0293 44.5107 26.9121C44.2852 26.7949 44.0933 26.6294 43.9351 26.4155C43.7769 26.1987 43.6553 25.9424 43.5703 25.6465C43.4883 25.3506 43.4473 25.0254 43.4473 24.6709ZM43.9746 24.5786V24.6709C43.9746 24.9492 44.0024 25.207 44.0581 25.4443C44.1138 25.6816 44.1987 25.8882 44.313 26.064C44.4272 26.2397 44.5723 26.3774 44.748 26.4771C44.9238 26.5767 45.1304 26.6265 45.3677 26.6265C45.6694 26.6265 45.9229 26.5693 46.1279 26.4551C46.333 26.3379 46.4956 26.1841 46.6157 25.9937C46.7358 25.8003 46.8237 25.5894 46.8794 25.3608V23.9941C46.8472 23.8389 46.7974 23.6807 46.73 23.5195C46.6655 23.3584 46.5747 23.2104 46.4575 23.0757C46.3433 22.938 46.1968 22.8281 46.0181 22.7461C45.8423 22.6611 45.6284 22.6187 45.3765 22.6187C45.1362 22.6187 44.9268 22.6685 44.748 22.7681C44.5723 22.8677 44.4272 23.0068 44.313 23.1855C44.1987 23.3613 44.1138 23.5679 44.0581 23.8052C44.0024 24.0425 43.9746 24.3003 43.9746 24.5786ZM50.4873 27.0879C50.1768 27.0879 49.8911 27.0308 49.6304 26.9165C49.3726 26.8022 49.147 26.6411 48.9536 26.4331C48.7632 26.2251 48.6152 25.979 48.5098 25.6948C48.4072 25.4077 48.356 25.0942 48.356 24.7544V24.5654C48.356 24.1992 48.4102 23.8682 48.5186 23.5723C48.627 23.2764 48.7764 23.0229 48.9668 22.812C49.1572 22.6011 49.374 22.4399 49.6172 22.3286C49.8633 22.2144 50.1211 22.1572 50.3906 22.1572C50.6924 22.1572 50.9604 22.2114 51.1948 22.3198C51.4292 22.4253 51.6255 22.5762 51.7837 22.7725C51.9448 22.9658 52.0664 23.1958 52.1484 23.4624C52.2305 23.7261 52.2715 24.0176 52.2715 24.3369V24.6577H48.6724V24.2095H51.7485V24.1479C51.7427 23.8813 51.6885 23.6323 51.5859 23.4009C51.4863 23.1665 51.3369 22.9761 51.1377 22.8296C50.9385 22.6831 50.6895 22.6099 50.3906 22.6099C50.168 22.6099 49.9629 22.6567 49.7754 22.7505C49.5908 22.8442 49.4312 22.979 49.2964 23.1548C49.1646 23.3276 49.062 23.5342 48.9888 23.7744C48.9185 24.0117 48.8833 24.2754 48.8833 24.5654V24.7544C48.8833 25.0181 48.9214 25.2642 48.9976 25.4927C49.0767 25.7183 49.188 25.9175 49.3315 26.0903C49.478 26.2632 49.6509 26.3979 49.8501 26.4946C50.0493 26.5913 50.269 26.6396 50.5093 26.6396C50.7905 26.6396 51.0396 26.5884 51.2563 26.4858C51.4731 26.3804 51.668 26.2148 51.8408 25.9893L52.1704 26.2441C52.0679 26.3965 51.939 26.5371 51.7837 26.666C51.6313 26.7949 51.4482 26.8975 51.2344 26.9736C51.0205 27.0498 50.7715 27.0879 50.4873 27.0879Z" fill="black"/>
<path d="M87.4922 26.1475V23.6953C87.4922 23.4697 87.4453 23.2749 87.3516 23.1108C87.2578 22.9468 87.1201 22.8208 86.9385 22.7329C86.7568 22.645 86.5327 22.6011 86.2661 22.6011C86.02 22.6011 85.8003 22.645 85.6069 22.7329C85.4165 22.8179 85.2656 22.9336 85.1543 23.0801C85.0459 23.2236 84.9917 23.3833 84.9917 23.5591L84.4644 23.5547C84.4644 23.376 84.5083 23.2031 84.5962 23.0361C84.6841 22.8691 84.8086 22.7197 84.9697 22.5879C85.1309 22.4561 85.3228 22.3521 85.5454 22.2759C85.771 22.1968 86.0186 22.1572 86.2881 22.1572C86.6279 22.1572 86.9268 22.2144 87.1846 22.3286C87.4453 22.4429 87.6489 22.6143 87.7954 22.8428C87.9419 23.0713 88.0151 23.3584 88.0151 23.7041V26.0024C88.0151 26.1665 88.0269 26.3364 88.0503 26.5122C88.0767 26.688 88.1133 26.833 88.1602 26.9473V27H87.6021C87.5669 26.8945 87.5391 26.7627 87.5186 26.6045C87.501 26.4434 87.4922 26.291 87.4922 26.1475ZM87.6152 24.2314L87.624 24.6357H86.5913C86.3218 24.6357 86.0801 24.6606 85.8662 24.7104C85.6553 24.7573 85.4766 24.8276 85.3301 24.9214C85.1836 25.0122 85.0708 25.1221 84.9917 25.251C84.9155 25.3799 84.8774 25.5264 84.8774 25.6904C84.8774 25.8604 84.9199 26.0156 85.0049 26.1562C85.0928 26.2969 85.2158 26.4097 85.374 26.4946C85.5352 26.5767 85.7256 26.6177 85.9453 26.6177C86.2383 26.6177 86.4961 26.5635 86.7188 26.4551C86.9443 26.3467 87.1304 26.2046 87.2769 26.0288C87.4233 25.853 87.5215 25.6611 87.5713 25.4531L87.7998 25.7563C87.7617 25.9028 87.6914 26.0537 87.5889 26.209C87.4893 26.3613 87.3589 26.5049 87.1978 26.6396C87.0366 26.7715 86.8462 26.8799 86.6265 26.9648C86.4097 27.0469 86.1636 27.0879 85.8882 27.0879C85.5776 27.0879 85.3066 27.0293 85.0752 26.9121C84.8467 26.7949 84.668 26.6353 84.5391 26.4331C84.4131 26.228 84.3501 25.9966 84.3501 25.7388C84.3501 25.5044 84.3999 25.2949 84.4995 25.1104C84.5991 24.9229 84.7427 24.7646 84.9302 24.6357C85.1206 24.5039 85.3491 24.4043 85.6157 24.3369C85.8853 24.2666 86.187 24.2314 86.521 24.2314H87.6152ZM91.2231 22.2451V22.6758H88.8413V22.2451H91.2231ZM89.7158 21.0234H90.2388V25.8442C90.2388 26.064 90.2681 26.2295 90.3267 26.3408C90.3853 26.4521 90.4614 26.5269 90.5552 26.5649C90.6489 26.603 90.75 26.6221 90.8584 26.6221C90.9375 26.6221 91.0137 26.6177 91.0869 26.6089C91.1602 26.5972 91.2261 26.5854 91.2847 26.5737L91.3066 27.0176C91.2422 27.0381 91.1587 27.0542 91.0562 27.0659C90.9536 27.0806 90.8511 27.0879 90.7485 27.0879C90.5464 27.0879 90.3677 27.0513 90.2124 26.978C90.0571 26.9019 89.9355 26.7729 89.8477 26.5913C89.7598 26.4067 89.7158 26.1562 89.7158 25.8398V21.0234ZM94.1235 22.2451V22.6758H91.7417V22.2451H94.1235ZM92.6162 21.0234H93.1392V25.8442C93.1392 26.064 93.1685 26.2295 93.2271 26.3408C93.2856 26.4521 93.3618 26.5269 93.4556 26.5649C93.5493 26.603 93.6504 26.6221 93.7588 26.6221C93.8379 26.6221 93.9141 26.6177 93.9873 26.6089C94.0605 26.5972 94.1265 26.5854 94.1851 26.5737L94.207 27.0176C94.1426 27.0381 94.0591 27.0542 93.9565 27.0659C93.854 27.0806 93.7515 27.0879 93.6489 27.0879C93.4468 27.0879 93.2681 27.0513 93.1128 26.978C92.9575 26.9019 92.8359 26.7729 92.748 26.5913C92.6602 26.4067 92.6162 26.1562 92.6162 25.8398V21.0234ZM95.7495 23.0317V27H95.2266V22.2451H95.7363L95.7495 23.0317ZM97.4326 22.21L97.4194 22.6934C97.3608 22.6846 97.3037 22.6772 97.248 22.6714C97.1924 22.6655 97.1323 22.6626 97.0679 22.6626C96.8394 22.6626 96.6387 22.7051 96.4658 22.79C96.2959 22.8721 96.1523 22.9878 96.0352 23.1372C95.918 23.2837 95.8286 23.4565 95.7671 23.6558C95.7056 23.8521 95.6704 24.063 95.6616 24.2886L95.4683 24.3633C95.4683 24.0527 95.5005 23.7642 95.5649 23.4976C95.6294 23.231 95.7275 22.998 95.8594 22.7988C95.9941 22.5967 96.1626 22.4399 96.3647 22.3286C96.5698 22.2144 96.8101 22.1572 97.0854 22.1572C97.1528 22.1572 97.2188 22.1631 97.2832 22.1748C97.3506 22.1836 97.4004 22.1953 97.4326 22.21ZM98.8433 22.2451V27H98.3203V22.2451H98.8433ZM98.228 20.8696C98.228 20.77 98.2588 20.6865 98.3203 20.6191C98.3848 20.5488 98.4727 20.5137 98.584 20.5137C98.6953 20.5137 98.7832 20.5488 98.8477 20.6191C98.915 20.6865 98.9487 20.77 98.9487 20.8696C98.9487 20.9663 98.915 21.0498 98.8477 21.1201C98.7832 21.1875 98.6953 21.2212 98.584 21.2212C98.4727 21.2212 98.3848 21.1875 98.3203 21.1201C98.2588 21.0498 98.228 20.9663 98.228 20.8696ZM100.271 20.25H100.799V26.0771L100.764 27H100.271V20.25ZM104.108 24.5786V24.6709C104.108 25.0254 104.067 25.3506 103.985 25.6465C103.903 25.9424 103.784 26.1987 103.629 26.4155C103.474 26.6294 103.283 26.7949 103.058 26.9121C102.835 27.0293 102.579 27.0879 102.289 27.0879C102.004 27.0879 101.752 27.0439 101.533 26.9561C101.313 26.8652 101.125 26.7378 100.97 26.5737C100.815 26.4067 100.69 26.2119 100.597 25.9893C100.503 25.7637 100.437 25.5161 100.399 25.2466V24.0732C100.443 23.7861 100.513 23.5254 100.61 23.291C100.707 23.0566 100.831 22.8545 100.983 22.6846C101.139 22.5146 101.323 22.3843 101.537 22.2935C101.754 22.2026 102.001 22.1572 102.28 22.1572C102.57 22.1572 102.828 22.2144 103.053 22.3286C103.282 22.4399 103.474 22.6025 103.629 22.8164C103.784 23.0273 103.903 23.2822 103.985 23.5811C104.067 23.877 104.108 24.2095 104.108 24.5786ZM103.576 24.6709V24.5786C103.576 24.3003 103.55 24.0425 103.497 23.8052C103.444 23.5679 103.361 23.3613 103.247 23.1855C103.135 23.0068 102.992 22.8677 102.816 22.7681C102.64 22.6685 102.429 22.6187 102.183 22.6187C101.931 22.6187 101.716 22.6611 101.537 22.7461C101.361 22.8281 101.215 22.938 101.098 23.0757C100.983 23.2104 100.893 23.3584 100.825 23.5195C100.758 23.6807 100.708 23.8389 100.676 23.9941V25.3608C100.726 25.5806 100.812 25.7871 100.935 25.9805C101.058 26.1738 101.224 26.3306 101.432 26.4507C101.64 26.5679 101.893 26.6265 102.192 26.6265C102.432 26.6265 102.639 26.5767 102.812 26.4771C102.987 26.3774 103.131 26.2397 103.242 26.064C103.356 25.8882 103.44 25.6816 103.493 25.4443C103.548 25.207 103.576 24.9492 103.576 24.6709ZM108.318 25.9014V22.2451H108.845V27H108.34L108.318 25.9014ZM108.415 25.0225L108.687 25.0137C108.687 25.3125 108.652 25.5879 108.582 25.8398C108.511 26.0918 108.401 26.3115 108.252 26.499C108.103 26.6865 107.909 26.8315 107.672 26.9341C107.435 27.0366 107.149 27.0879 106.815 27.0879C106.583 27.0879 106.371 27.0557 106.178 26.9912C105.987 26.9238 105.823 26.8184 105.686 26.6748C105.548 26.5312 105.441 26.3452 105.365 26.1167C105.292 25.8882 105.255 25.6113 105.255 25.2861V22.2451H105.778V25.2949C105.778 25.5498 105.806 25.7622 105.861 25.9321C105.92 26.1021 105.999 26.2383 106.099 26.3408C106.201 26.4434 106.318 26.5166 106.45 26.5605C106.582 26.6045 106.724 26.6265 106.876 26.6265C107.263 26.6265 107.568 26.5518 107.791 26.4023C108.016 26.2529 108.176 26.0566 108.27 25.8135C108.366 25.5674 108.415 25.3037 108.415 25.0225ZM112.018 22.2451V22.6758H109.636V22.2451H112.018ZM110.511 21.0234H111.034V25.8442C111.034 26.064 111.063 26.2295 111.122 26.3408C111.18 26.4521 111.256 26.5269 111.35 26.5649C111.444 26.603 111.545 26.6221 111.653 26.6221C111.732 26.6221 111.809 26.6177 111.882 26.6089C111.955 26.5972 112.021 26.5854 112.08 26.5737L112.102 27.0176C112.037 27.0381 111.954 27.0542 111.851 27.0659C111.749 27.0806 111.646 27.0879 111.543 27.0879C111.341 27.0879 111.163 27.0513 111.007 26.978C110.852 26.9019 110.73 26.7729 110.643 26.5913C110.555 26.4067 110.511 26.1562 110.511 25.8398V21.0234ZM114.958 27.0879C114.647 27.0879 114.362 27.0308 114.101 26.9165C113.843 26.8022 113.618 26.6411 113.424 26.4331C113.234 26.2251 113.086 25.979 112.98 25.6948C112.878 25.4077 112.827 25.0942 112.827 24.7544V24.5654C112.827 24.1992 112.881 23.8682 112.989 23.5723C113.098 23.2764 113.247 23.0229 113.438 22.812C113.628 22.6011 113.845 22.4399 114.088 22.3286C114.334 22.2144 114.592 22.1572 114.861 22.1572C115.163 22.1572 115.431 22.2114 115.666 22.3198C115.9 22.4253 116.096 22.5762 116.254 22.7725C116.416 22.9658 116.537 23.1958 116.619 23.4624C116.701 23.7261 116.742 24.0176 116.742 24.3369V24.6577H113.143V24.2095H116.219V24.1479C116.213 23.8813 116.159 23.6323 116.057 23.4009C115.957 23.1665 115.808 22.9761 115.608 22.8296C115.409 22.6831 115.16 22.6099 114.861 22.6099C114.639 22.6099 114.434 22.6567 114.246 22.7505C114.062 22.8442 113.902 22.979 113.767 23.1548C113.635 23.3276 113.533 23.5342 113.459 23.7744C113.389 24.0117 113.354 24.2754 113.354 24.5654V24.7544C113.354 25.0181 113.392 25.2642 113.468 25.4927C113.547 25.7183 113.659 25.9175 113.802 26.0903C113.949 26.2632 114.122 26.3979 114.321 26.4946C114.52 26.5913 114.74 26.6396 114.98 26.6396C115.261 26.6396 115.51 26.5884 115.727 26.4858C115.944 26.3804 116.139 26.2148 116.312 25.9893L116.641 26.2441C116.539 26.3965 116.41 26.5371 116.254 26.666C116.102 26.7949 115.919 26.8975 115.705 26.9736C115.491 27.0498 115.242 27.0879 114.958 27.0879Z" fill="black"/>
<line x1="1" y1="15.75" x2="67" y2="15.75" stroke="black" stroke-width="0.5"/>
<line x1="66.75" y1="16" x2="66.75" y2="12" stroke="black" stroke-width="0.5"/>
<line x1="33.75" y1="19" x2="33.75" y2="16" stroke="black" stroke-width="0.5"/>
<line x1="99.75" y1="19" x2="99.75" y2="16" stroke="black" stroke-width="0.5"/>
<line x1="74.75" y1="16" x2="74.75" y2="12" stroke="black" stroke-width="0.5"/>
<line x1="124.75" y1="16" x2="124.75" y2="12" stroke="black" stroke-width="0.5"/>
<line x1="75" y1="15.75" x2="125" y2="15.75" stroke="black" stroke-width="0.5"/>
<line x1="0.75" y1="16" x2="0.75" y2="12" stroke="black" stroke-width="0.5"/>
</svg>
