<svg width="268" height="123" viewBox="0 0 268 123" fill="none" xmlns="http://www.w3.org/2000/svg">
<g clip-path="url(#clip0_565_10736)">
<rect width="268" height="123" fill="white"/>
<rect width="268" height="123" fill="#0991B2" fill-opacity="0.2"/>
<g filter="url(#filter0_d_565_10736)">
<rect width="235" height="32" transform="translate(16 26)" fill="white" fill-opacity="0.9"/>
<path d="M28.3054 47.1491C27.5398 47.1491 26.8786 46.9901 26.3217 46.6719C25.7682 46.3504 25.3423 45.8963 25.044 45.3097C24.7457 44.7197 24.5966 44.0253 24.5966 43.2266C24.5966 42.4411 24.7457 41.7517 25.044 41.1584C25.3456 40.5618 25.7666 40.0978 26.3068 39.7663C26.8471 39.4316 27.4818 39.2642 28.2109 39.2642C28.6816 39.2642 29.1257 39.3404 29.5433 39.4929C29.9643 39.642 30.3355 39.8741 30.657 40.1889C30.9818 40.5038 31.237 40.9048 31.4226 41.392C31.6082 41.8759 31.701 42.4527 31.701 43.1222V43.674H25.4418V42.4609H29.9759C29.9725 42.1162 29.898 41.8097 29.7521 41.5412C29.6063 41.2694 29.4025 41.0556 29.1406 40.8999C28.8821 40.7441 28.5805 40.6662 28.2358 40.6662C27.8679 40.6662 27.5447 40.7557 27.2663 40.9347C26.9879 41.1103 26.7708 41.3423 26.6151 41.6307C26.4626 41.9157 26.3847 42.2289 26.3814 42.5703V43.6293C26.3814 44.0734 26.4626 44.4545 26.625 44.7727C26.7874 45.0876 27.0144 45.3295 27.3061 45.4986C27.5978 45.6643 27.9392 45.7472 28.3303 45.7472C28.5921 45.7472 28.8291 45.7107 29.0412 45.6378C29.2533 45.5616 29.4373 45.4505 29.593 45.3047C29.7488 45.1589 29.8665 44.9782 29.946 44.7628L31.6264 44.9517C31.5204 45.3958 31.3182 45.7836 31.0199 46.1151C30.7249 46.4432 30.3471 46.6984 29.8864 46.8807C29.4257 47.0597 28.8987 47.1491 28.3054 47.1491ZM35.0233 42.5256V47H33.2235V39.3636H34.9437V40.6612H35.0332C35.2089 40.2337 35.4889 39.8939 35.8734 39.642C36.2612 39.3902 36.7401 39.2642 37.3102 39.2642C37.8372 39.2642 38.2962 39.3769 38.6873 39.6023C39.0817 39.8277 39.3867 40.1541 39.6021 40.5817C39.8208 41.0092 39.9286 41.5279 39.9252 42.1378V47H38.1255V42.4162C38.1255 41.9058 37.993 41.5064 37.7278 41.218C37.466 40.9297 37.103 40.7855 36.639 40.7855C36.3242 40.7855 36.0441 40.8551 35.7988 40.9943C35.5569 41.1302 35.3663 41.3274 35.2271 41.5859C35.0912 41.8445 35.0233 42.1577 35.0233 42.5256Z" fill="black"/>
<rect x="49" y="31.5" width="23" height="21" rx="3" fill="#0F172A"/>
<path d="M52.7926 46.5V39.9545H54.2884V41.0455H54.3565C54.4759 40.6676 54.6804 40.3764 54.9702 40.1719C55.2628 39.9645 55.5966 39.8608 55.9716 39.8608C56.0568 39.8608 56.152 39.8651 56.2571 39.8736C56.3651 39.8793 56.4545 39.8892 56.5256 39.9034V41.3224C56.4602 41.2997 56.3565 41.2798 56.2145 41.2628C56.0753 41.2429 55.9403 41.233 55.8097 41.233C55.5284 41.233 55.2756 41.294 55.0511 41.4162C54.8295 41.5355 54.6548 41.7017 54.527 41.9148C54.3991 42.1278 54.3352 42.3736 54.3352 42.652V46.5H52.7926ZM60.1786 46.6278C59.5224 46.6278 58.9556 46.4915 58.4783 46.2188C58.0039 45.9432 57.6388 45.554 57.3832 45.0511C57.1275 44.5455 56.9996 43.9503 56.9996 43.2656C56.9996 42.5923 57.1275 42.0014 57.3832 41.4929C57.6417 40.9815 58.0025 40.5838 58.4656 40.2997C58.9286 40.0128 59.4727 39.8693 60.0977 39.8693C60.5011 39.8693 60.8817 39.9347 61.2397 40.0653C61.6005 40.1932 61.9187 40.392 62.1942 40.6619C62.4727 40.9318 62.6914 41.2756 62.8505 41.6932C63.0096 42.108 63.0891 42.6023 63.0891 43.1761V43.6491H57.7241V42.6094H61.6104C61.6076 42.3139 61.5437 42.0511 61.4187 41.821C61.2937 41.5881 61.119 41.4048 60.8945 41.2713C60.6729 41.1378 60.4144 41.071 60.119 41.071C59.8036 41.071 59.5266 41.1477 59.288 41.3011C59.0494 41.4517 58.8633 41.6506 58.7298 41.8977C58.5991 42.142 58.5323 42.4105 58.5295 42.7031V43.6108C58.5295 43.9915 58.5991 44.3182 58.7383 44.5909C58.8775 44.8608 59.0721 45.0682 59.3221 45.2131C59.5721 45.3551 59.8647 45.4261 60.1999 45.4261C60.4244 45.4261 60.6275 45.3949 60.8093 45.3324C60.9911 45.267 61.1488 45.1719 61.2823 45.0469C61.4158 44.9219 61.5167 44.767 61.5849 44.5824L63.0252 44.7443C62.9343 45.125 62.761 45.4574 62.5053 45.7415C62.2525 46.0227 61.9286 46.2415 61.5337 46.3977C61.1388 46.5511 60.6871 46.6278 60.1786 46.6278ZM67.7095 39.9545V41.1477H63.8402V39.9545H67.7095ZM64.8075 46.5V39.3366C64.8075 38.8963 64.8984 38.5298 65.0803 38.2372C65.2649 37.9446 65.5121 37.7259 65.8217 37.581C66.1314 37.4361 66.4751 37.3636 66.853 37.3636C67.12 37.3636 67.3572 37.3849 67.5646 37.4276C67.772 37.4702 67.9254 37.5085 68.0249 37.5426L67.718 38.7358C67.6527 38.7159 67.5703 38.696 67.4709 38.6761C67.3714 38.6534 67.2607 38.642 67.1385 38.642C66.8516 38.642 66.6484 38.7116 66.5291 38.8509C66.4126 38.9872 66.3544 39.1832 66.3544 39.4389V46.5H64.8075Z" fill="white"/>
<rect x="88" y="37" width="111" height="10" rx="4" fill="#E2E8F0"/>
<g filter="url(#filter1_d_565_10736)">
<rect x="16" y="57" width="235" height="32" fill="white" shape-rendering="crispEdges"/>
<path d="M24.8253 78V76.8565L28.7628 71.9197V71.8551H24.9545V70.3636H30.9652V71.5916L27.2166 76.4439V76.5085H31.0945V78H24.8253ZM34.5858 73.5256V78H32.786V67.8182H34.546V71.6612H34.6355C34.8145 71.2304 35.0912 70.8906 35.4657 70.642C35.8436 70.3902 36.3242 70.2642 36.9075 70.2642C37.4378 70.2642 37.9002 70.3752 38.2946 70.5973C38.689 70.8194 38.9939 71.1442 39.2093 71.5717C39.4281 71.9993 39.5375 72.5213 39.5375 73.1378V78H37.7377V73.4162C37.7377 72.9025 37.6052 72.5031 37.34 72.218C37.0782 71.9297 36.7103 71.7855 36.2363 71.7855C35.9181 71.7855 35.6331 71.8551 35.3812 71.9943C35.1326 72.1302 34.9371 72.3274 34.7946 72.5859C34.6554 72.8445 34.5858 73.1577 34.5858 73.5256Z" fill="black"/>
<path d="M90.625 65.9602V80.3125H89.483V65.9602H90.625Z" fill="#0F172A"/>
<path d="M96.2479 77.5V68.7727H101.719V69.9062H97.5646V72.5653H101.434V73.6946H97.5646V76.3665H101.771V77.5H96.2479ZM104.65 73.6136V77.5H103.376V70.9545H104.599V72.0199H104.68C104.831 71.6733 105.066 71.3949 105.387 71.1847C105.711 70.9744 106.119 70.8693 106.61 70.8693C107.056 70.8693 107.447 70.9631 107.782 71.1506C108.118 71.3352 108.377 71.6108 108.562 71.9773C108.747 72.3437 108.839 72.7969 108.839 73.3366V77.5H107.565V73.4901C107.565 73.0156 107.441 72.6449 107.194 72.3778C106.947 72.108 106.608 71.973 106.176 71.973C105.88 71.973 105.618 72.0369 105.387 72.1648C105.16 72.2926 104.98 72.4801 104.846 72.7273C104.716 72.9716 104.65 73.267 104.65 73.6136ZM113.603 70.9545V71.9773H110.028V70.9545H113.603ZM110.987 69.3864H112.261V75.5781C112.261 75.8253 112.298 76.0114 112.372 76.1364C112.446 76.2585 112.541 76.3423 112.657 76.3878C112.777 76.4304 112.906 76.4517 113.045 76.4517C113.147 76.4517 113.237 76.4446 113.314 76.4304C113.39 76.4162 113.45 76.4048 113.493 76.3963L113.723 77.4489C113.649 77.4773 113.544 77.5057 113.407 77.5341C113.271 77.5653 113.1 77.5824 112.896 77.5852C112.561 77.5909 112.248 77.5312 111.958 77.4062C111.669 77.2812 111.434 77.0881 111.255 76.8267C111.076 76.5653 110.987 76.2372 110.987 75.8423V69.3864ZM117.763 77.6321C117.119 77.6321 116.563 77.4943 116.097 77.2188C115.634 76.9403 115.276 76.5497 115.023 76.0469C114.773 75.5412 114.648 74.9489 114.648 74.2699C114.648 73.5994 114.773 73.0085 115.023 72.4972C115.276 71.9858 115.629 71.5866 116.08 71.2997C116.535 71.0128 117.066 70.8693 117.674 70.8693C118.043 70.8693 118.401 70.9304 118.748 71.0526C119.094 71.1747 119.406 71.3665 119.681 71.6278C119.957 71.8892 120.174 72.2287 120.333 72.6463C120.492 73.0611 120.572 73.5653 120.572 74.1591V74.6108H115.369V73.6562H119.323C119.323 73.321 119.255 73.0241 119.119 72.7656C118.982 72.5043 118.79 72.2983 118.543 72.1477C118.299 71.9972 118.012 71.9219 117.683 71.9219C117.325 71.9219 117.012 72.0099 116.745 72.1861C116.481 72.3594 116.276 72.5866 116.131 72.8679C115.989 73.1463 115.918 73.4489 115.918 73.7756V74.5213C115.918 74.9588 115.995 75.331 116.148 75.6378C116.305 75.9446 116.522 76.179 116.8 76.3409C117.079 76.5 117.404 76.5795 117.776 76.5795C118.018 76.5795 118.238 76.5455 118.437 76.4773C118.636 76.4062 118.808 76.3011 118.952 76.1619C119.097 76.0227 119.208 75.8509 119.285 75.6463L120.491 75.8636C120.394 76.2187 120.221 76.5298 119.971 76.7969C119.724 77.0611 119.413 77.267 119.038 77.4148C118.665 77.5597 118.241 77.6321 117.763 77.6321ZM121.985 77.5V70.9545H123.217V71.9943H123.285C123.404 71.642 123.615 71.3651 123.916 71.1634C124.22 70.9588 124.564 70.8565 124.947 70.8565C125.027 70.8565 125.12 70.8594 125.228 70.8651C125.339 70.8707 125.426 70.8778 125.488 70.8864V72.1051C125.437 72.0909 125.346 72.0753 125.216 72.0582C125.085 72.0384 124.954 72.0284 124.824 72.0284C124.522 72.0284 124.254 72.0923 124.018 72.2202C123.785 72.3452 123.6 72.5199 123.464 72.7443C123.328 72.9659 123.26 73.2187 123.26 73.5028V77.5H121.985ZM132.822 70.9545V71.9773H129.247V70.9545H132.822ZM130.206 69.3864H131.48V75.5781C131.48 75.8253 131.517 76.0114 131.591 76.1364C131.664 76.2585 131.76 76.3423 131.876 76.3878C131.995 76.4304 132.125 76.4517 132.264 76.4517C132.366 76.4517 132.456 76.4446 132.532 76.4304C132.609 76.4162 132.669 76.4048 132.711 76.3963L132.941 77.4489C132.868 77.4773 132.762 77.5057 132.626 77.5341C132.49 77.5653 132.319 77.5824 132.115 77.5852C131.779 77.5909 131.467 77.5312 131.177 77.4062C130.887 77.2812 130.653 77.0881 130.474 76.8267C130.295 76.5653 130.206 76.2372 130.206 75.8423V69.3864ZM134.232 77.5V70.9545H135.463V71.9943H135.531C135.651 71.642 135.861 71.3651 136.162 71.1634C136.466 70.9588 136.81 70.8565 137.193 70.8565C137.273 70.8565 137.366 70.8594 137.474 70.8651C137.585 70.8707 137.672 70.8778 137.734 70.8864V72.1051C137.683 72.0909 137.592 72.0753 137.462 72.0582C137.331 72.0384 137.2 72.0284 137.07 72.0284C136.768 72.0284 136.5 72.0923 136.264 72.2202C136.031 72.3452 135.847 72.5199 135.71 72.7443C135.574 72.9659 135.506 73.2187 135.506 73.5028V77.5H134.232ZM140.683 77.6449C140.268 77.6449 139.893 77.5682 139.558 77.4148C139.223 77.2585 138.957 77.0327 138.761 76.7372C138.568 76.4418 138.472 76.0795 138.472 75.6506C138.472 75.2812 138.543 74.9773 138.685 74.7386C138.827 74.5 139.018 74.3111 139.26 74.1719C139.501 74.0327 139.771 73.9276 140.07 73.8565C140.368 73.7855 140.672 73.7315 140.982 73.6946C141.374 73.6491 141.692 73.6122 141.936 73.5838C142.18 73.5526 142.358 73.5028 142.469 73.4347C142.58 73.3665 142.635 73.2557 142.635 73.1023V73.0724C142.635 72.7003 142.53 72.4119 142.32 72.2074C142.112 72.0028 141.803 71.9006 141.391 71.9006C140.962 71.9006 140.624 71.9957 140.376 72.1861C140.132 72.3736 139.963 72.5824 139.869 72.8125L138.672 72.5398C138.814 72.142 139.021 71.821 139.294 71.5767C139.57 71.3295 139.886 71.1506 140.244 71.0398C140.602 70.9261 140.979 70.8693 141.374 70.8693C141.635 70.8693 141.912 70.9006 142.205 70.9631C142.5 71.0227 142.776 71.1335 143.031 71.2955C143.29 71.4574 143.501 71.6889 143.666 71.9901C143.831 72.2884 143.913 72.6761 143.913 73.1534V77.5H142.669V76.6051H142.618C142.536 76.7699 142.412 76.9318 142.247 77.0909C142.082 77.25 141.871 77.3821 141.612 77.4872C141.354 77.5923 141.044 77.6449 140.683 77.6449ZM140.96 76.6222C141.313 76.6222 141.614 76.5526 141.864 76.4134C142.116 76.2741 142.308 76.0923 142.439 75.8679C142.572 75.6406 142.639 75.3977 142.639 75.1392V74.2955C142.594 74.3409 142.506 74.3835 142.375 74.4233C142.247 74.4602 142.101 74.4929 141.936 74.5213C141.771 74.5469 141.611 74.571 141.455 74.5938C141.298 74.6136 141.168 74.6307 141.062 74.6449C140.815 74.6761 140.589 74.7287 140.385 74.8026C140.183 74.8764 140.021 74.983 139.899 75.1222C139.78 75.2585 139.72 75.4403 139.72 75.6676C139.72 75.983 139.837 76.2216 140.07 76.3835C140.303 76.5426 140.599 76.6222 140.96 76.6222ZM146.885 73.6136V77.5H145.61V70.9545H146.833V72.0199H146.914C147.065 71.6733 147.301 71.3949 147.622 71.1847C147.946 70.9744 148.353 70.8693 148.845 70.8693C149.291 70.8693 149.681 70.9631 150.017 71.1506C150.352 71.3352 150.612 71.6108 150.797 71.9773C150.981 72.3437 151.074 72.7969 151.074 73.3366V77.5H149.799V73.4901C149.799 73.0156 149.676 72.6449 149.429 72.3778C149.181 72.108 148.842 71.973 148.41 71.973C148.115 71.973 147.852 72.0369 147.622 72.1648C147.395 72.2926 147.214 72.4801 147.081 72.7273C146.95 72.9716 146.885 73.267 146.885 73.6136ZM157.687 72.5526L156.532 72.7571C156.484 72.6094 156.407 72.4687 156.302 72.3352C156.2 72.2017 156.061 72.0923 155.885 72.0071C155.708 71.9219 155.488 71.8793 155.224 71.8793C154.863 71.8793 154.562 71.9602 154.321 72.1222C154.079 72.2812 153.958 72.4872 153.958 72.7401C153.958 72.9588 154.039 73.1349 154.201 73.2685C154.363 73.402 154.625 73.5114 154.985 73.5966L156.025 73.8352C156.627 73.9744 157.076 74.1889 157.372 74.4787C157.667 74.7685 157.815 75.1449 157.815 75.608C157.815 76 157.701 76.3494 157.474 76.6562C157.25 76.9602 156.936 77.1989 156.532 77.3722C156.132 77.5455 155.667 77.6321 155.139 77.6321C154.406 77.6321 153.808 77.4759 153.345 77.1634C152.882 76.848 152.598 76.4006 152.493 75.821L153.724 75.6335C153.801 75.9545 153.958 76.1974 154.197 76.3622C154.436 76.5241 154.747 76.6051 155.13 76.6051C155.548 76.6051 155.882 76.5185 156.132 76.3452C156.382 76.169 156.507 75.9545 156.507 75.7017C156.507 75.4972 156.43 75.3253 156.277 75.1861C156.126 75.0469 155.895 74.9418 155.582 74.8707L154.474 74.6278C153.863 74.4886 153.412 74.267 153.119 73.9631C152.829 73.6591 152.684 73.2741 152.684 72.8082C152.684 72.4219 152.792 72.0838 153.008 71.794C153.224 71.5043 153.522 71.2784 153.903 71.1165C154.284 70.9517 154.72 70.8693 155.211 70.8693C155.919 70.8693 156.475 71.0227 156.882 71.3295C157.288 71.6335 157.556 72.0412 157.687 72.5526ZM160.49 68.7727V77.5H159.216V68.7727H160.49ZM164.109 77.6449C163.694 77.6449 163.319 77.5682 162.984 77.4148C162.649 77.2585 162.383 77.0327 162.187 76.7372C161.994 76.4418 161.897 76.0795 161.897 75.6506C161.897 75.2812 161.968 74.9773 162.11 74.7386C162.252 74.5 162.444 74.3111 162.686 74.1719C162.927 74.0327 163.197 73.9276 163.495 73.8565C163.794 73.7855 164.098 73.7315 164.407 73.6946C164.799 73.6491 165.118 73.6122 165.362 73.5838C165.606 73.5526 165.784 73.5028 165.895 73.4347C166.005 73.3665 166.061 73.2557 166.061 73.1023V73.0724C166.061 72.7003 165.956 72.4119 165.745 72.2074C165.538 72.0028 165.228 71.9006 164.816 71.9006C164.387 71.9006 164.049 71.9957 163.802 72.1861C163.558 72.3736 163.389 72.5824 163.295 72.8125L162.098 72.5398C162.24 72.142 162.447 71.821 162.72 71.5767C162.995 71.3295 163.312 71.1506 163.67 71.0398C164.028 70.9261 164.404 70.8693 164.799 70.8693C165.061 70.8693 165.338 70.9006 165.63 70.9631C165.926 71.0227 166.201 71.1335 166.457 71.2955C166.716 71.4574 166.927 71.6889 167.092 71.9901C167.257 72.2884 167.339 72.6761 167.339 73.1534V77.5H166.095V76.6051H166.044C165.961 76.7699 165.838 76.9318 165.673 77.0909C165.508 77.25 165.297 77.3821 165.038 77.4872C164.779 77.5923 164.47 77.6449 164.109 77.6449ZM164.386 76.6222C164.738 76.6222 165.039 76.5526 165.289 76.4134C165.542 76.2741 165.734 76.0923 165.865 75.8679C165.998 75.6406 166.065 75.3977 166.065 75.1392V74.2955C166.02 74.3409 165.931 74.3835 165.801 74.4233C165.673 74.4602 165.527 74.4929 165.362 74.5213C165.197 74.5469 165.037 74.571 164.88 74.5938C164.724 74.6136 164.593 74.6307 164.488 74.6449C164.241 74.6761 164.015 74.7287 163.811 74.8026C163.609 74.8764 163.447 74.983 163.325 75.1222C163.206 75.2585 163.146 75.4403 163.146 75.6676C163.146 75.983 163.262 76.2216 163.495 76.3835C163.728 76.5426 164.025 76.6222 164.386 76.6222ZM172.092 70.9545V71.9773H168.516V70.9545H172.092ZM169.475 69.3864H170.749V75.5781C170.749 75.8253 170.786 76.0114 170.86 76.1364C170.934 76.2585 171.029 76.3423 171.146 76.3878C171.265 76.4304 171.394 76.4517 171.533 76.4517C171.636 76.4517 171.725 76.4446 171.802 76.4304C171.879 76.4162 171.938 76.4048 171.981 76.3963L172.211 77.4489C172.137 77.4773 172.032 77.5057 171.896 77.5341C171.759 77.5653 171.589 77.5824 171.384 77.5852C171.049 77.5909 170.737 77.5312 170.447 77.4062C170.157 77.2812 169.923 77.0881 169.744 76.8267C169.565 76.5653 169.475 76.2372 169.475 75.8423V69.3864ZM173.501 77.5V70.9545H174.775V77.5H173.501ZM174.145 69.9446C173.923 69.9446 173.733 69.8707 173.574 69.723C173.417 69.5724 173.339 69.3935 173.339 69.1861C173.339 68.9759 173.417 68.7969 173.574 68.6491C173.733 68.4986 173.923 68.4233 174.145 68.4233C174.366 68.4233 174.555 68.4986 174.711 68.6491C174.87 68.7969 174.95 68.9759 174.95 69.1861C174.95 69.3935 174.87 69.5724 174.711 69.723C174.555 69.8707 174.366 69.9446 174.145 69.9446ZM179.246 77.6321C178.633 77.6321 178.097 77.4915 177.64 77.2102C177.183 76.929 176.827 76.5355 176.575 76.0298C176.322 75.5241 176.195 74.9332 176.195 74.2571C176.195 73.5781 176.322 72.9844 176.575 72.4759C176.827 71.9673 177.183 71.5724 177.64 71.2912C178.097 71.0099 178.633 70.8693 179.246 70.8693C179.86 70.8693 180.396 71.0099 180.853 71.2912C181.31 71.5724 181.665 71.9673 181.918 72.4759C182.171 72.9844 182.298 73.5781 182.298 74.2571C182.298 74.9332 182.171 75.5241 181.918 76.0298C181.665 76.5355 181.31 76.929 180.853 77.2102C180.396 77.4915 179.86 77.6321 179.246 77.6321ZM179.251 76.5625C179.648 76.5625 179.978 76.4574 180.239 76.2472C180.501 76.0369 180.694 75.7571 180.819 75.4077C180.947 75.0582 181.011 74.6733 181.011 74.2528C181.011 73.8352 180.947 73.4517 180.819 73.1023C180.694 72.75 180.501 72.4673 180.239 72.2543C179.978 72.0412 179.648 71.9347 179.251 71.9347C178.85 71.9347 178.518 72.0412 178.254 72.2543C177.992 72.4673 177.798 72.75 177.67 73.1023C177.545 73.4517 177.482 73.8352 177.482 74.2528C177.482 74.6733 177.545 75.0582 177.67 75.4077C177.798 75.7571 177.992 76.0369 178.254 76.2472C178.518 76.4574 178.85 76.5625 179.251 76.5625ZM184.994 73.6136V77.5H183.72V70.9545H184.943V72.0199H185.024C185.174 71.6733 185.41 71.3949 185.731 71.1847C186.055 70.9744 186.463 70.8693 186.954 70.8693C187.4 70.8693 187.791 70.9631 188.126 71.1506C188.461 71.3352 188.721 71.6108 188.906 71.9773C189.091 72.3437 189.183 72.7969 189.183 73.3366V77.5H187.909V73.4901C187.909 73.0156 187.785 72.6449 187.538 72.3778C187.291 72.108 186.951 71.973 186.52 71.973C186.224 71.973 185.961 72.0369 185.731 72.1648C185.504 72.2926 185.324 72.4801 185.19 72.7273C185.059 72.9716 184.994 73.267 184.994 73.6136ZM194.907 77.581C194.674 77.581 194.474 77.4986 194.306 77.3338C194.138 77.1662 194.055 76.9645 194.055 76.7287C194.055 76.4957 194.138 76.2969 194.306 76.1321C194.474 75.9645 194.674 75.8807 194.907 75.8807C195.14 75.8807 195.34 75.9645 195.508 76.1321C195.675 76.2969 195.759 76.4957 195.759 76.7287C195.759 76.8849 195.719 77.0284 195.64 77.1591C195.563 77.2869 195.461 77.3892 195.333 77.4659C195.205 77.5426 195.063 77.581 194.907 77.581ZM198.305 77.581C198.072 77.581 197.872 77.4986 197.705 77.3338C197.537 77.1662 197.453 76.9645 197.453 76.7287C197.453 76.4957 197.537 76.2969 197.705 76.1321C197.872 75.9645 198.072 75.8807 198.305 75.8807C198.538 75.8807 198.739 75.9645 198.906 76.1321C199.074 76.2969 199.158 76.4957 199.158 76.7287C199.158 76.8849 199.118 77.0284 199.038 77.1591C198.962 77.2869 198.859 77.3892 198.732 77.4659C198.604 77.5426 198.462 77.581 198.305 77.581ZM201.704 77.581C201.471 77.581 201.271 77.4986 201.103 77.3338C200.935 77.1662 200.852 76.9645 200.852 76.7287C200.852 76.4957 200.935 76.2969 201.103 76.1321C201.271 75.9645 201.471 75.8807 201.704 75.8807C201.937 75.8807 202.137 75.9645 202.305 76.1321C202.472 76.2969 202.556 76.4957 202.556 76.7287C202.556 76.8849 202.516 77.0284 202.437 77.1591C202.36 77.2869 202.258 77.3892 202.13 77.4659C202.002 77.5426 201.86 77.581 201.704 77.581Z" fill="#64748A" fill-opacity="0.6"/>
<rect x="15" y="56" width="237" height="34" stroke="#06B6D4" stroke-width="2" shape-rendering="crispEdges"/>
</g>
</g>
</g>
<defs>
<filter id="filter0_d_565_10736" x="-2.66667" y="16" width="272.333" height="98.3333" filterUnits="userSpaceOnUse" color-interpolation-filters="sRGB">
<feFlood flood-opacity="0" result="BackgroundImageFix"/>
<feColorMatrix in="SourceAlpha" type="matrix" values="0 0 0 0 0 0 0 0 0 0 0 0 0 0 0 0 0 0 127 0" result="hardAlpha"/>
<feOffset dy="6.66667"/>
<feGaussianBlur stdDeviation="8.33333"/>
<feComposite in2="hardAlpha" operator="out"/>
<feColorMatrix type="matrix" values="0 0 0 0 0 0 0 0 0 0 0 0 0 0 0 0 0 0 0.05 0"/>
<feBlend mode="normal" in2="BackgroundImageFix" result="effect1_dropShadow_565_10736"/>
<feBlend mode="normal" in="SourceGraphic" in2="effect1_dropShadow_565_10736" result="shape"/>
</filter>
<filter id="filter1_d_565_10736" x="-6" y="39" width="279" height="76" filterUnits="userSpaceOnUse" color-interpolation-filters="sRGB">
<feFlood flood-opacity="0" result="BackgroundImageFix"/>
<feColorMatrix in="SourceAlpha" type="matrix" values="0 0 0 0 0 0 0 0 0 0 0 0 0 0 0 0 0 0 127 0" result="hardAlpha"/>
<feOffset dy="4"/>
<feGaussianBlur stdDeviation="10"/>
<feComposite in2="hardAlpha" operator="out"/>
<feColorMatrix type="matrix" values="0 0 0 0 0.0235294 0 0 0 0 0.713726 0 0 0 0 0.831373 0 0 0 0.2 0"/>
<feBlend mode="normal" in2="BackgroundImageFix" result="effect1_dropShadow_565_10736"/>
<feBlend mode="normal" in="SourceGraphic" in2="effect1_dropShadow_565_10736" result="shape"/>
</filter>
<clipPath id="clip0_565_10736">
<rect width="268" height="123" fill="white"/>
</clipPath>
</defs>
</svg>
