<svg width="268" height="123" viewBox="0 0 268 123" fill="none" xmlns="http://www.w3.org/2000/svg">
<g clip-path="url(#clip0_565_10751)">
<rect width="268" height="123" fill="white"/>
<rect width="268" height="123" fill="#0991B2" fill-opacity="0.2"/>
<g filter="url(#filter0_d_565_10751)">
<g filter="url(#filter1_d_565_10751)">
<rect x="16" y="46" width="235" height="32" fill="white" shape-rendering="crispEdges"/>
<path d="M24.8253 67V65.8565L28.7628 60.9197V60.8551H24.9545V59.3636H30.9652V60.5916L27.2166 65.4439V65.5085H31.0945V67H24.8253ZM34.5858 62.5256V67H32.786V56.8182H34.546V60.6612H34.6355C34.8145 60.2304 35.0912 59.8906 35.4657 59.642C35.8436 59.3902 36.3242 59.2642 36.9075 59.2642C37.4378 59.2642 37.9002 59.3752 38.2946 59.5973C38.689 59.8194 38.9939 60.1442 39.2093 60.5717C39.4281 60.9993 39.5375 61.5213 39.5375 62.1378V67H37.7377V62.4162C37.7377 61.9025 37.6052 61.5031 37.34 61.218C37.0782 60.9297 36.7103 60.7855 36.2363 60.7855C35.9181 60.7855 35.6331 60.8551 35.3812 60.9943C35.1326 61.1302 34.9371 61.3274 34.7946 61.5859C34.6554 61.8445 34.5858 62.1577 34.5858 62.5256Z" fill="black"/>
<path d="M59.625 54.9602V69.3125H58.483V54.9602H59.625Z" fill="#0F172A"/>
<path d="M65.2479 66.5V57.7727H70.7195V58.9062H66.5646V61.5653H70.4339V62.6946H66.5646V65.3665H70.7706V66.5H65.2479ZM73.6502 62.6136V66.5H72.3761V59.9545H73.5991V61.0199H73.68C73.8306 60.6733 74.0664 60.3949 74.3874 60.1847C74.7113 59.9744 75.119 59.8693 75.6104 59.8693C76.0565 59.8693 76.4471 59.9631 76.7823 60.1506C77.1175 60.3352 77.3775 60.6108 77.5621 60.9773C77.7468 61.3437 77.8391 61.7969 77.8391 62.3366V66.5H76.565V62.4901C76.565 62.0156 76.4414 61.6449 76.1942 61.3778C75.9471 61.108 75.6076 60.973 75.1758 60.973C74.8803 60.973 74.6175 61.0369 74.3874 61.1648C74.1602 61.2926 73.9798 61.4801 73.8462 61.7273C73.7156 61.9716 73.6502 62.267 73.6502 62.6136ZM82.6033 59.9545V60.9773H79.0281V59.9545H82.6033ZM79.9869 58.3864H81.261V64.5781C81.261 64.8253 81.2979 65.0114 81.3718 65.1364C81.4457 65.2585 81.5408 65.3423 81.6573 65.3878C81.7766 65.4304 81.9059 65.4517 82.0451 65.4517C82.1474 65.4517 82.2369 65.4446 82.3136 65.4304C82.3903 65.4162 82.4499 65.4048 82.4925 65.3963L82.7227 66.4489C82.6488 66.4773 82.5437 66.5057 82.4073 66.5341C82.271 66.5653 82.1005 66.5824 81.896 66.5852C81.5607 66.5909 81.2482 66.5312 80.9585 66.4062C80.6687 66.2812 80.4343 66.0881 80.2553 65.8267C80.0763 65.5653 79.9869 65.2372 79.9869 64.8423V58.3864ZM86.7635 66.6321C86.1186 66.6321 85.5632 66.4943 85.0973 66.2188C84.6342 65.9403 84.2763 65.5497 84.0234 65.0469C83.7734 64.5412 83.6484 63.9489 83.6484 63.2699C83.6484 62.5994 83.7734 62.0085 84.0234 61.4972C84.2763 60.9858 84.6286 60.5866 85.0803 60.2997C85.5348 60.0128 86.0661 59.8693 86.674 59.8693C87.0433 59.8693 87.4013 59.9304 87.7479 60.0526C88.0945 60.1747 88.4055 60.3665 88.6811 60.6278C88.9567 60.8892 89.174 61.2287 89.3331 61.6463C89.4922 62.0611 89.5717 62.5653 89.5717 63.1591V63.6108H84.3686V62.6562H88.3232C88.3232 62.321 88.255 62.0241 88.1186 61.7656C87.9822 61.5043 87.7905 61.2983 87.5433 61.1477C87.299 60.9972 87.0121 60.9219 86.6825 60.9219C86.3246 60.9219 86.0121 61.0099 85.745 61.1861C85.4808 61.3594 85.2763 61.5866 85.1314 61.8679C84.9893 62.1463 84.9183 62.4489 84.9183 62.7756V63.5213C84.9183 63.9588 84.995 64.331 85.1484 64.6378C85.3047 64.9446 85.522 65.179 85.8004 65.3409C86.0788 65.5 86.4041 65.5795 86.7763 65.5795C87.0178 65.5795 87.2379 65.5455 87.4368 65.4773C87.6357 65.4062 87.8075 65.3011 87.9524 65.1619C88.0973 65.0227 88.2081 64.8509 88.2848 64.6463L89.4908 64.8636C89.3942 65.2187 89.2209 65.5298 88.9709 65.7969C88.7237 66.0611 88.4126 66.267 88.0376 66.4148C87.6655 66.5597 87.2408 66.6321 86.7635 66.6321ZM90.9854 66.5V59.9545H92.217V60.9943H92.2852C92.4045 60.642 92.6147 60.3651 92.9158 60.1634C93.2198 59.9588 93.5636 59.8565 93.9471 59.8565C94.0266 59.8565 94.1204 59.8594 94.2283 59.8651C94.3391 59.8707 94.4258 59.8778 94.4883 59.8864V61.1051C94.4371 61.0909 94.3462 61.0753 94.2156 61.0582C94.0849 61.0384 93.9542 61.0284 93.8235 61.0284C93.5224 61.0284 93.2539 61.0923 93.0181 61.2202C92.7852 61.3452 92.6005 61.5199 92.4641 61.7443C92.3278 61.9659 92.2596 62.2187 92.2596 62.5028V66.5H90.9854ZM101.822 59.9545V60.9773H98.2468V59.9545H101.822ZM99.2056 58.3864H100.48V64.5781C100.48 64.8253 100.517 65.0114 100.591 65.1364C100.664 65.2585 100.76 65.3423 100.876 65.3878C100.995 65.4304 101.125 65.4517 101.264 65.4517C101.366 65.4517 101.456 65.4446 101.532 65.4304C101.609 65.4162 101.669 65.4048 101.711 65.3963L101.941 66.4489C101.868 66.4773 101.762 66.5057 101.626 66.5341C101.49 66.5653 101.319 66.5824 101.115 66.5852C100.779 66.5909 100.467 66.5312 100.177 66.4062C99.8874 66.2812 99.6531 66.0881 99.4741 65.8267C99.2951 65.5653 99.2056 65.2372 99.2056 64.8423V58.3864ZM103.232 66.5V59.9545H104.463V60.9943H104.531C104.651 60.642 104.861 60.3651 105.162 60.1634C105.466 59.9588 105.81 59.8565 106.193 59.8565C106.273 59.8565 106.366 59.8594 106.474 59.8651C106.585 59.8707 106.672 59.8778 106.734 59.8864V61.1051C106.683 61.0909 106.592 61.0753 106.462 61.0582C106.331 61.0384 106.2 61.0284 106.07 61.0284C105.768 61.0284 105.5 61.0923 105.264 61.2202C105.031 61.3452 104.847 61.5199 104.71 61.7443C104.574 61.9659 104.506 62.2187 104.506 62.5028V66.5H103.232ZM109.683 66.6449C109.268 66.6449 108.893 66.5682 108.558 66.4148C108.223 66.2585 107.957 66.0327 107.761 65.7372C107.568 65.4418 107.472 65.0795 107.472 64.6506C107.472 64.2812 107.543 63.9773 107.685 63.7386C107.827 63.5 108.018 63.3111 108.26 63.1719C108.501 63.0327 108.771 62.9276 109.07 62.8565C109.368 62.7855 109.672 62.7315 109.982 62.6946C110.374 62.6491 110.692 62.6122 110.936 62.5838C111.18 62.5526 111.358 62.5028 111.469 62.4347C111.58 62.3665 111.635 62.2557 111.635 62.1023V62.0724C111.635 61.7003 111.53 61.4119 111.32 61.2074C111.112 61.0028 110.803 60.9006 110.391 60.9006C109.962 60.9006 109.624 60.9957 109.376 61.1861C109.132 61.3736 108.963 61.5824 108.869 61.8125L107.672 61.5398C107.814 61.142 108.021 60.821 108.294 60.5767C108.57 60.3295 108.886 60.1506 109.244 60.0398C109.602 59.9261 109.979 59.8693 110.374 59.8693C110.635 59.8693 110.912 59.9006 111.205 59.9631C111.5 60.0227 111.776 60.1335 112.031 60.2955C112.29 60.4574 112.501 60.6889 112.666 60.9901C112.831 61.2884 112.913 61.6761 112.913 62.1534V66.5H111.669V65.6051H111.618C111.536 65.7699 111.412 65.9318 111.247 66.0909C111.082 66.25 110.871 66.3821 110.612 66.4872C110.354 66.5923 110.044 66.6449 109.683 66.6449ZM109.96 65.6222C110.313 65.6222 110.614 65.5526 110.864 65.4134C111.116 65.2741 111.308 65.0923 111.439 64.8679C111.572 64.6406 111.639 64.3977 111.639 64.1392V63.2955C111.594 63.3409 111.506 63.3835 111.375 63.4233C111.247 63.4602 111.101 63.4929 110.936 63.5213C110.771 63.5469 110.611 63.571 110.455 63.5938C110.298 63.6136 110.168 63.6307 110.062 63.6449C109.815 63.6761 109.589 63.7287 109.385 63.8026C109.183 63.8764 109.021 63.983 108.899 64.1222C108.78 64.2585 108.72 64.4403 108.72 64.6676C108.72 64.983 108.837 65.2216 109.07 65.3835C109.303 65.5426 109.599 65.6222 109.96 65.6222ZM115.885 62.6136V66.5H114.61V59.9545H115.833V61.0199H115.914C116.065 60.6733 116.301 60.3949 116.622 60.1847C116.946 59.9744 117.353 59.8693 117.845 59.8693C118.291 59.8693 118.681 59.9631 119.017 60.1506C119.352 60.3352 119.612 60.6108 119.797 60.9773C119.981 61.3437 120.074 61.7969 120.074 62.3366V66.5H118.799V62.4901C118.799 62.0156 118.676 61.6449 118.429 61.3778C118.181 61.108 117.842 60.973 117.41 60.973C117.115 60.973 116.852 61.0369 116.622 61.1648C116.395 61.2926 116.214 61.4801 116.081 61.7273C115.95 61.9716 115.885 62.267 115.885 62.6136ZM126.687 61.5526L125.532 61.7571C125.484 61.6094 125.407 61.4687 125.302 61.3352C125.2 61.2017 125.061 61.0923 124.885 61.0071C124.708 60.9219 124.488 60.8793 124.224 60.8793C123.863 60.8793 123.562 60.9602 123.321 61.1222C123.079 61.2812 122.958 61.4872 122.958 61.7401C122.958 61.9588 123.039 62.1349 123.201 62.2685C123.363 62.402 123.625 62.5114 123.985 62.5966L125.025 62.8352C125.627 62.9744 126.076 63.1889 126.372 63.4787C126.667 63.7685 126.815 64.1449 126.815 64.608C126.815 65 126.701 65.3494 126.474 65.6562C126.25 65.9602 125.936 66.1989 125.532 66.3722C125.132 66.5455 124.667 66.6321 124.139 66.6321C123.406 66.6321 122.808 66.4759 122.345 66.1634C121.882 65.848 121.598 65.4006 121.493 64.821L122.724 64.6335C122.801 64.9545 122.958 65.1974 123.197 65.3622C123.436 65.5241 123.747 65.6051 124.13 65.6051C124.548 65.6051 124.882 65.5185 125.132 65.3452C125.382 65.169 125.507 64.9545 125.507 64.7017C125.507 64.4972 125.43 64.3253 125.277 64.1861C125.126 64.0469 124.895 63.9418 124.582 63.8707L123.474 63.6278C122.863 63.4886 122.412 63.267 122.119 62.9631C121.829 62.6591 121.684 62.2741 121.684 61.8082C121.684 61.4219 121.792 61.0838 122.008 60.794C122.224 60.5043 122.522 60.2784 122.903 60.1165C123.284 59.9517 123.72 59.8693 124.211 59.8693C124.919 59.8693 125.475 60.0227 125.882 60.3295C126.288 60.6335 126.556 61.0412 126.687 61.5526ZM129.49 57.7727V66.5H128.216V57.7727H129.49ZM133.109 66.6449C132.694 66.6449 132.319 66.5682 131.984 66.4148C131.649 66.2585 131.383 66.0327 131.187 65.7372C130.994 65.4418 130.897 65.0795 130.897 64.6506C130.897 64.2812 130.968 63.9773 131.11 63.7386C131.252 63.5 131.444 63.3111 131.686 63.1719C131.927 63.0327 132.197 62.9276 132.495 62.8565C132.794 62.7855 133.098 62.7315 133.407 62.6946C133.799 62.6491 134.118 62.6122 134.362 62.5838C134.606 62.5526 134.784 62.5028 134.895 62.4347C135.005 62.3665 135.061 62.2557 135.061 62.1023V62.0724C135.061 61.7003 134.956 61.4119 134.745 61.2074C134.538 61.0028 134.228 60.9006 133.816 60.9006C133.387 60.9006 133.049 60.9957 132.802 61.1861C132.558 61.3736 132.389 61.5824 132.295 61.8125L131.098 61.5398C131.24 61.142 131.447 60.821 131.72 60.5767C131.995 60.3295 132.312 60.1506 132.67 60.0398C133.028 59.9261 133.404 59.8693 133.799 59.8693C134.061 59.8693 134.338 59.9006 134.63 59.9631C134.926 60.0227 135.201 60.1335 135.457 60.2955C135.716 60.4574 135.927 60.6889 136.092 60.9901C136.257 61.2884 136.339 61.6761 136.339 62.1534V66.5H135.095V65.6051H135.044C134.961 65.7699 134.838 65.9318 134.673 66.0909C134.508 66.25 134.297 66.3821 134.038 66.4872C133.779 66.5923 133.47 66.6449 133.109 66.6449ZM133.386 65.6222C133.738 65.6222 134.039 65.5526 134.289 65.4134C134.542 65.2741 134.734 65.0923 134.865 64.8679C134.998 64.6406 135.065 64.3977 135.065 64.1392V63.2955C135.02 63.3409 134.931 63.3835 134.801 63.4233C134.673 63.4602 134.527 63.4929 134.362 63.5213C134.197 63.5469 134.037 63.571 133.88 63.5938C133.724 63.6136 133.593 63.6307 133.488 63.6449C133.241 63.6761 133.015 63.7287 132.811 63.8026C132.609 63.8764 132.447 63.983 132.325 64.1222C132.206 64.2585 132.146 64.4403 132.146 64.6676C132.146 64.983 132.262 65.2216 132.495 65.3835C132.728 65.5426 133.025 65.6222 133.386 65.6222ZM141.092 59.9545V60.9773H137.516V59.9545H141.092ZM138.475 58.3864H139.749V64.5781C139.749 64.8253 139.786 65.0114 139.86 65.1364C139.934 65.2585 140.029 65.3423 140.146 65.3878C140.265 65.4304 140.394 65.4517 140.533 65.4517C140.636 65.4517 140.725 65.4446 140.802 65.4304C140.879 65.4162 140.938 65.4048 140.981 65.3963L141.211 66.4489C141.137 66.4773 141.032 66.5057 140.896 66.5341C140.759 66.5653 140.589 66.5824 140.384 66.5852C140.049 66.5909 139.737 66.5312 139.447 66.4062C139.157 66.2812 138.923 66.0881 138.744 65.8267C138.565 65.5653 138.475 65.2372 138.475 64.8423V58.3864ZM142.501 66.5V59.9545H143.775V66.5H142.501ZM143.145 58.9446C142.923 58.9446 142.733 58.8707 142.574 58.723C142.417 58.5724 142.339 58.3935 142.339 58.1861C142.339 57.9759 142.417 57.7969 142.574 57.6491C142.733 57.4986 142.923 57.4233 143.145 57.4233C143.366 57.4233 143.555 57.4986 143.711 57.6491C143.87 57.7969 143.95 57.9759 143.95 58.1861C143.95 58.3935 143.87 58.5724 143.711 58.723C143.555 58.8707 143.366 58.9446 143.145 58.9446ZM148.246 66.6321C147.633 66.6321 147.097 66.4915 146.64 66.2102C146.183 65.929 145.827 65.5355 145.575 65.0298C145.322 64.5241 145.195 63.9332 145.195 63.2571C145.195 62.5781 145.322 61.9844 145.575 61.4759C145.827 60.9673 146.183 60.5724 146.64 60.2912C147.097 60.0099 147.633 59.8693 148.246 59.8693C148.86 59.8693 149.396 60.0099 149.853 60.2912C150.31 60.5724 150.665 60.9673 150.918 61.4759C151.171 61.9844 151.298 62.5781 151.298 63.2571C151.298 63.9332 151.171 64.5241 150.918 65.0298C150.665 65.5355 150.31 65.929 149.853 66.2102C149.396 66.4915 148.86 66.6321 148.246 66.6321ZM148.251 65.5625C148.648 65.5625 148.978 65.4574 149.239 65.2472C149.501 65.0369 149.694 64.7571 149.819 64.4077C149.947 64.0582 150.011 63.6733 150.011 63.2528C150.011 62.8352 149.947 62.4517 149.819 62.1023C149.694 61.75 149.501 61.4673 149.239 61.2543C148.978 61.0412 148.648 60.9347 148.251 60.9347C147.85 60.9347 147.518 61.0412 147.254 61.2543C146.992 61.4673 146.798 61.75 146.67 62.1023C146.545 62.4517 146.482 62.8352 146.482 63.2528C146.482 63.6733 146.545 64.0582 146.67 64.4077C146.798 64.7571 146.992 65.0369 147.254 65.2472C147.518 65.4574 147.85 65.5625 148.251 65.5625ZM153.994 62.6136V66.5H152.72V59.9545H153.943V61.0199H154.024C154.174 60.6733 154.41 60.3949 154.731 60.1847C155.055 59.9744 155.463 59.8693 155.954 59.8693C156.4 59.8693 156.791 59.9631 157.126 60.1506C157.461 60.3352 157.721 60.6108 157.906 60.9773C158.091 61.3437 158.183 61.7969 158.183 62.3366V66.5H156.909V62.4901C156.909 62.0156 156.785 61.6449 156.538 61.3778C156.291 61.108 155.951 60.973 155.52 60.973C155.224 60.973 154.961 61.0369 154.731 61.1648C154.504 61.2926 154.324 61.4801 154.19 61.7273C154.059 61.9716 153.994 62.267 153.994 62.6136ZM163.907 66.581C163.674 66.581 163.474 66.4986 163.306 66.3338C163.138 66.1662 163.055 65.9645 163.055 65.7287C163.055 65.4957 163.138 65.2969 163.306 65.1321C163.474 64.9645 163.674 64.8807 163.907 64.8807C164.14 64.8807 164.34 64.9645 164.508 65.1321C164.675 65.2969 164.759 65.4957 164.759 65.7287C164.759 65.8849 164.719 66.0284 164.64 66.1591C164.563 66.2869 164.461 66.3892 164.333 66.4659C164.205 66.5426 164.063 66.581 163.907 66.581ZM167.305 66.581C167.072 66.581 166.872 66.4986 166.705 66.3338C166.537 66.1662 166.453 65.9645 166.453 65.7287C166.453 65.4957 166.537 65.2969 166.705 65.1321C166.872 64.9645 167.072 64.8807 167.305 64.8807C167.538 64.8807 167.739 64.9645 167.906 65.1321C168.074 65.2969 168.158 65.4957 168.158 65.7287C168.158 65.8849 168.118 66.0284 168.038 66.1591C167.962 66.2869 167.859 66.3892 167.732 66.4659C167.604 66.5426 167.462 66.581 167.305 66.581ZM170.704 66.581C170.471 66.581 170.271 66.4986 170.103 66.3338C169.935 66.1662 169.852 65.9645 169.852 65.7287C169.852 65.4957 169.935 65.2969 170.103 65.1321C170.271 64.9645 170.471 64.8807 170.704 64.8807C170.937 64.8807 171.137 64.9645 171.305 65.1321C171.472 65.2969 171.556 65.4957 171.556 65.7287C171.556 65.8849 171.516 66.0284 171.437 66.1591C171.36 66.2869 171.258 66.3892 171.13 66.4659C171.002 66.5426 170.86 66.581 170.704 66.581Z" fill="#64748A" fill-opacity="0.6"/>
<rect x="15" y="45" width="237" height="34" stroke="#06B6D4" stroke-width="2" shape-rendering="crispEdges"/>
</g>
</g>
</g>
<defs>
<filter id="filter0_d_565_10751" x="-2.66667" y="34" width="272.333" height="69.3333" filterUnits="userSpaceOnUse" color-interpolation-filters="sRGB">
<feFlood flood-opacity="0" result="BackgroundImageFix"/>
<feColorMatrix in="SourceAlpha" type="matrix" values="0 0 0 0 0 0 0 0 0 0 0 0 0 0 0 0 0 0 127 0" result="hardAlpha"/>
<feOffset dy="6.66667"/>
<feGaussianBlur stdDeviation="8.33333"/>
<feComposite in2="hardAlpha" operator="out"/>
<feColorMatrix type="matrix" values="0 0 0 0 0 0 0 0 0 0 0 0 0 0 0 0 0 0 0.05 0"/>
<feBlend mode="normal" in2="BackgroundImageFix" result="effect1_dropShadow_565_10751"/>
<feBlend mode="normal" in="SourceGraphic" in2="effect1_dropShadow_565_10751" result="shape"/>
</filter>
<filter id="filter1_d_565_10751" x="-6" y="28" width="279" height="76" filterUnits="userSpaceOnUse" color-interpolation-filters="sRGB">
<feFlood flood-opacity="0" result="BackgroundImageFix"/>
<feColorMatrix in="SourceAlpha" type="matrix" values="0 0 0 0 0 0 0 0 0 0 0 0 0 0 0 0 0 0 127 0" result="hardAlpha"/>
<feOffset dy="4"/>
<feGaussianBlur stdDeviation="10"/>
<feComposite in2="hardAlpha" operator="out"/>
<feColorMatrix type="matrix" values="0 0 0 0 0.0235294 0 0 0 0 0.713726 0 0 0 0 0.831373 0 0 0 0.2 0"/>
<feBlend mode="normal" in2="BackgroundImageFix" result="effect1_dropShadow_565_10751"/>
<feBlend mode="normal" in="SourceGraphic" in2="effect1_dropShadow_565_10751" result="shape"/>
</filter>
<clipPath id="clip0_565_10751">
<rect width="268" height="123" fill="white"/>
</clipPath>
</defs>
</svg>
