<svg width="32" height="32" viewBox="0 0 32 32" fill="none" xmlns="http://www.w3.org/2000/svg">
<path fill-rule="evenodd" clip-rule="evenodd" d="M20.2122 14.3695C20.0476 14.5491 19.8577 14.7207 19.6426 14.882C18.746 15.5545 17.4614 16 16 16C14.5386 16 13.254 15.5545 12.3574 14.882C11.461 14.2097 11 13.3573 11 12.5C11 12.1857 11.062 11.872 11.1846 11.5676L12.1439 11.8374C12.3413 11.8929 12.4575 12.0968 12.4047 12.295L12.2187 12.9925C12.1665 13.1883 12.2792 13.3901 12.4733 13.4483L13.7994 13.8461C13.9241 13.8835 14.0204 13.9829 14.054 14.1087L14.3415 15.1871C14.3632 15.2684 14.4116 15.34 14.4789 15.3905L14.7938 15.6267C14.9712 15.7597 15.2246 15.7107 15.3395 15.5211L16.7193 13.2445C16.8551 13.0204 16.7252 12.7298 16.4677 12.6815L15.5859 12.5162C15.5294 12.5056 15.4761 12.4821 15.43 12.4476L14.475 11.7313C14.4101 11.6826 14.3311 11.6563 14.25 11.6563H13.4507C13.3253 11.6563 13.2082 11.5937 13.1387 11.4893L12.7862 10.9606C12.6449 10.7487 12.7515 10.4606 12.9967 10.3916L15.105 9.79866C15.3172 9.73899 15.4324 9.51011 15.3539 9.30416L15.2531 9.03944C15.4959 9.01353 15.7453 9 16 9C16.1501 9 16.2983 9.0047 16.4444 9.01386C16.4815 9.11258 16.5596 9.19428 16.664 9.23343L16.9977 9.3586C17.08 9.38943 17.1704 9.39043 17.2533 9.36142L17.5709 9.25027C17.6064 9.23785 17.638 9.22166 17.6658 9.20249C18.4331 9.39565 19.1071 9.71635 19.6426 10.118C19.6446 10.1195 19.6465 10.1209 19.6484 10.1223L18.734 9.98517C18.6628 9.9745 18.5901 9.98452 18.5245 10.0141L17.1537 10.6309C16.9424 10.726 16.867 10.9881 16.9956 11.1809L17.7637 12.3331C17.8332 12.4374 17.9503 12.5001 18.0757 12.5001H19.2416C19.3972 12.5001 19.5366 12.5962 19.592 12.7416L20.2122 14.3695ZM22 12.5C22 14.9853 19.3137 17 16 17C12.6863 17 10 14.9853 10 12.5C10 10.0147 12.6863 8 16 8C19.3137 8 22 10.0147 22 12.5Z" fill="black" fill-opacity="0.8"/>
<path d="M16 24V18M16 18L14 20.1818M16 18L18 20.1818" stroke="black" stroke-opacity="0.8"/>
</svg>
