<svg width="32" height="32" viewBox="0 0 32 32" fill="none" xmlns="http://www.w3.org/2000/svg">
<path fill-rule="evenodd" clip-rule="evenodd" d="M11.5 16C11.5 16.8284 10.8284 17.5 10 17.5C9.17157 17.5 8.5 16.8284 8.5 16C8.5 15.1716 9.17157 14.5 10 14.5C10.8284 14.5 11.5 15.1716 11.5 16ZM17.5 16C17.5 16.8284 16.8284 17.5 16 17.5C15.1716 17.5 14.5 16.8284 14.5 16C14.5 15.1716 15.1716 14.5 16 14.5C16.8284 14.5 17.5 15.1716 17.5 16ZM22 17.5C22.8284 17.5 23.5 16.8284 23.5 16C23.5 15.1716 22.8284 14.5 22 14.5C21.1716 14.5 20.5 15.1716 20.5 16C20.5 16.8284 21.1716 17.5 22 17.5Z" fill="black" fill-opacity="0.8"/>
</svg>
