<svg width="32" height="32" viewBox="0 0 32 32" fill="none" xmlns="http://www.w3.org/2000/svg">
<path fill-rule="evenodd" clip-rule="evenodd" d="M21.7907 19.9341C20.531 21.7847 18.4074 23 16 23C12.134 23 9 19.866 9 16C9 15.3818 9.08013 14.7824 9.23057 14.2115L11.0347 14.888C11.2069 14.9526 11.3068 15.1324 11.2708 15.3127L10.8945 17.1941C10.8591 17.3714 10.9551 17.5487 11.123 17.6158L13.1447 18.4246C13.2624 18.4716 13.3483 18.5749 13.3732 18.6992L13.8111 20.8887C13.8256 20.9613 13.8613 21.0279 13.9136 21.0803L14.4507 21.6174C14.6358 21.8025 14.9489 21.7457 15.0573 21.5074L17.1471 16.9098C17.244 16.6966 17.1239 16.4476 16.8966 16.3908L15.4341 16.0252C15.3682 16.0087 15.3079 15.9746 15.2599 15.9266L13.9432 14.6098C13.8728 14.5395 13.7775 14.5 13.678 14.5H12.5651C12.4231 14.5 12.2932 14.4197 12.2297 14.2927L11.5196 12.8726C11.4201 12.6734 11.5149 12.4319 11.7234 12.3537L15.0094 11.1215C15.1924 11.0529 15.292 10.8552 15.2383 10.6673L14.7947 9.11477C14.7937 9.11113 14.7926 9.10752 14.7914 9.10395C15.184 9.03562 15.5879 9 16 9C16.2102 9 16.4182 9.00926 16.6237 9.02741C16.6207 9.04032 16.6183 9.05352 16.6166 9.06699L16.5329 9.73673C16.5132 9.8945 16.5951 10.0475 16.7373 10.1187L17.3379 10.419C17.4403 10.4702 17.5605 10.4718 17.6642 10.4234L18.9642 9.8167C19.0175 9.79183 19.0606 9.75824 19.0939 9.71912C20.1371 10.234 21.0335 11.001 21.7035 11.9407L19.6422 11.5284C19.5507 11.5101 19.4557 11.5266 19.3757 11.5746L17.2978 12.8213C17.1297 12.9222 17.0677 13.1353 17.1553 13.3106L18.3964 15.7927C18.4599 15.9197 18.5897 16 18.7318 16H20.3838C20.5512 16 20.6984 16.111 20.7444 16.272L21.7907 19.9341ZM24 16C24 20.4183 20.4183 24 16 24C11.5817 24 8 20.4183 8 16C8 11.5817 11.5817 8 16 8C20.4183 8 24 11.5817 24 16Z" fill="black" fill-opacity="0.8"/>
</svg>
