<svg width="240" height="200" viewBox="0 0 240 200" fill="none" xmlns="http://www.w3.org/2000/svg">
<rect x="67" y="19" width="87.5065" height="27.013" rx="9.40631" fill="#CFFAFE"/>
<path d="M78.5773 38.6576C77.8579 38.6576 77.214 38.5227 76.6456 38.2529C76.0772 37.9795 75.6258 37.6054 75.2912 37.1305C74.9603 36.6557 74.784 36.1125 74.7624 35.501H76.705C76.7409 35.9542 76.937 36.3247 77.2931 36.6125C77.6492 36.8967 78.0773 37.0388 78.5773 37.0388C78.9694 37.0388 79.3184 36.9489 79.6241 36.769C79.9299 36.5891 80.1709 36.3391 80.3472 36.019C80.5235 35.6988 80.6098 35.3337 80.6062 34.9236C80.6098 34.5063 80.5217 34.1358 80.3418 33.8121C80.1619 33.4883 79.9155 33.2347 79.6026 33.0512C79.2896 32.8642 78.9299 32.7706 78.5234 32.7706C78.1924 32.767 77.8669 32.8282 77.5467 32.9541C77.2266 33.08 76.973 33.2455 76.7859 33.4505L74.9783 33.1538L75.5556 27.4557H81.966V29.1284H77.2122L76.8938 32.0584H76.9586C77.1636 31.8174 77.4532 31.6177 77.8273 31.4594C78.2014 31.2976 78.6115 31.2166 79.0576 31.2166C79.7267 31.2166 80.3238 31.3749 80.849 31.6915C81.3742 32.0044 81.7879 32.4361 82.0901 32.9865C82.3922 33.5369 82.5433 34.1664 82.5433 34.875C82.5433 35.6053 82.3742 36.2564 82.0361 36.8284C81.7016 37.3967 81.2357 37.8446 80.6386 38.1719C80.045 38.4957 79.3579 38.6576 78.5773 38.6576ZM91.149 38.6683C90.3216 38.6683 89.6112 38.4867 89.0176 38.1234C88.4277 37.76 87.9726 37.2582 87.6525 36.6179C87.3359 35.974 87.1776 35.233 87.1776 34.3948C87.1776 33.553 87.3395 32.8102 87.6632 32.1663C87.987 31.5188 88.4439 31.0152 89.0338 30.6555C89.6273 30.2921 90.3288 30.1105 91.1382 30.1105C91.8109 30.1105 92.4062 30.2346 92.9242 30.4828C93.4458 30.7274 93.8613 31.0745 94.1707 31.5242C94.48 31.9703 94.6563 32.4919 94.6995 33.089H92.8325C92.757 32.6897 92.5771 32.357 92.2929 32.0908C92.0123 31.821 91.6364 31.6861 91.1652 31.6861C90.7659 31.6861 90.4151 31.794 90.113 32.0098C89.8108 32.2221 89.5752 32.5278 89.4061 32.9271C89.2406 33.3264 89.1579 33.8049 89.1579 34.3624C89.1579 34.9272 89.2406 35.4128 89.4061 35.8193C89.5716 36.2222 89.8036 36.5334 90.1022 36.7528C90.4044 36.9686 90.7587 37.0766 91.1652 37.0766C91.453 37.0766 91.7102 37.0226 91.9368 36.9147C92.167 36.8032 92.3595 36.6431 92.5141 36.4345C92.6688 36.2258 92.7749 35.9722 92.8325 35.6736H94.6995C94.6527 36.26 94.48 36.7798 94.1815 37.233C93.8829 37.6827 93.4764 38.0352 92.962 38.2906C92.4476 38.5424 91.8433 38.6683 91.149 38.6683ZM97.9528 33.6502V38.5065H95.9995V27.4557H97.9097V31.6267H98.0068C98.201 31.1591 98.5014 30.7904 98.9079 30.5206C99.318 30.2472 99.8396 30.1105 100.473 30.1105C101.048 30.1105 101.55 30.231 101.978 30.472C102.406 30.713 102.737 31.0655 102.971 31.5296C103.208 31.9936 103.327 32.5602 103.327 33.2293V38.5065H101.374V33.5315C101.374 32.9739 101.23 32.5404 100.942 32.2311C100.658 31.9181 100.259 31.7616 99.7443 31.7616C99.3989 31.7616 99.0896 31.8372 98.8162 31.9882C98.5464 32.1357 98.3341 32.3498 98.1794 32.6304C98.0284 32.9109 97.9528 33.2509 97.9528 33.6502ZM107.399 38.6737C106.874 38.6737 106.401 38.5802 105.98 38.3932C105.563 38.2025 105.232 37.9219 104.987 37.5514C104.746 37.1809 104.626 36.724 104.626 36.1808C104.626 35.7132 104.712 35.3265 104.885 35.0207C105.057 34.715 105.293 34.4703 105.592 34.2869C105.89 34.1034 106.227 33.9649 106.601 33.8714C106.978 33.7743 107.369 33.7041 107.772 33.661C108.257 33.6106 108.651 33.5656 108.953 33.5261C109.255 33.4829 109.475 33.4182 109.612 33.3318C109.752 33.2419 109.822 33.1034 109.822 32.9163V32.884C109.822 32.4775 109.702 32.1627 109.461 31.9397C109.219 31.7167 108.872 31.6051 108.419 31.6051C107.941 31.6051 107.561 31.7095 107.281 31.9181C107.004 32.1267 106.817 32.3731 106.719 32.6573L104.896 32.3983C105.039 31.8947 105.277 31.4738 105.608 31.1357C105.939 30.794 106.343 30.5385 106.822 30.3695C107.3 30.1968 107.829 30.1105 108.408 30.1105C108.808 30.1105 109.205 30.1572 109.601 30.2508C109.997 30.3443 110.358 30.499 110.685 30.7148C111.013 30.9271 111.275 31.2166 111.473 31.5836C111.675 31.9505 111.775 32.4091 111.775 32.9595V38.5065H109.898V37.3679H109.833C109.714 37.5982 109.547 37.814 109.331 38.0154C109.119 38.2133 108.851 38.3734 108.527 38.4957C108.207 38.6144 107.831 38.6737 107.399 38.6737ZM107.906 37.2384C108.299 37.2384 108.639 37.1611 108.926 37.0064C109.214 36.8481 109.435 36.6395 109.59 36.3805C109.748 36.1215 109.827 35.8391 109.827 35.5333V34.5567C109.766 34.607 109.662 34.6538 109.514 34.697C109.371 34.7401 109.209 34.7779 109.029 34.8103C108.849 34.8427 108.671 34.8714 108.495 34.8966C108.318 34.9218 108.165 34.9434 108.036 34.9614C107.745 35.0009 107.484 35.0657 107.254 35.1556C107.023 35.2456 106.842 35.3715 106.709 35.5333C106.576 35.6916 106.509 35.8967 106.509 36.1485C106.509 36.5082 106.64 36.7798 106.903 36.9632C107.165 37.1467 107.5 37.2384 107.906 37.2384ZM115.389 33.6502V38.5065H113.436V30.2184H115.303V31.6267H115.4C115.59 31.1627 115.894 30.794 116.312 30.5206C116.732 30.2472 117.252 30.1105 117.871 30.1105C118.443 30.1105 118.941 30.2328 119.366 30.4774C119.794 30.722 120.125 31.0763 120.358 31.5404C120.596 32.0044 120.713 32.5674 120.709 33.2293V38.5065H118.756V33.5315C118.756 32.9775 118.612 32.544 118.324 32.2311C118.04 31.9181 117.646 31.7616 117.143 31.7616C116.801 31.7616 116.497 31.8372 116.231 31.9882C115.968 32.1357 115.761 32.3498 115.61 32.6304C115.463 32.9109 115.389 33.2509 115.389 33.6502ZM125.995 41.7872C125.294 41.7872 124.691 41.6918 124.188 41.5012C123.684 41.3141 123.28 41.0623 122.974 40.7458C122.668 40.4292 122.456 40.0785 122.337 39.6936L124.096 39.2673C124.175 39.4292 124.29 39.5892 124.441 39.7475C124.593 39.9094 124.796 40.0425 125.051 40.1468C125.31 40.2547 125.636 40.3087 126.028 40.3087C126.582 40.3087 127.04 40.1738 127.404 39.904C127.767 39.6378 127.949 39.1989 127.949 38.5874V37.0172H127.852C127.751 37.2187 127.603 37.4255 127.409 37.6377C127.219 37.85 126.965 38.028 126.648 38.1719C126.335 38.3158 125.941 38.3878 125.467 38.3878C124.83 38.3878 124.253 38.2385 123.735 37.9399C123.22 37.6377 122.81 37.1881 122.504 36.5909C122.202 35.9902 122.051 35.2384 122.051 34.3355C122.051 33.4253 122.202 32.6573 122.504 32.0314C122.81 31.4019 123.222 30.9253 123.74 30.6015C124.258 30.2742 124.835 30.1105 125.472 30.1105C125.958 30.1105 126.357 30.1932 126.67 30.3587C126.986 30.5206 127.238 30.7166 127.425 30.9468C127.612 31.1735 127.754 31.3875 127.852 31.5889H127.96V30.2184H129.886V38.6414C129.886 39.35 129.717 39.9364 129.379 40.4004C129.041 40.8645 128.578 41.2116 127.992 41.4418C127.406 41.6721 126.74 41.7872 125.995 41.7872ZM126.012 36.8553C126.425 36.8553 126.778 36.7546 127.069 36.5532C127.361 36.3517 127.582 36.0621 127.733 35.6844C127.884 35.3067 127.96 34.8535 127.96 34.3247C127.96 33.8031 127.884 33.3462 127.733 32.9541C127.585 32.562 127.366 32.258 127.075 32.0422C126.787 31.8228 126.433 31.7131 126.012 31.7131C125.576 31.7131 125.213 31.8264 124.922 32.053C124.63 32.2796 124.411 32.5908 124.263 32.9865C124.116 33.3786 124.042 33.8246 124.042 34.3247C124.042 34.8319 124.116 35.2761 124.263 35.6574C124.414 36.0352 124.636 36.3301 124.927 36.5424C125.222 36.751 125.584 36.8553 126.012 36.8553ZM135.253 38.6683C134.422 38.6683 133.704 38.4957 133.1 38.1503C132.499 37.8014 132.037 37.3086 131.713 36.6719C131.39 36.0316 131.228 35.2779 131.228 34.411C131.228 33.5584 131.39 32.8102 131.713 32.1663C132.041 31.5188 132.498 31.0152 133.084 30.6555C133.67 30.2921 134.359 30.1105 135.151 30.1105C135.661 30.1105 136.143 30.1932 136.597 30.3587C137.053 30.5206 137.456 30.7724 137.805 31.1141C138.158 31.4558 138.435 31.8911 138.636 32.4199C138.838 32.9451 138.938 33.571 138.938 34.2977V34.8966H132.145V33.58H137.066C137.062 33.2059 136.982 32.8732 136.823 32.5818C136.665 32.2868 136.444 32.0548 136.16 31.8857C135.879 31.7167 135.552 31.6321 135.177 31.6321C134.778 31.6321 134.427 31.7292 134.125 31.9235C133.823 32.1141 133.588 32.366 133.418 32.6789C133.253 32.9883 133.168 33.3282 133.165 33.6987V34.8481C133.165 35.3301 133.253 35.7438 133.429 36.0891C133.605 36.4309 133.852 36.6935 134.168 36.8769C134.485 37.0568 134.856 37.1467 135.28 37.1467C135.564 37.1467 135.821 37.1071 136.052 37.028C136.282 36.9453 136.482 36.8248 136.651 36.6665C136.82 36.5082 136.947 36.3121 137.034 36.0783L138.857 36.2834C138.742 36.7654 138.523 37.1863 138.199 37.546C137.879 37.9021 137.469 38.1791 136.969 38.377C136.469 38.5712 135.897 38.6683 135.253 38.6683ZM146.838 32.4091L145.057 32.6034C145.007 32.4235 144.918 32.2544 144.793 32.0962C144.67 31.9379 144.505 31.8102 144.296 31.7131C144.088 31.6159 143.832 31.5674 143.53 31.5674C143.123 31.5674 142.782 31.6555 142.505 31.8318C142.231 32.008 142.096 32.2365 142.1 32.517C142.096 32.7581 142.185 32.9541 142.364 33.1052C142.548 33.2563 142.85 33.3804 143.271 33.4775L144.685 33.7797C145.469 33.9487 146.052 34.2167 146.433 34.5837C146.818 34.9506 147.012 35.4308 147.016 36.0244C147.012 36.546 146.859 37.0064 146.557 37.4057C146.258 37.8014 145.843 38.1108 145.311 38.3338C144.778 38.5568 144.167 38.6683 143.476 38.6683C142.462 38.6683 141.645 38.4561 141.026 38.0316C140.408 37.6036 140.039 37.0082 139.92 36.2456L141.825 36.0621C141.911 36.4362 142.095 36.7186 142.375 36.9093C142.656 37.0999 143.021 37.1953 143.471 37.1953C143.935 37.1953 144.307 37.0999 144.588 36.9093C144.872 36.7186 145.014 36.483 145.014 36.2024C145.014 35.965 144.922 35.769 144.739 35.6143C144.559 35.4596 144.278 35.3409 143.897 35.2581L142.483 34.9614C141.688 34.7959 141.1 34.5171 140.719 34.125C140.337 33.7293 140.149 33.2293 140.152 32.625C140.149 32.1141 140.287 31.6717 140.568 31.2976C140.852 30.9199 141.246 30.6285 141.749 30.4234C142.257 30.2148 142.841 30.1105 143.503 30.1105C144.474 30.1105 145.239 30.3173 145.796 30.731C146.357 31.1447 146.705 31.7041 146.838 32.4091Z" fill="#08B5D6"/>
<path d="M50 178L50 33" stroke="#08B5D6" stroke-width="2"/>
<path d="M77 63L77 137.201C77 148.136 68.1356 157 57.2009 157L52 157" stroke="#8491A3" stroke-width="2"/>
<circle cx="49.8535" cy="157.853" r="4.65345" fill="#08B5D6" stroke="white" stroke-width="2.4"/>
<circle cx="49.8535" cy="32.8535" r="4.65345" fill="#08B5D6" stroke="white" stroke-width="2.4"/>
<path d="M105 97L105 106.201C105 117.136 96.1356 126 85.2009 126L78 126" stroke="#8491A3" stroke-width="2"/>
<path d="M105 101L105 82.7991C105 71.8644 96.1356 63 85.2009 63L78 63" stroke="#8491A3" stroke-width="2"/>
<circle cx="76.8534" cy="125.853" r="4.65345" fill="#8491A3" stroke="white" stroke-width="2.4"/>
<circle cx="76.8534" cy="62.8535" r="4.65345" fill="#8491A3" stroke="white" stroke-width="2.4"/>
<circle cx="104.853" cy="92.8534" r="4.65345" fill="#8491A3" stroke="white" stroke-width="2.4"/>
<rect x="123" y="79" width="87.5065" height="27.013" rx="9.40631" fill="#E6EBF2"/>
<path d="M130.735 98.5065V97.0604L134.572 93.2994C134.939 92.9289 135.245 92.5998 135.489 92.312C135.734 92.0242 135.917 91.7454 136.04 91.4756C136.162 91.2058 136.223 90.9181 136.223 90.6123C136.223 90.2634 136.144 89.9648 135.986 89.7166C135.827 89.4648 135.61 89.2705 135.333 89.1338C135.056 88.9971 134.741 88.9288 134.388 88.9288C134.025 88.9288 133.707 89.0043 133.433 89.1554C133.16 89.3029 132.948 89.5133 132.797 89.7867C132.649 90.0601 132.575 90.3857 132.575 90.7634H130.671C130.671 90.0619 130.831 89.4522 131.151 88.9342C131.471 88.4162 131.912 88.0151 132.473 87.7309C133.038 87.4467 133.685 87.3046 134.415 87.3046C135.156 87.3046 135.808 87.4431 136.369 87.7201C136.93 87.9971 137.365 88.3766 137.675 88.8586C137.988 89.3407 138.144 89.891 138.144 90.5098C138.144 90.9235 138.065 91.3299 137.907 91.7292C137.748 92.1285 137.47 92.571 137.07 93.0566C136.675 93.5423 136.119 94.1304 135.403 94.8211L133.498 96.7582V96.8337H138.311V98.5065H130.735ZM146.971 98.6683C146.144 98.6683 145.433 98.4867 144.84 98.1234C144.25 97.76 143.795 97.2582 143.474 96.6179C143.158 95.974 143 95.233 143 94.3948C143 93.553 143.161 92.8102 143.485 92.1663C143.809 91.5188 144.266 91.0152 144.856 90.6555C145.449 90.2921 146.151 90.1105 146.96 90.1105C147.633 90.1105 148.228 90.2346 148.746 90.4828C149.268 90.7274 149.683 91.0745 149.993 91.5242C150.302 91.9703 150.478 92.4919 150.521 93.089H148.654C148.579 92.6897 148.399 92.357 148.115 92.0908C147.834 91.821 147.458 91.6861 146.987 91.6861C146.588 91.6861 146.237 91.794 145.935 92.0098C145.633 92.2221 145.397 92.5278 145.228 92.9271C145.063 93.3264 144.98 93.8049 144.98 94.3624C144.98 94.9272 145.063 95.4128 145.228 95.8193C145.394 96.2222 145.626 96.5334 145.924 96.7528C146.226 96.9686 146.581 97.0766 146.987 97.0766C147.275 97.0766 147.532 97.0226 147.759 96.9147C147.989 96.8032 148.181 96.6431 148.336 96.4345C148.491 96.2258 148.597 95.9722 148.654 95.6736H150.521C150.475 96.26 150.302 96.7798 150.003 97.233C149.705 97.6827 149.298 98.0352 148.784 98.2906C148.27 98.5424 147.665 98.6683 146.971 98.6683ZM153.775 93.6502V98.5065H151.821V87.4557H153.732V91.6267H153.829C154.023 91.1591 154.323 90.7904 154.73 90.5206C155.14 90.2472 155.662 90.1105 156.295 90.1105C156.87 90.1105 157.372 90.231 157.8 90.472C158.228 90.713 158.559 91.0655 158.793 91.5296C159.03 91.9936 159.149 92.5602 159.149 93.2293V98.5065H157.196V93.5315C157.196 92.9739 157.052 92.5404 156.764 92.2311C156.48 91.9181 156.081 91.7616 155.566 91.7616C155.221 91.7616 154.911 91.8372 154.638 91.9882C154.368 92.1357 154.156 92.3498 154.001 92.6304C153.85 92.9109 153.775 93.2509 153.775 93.6502ZM163.221 98.6737C162.696 98.6737 162.223 98.5802 161.802 98.3932C161.385 98.2025 161.054 97.9219 160.809 97.5514C160.568 97.1809 160.448 96.724 160.448 96.1808C160.448 95.7132 160.534 95.3265 160.707 95.0207C160.879 94.715 161.115 94.4703 161.414 94.2869C161.712 94.1034 162.049 93.9649 162.423 93.8714C162.8 93.7743 163.191 93.7041 163.594 93.661C164.079 93.6106 164.473 93.5656 164.775 93.5261C165.077 93.4829 165.297 93.4182 165.434 93.3318C165.574 93.2419 165.644 93.1034 165.644 92.9163V92.884C165.644 92.4775 165.523 92.1627 165.282 91.9397C165.041 91.7167 164.694 91.6051 164.241 91.6051C163.763 91.6051 163.383 91.7095 163.103 91.9181C162.826 92.1267 162.638 92.3731 162.541 92.6573L160.718 92.3983C160.861 91.8947 161.099 91.4738 161.43 91.1357C161.761 90.794 162.165 90.5385 162.644 90.3695C163.122 90.1968 163.651 90.1105 164.23 90.1105C164.63 90.1105 165.027 90.1572 165.423 90.2508C165.818 90.3443 166.18 90.499 166.507 90.7148C166.835 90.9271 167.097 91.2166 167.295 91.5836C167.497 91.9505 167.597 92.4091 167.597 92.9595V98.5065H165.72V97.3679H165.655C165.536 97.5982 165.369 97.814 165.153 98.0154C164.941 98.2133 164.673 98.3734 164.349 98.4957C164.029 98.6144 163.653 98.6737 163.221 98.6737ZM163.728 97.2384C164.121 97.2384 164.46 97.1611 164.748 97.0064C165.036 96.8481 165.257 96.6395 165.412 96.3805C165.57 96.1215 165.649 95.8391 165.649 95.5333V94.5567C165.588 94.607 165.484 94.6538 165.336 94.697C165.193 94.7401 165.031 94.7779 164.851 94.8103C164.671 94.8427 164.493 94.8714 164.317 94.8966C164.14 94.9218 163.987 94.9434 163.858 94.9614C163.567 95.0009 163.306 95.0657 163.076 95.1556C162.845 95.2456 162.664 95.3715 162.531 95.5333C162.397 95.6916 162.331 95.8967 162.331 96.1485C162.331 96.5082 162.462 96.7798 162.725 96.9632C162.987 97.1467 163.322 97.2384 163.728 97.2384ZM171.211 93.6502V98.5065H169.257V90.2184H171.124V91.6267H171.222C171.412 91.1627 171.716 90.794 172.133 90.5206C172.554 90.2472 173.074 90.1105 173.693 90.1105C174.265 90.1105 174.763 90.2328 175.188 90.4774C175.616 90.722 175.947 91.0763 176.18 91.5404C176.418 92.0044 176.535 92.5674 176.531 93.2293V98.5065H174.578V93.5315C174.578 92.9775 174.434 92.544 174.146 92.2311C173.862 91.9181 173.468 91.7616 172.964 91.7616C172.623 91.7616 172.319 91.8372 172.053 91.9882C171.79 92.1357 171.583 92.3498 171.432 92.6304C171.285 92.9109 171.211 93.2509 171.211 93.6502ZM181.817 101.787C181.116 101.787 180.513 101.692 180.01 101.501C179.506 101.314 179.101 101.062 178.796 100.746C178.49 100.429 178.278 100.078 178.159 99.6936L179.918 99.2673C179.997 99.4292 180.112 99.5892 180.263 99.7475C180.414 99.9094 180.618 100.042 180.873 100.147C181.132 100.255 181.458 100.309 181.85 100.309C182.404 100.309 182.862 100.174 183.226 99.904C183.589 99.6378 183.771 99.1989 183.771 98.5874V97.0172H183.674C183.573 97.2187 183.425 97.4255 183.231 97.6377C183.04 97.85 182.787 98.028 182.47 98.1719C182.157 98.3158 181.763 98.3878 181.289 98.3878C180.652 98.3878 180.075 98.2385 179.556 97.9399C179.042 97.6377 178.632 97.1881 178.326 96.5909C178.024 95.9902 177.873 95.2384 177.873 94.3355C177.873 93.4253 178.024 92.6573 178.326 92.0314C178.632 91.4019 179.044 90.9253 179.562 90.6015C180.08 90.2742 180.657 90.1105 181.294 90.1105C181.78 90.1105 182.179 90.1932 182.492 90.3587C182.808 90.5206 183.06 90.7166 183.247 90.9468C183.434 91.1735 183.576 91.3875 183.674 91.5889H183.781V90.2184H185.708V98.6414C185.708 99.35 185.539 99.9364 185.201 100.4C184.862 100.864 184.4 101.212 183.814 101.442C183.227 101.672 182.562 101.787 181.817 101.787ZM181.834 96.8553C182.247 96.8553 182.6 96.7546 182.891 96.5532C183.183 96.3517 183.404 96.0621 183.555 95.6844C183.706 95.3067 183.781 94.8535 183.781 94.3247C183.781 93.8031 183.706 93.3462 183.555 92.9541C183.407 92.562 183.188 92.258 182.897 92.0422C182.609 91.8228 182.254 91.7131 181.834 91.7131C181.398 91.7131 181.035 91.8264 180.744 92.053C180.452 92.2796 180.233 92.5908 180.085 92.9865C179.938 93.3786 179.864 93.8246 179.864 94.3247C179.864 94.8319 179.938 95.2761 180.085 95.6574C180.236 96.0352 180.458 96.3301 180.749 96.5424C181.044 96.751 181.405 96.8553 181.834 96.8553ZM191.075 98.6683C190.244 98.6683 189.526 98.4957 188.922 98.1503C188.321 97.8014 187.859 97.3086 187.535 96.6719C187.212 96.0316 187.05 95.2779 187.05 94.411C187.05 93.5584 187.212 92.8102 187.535 92.1663C187.863 91.5188 188.319 91.0152 188.906 90.6555C189.492 90.2921 190.181 90.1105 190.972 90.1105C191.483 90.1105 191.965 90.1932 192.419 90.3587C192.875 90.5206 193.278 90.7724 193.627 91.1141C193.98 91.4558 194.257 91.8911 194.458 92.4199C194.66 92.9451 194.76 93.571 194.76 94.2977V94.8966H187.967V93.58H192.888C192.884 93.2059 192.803 92.8732 192.645 92.5818C192.487 92.2868 192.266 92.0548 191.981 91.8857C191.701 91.7167 191.374 91.6321 190.999 91.6321C190.6 91.6321 190.249 91.7292 189.947 91.9235C189.645 92.1141 189.409 92.366 189.24 92.6789C189.075 92.9883 188.99 93.3282 188.987 93.6987V94.8481C188.987 95.3301 189.075 95.7438 189.251 96.0891C189.427 96.4309 189.674 96.6935 189.99 96.8769C190.307 97.0568 190.677 97.1467 191.102 97.1467C191.386 97.1467 191.643 97.1071 191.874 97.028C192.104 96.9453 192.303 96.8248 192.473 96.6665C192.642 96.5082 192.769 96.3121 192.856 96.0783L194.679 96.2834C194.564 96.7654 194.345 97.1863 194.021 97.546C193.701 97.9021 193.291 98.1791 192.791 98.377C192.291 98.5712 191.719 98.6683 191.075 98.6683ZM202.66 92.4091L200.879 92.6034C200.829 92.4235 200.74 92.2544 200.615 92.0962C200.492 91.9379 200.327 91.8102 200.118 91.7131C199.909 91.6159 199.654 91.5674 199.352 91.5674C198.945 91.5674 198.604 91.6555 198.327 91.8318C198.053 92.008 197.918 92.2365 197.922 92.517C197.918 92.7581 198.007 92.9541 198.186 93.1052C198.37 93.2563 198.672 93.3804 199.093 93.4775L200.507 93.7797C201.291 93.9487 201.874 94.2167 202.255 94.5837C202.64 94.9506 202.834 95.4308 202.838 96.0244C202.834 96.546 202.681 97.0064 202.379 97.4057C202.08 97.8014 201.665 98.1108 201.133 98.3338C200.6 98.5568 199.989 98.6683 199.298 98.6683C198.283 98.6683 197.467 98.4561 196.848 98.0316C196.229 97.6036 195.861 97.0082 195.742 96.2456L197.647 96.0621C197.733 96.4362 197.917 96.7186 198.197 96.9093C198.478 97.0999 198.843 97.1953 199.293 97.1953C199.757 97.1953 200.129 97.0999 200.409 96.9093C200.694 96.7186 200.836 96.483 200.836 96.2024C200.836 95.965 200.744 95.769 200.561 95.6143C200.381 95.4596 200.1 95.3409 199.719 95.2581L198.305 94.9614C197.51 94.7959 196.922 94.5171 196.541 94.125C196.159 93.7293 195.97 93.2293 195.974 92.625C195.97 92.1141 196.109 91.6717 196.39 91.2976C196.674 90.9199 197.068 90.6285 197.571 90.4234C198.078 90.2148 198.663 90.1105 199.325 90.1105C200.296 90.1105 201.061 90.3173 201.618 90.731C202.179 91.1447 202.526 91.7041 202.66 92.4091Z" fill="#8491A3"/>
<rect x="29" y="109" width="176" height="71" fill="url(#paint0_linear_14_203)"/>
<defs>
<linearGradient id="paint0_linear_14_203" x1="117" y1="109" x2="117" y2="180" gradientUnits="userSpaceOnUse">
<stop stop-color="#F1F5F9" stop-opacity="0"/>
<stop offset="1" stop-color="#F1F5F9"/>
</linearGradient>
</defs>
</svg>
